<?xml version="1.0" encoding="utf-8" standalone="no"?>
<!DOCTYPE svg PUBLIC "-//W3C//DTD SVG 1.1//EN"
  "http://www.w3.org/Graphics/SVG/1.1/DTD/svg11.dtd">
<svg xmlns:xlink="http://www.w3.org/1999/xlink" width="1414.930827pt" height="701.151328pt" viewBox="0 0 1414.930827 701.151328" xmlns="http://www.w3.org/2000/svg" version="1.1">
 <metadata>
  <rdf:RDF xmlns:dc="http://purl.org/dc/elements/1.1/" xmlns:cc="http://creativecommons.org/ns#" xmlns:rdf="http://www.w3.org/1999/02/22-rdf-syntax-ns#">
   <cc:Work>
    <dc:type rdf:resource="http://purl.org/dc/dcmitype/StillImage"/>
    <dc:date>2025-01-07T14:41:13.615507</dc:date>
    <dc:format>image/svg+xml</dc:format>
    <dc:creator>
     <cc:Agent>
      <dc:title>Matplotlib v3.9.2, https://matplotlib.org/</dc:title>
     </cc:Agent>
    </dc:creator>
   </cc:Work>
  </rdf:RDF>
 </metadata>
 <defs>
  <style type="text/css">*{stroke-linejoin: round; stroke-linecap: butt}</style>
 </defs>
 <g id="figure_1">
  <g id="patch_1">
   <path d="M 0 701.151328 
L 1414.930827 701.151328 
L 1414.930827 0 
L 0 0 
z
" style="fill: #ffffff"/>
  </g>
  <g id="axes_1">
   <g id="patch_2">
    <path d="M 58.512656 314.7 
L 449.761533 314.7 
L 449.761533 69.36 
L 58.512656 69.36 
z
" style="fill: #ffffff"/>
   </g>
   <g id="matplotlib.axis_1">
    <g id="xtick_1">
     <g id="text_1">
      <!-- 0 -->
      <g style="fill: #262626" transform="translate(71.708923 339.010391) scale(0.165 -0.165)">
       <defs>
        <path id="ArialMT-30" d="M 266 2259 
Q 266 3072 433 3567 
Q 600 4063 929 4331 
Q 1259 4600 1759 4600 
Q 2128 4600 2406 4451 
Q 2684 4303 2865 4023 
Q 3047 3744 3150 3342 
Q 3253 2941 3253 2259 
Q 3253 1453 3087 958 
Q 2922 463 2592 192 
Q 2263 -78 1759 -78 
Q 1097 -78 719 397 
Q 266 969 266 2259 
z
M 844 2259 
Q 844 1131 1108 757 
Q 1372 384 1759 384 
Q 2147 384 2411 759 
Q 2675 1134 2675 2259 
Q 2675 3391 2411 3762 
Q 2147 4134 1753 4134 
Q 1366 4134 1134 3806 
Q 844 3388 844 2259 
z
" transform="scale(0.015625)"/>
       </defs>
       <use xlink:href="#ArialMT-30"/>
      </g>
     </g>
    </g>
    <g id="xtick_2">
     <g id="text_2">
      <!-- 10 -->
      <g style="fill: #262626" transform="translate(142.797915 339.010391) scale(0.165 -0.165)">
       <defs>
        <path id="ArialMT-31" d="M 2384 0 
L 1822 0 
L 1822 3584 
Q 1619 3391 1289 3197 
Q 959 3003 697 2906 
L 697 3450 
Q 1169 3672 1522 3987 
Q 1875 4303 2022 4600 
L 2384 4600 
L 2384 0 
z
" transform="scale(0.015625)"/>
       </defs>
       <use xlink:href="#ArialMT-31"/>
       <use xlink:href="#ArialMT-30" x="55.615234"/>
      </g>
     </g>
    </g>
    <g id="xtick_3">
     <g id="text_3">
      <!-- 20 -->
      <g style="fill: #262626" transform="translate(218.47468 339.010391) scale(0.165 -0.165)">
       <defs>
        <path id="ArialMT-32" d="M 3222 541 
L 3222 0 
L 194 0 
Q 188 203 259 391 
Q 375 700 629 1000 
Q 884 1300 1366 1694 
Q 2113 2306 2375 2664 
Q 2638 3022 2638 3341 
Q 2638 3675 2398 3904 
Q 2159 4134 1775 4134 
Q 1369 4134 1125 3890 
Q 881 3647 878 3216 
L 300 3275 
Q 359 3922 746 4261 
Q 1134 4600 1788 4600 
Q 2447 4600 2831 4234 
Q 3216 3869 3216 3328 
Q 3216 3053 3103 2787 
Q 2991 2522 2730 2228 
Q 2469 1934 1863 1422 
Q 1356 997 1212 845 
Q 1069 694 975 541 
L 3222 541 
z
" transform="scale(0.015625)"/>
       </defs>
       <use xlink:href="#ArialMT-32"/>
       <use xlink:href="#ArialMT-30" x="55.615234"/>
      </g>
     </g>
    </g>
    <g id="xtick_4">
     <g id="text_4">
      <!-- 30 -->
      <g style="fill: #262626" transform="translate(294.151445 339.010391) scale(0.165 -0.165)">
       <defs>
        <path id="ArialMT-33" d="M 269 1209 
L 831 1284 
Q 928 806 1161 595 
Q 1394 384 1728 384 
Q 2125 384 2398 659 
Q 2672 934 2672 1341 
Q 2672 1728 2419 1979 
Q 2166 2231 1775 2231 
Q 1616 2231 1378 2169 
L 1441 2663 
Q 1497 2656 1531 2656 
Q 1891 2656 2178 2843 
Q 2466 3031 2466 3422 
Q 2466 3731 2256 3934 
Q 2047 4138 1716 4138 
Q 1388 4138 1169 3931 
Q 950 3725 888 3313 
L 325 3413 
Q 428 3978 793 4289 
Q 1159 4600 1703 4600 
Q 2078 4600 2393 4439 
Q 2709 4278 2876 4000 
Q 3044 3722 3044 3409 
Q 3044 3113 2884 2869 
Q 2725 2625 2413 2481 
Q 2819 2388 3044 2092 
Q 3269 1797 3269 1353 
Q 3269 753 2831 336 
Q 2394 -81 1725 -81 
Q 1122 -81 723 278 
Q 325 638 269 1209 
z
" transform="scale(0.015625)"/>
       </defs>
       <use xlink:href="#ArialMT-33"/>
       <use xlink:href="#ArialMT-30" x="55.615234"/>
      </g>
     </g>
    </g>
    <g id="xtick_5">
     <g id="text_5">
      <!-- 40 -->
      <g style="fill: #262626" transform="translate(369.828211 339.010391) scale(0.165 -0.165)">
       <defs>
        <path id="ArialMT-34" d="M 2069 0 
L 2069 1097 
L 81 1097 
L 81 1613 
L 2172 4581 
L 2631 4581 
L 2631 1613 
L 3250 1613 
L 3250 1097 
L 2631 1097 
L 2631 0 
L 2069 0 
z
M 2069 1613 
L 2069 3678 
L 634 1613 
L 2069 1613 
z
" transform="scale(0.015625)"/>
       </defs>
       <use xlink:href="#ArialMT-34"/>
       <use xlink:href="#ArialMT-30" x="55.615234"/>
      </g>
     </g>
    </g>
    <g id="text_6">
     <!-- Week Index -->
     <g style="fill: #262626" transform="translate(206.774595 359.173828) scale(0.18 -0.18)">
      <defs>
       <path id="ArialMT-57" d="M 1294 0 
L 78 4581 
L 700 4581 
L 1397 1578 
Q 1509 1106 1591 641 
Q 1766 1375 1797 1488 
L 2669 4581 
L 3400 4581 
L 4056 2263 
Q 4303 1400 4413 641 
Q 4500 1075 4641 1638 
L 5359 4581 
L 5969 4581 
L 4713 0 
L 4128 0 
L 3163 3491 
Q 3041 3928 3019 4028 
Q 2947 3713 2884 3491 
L 1913 0 
L 1294 0 
z
" transform="scale(0.015625)"/>
       <path id="ArialMT-65" d="M 2694 1069 
L 3275 997 
Q 3138 488 2766 206 
Q 2394 -75 1816 -75 
Q 1088 -75 661 373 
Q 234 822 234 1631 
Q 234 2469 665 2931 
Q 1097 3394 1784 3394 
Q 2450 3394 2872 2941 
Q 3294 2488 3294 1666 
Q 3294 1616 3291 1516 
L 816 1516 
Q 847 969 1125 678 
Q 1403 388 1819 388 
Q 2128 388 2347 550 
Q 2566 713 2694 1069 
z
M 847 1978 
L 2700 1978 
Q 2663 2397 2488 2606 
Q 2219 2931 1791 2931 
Q 1403 2931 1139 2672 
Q 875 2413 847 1978 
z
" transform="scale(0.015625)"/>
       <path id="ArialMT-6b" d="M 425 0 
L 425 4581 
L 988 4581 
L 988 1969 
L 2319 3319 
L 3047 3319 
L 1778 2088 
L 3175 0 
L 2481 0 
L 1384 1697 
L 988 1316 
L 988 0 
L 425 0 
z
" transform="scale(0.015625)"/>
       <path id="ArialMT-20" transform="scale(0.015625)"/>
       <path id="ArialMT-49" d="M 597 0 
L 597 4581 
L 1203 4581 
L 1203 0 
L 597 0 
z
" transform="scale(0.015625)"/>
       <path id="ArialMT-6e" d="M 422 0 
L 422 3319 
L 928 3319 
L 928 2847 
Q 1294 3394 1984 3394 
Q 2284 3394 2536 3286 
Q 2788 3178 2913 3003 
Q 3038 2828 3088 2588 
Q 3119 2431 3119 2041 
L 3119 0 
L 2556 0 
L 2556 2019 
Q 2556 2363 2490 2533 
Q 2425 2703 2258 2804 
Q 2091 2906 1866 2906 
Q 1506 2906 1245 2678 
Q 984 2450 984 1813 
L 984 0 
L 422 0 
z
" transform="scale(0.015625)"/>
       <path id="ArialMT-64" d="M 2575 0 
L 2575 419 
Q 2259 -75 1647 -75 
Q 1250 -75 917 144 
Q 584 363 401 755 
Q 219 1147 219 1656 
Q 219 2153 384 2558 
Q 550 2963 881 3178 
Q 1213 3394 1622 3394 
Q 1922 3394 2156 3267 
Q 2391 3141 2538 2938 
L 2538 4581 
L 3097 4581 
L 3097 0 
L 2575 0 
z
M 797 1656 
Q 797 1019 1065 703 
Q 1334 388 1700 388 
Q 2069 388 2326 689 
Q 2584 991 2584 1609 
Q 2584 2291 2321 2609 
Q 2059 2928 1675 2928 
Q 1300 2928 1048 2622 
Q 797 2316 797 1656 
z
" transform="scale(0.015625)"/>
       <path id="ArialMT-78" d="M 47 0 
L 1259 1725 
L 138 3319 
L 841 3319 
L 1350 2541 
Q 1494 2319 1581 2169 
Q 1719 2375 1834 2534 
L 2394 3319 
L 3066 3319 
L 1919 1756 
L 3153 0 
L 2463 0 
L 1781 1031 
L 1600 1309 
L 728 0 
L 47 0 
z
" transform="scale(0.015625)"/>
      </defs>
      <use xlink:href="#ArialMT-57"/>
      <use xlink:href="#ArialMT-65" x="92.634766"/>
      <use xlink:href="#ArialMT-65" x="148.25"/>
      <use xlink:href="#ArialMT-6b" x="203.865234"/>
      <use xlink:href="#ArialMT-20" x="253.865234"/>
      <use xlink:href="#ArialMT-49" x="281.648438"/>
      <use xlink:href="#ArialMT-6e" x="309.431641"/>
      <use xlink:href="#ArialMT-64" x="365.046875"/>
      <use xlink:href="#ArialMT-65" x="420.662109"/>
      <use xlink:href="#ArialMT-78" x="476.277344"/>
     </g>
    </g>
   </g>
   <g id="matplotlib.axis_2">
    <g id="ytick_1">
     <g id="text_7">
      <!-- 0 -->
      <g style="fill: #262626" transform="translate(36.837109 309.453377) scale(0.165 -0.165)">
       <use xlink:href="#ArialMT-30"/>
      </g>
     </g>
    </g>
    <g id="ytick_2">
     <g id="text_8">
      <!-- 1 -->
      <g style="fill: #262626" transform="translate(36.837109 264.846104) scale(0.165 -0.165)">
       <use xlink:href="#ArialMT-31"/>
      </g>
     </g>
    </g>
    <g id="ytick_3">
     <g id="text_9">
      <!-- 2 -->
      <g style="fill: #262626" transform="translate(36.837109 220.238832) scale(0.165 -0.165)">
       <use xlink:href="#ArialMT-32"/>
      </g>
     </g>
    </g>
    <g id="ytick_4">
     <g id="text_10">
      <!-- 3 -->
      <g style="fill: #262626" transform="translate(36.837109 175.631559) scale(0.165 -0.165)">
       <use xlink:href="#ArialMT-33"/>
      </g>
     </g>
    </g>
    <g id="ytick_5">
     <g id="text_11">
      <!-- 4 -->
      <g style="fill: #262626" transform="translate(36.837109 131.024286) scale(0.165 -0.165)">
       <use xlink:href="#ArialMT-34"/>
      </g>
     </g>
    </g>
    <g id="ytick_6">
     <g id="text_12">
      <!-- 5 -->
      <g style="fill: #262626" transform="translate(36.837109 86.417013) scale(0.165 -0.165)">
       <defs>
        <path id="ArialMT-35" d="M 266 1200 
L 856 1250 
Q 922 819 1161 601 
Q 1400 384 1738 384 
Q 2144 384 2425 690 
Q 2706 997 2706 1503 
Q 2706 1984 2436 2262 
Q 2166 2541 1728 2541 
Q 1456 2541 1237 2417 
Q 1019 2294 894 2097 
L 366 2166 
L 809 4519 
L 3088 4519 
L 3088 3981 
L 1259 3981 
L 1013 2750 
Q 1425 3038 1878 3038 
Q 2478 3038 2890 2622 
Q 3303 2206 3303 1553 
Q 3303 931 2941 478 
Q 2500 -78 1738 -78 
Q 1113 -78 717 272 
Q 322 622 266 1200 
z
" transform="scale(0.015625)"/>
       </defs>
       <use xlink:href="#ArialMT-35"/>
      </g>
     </g>
    </g>
    <g id="text_13">
     <!-- Number of cases -->
     <g style="fill: #262626" transform="translate(29.259609 260.053125) rotate(-90) scale(0.18 -0.18)">
      <defs>
       <path id="ArialMT-4e" d="M 488 0 
L 488 4581 
L 1109 4581 
L 3516 984 
L 3516 4581 
L 4097 4581 
L 4097 0 
L 3475 0 
L 1069 3600 
L 1069 0 
L 488 0 
z
" transform="scale(0.015625)"/>
       <path id="ArialMT-75" d="M 2597 0 
L 2597 488 
Q 2209 -75 1544 -75 
Q 1250 -75 995 37 
Q 741 150 617 320 
Q 494 491 444 738 
Q 409 903 409 1263 
L 409 3319 
L 972 3319 
L 972 1478 
Q 972 1038 1006 884 
Q 1059 663 1231 536 
Q 1403 409 1656 409 
Q 1909 409 2131 539 
Q 2353 669 2445 892 
Q 2538 1116 2538 1541 
L 2538 3319 
L 3100 3319 
L 3100 0 
L 2597 0 
z
" transform="scale(0.015625)"/>
       <path id="ArialMT-6d" d="M 422 0 
L 422 3319 
L 925 3319 
L 925 2853 
Q 1081 3097 1340 3245 
Q 1600 3394 1931 3394 
Q 2300 3394 2536 3241 
Q 2772 3088 2869 2813 
Q 3263 3394 3894 3394 
Q 4388 3394 4653 3120 
Q 4919 2847 4919 2278 
L 4919 0 
L 4359 0 
L 4359 2091 
Q 4359 2428 4304 2576 
Q 4250 2725 4106 2815 
Q 3963 2906 3769 2906 
Q 3419 2906 3187 2673 
Q 2956 2441 2956 1928 
L 2956 0 
L 2394 0 
L 2394 2156 
Q 2394 2531 2256 2718 
Q 2119 2906 1806 2906 
Q 1569 2906 1367 2781 
Q 1166 2656 1075 2415 
Q 984 2175 984 1722 
L 984 0 
L 422 0 
z
" transform="scale(0.015625)"/>
       <path id="ArialMT-62" d="M 941 0 
L 419 0 
L 419 4581 
L 981 4581 
L 981 2947 
Q 1338 3394 1891 3394 
Q 2197 3394 2470 3270 
Q 2744 3147 2920 2923 
Q 3097 2700 3197 2384 
Q 3297 2069 3297 1709 
Q 3297 856 2875 390 
Q 2453 -75 1863 -75 
Q 1275 -75 941 416 
L 941 0 
z
M 934 1684 
Q 934 1088 1097 822 
Q 1363 388 1816 388 
Q 2184 388 2453 708 
Q 2722 1028 2722 1663 
Q 2722 2313 2464 2622 
Q 2206 2931 1841 2931 
Q 1472 2931 1203 2611 
Q 934 2291 934 1684 
z
" transform="scale(0.015625)"/>
       <path id="ArialMT-72" d="M 416 0 
L 416 3319 
L 922 3319 
L 922 2816 
Q 1116 3169 1280 3281 
Q 1444 3394 1641 3394 
Q 1925 3394 2219 3213 
L 2025 2691 
Q 1819 2813 1613 2813 
Q 1428 2813 1281 2702 
Q 1134 2591 1072 2394 
Q 978 2094 978 1738 
L 978 0 
L 416 0 
z
" transform="scale(0.015625)"/>
       <path id="ArialMT-6f" d="M 213 1659 
Q 213 2581 725 3025 
Q 1153 3394 1769 3394 
Q 2453 3394 2887 2945 
Q 3322 2497 3322 1706 
Q 3322 1066 3130 698 
Q 2938 331 2570 128 
Q 2203 -75 1769 -75 
Q 1072 -75 642 372 
Q 213 819 213 1659 
z
M 791 1659 
Q 791 1022 1069 705 
Q 1347 388 1769 388 
Q 2188 388 2466 706 
Q 2744 1025 2744 1678 
Q 2744 2294 2464 2611 
Q 2184 2928 1769 2928 
Q 1347 2928 1069 2612 
Q 791 2297 791 1659 
z
" transform="scale(0.015625)"/>
       <path id="ArialMT-66" d="M 556 0 
L 556 2881 
L 59 2881 
L 59 3319 
L 556 3319 
L 556 3672 
Q 556 4006 616 4169 
Q 697 4388 901 4523 
Q 1106 4659 1475 4659 
Q 1713 4659 2000 4603 
L 1916 4113 
Q 1741 4144 1584 4144 
Q 1328 4144 1222 4034 
Q 1116 3925 1116 3625 
L 1116 3319 
L 1763 3319 
L 1763 2881 
L 1116 2881 
L 1116 0 
L 556 0 
z
" transform="scale(0.015625)"/>
       <path id="ArialMT-63" d="M 2588 1216 
L 3141 1144 
Q 3050 572 2676 248 
Q 2303 -75 1759 -75 
Q 1078 -75 664 370 
Q 250 816 250 1647 
Q 250 2184 428 2587 
Q 606 2991 970 3192 
Q 1334 3394 1763 3394 
Q 2303 3394 2647 3120 
Q 2991 2847 3088 2344 
L 2541 2259 
Q 2463 2594 2264 2762 
Q 2066 2931 1784 2931 
Q 1359 2931 1093 2626 
Q 828 2322 828 1663 
Q 828 994 1084 691 
Q 1341 388 1753 388 
Q 2084 388 2306 591 
Q 2528 794 2588 1216 
z
" transform="scale(0.015625)"/>
       <path id="ArialMT-61" d="M 2588 409 
Q 2275 144 1986 34 
Q 1697 -75 1366 -75 
Q 819 -75 525 192 
Q 231 459 231 875 
Q 231 1119 342 1320 
Q 453 1522 633 1644 
Q 813 1766 1038 1828 
Q 1203 1872 1538 1913 
Q 2219 1994 2541 2106 
Q 2544 2222 2544 2253 
Q 2544 2597 2384 2738 
Q 2169 2928 1744 2928 
Q 1347 2928 1158 2789 
Q 969 2650 878 2297 
L 328 2372 
Q 403 2725 575 2942 
Q 747 3159 1072 3276 
Q 1397 3394 1825 3394 
Q 2250 3394 2515 3294 
Q 2781 3194 2906 3042 
Q 3031 2891 3081 2659 
Q 3109 2516 3109 2141 
L 3109 1391 
Q 3109 606 3145 398 
Q 3181 191 3288 0 
L 2700 0 
Q 2613 175 2588 409 
z
M 2541 1666 
Q 2234 1541 1622 1453 
Q 1275 1403 1131 1340 
Q 988 1278 909 1158 
Q 831 1038 831 891 
Q 831 666 1001 516 
Q 1172 366 1500 366 
Q 1825 366 2078 508 
Q 2331 650 2450 897 
Q 2541 1088 2541 1459 
L 2541 1666 
z
" transform="scale(0.015625)"/>
       <path id="ArialMT-73" d="M 197 991 
L 753 1078 
Q 800 744 1014 566 
Q 1228 388 1613 388 
Q 2000 388 2187 545 
Q 2375 703 2375 916 
Q 2375 1106 2209 1216 
Q 2094 1291 1634 1406 
Q 1016 1563 777 1677 
Q 538 1791 414 1992 
Q 291 2194 291 2438 
Q 291 2659 392 2848 
Q 494 3038 669 3163 
Q 800 3259 1026 3326 
Q 1253 3394 1513 3394 
Q 1903 3394 2198 3281 
Q 2494 3169 2634 2976 
Q 2775 2784 2828 2463 
L 2278 2388 
Q 2241 2644 2061 2787 
Q 1881 2931 1553 2931 
Q 1166 2931 1000 2803 
Q 834 2675 834 2503 
Q 834 2394 903 2306 
Q 972 2216 1119 2156 
Q 1203 2125 1616 2013 
Q 2213 1853 2448 1751 
Q 2684 1650 2818 1456 
Q 2953 1263 2953 975 
Q 2953 694 2789 445 
Q 2625 197 2315 61 
Q 2006 -75 1616 -75 
Q 969 -75 630 194 
Q 291 463 197 991 
z
" transform="scale(0.015625)"/>
      </defs>
      <use xlink:href="#ArialMT-4e"/>
      <use xlink:href="#ArialMT-75" x="72.216797"/>
      <use xlink:href="#ArialMT-6d" x="127.832031"/>
      <use xlink:href="#ArialMT-62" x="211.132812"/>
      <use xlink:href="#ArialMT-65" x="266.748047"/>
      <use xlink:href="#ArialMT-72" x="322.363281"/>
      <use xlink:href="#ArialMT-20" x="355.664062"/>
      <use xlink:href="#ArialMT-6f" x="383.447266"/>
      <use xlink:href="#ArialMT-66" x="439.0625"/>
      <use xlink:href="#ArialMT-20" x="466.845703"/>
      <use xlink:href="#ArialMT-63" x="494.628906"/>
      <use xlink:href="#ArialMT-61" x="544.628906"/>
      <use xlink:href="#ArialMT-73" x="600.244141"/>
      <use xlink:href="#ArialMT-65" x="650.244141"/>
      <use xlink:href="#ArialMT-73" x="705.859375"/>
     </g>
    </g>
   </g>
   <g id="line2d_1">
    <path d="M 76.296696 122.157251 
L 83.864373 243.723907 
L 91.432049 211.488613 
L 98.999726 243.078595 
L 106.567402 289.64766 
L 114.135079 255.287552 
L 121.702755 232.234384 
L 129.270432 245.149747 
L 136.838108 230.920665 
L 144.405785 281.316135 
L 151.973461 278.906114 
L 159.541138 289.643935 
L 167.108815 284.302025 
L 174.676491 292.815992 
L 182.244168 288.248761 
L 189.811844 294.745243 
L 197.379521 289.257988 
L 204.947197 288.540195 
L 212.514874 284.733301 
L 220.08255 285.738898 
L 227.650227 281.473056 
L 235.217903 280.838977 
L 242.78558 284.648684 
L 250.353256 281.177623 
L 257.920933 282.145368 
L 265.48861 289.225108 
L 273.056286 284.201472 
L 280.623963 289.337114 
L 288.191639 296.370744 
L 295.759316 295.084897 
L 303.326992 286.683226 
L 310.894669 287.453803 
L 318.462345 282.66011 
L 326.030022 276.818655 
L 333.597698 274.926541 
L 341.165375 289.69291 
L 348.733051 292.00405 
L 356.300728 274.592255 
L 363.868405 278.252212 
L 371.436081 270.763388 
L 379.003758 280.854119 
L 386.571434 287.650414 
L 394.139111 287.952089 
L 401.706787 280.117318 
L 409.274464 261.074211 
L 416.84214 93.73899 
L 424.409817 127.151319 
L 431.977493 204.598023 
" clip-path="url(#p01f0b2154f)" style="fill: none; stroke: #1f77b4; stroke-width: 2.25; stroke-linecap: round"/>
   </g>
   <g id="line2d_2">
    <path d="M 76.296696 303.548182 
L 83.864373 214.333636 
L 91.432049 258.940909 
L 98.999726 303.548182 
L 106.567402 258.940909 
L 114.135079 214.333636 
L 121.702755 258.940909 
L 129.270432 258.940909 
L 136.838108 258.940909 
L 144.405785 303.548182 
L 151.973461 303.548182 
L 159.541138 303.548182 
L 167.108815 303.548182 
L 174.676491 303.548182 
L 182.244168 303.548182 
L 189.811844 303.548182 
L 197.379521 303.548182 
L 204.947197 303.548182 
L 212.514874 303.548182 
L 220.08255 303.548182 
L 227.650227 303.548182 
L 235.217903 303.548182 
L 242.78558 303.548182 
L 250.353256 303.548182 
L 257.920933 303.548182 
L 265.48861 303.548182 
L 273.056286 303.548182 
L 280.623963 303.548182 
L 288.191639 303.548182 
L 295.759316 258.940909 
L 303.326992 303.548182 
L 310.894669 303.548182 
L 318.462345 303.548182 
L 326.030022 303.548182 
L 333.597698 258.940909 
L 341.165375 303.548182 
L 348.733051 303.548182 
L 356.300728 303.548182 
L 363.868405 303.548182 
L 371.436081 303.548182 
L 379.003758 303.548182 
L 386.571434 303.548182 
L 394.139111 303.548182 
L 401.706787 303.548182 
L 409.274464 258.940909 
L 416.84214 125.119091 
L 424.409817 214.333636 
L 431.977493 80.511818 
" clip-path="url(#p01f0b2154f)" style="fill: none; stroke: #ff7f0e; stroke-width: 2.25; stroke-linecap: round"/>
   </g>
   <g id="patch_3">
    <path d="M 58.512656 314.7 
L 58.512656 69.36 
" style="fill: none; stroke: #262626; stroke-width: 1.875; stroke-linejoin: miter; stroke-linecap: square"/>
   </g>
   <g id="patch_4">
    <path d="M 449.761533 314.7 
L 449.761533 69.36 
" style="fill: none; stroke: #262626; stroke-width: 1.875; stroke-linejoin: miter; stroke-linecap: square"/>
   </g>
   <g id="patch_5">
    <path d="M 58.512656 314.7 
L 449.761533 314.7 
" style="fill: none; stroke: #262626; stroke-width: 1.875; stroke-linejoin: miter; stroke-linecap: square"/>
   </g>
   <g id="patch_6">
    <path d="M 58.512656 69.36 
L 449.761533 69.36 
" style="fill: none; stroke: #262626; stroke-width: 1.875; stroke-linejoin: miter; stroke-linecap: square"/>
   </g>
   <g id="text_14">
    <!-- 2018, Mean Absolute error (MAE): 0.04 -->
    <g style="fill: #262626" transform="translate(97.56522 63.36) scale(0.18 -0.18)">
     <defs>
      <path id="ArialMT-38" d="M 1131 2484 
Q 781 2613 612 2850 
Q 444 3088 444 3419 
Q 444 3919 803 4259 
Q 1163 4600 1759 4600 
Q 2359 4600 2725 4251 
Q 3091 3903 3091 3403 
Q 3091 3084 2923 2848 
Q 2756 2613 2416 2484 
Q 2838 2347 3058 2040 
Q 3278 1734 3278 1309 
Q 3278 722 2862 322 
Q 2447 -78 1769 -78 
Q 1091 -78 675 323 
Q 259 725 259 1325 
Q 259 1772 486 2073 
Q 713 2375 1131 2484 
z
M 1019 3438 
Q 1019 3113 1228 2906 
Q 1438 2700 1772 2700 
Q 2097 2700 2305 2904 
Q 2513 3109 2513 3406 
Q 2513 3716 2298 3927 
Q 2084 4138 1766 4138 
Q 1444 4138 1231 3931 
Q 1019 3725 1019 3438 
z
M 838 1322 
Q 838 1081 952 856 
Q 1066 631 1291 507 
Q 1516 384 1775 384 
Q 2178 384 2440 643 
Q 2703 903 2703 1303 
Q 2703 1709 2433 1975 
Q 2163 2241 1756 2241 
Q 1359 2241 1098 1978 
Q 838 1716 838 1322 
z
" transform="scale(0.015625)"/>
      <path id="ArialMT-2c" d="M 569 0 
L 569 641 
L 1209 641 
L 1209 0 
Q 1209 -353 1084 -570 
Q 959 -788 688 -906 
L 531 -666 
Q 709 -588 793 -436 
Q 878 -284 888 0 
L 569 0 
z
" transform="scale(0.015625)"/>
      <path id="ArialMT-4d" d="M 475 0 
L 475 4581 
L 1388 4581 
L 2472 1338 
Q 2622 884 2691 659 
Q 2769 909 2934 1394 
L 4031 4581 
L 4847 4581 
L 4847 0 
L 4263 0 
L 4263 3834 
L 2931 0 
L 2384 0 
L 1059 3900 
L 1059 0 
L 475 0 
z
" transform="scale(0.015625)"/>
      <path id="ArialMT-41" d="M -9 0 
L 1750 4581 
L 2403 4581 
L 4278 0 
L 3588 0 
L 3053 1388 
L 1138 1388 
L 634 0 
L -9 0 
z
M 1313 1881 
L 2866 1881 
L 2388 3150 
Q 2169 3728 2063 4100 
Q 1975 3659 1816 3225 
L 1313 1881 
z
" transform="scale(0.015625)"/>
      <path id="ArialMT-6c" d="M 409 0 
L 409 4581 
L 972 4581 
L 972 0 
L 409 0 
z
" transform="scale(0.015625)"/>
      <path id="ArialMT-74" d="M 1650 503 
L 1731 6 
Q 1494 -44 1306 -44 
Q 1000 -44 831 53 
Q 663 150 594 308 
Q 525 466 525 972 
L 525 2881 
L 113 2881 
L 113 3319 
L 525 3319 
L 525 4141 
L 1084 4478 
L 1084 3319 
L 1650 3319 
L 1650 2881 
L 1084 2881 
L 1084 941 
Q 1084 700 1114 631 
Q 1144 563 1211 522 
Q 1278 481 1403 481 
Q 1497 481 1650 503 
z
" transform="scale(0.015625)"/>
      <path id="ArialMT-28" d="M 1497 -1347 
Q 1031 -759 709 28 
Q 388 816 388 1659 
Q 388 2403 628 3084 
Q 909 3875 1497 4659 
L 1900 4659 
Q 1522 4009 1400 3731 
Q 1209 3300 1100 2831 
Q 966 2247 966 1656 
Q 966 153 1900 -1347 
L 1497 -1347 
z
" transform="scale(0.015625)"/>
      <path id="ArialMT-45" d="M 506 0 
L 506 4581 
L 3819 4581 
L 3819 4041 
L 1113 4041 
L 1113 2638 
L 3647 2638 
L 3647 2100 
L 1113 2100 
L 1113 541 
L 3925 541 
L 3925 0 
L 506 0 
z
" transform="scale(0.015625)"/>
      <path id="ArialMT-29" d="M 791 -1347 
L 388 -1347 
Q 1322 153 1322 1656 
Q 1322 2244 1188 2822 
Q 1081 3291 891 3722 
Q 769 4003 388 4659 
L 791 4659 
Q 1378 3875 1659 3084 
Q 1900 2403 1900 1659 
Q 1900 816 1576 28 
Q 1253 -759 791 -1347 
z
" transform="scale(0.015625)"/>
      <path id="ArialMT-3a" d="M 578 2678 
L 578 3319 
L 1219 3319 
L 1219 2678 
L 578 2678 
z
M 578 0 
L 578 641 
L 1219 641 
L 1219 0 
L 578 0 
z
" transform="scale(0.015625)"/>
      <path id="ArialMT-2e" d="M 581 0 
L 581 641 
L 1222 641 
L 1222 0 
L 581 0 
z
" transform="scale(0.015625)"/>
     </defs>
     <use xlink:href="#ArialMT-32"/>
     <use xlink:href="#ArialMT-30" x="55.615234"/>
     <use xlink:href="#ArialMT-31" x="111.230469"/>
     <use xlink:href="#ArialMT-38" x="166.845703"/>
     <use xlink:href="#ArialMT-2c" x="222.460938"/>
     <use xlink:href="#ArialMT-20" x="250.244141"/>
     <use xlink:href="#ArialMT-4d" x="278.027344"/>
     <use xlink:href="#ArialMT-65" x="361.328125"/>
     <use xlink:href="#ArialMT-61" x="416.943359"/>
     <use xlink:href="#ArialMT-6e" x="472.558594"/>
     <use xlink:href="#ArialMT-20" x="528.173828"/>
     <use xlink:href="#ArialMT-41" x="550.457031"/>
     <use xlink:href="#ArialMT-62" x="617.15625"/>
     <use xlink:href="#ArialMT-73" x="672.771484"/>
     <use xlink:href="#ArialMT-6f" x="722.771484"/>
     <use xlink:href="#ArialMT-6c" x="778.386719"/>
     <use xlink:href="#ArialMT-75" x="800.603516"/>
     <use xlink:href="#ArialMT-74" x="856.21875"/>
     <use xlink:href="#ArialMT-65" x="884.001953"/>
     <use xlink:href="#ArialMT-20" x="939.617188"/>
     <use xlink:href="#ArialMT-65" x="967.400391"/>
     <use xlink:href="#ArialMT-72" x="1023.015625"/>
     <use xlink:href="#ArialMT-72" x="1056.316406"/>
     <use xlink:href="#ArialMT-6f" x="1089.617188"/>
     <use xlink:href="#ArialMT-72" x="1145.232422"/>
     <use xlink:href="#ArialMT-20" x="1178.533203"/>
     <use xlink:href="#ArialMT-28" x="1206.316406"/>
     <use xlink:href="#ArialMT-4d" x="1239.617188"/>
     <use xlink:href="#ArialMT-41" x="1322.917969"/>
     <use xlink:href="#ArialMT-45" x="1389.617188"/>
     <use xlink:href="#ArialMT-29" x="1456.316406"/>
     <use xlink:href="#ArialMT-3a" x="1489.617188"/>
     <use xlink:href="#ArialMT-20" x="1517.400391"/>
     <use xlink:href="#ArialMT-30" x="1545.183594"/>
     <use xlink:href="#ArialMT-2e" x="1600.798828"/>
     <use xlink:href="#ArialMT-30" x="1628.582031"/>
     <use xlink:href="#ArialMT-34" x="1684.197266"/>
    </g>
   </g>
   <g id="legend_1">
    <g id="patch_7">
     <path d="M 334.965361 129.62625 
L 438.211533 129.62625 
Q 441.511533 129.62625 441.511533 126.32625 
L 441.511533 80.91 
Q 441.511533 77.61 438.211533 77.61 
L 334.965361 77.61 
Q 331.665361 77.61 331.665361 80.91 
L 331.665361 126.32625 
Q 331.665361 129.62625 334.965361 129.62625 
z
" style="fill: #ffffff; opacity: 0.8; stroke: #cccccc; stroke-width: 1.5; stroke-linejoin: miter"/>
    </g>
    <g id="line2d_3">
     <path d="M 338.265361 90.245391 
L 354.765361 90.245391 
L 371.265361 90.245391 
" style="fill: none; stroke: #1f77b4; stroke-width: 2.25; stroke-linecap: round"/>
    </g>
    <g id="text_15">
     <!-- pred_y -->
     <g style="fill: #262626" transform="translate(384.465361 96.020391) scale(0.165 -0.165)">
      <defs>
       <path id="ArialMT-70" d="M 422 -1272 
L 422 3319 
L 934 3319 
L 934 2888 
Q 1116 3141 1344 3267 
Q 1572 3394 1897 3394 
Q 2322 3394 2647 3175 
Q 2972 2956 3137 2557 
Q 3303 2159 3303 1684 
Q 3303 1175 3120 767 
Q 2938 359 2589 142 
Q 2241 -75 1856 -75 
Q 1575 -75 1351 44 
Q 1128 163 984 344 
L 984 -1272 
L 422 -1272 
z
M 931 1641 
Q 931 1000 1190 694 
Q 1450 388 1819 388 
Q 2194 388 2461 705 
Q 2728 1022 2728 1688 
Q 2728 2322 2467 2637 
Q 2206 2953 1844 2953 
Q 1484 2953 1207 2617 
Q 931 2281 931 1641 
z
" transform="scale(0.015625)"/>
       <path id="ArialMT-5f" d="M -97 -1272 
L -97 -866 
L 3631 -866 
L 3631 -1272 
L -97 -1272 
z
" transform="scale(0.015625)"/>
       <path id="ArialMT-79" d="M 397 -1278 
L 334 -750 
Q 519 -800 656 -800 
Q 844 -800 956 -737 
Q 1069 -675 1141 -563 
Q 1194 -478 1313 -144 
Q 1328 -97 1363 -6 
L 103 3319 
L 709 3319 
L 1400 1397 
Q 1534 1031 1641 628 
Q 1738 1016 1872 1384 
L 2581 3319 
L 3144 3319 
L 1881 -56 
Q 1678 -603 1566 -809 
Q 1416 -1088 1222 -1217 
Q 1028 -1347 759 -1347 
Q 597 -1347 397 -1278 
z
" transform="scale(0.015625)"/>
      </defs>
      <use xlink:href="#ArialMT-70"/>
      <use xlink:href="#ArialMT-72" x="55.615234"/>
      <use xlink:href="#ArialMT-65" x="88.916016"/>
      <use xlink:href="#ArialMT-64" x="144.53125"/>
      <use xlink:href="#ArialMT-5f" x="200.146484"/>
      <use xlink:href="#ArialMT-79" x="255.761719"/>
     </g>
    </g>
    <g id="line2d_4">
     <path d="M 338.265361 113.778516 
L 354.765361 113.778516 
L 371.265361 113.778516 
" style="fill: none; stroke: #ff7f0e; stroke-width: 2.25; stroke-linecap: round"/>
    </g>
    <g id="text_16">
     <!-- true_y -->
     <g style="fill: #262626" transform="translate(384.465361 119.553516) scale(0.165 -0.165)">
      <use xlink:href="#ArialMT-74"/>
      <use xlink:href="#ArialMT-72" x="27.783203"/>
      <use xlink:href="#ArialMT-75" x="61.083984"/>
      <use xlink:href="#ArialMT-65" x="116.699219"/>
      <use xlink:href="#ArialMT-5f" x="172.314453"/>
      <use xlink:href="#ArialMT-79" x="227.929688"/>
     </g>
    </g>
   </g>
  </g>
  <g id="axes_2">
   <g id="patch_8">
    <path d="M 534.391533 314.7 
L 925.64041 314.7 
L 925.64041 69.36 
L 534.391533 69.36 
z
" style="fill: #ffffff"/>
   </g>
   <g id="matplotlib.axis_3">
    <g id="xtick_6">
     <g id="text_17">
      <!-- 0 -->
      <g style="fill: #262626" transform="translate(547.5878 339.010391) scale(0.165 -0.165)">
       <use xlink:href="#ArialMT-30"/>
      </g>
     </g>
    </g>
    <g id="xtick_7">
     <g id="text_18">
      <!-- 10 -->
      <g style="fill: #262626" transform="translate(618.676792 339.010391) scale(0.165 -0.165)">
       <use xlink:href="#ArialMT-31"/>
       <use xlink:href="#ArialMT-30" x="55.615234"/>
      </g>
     </g>
    </g>
    <g id="xtick_8">
     <g id="text_19">
      <!-- 20 -->
      <g style="fill: #262626" transform="translate(694.353557 339.010391) scale(0.165 -0.165)">
       <use xlink:href="#ArialMT-32"/>
       <use xlink:href="#ArialMT-30" x="55.615234"/>
      </g>
     </g>
    </g>
    <g id="xtick_9">
     <g id="text_20">
      <!-- 30 -->
      <g style="fill: #262626" transform="translate(770.030322 339.010391) scale(0.165 -0.165)">
       <use xlink:href="#ArialMT-33"/>
       <use xlink:href="#ArialMT-30" x="55.615234"/>
      </g>
     </g>
    </g>
    <g id="xtick_10">
     <g id="text_21">
      <!-- 40 -->
      <g style="fill: #262626" transform="translate(845.707088 339.010391) scale(0.165 -0.165)">
       <use xlink:href="#ArialMT-34"/>
       <use xlink:href="#ArialMT-30" x="55.615234"/>
      </g>
     </g>
    </g>
    <g id="text_22">
     <!-- Week Index -->
     <g style="fill: #262626" transform="translate(682.653472 359.173828) scale(0.18 -0.18)">
      <use xlink:href="#ArialMT-57"/>
      <use xlink:href="#ArialMT-65" x="92.634766"/>
      <use xlink:href="#ArialMT-65" x="148.25"/>
      <use xlink:href="#ArialMT-6b" x="203.865234"/>
      <use xlink:href="#ArialMT-20" x="253.865234"/>
      <use xlink:href="#ArialMT-49" x="281.648438"/>
      <use xlink:href="#ArialMT-6e" x="309.431641"/>
      <use xlink:href="#ArialMT-64" x="365.046875"/>
      <use xlink:href="#ArialMT-65" x="420.662109"/>
      <use xlink:href="#ArialMT-78" x="476.277344"/>
     </g>
    </g>
   </g>
   <g id="matplotlib.axis_4">
    <g id="ytick_7">
     <g id="text_23">
      <!-- 0 -->
      <g style="fill: #262626" transform="translate(512.715986 309.453377) scale(0.165 -0.165)">
       <use xlink:href="#ArialMT-30"/>
      </g>
     </g>
    </g>
    <g id="ytick_8">
     <g id="text_24">
      <!-- 2 -->
      <g style="fill: #262626" transform="translate(512.715986 253.694286) scale(0.165 -0.165)">
       <use xlink:href="#ArialMT-32"/>
      </g>
     </g>
    </g>
    <g id="ytick_9">
     <g id="text_25">
      <!-- 4 -->
      <g style="fill: #262626" transform="translate(512.715986 197.935195) scale(0.165 -0.165)">
       <use xlink:href="#ArialMT-34"/>
      </g>
     </g>
    </g>
    <g id="ytick_10">
     <g id="text_26">
      <!-- 6 -->
      <g style="fill: #262626" transform="translate(512.715986 142.176104) scale(0.165 -0.165)">
       <defs>
        <path id="ArialMT-36" d="M 3184 3459 
L 2625 3416 
Q 2550 3747 2413 3897 
Q 2184 4138 1850 4138 
Q 1581 4138 1378 3988 
Q 1113 3794 959 3422 
Q 806 3050 800 2363 
Q 1003 2672 1297 2822 
Q 1591 2972 1913 2972 
Q 2475 2972 2870 2558 
Q 3266 2144 3266 1488 
Q 3266 1056 3080 686 
Q 2894 316 2569 119 
Q 2244 -78 1831 -78 
Q 1128 -78 684 439 
Q 241 956 241 2144 
Q 241 3472 731 4075 
Q 1159 4600 1884 4600 
Q 2425 4600 2770 4297 
Q 3116 3994 3184 3459 
z
M 888 1484 
Q 888 1194 1011 928 
Q 1134 663 1356 523 
Q 1578 384 1822 384 
Q 2178 384 2434 671 
Q 2691 959 2691 1453 
Q 2691 1928 2437 2201 
Q 2184 2475 1800 2475 
Q 1419 2475 1153 2201 
Q 888 1928 888 1484 
z
" transform="scale(0.015625)"/>
       </defs>
       <use xlink:href="#ArialMT-36"/>
      </g>
     </g>
    </g>
    <g id="ytick_11">
     <g id="text_27">
      <!-- 8 -->
      <g style="fill: #262626" transform="translate(512.715986 86.417013) scale(0.165 -0.165)">
       <use xlink:href="#ArialMT-38"/>
      </g>
     </g>
    </g>
    <g id="text_28">
     <!-- Number of cases -->
     <g style="fill: #262626" transform="translate(505.138486 260.053125) rotate(-90) scale(0.18 -0.18)">
      <use xlink:href="#ArialMT-4e"/>
      <use xlink:href="#ArialMT-75" x="72.216797"/>
      <use xlink:href="#ArialMT-6d" x="127.832031"/>
      <use xlink:href="#ArialMT-62" x="211.132812"/>
      <use xlink:href="#ArialMT-65" x="266.748047"/>
      <use xlink:href="#ArialMT-72" x="322.363281"/>
      <use xlink:href="#ArialMT-20" x="355.664062"/>
      <use xlink:href="#ArialMT-6f" x="383.447266"/>
      <use xlink:href="#ArialMT-66" x="439.0625"/>
      <use xlink:href="#ArialMT-20" x="466.845703"/>
      <use xlink:href="#ArialMT-63" x="494.628906"/>
      <use xlink:href="#ArialMT-61" x="544.628906"/>
      <use xlink:href="#ArialMT-73" x="600.244141"/>
      <use xlink:href="#ArialMT-65" x="650.244141"/>
      <use xlink:href="#ArialMT-73" x="705.859375"/>
     </g>
    </g>
   </g>
   <g id="line2d_5">
    <path d="M 552.175573 238.866774 
L 559.74325 263.633545 
L 567.310926 146.589249 
L 574.878603 245.131134 
L 582.446279 250.064898 
L 590.013956 257.683455 
L 597.581632 251.679737 
L 605.149309 258.124284 
L 612.716985 261.54083 
L 620.284662 274.668931 
L 627.852338 297.382748 
L 635.420015 293.54631 
L 642.987692 282.291774 
L 650.555368 292.961893 
L 658.123045 296.988444 
L 665.690721 298.00342 
L 673.258398 293.399843 
L 680.826074 281.737041 
L 688.393751 290.850087 
L 695.961427 295.985638 
L 703.529104 291.154173 
L 711.09678 293.573262 
L 718.664457 290.289551 
L 726.232133 293.773205 
L 733.79981 297.302139 
L 741.367487 294.436838 
L 748.935163 289.200215 
L 756.50284 293.34537 
L 764.070516 291.676147 
L 771.638193 294.773224 
L 779.205869 297.368894 
L 786.773546 292.455562 
L 794.341222 288.367494 
L 801.908899 292.541253 
L 809.476575 293.481811 
L 817.044252 292.72998 
L 824.611928 289.318994 
L 832.179605 292.238584 
L 839.747282 293.936784 
L 847.314958 294.47402 
L 854.882635 295.030057 
L 862.450311 293.010782 
L 870.017988 286.888597 
L 877.585664 282.288296 
L 885.153341 283.238413 
L 892.721017 253.562045 
L 900.288694 292.251983 
L 907.85637 234.55529 
" clip-path="url(#p95882346f2)" style="fill: none; stroke: #1f77b4; stroke-width: 2.25; stroke-linecap: round"/>
   </g>
   <g id="line2d_6">
    <path d="M 552.175573 192.03 
L 559.74325 303.548182 
L 567.310926 80.511818 
L 574.878603 275.668636 
L 582.446279 247.789091 
L 590.013956 275.668636 
L 597.581632 219.909545 
L 605.149309 219.909545 
L 612.716985 247.789091 
L 620.284662 247.789091 
L 627.852338 303.548182 
L 635.420015 303.548182 
L 642.987692 303.548182 
L 650.555368 303.548182 
L 658.123045 303.548182 
L 665.690721 303.548182 
L 673.258398 303.548182 
L 680.826074 303.548182 
L 688.393751 303.548182 
L 695.961427 303.548182 
L 703.529104 303.548182 
L 711.09678 303.548182 
L 718.664457 303.548182 
L 726.232133 275.668636 
L 733.79981 275.668636 
L 741.367487 275.668636 
L 748.935163 275.668636 
L 756.50284 275.668636 
L 764.070516 303.548182 
L 771.638193 303.548182 
L 779.205869 303.548182 
L 786.773546 303.548182 
L 794.341222 303.548182 
L 801.908899 303.548182 
L 809.476575 303.548182 
L 817.044252 275.668636 
L 824.611928 275.668636 
L 832.179605 303.548182 
L 839.747282 303.548182 
L 847.314958 303.548182 
L 854.882635 275.668636 
L 862.450311 275.668636 
L 870.017988 303.548182 
L 877.585664 303.548182 
L 885.153341 275.668636 
L 892.721017 303.548182 
L 900.288694 303.548182 
L 907.85637 219.909545 
" clip-path="url(#p95882346f2)" style="fill: none; stroke: #ff7f0e; stroke-width: 2.25; stroke-linecap: round"/>
   </g>
   <g id="patch_9">
    <path d="M 534.391533 314.7 
L 534.391533 69.36 
" style="fill: none; stroke: #262626; stroke-width: 1.875; stroke-linejoin: miter; stroke-linecap: square"/>
   </g>
   <g id="patch_10">
    <path d="M 925.64041 314.7 
L 925.64041 69.36 
" style="fill: none; stroke: #262626; stroke-width: 1.875; stroke-linejoin: miter; stroke-linecap: square"/>
   </g>
   <g id="patch_11">
    <path d="M 534.391533 314.7 
L 925.64041 314.7 
" style="fill: none; stroke: #262626; stroke-width: 1.875; stroke-linejoin: miter; stroke-linecap: square"/>
   </g>
   <g id="patch_12">
    <path d="M 534.391533 69.36 
L 925.64041 69.36 
" style="fill: none; stroke: #262626; stroke-width: 1.875; stroke-linejoin: miter; stroke-linecap: square"/>
   </g>
   <g id="text_29">
    <!-- 2019, Mean Absolute error (MAE): 0.04 -->
    <g style="fill: #262626" transform="translate(573.444097 63.36) scale(0.18 -0.18)">
     <defs>
      <path id="ArialMT-39" d="M 350 1059 
L 891 1109 
Q 959 728 1153 556 
Q 1347 384 1650 384 
Q 1909 384 2104 503 
Q 2300 622 2425 820 
Q 2550 1019 2634 1356 
Q 2719 1694 2719 2044 
Q 2719 2081 2716 2156 
Q 2547 1888 2255 1720 
Q 1963 1553 1622 1553 
Q 1053 1553 659 1965 
Q 266 2378 266 3053 
Q 266 3750 677 4175 
Q 1088 4600 1706 4600 
Q 2153 4600 2523 4359 
Q 2894 4119 3086 3673 
Q 3278 3228 3278 2384 
Q 3278 1506 3087 986 
Q 2897 466 2520 194 
Q 2144 -78 1638 -78 
Q 1100 -78 759 220 
Q 419 519 350 1059 
z
M 2653 3081 
Q 2653 3566 2395 3850 
Q 2138 4134 1775 4134 
Q 1400 4134 1122 3828 
Q 844 3522 844 3034 
Q 844 2597 1108 2323 
Q 1372 2050 1759 2050 
Q 2150 2050 2401 2323 
Q 2653 2597 2653 3081 
z
" transform="scale(0.015625)"/>
     </defs>
     <use xlink:href="#ArialMT-32"/>
     <use xlink:href="#ArialMT-30" x="55.615234"/>
     <use xlink:href="#ArialMT-31" x="111.230469"/>
     <use xlink:href="#ArialMT-39" x="166.845703"/>
     <use xlink:href="#ArialMT-2c" x="222.460938"/>
     <use xlink:href="#ArialMT-20" x="250.244141"/>
     <use xlink:href="#ArialMT-4d" x="278.027344"/>
     <use xlink:href="#ArialMT-65" x="361.328125"/>
     <use xlink:href="#ArialMT-61" x="416.943359"/>
     <use xlink:href="#ArialMT-6e" x="472.558594"/>
     <use xlink:href="#ArialMT-20" x="528.173828"/>
     <use xlink:href="#ArialMT-41" x="550.457031"/>
     <use xlink:href="#ArialMT-62" x="617.15625"/>
     <use xlink:href="#ArialMT-73" x="672.771484"/>
     <use xlink:href="#ArialMT-6f" x="722.771484"/>
     <use xlink:href="#ArialMT-6c" x="778.386719"/>
     <use xlink:href="#ArialMT-75" x="800.603516"/>
     <use xlink:href="#ArialMT-74" x="856.21875"/>
     <use xlink:href="#ArialMT-65" x="884.001953"/>
     <use xlink:href="#ArialMT-20" x="939.617188"/>
     <use xlink:href="#ArialMT-65" x="967.400391"/>
     <use xlink:href="#ArialMT-72" x="1023.015625"/>
     <use xlink:href="#ArialMT-72" x="1056.316406"/>
     <use xlink:href="#ArialMT-6f" x="1089.617188"/>
     <use xlink:href="#ArialMT-72" x="1145.232422"/>
     <use xlink:href="#ArialMT-20" x="1178.533203"/>
     <use xlink:href="#ArialMT-28" x="1206.316406"/>
     <use xlink:href="#ArialMT-4d" x="1239.617188"/>
     <use xlink:href="#ArialMT-41" x="1322.917969"/>
     <use xlink:href="#ArialMT-45" x="1389.617188"/>
     <use xlink:href="#ArialMT-29" x="1456.316406"/>
     <use xlink:href="#ArialMT-3a" x="1489.617188"/>
     <use xlink:href="#ArialMT-20" x="1517.400391"/>
     <use xlink:href="#ArialMT-30" x="1545.183594"/>
     <use xlink:href="#ArialMT-2e" x="1600.798828"/>
     <use xlink:href="#ArialMT-30" x="1628.582031"/>
     <use xlink:href="#ArialMT-34" x="1684.197266"/>
    </g>
   </g>
   <g id="legend_2">
    <g id="patch_13">
     <path d="M 810.844238 129.62625 
L 914.09041 129.62625 
Q 917.39041 129.62625 917.39041 126.32625 
L 917.39041 80.91 
Q 917.39041 77.61 914.09041 77.61 
L 810.844238 77.61 
Q 807.544238 77.61 807.544238 80.91 
L 807.544238 126.32625 
Q 807.544238 129.62625 810.844238 129.62625 
z
" style="fill: #ffffff; opacity: 0.8; stroke: #cccccc; stroke-width: 1.5; stroke-linejoin: miter"/>
    </g>
    <g id="line2d_7">
     <path d="M 814.144238 90.245391 
L 830.644238 90.245391 
L 847.144238 90.245391 
" style="fill: none; stroke: #1f77b4; stroke-width: 2.25; stroke-linecap: round"/>
    </g>
    <g id="text_30">
     <!-- pred_y -->
     <g style="fill: #262626" transform="translate(860.344238 96.020391) scale(0.165 -0.165)">
      <use xlink:href="#ArialMT-70"/>
      <use xlink:href="#ArialMT-72" x="55.615234"/>
      <use xlink:href="#ArialMT-65" x="88.916016"/>
      <use xlink:href="#ArialMT-64" x="144.53125"/>
      <use xlink:href="#ArialMT-5f" x="200.146484"/>
      <use xlink:href="#ArialMT-79" x="255.761719"/>
     </g>
    </g>
    <g id="line2d_8">
     <path d="M 814.144238 113.778516 
L 830.644238 113.778516 
L 847.144238 113.778516 
" style="fill: none; stroke: #ff7f0e; stroke-width: 2.25; stroke-linecap: round"/>
    </g>
    <g id="text_31">
     <!-- true_y -->
     <g style="fill: #262626" transform="translate(860.344238 119.553516) scale(0.165 -0.165)">
      <use xlink:href="#ArialMT-74"/>
      <use xlink:href="#ArialMT-72" x="27.783203"/>
      <use xlink:href="#ArialMT-75" x="61.083984"/>
      <use xlink:href="#ArialMT-65" x="116.699219"/>
      <use xlink:href="#ArialMT-5f" x="172.314453"/>
      <use xlink:href="#ArialMT-79" x="227.929688"/>
     </g>
    </g>
   </g>
  </g>
  <g id="axes_3">
   <g id="patch_14">
    <path d="M 1010.27041 314.7 
L 1401.519287 314.7 
L 1401.519287 69.36 
L 1010.27041 69.36 
z
" style="fill: #ffffff"/>
   </g>
   <g id="matplotlib.axis_5">
    <g id="xtick_11">
     <g id="text_32">
      <!-- 0 -->
      <g style="fill: #262626" transform="translate(1023.466677 339.010391) scale(0.165 -0.165)">
       <use xlink:href="#ArialMT-30"/>
      </g>
     </g>
    </g>
    <g id="xtick_12">
     <g id="text_33">
      <!-- 10 -->
      <g style="fill: #262626" transform="translate(1092.979069 339.010391) scale(0.165 -0.165)">
       <use xlink:href="#ArialMT-31"/>
       <use xlink:href="#ArialMT-30" x="55.615234"/>
      </g>
     </g>
    </g>
    <g id="xtick_13">
     <g id="text_34">
      <!-- 20 -->
      <g style="fill: #262626" transform="translate(1167.079235 339.010391) scale(0.165 -0.165)">
       <use xlink:href="#ArialMT-32"/>
       <use xlink:href="#ArialMT-30" x="55.615234"/>
      </g>
     </g>
    </g>
    <g id="xtick_14">
     <g id="text_35">
      <!-- 30 -->
      <g style="fill: #262626" transform="translate(1241.179402 339.010391) scale(0.165 -0.165)">
       <use xlink:href="#ArialMT-33"/>
       <use xlink:href="#ArialMT-30" x="55.615234"/>
      </g>
     </g>
    </g>
    <g id="xtick_15">
     <g id="text_36">
      <!-- 40 -->
      <g style="fill: #262626" transform="translate(1315.279568 339.010391) scale(0.165 -0.165)">
       <use xlink:href="#ArialMT-34"/>
       <use xlink:href="#ArialMT-30" x="55.615234"/>
      </g>
     </g>
    </g>
    <g id="xtick_16">
     <g id="text_37">
      <!-- 50 -->
      <g style="fill: #262626" transform="translate(1389.379734 339.010391) scale(0.165 -0.165)">
       <use xlink:href="#ArialMT-35"/>
       <use xlink:href="#ArialMT-30" x="55.615234"/>
      </g>
     </g>
    </g>
    <g id="text_38">
     <!-- Week Index -->
     <g style="fill: #262626" transform="translate(1158.532349 359.173828) scale(0.18 -0.18)">
      <use xlink:href="#ArialMT-57"/>
      <use xlink:href="#ArialMT-65" x="92.634766"/>
      <use xlink:href="#ArialMT-65" x="148.25"/>
      <use xlink:href="#ArialMT-6b" x="203.865234"/>
      <use xlink:href="#ArialMT-20" x="253.865234"/>
      <use xlink:href="#ArialMT-49" x="281.648438"/>
      <use xlink:href="#ArialMT-6e" x="309.431641"/>
      <use xlink:href="#ArialMT-64" x="365.046875"/>
      <use xlink:href="#ArialMT-65" x="420.662109"/>
      <use xlink:href="#ArialMT-78" x="476.277344"/>
     </g>
    </g>
   </g>
   <g id="matplotlib.axis_6">
    <g id="ytick_12">
     <g id="text_39">
      <!-- 0 -->
      <g style="fill: #262626" transform="translate(988.594863 309.453377) scale(0.165 -0.165)">
       <use xlink:href="#ArialMT-30"/>
      </g>
     </g>
    </g>
    <g id="ytick_13">
     <g id="text_40">
      <!-- 2 -->
      <g style="fill: #262626" transform="translate(988.594863 268.901311) scale(0.165 -0.165)">
       <use xlink:href="#ArialMT-32"/>
      </g>
     </g>
    </g>
    <g id="ytick_14">
     <g id="text_41">
      <!-- 4 -->
      <g style="fill: #262626" transform="translate(988.594863 228.349245) scale(0.165 -0.165)">
       <use xlink:href="#ArialMT-34"/>
      </g>
     </g>
    </g>
    <g id="ytick_15">
     <g id="text_42">
      <!-- 6 -->
      <g style="fill: #262626" transform="translate(988.594863 187.797179) scale(0.165 -0.165)">
       <use xlink:href="#ArialMT-36"/>
      </g>
     </g>
    </g>
    <g id="ytick_16">
     <g id="text_43">
      <!-- 8 -->
      <g style="fill: #262626" transform="translate(988.594863 147.245113) scale(0.165 -0.165)">
       <use xlink:href="#ArialMT-38"/>
      </g>
     </g>
    </g>
    <g id="ytick_17">
     <g id="text_44">
      <!-- 10 -->
      <g style="fill: #262626" transform="translate(979.419317 106.693047) scale(0.165 -0.165)">
       <use xlink:href="#ArialMT-31"/>
       <use xlink:href="#ArialMT-30" x="55.615234"/>
      </g>
     </g>
    </g>
    <g id="text_45">
     <!-- Number of cases -->
     <g style="fill: #262626" transform="translate(971.841817 260.053125) rotate(-90) scale(0.18 -0.18)">
      <use xlink:href="#ArialMT-4e"/>
      <use xlink:href="#ArialMT-75" x="72.216797"/>
      <use xlink:href="#ArialMT-6d" x="127.832031"/>
      <use xlink:href="#ArialMT-62" x="211.132812"/>
      <use xlink:href="#ArialMT-65" x="266.748047"/>
      <use xlink:href="#ArialMT-72" x="322.363281"/>
      <use xlink:href="#ArialMT-20" x="355.664062"/>
      <use xlink:href="#ArialMT-6f" x="383.447266"/>
      <use xlink:href="#ArialMT-66" x="439.0625"/>
      <use xlink:href="#ArialMT-20" x="466.845703"/>
      <use xlink:href="#ArialMT-63" x="494.628906"/>
      <use xlink:href="#ArialMT-61" x="544.628906"/>
      <use xlink:href="#ArialMT-73" x="600.244141"/>
      <use xlink:href="#ArialMT-65" x="650.244141"/>
      <use xlink:href="#ArialMT-73" x="705.859375"/>
     </g>
    </g>
   </g>
   <g id="line2d_9">
    <path d="M 1028.05445 240.404843 
L 1035.464467 269.394423 
L 1042.874483 101.186884 
L 1050.2845 197.611789 
L 1057.694517 240.24837 
L 1065.104533 276.414087 
L 1072.51455 268.169143 
L 1079.924566 251.968363 
L 1087.334583 272.572615 
L 1094.7446 276.242901 
L 1102.154616 293.242794 
L 1109.564633 295.58945 
L 1116.974649 292.334861 
L 1124.384666 297.455471 
L 1131.794683 295.215513 
L 1139.204699 296.48394 
L 1146.614716 298.5569 
L 1154.024732 303.293629 
L 1161.434749 295.052589 
L 1168.844766 299.152951 
L 1176.254782 294.31232 
L 1183.664799 298.347536 
L 1191.074816 294.538404 
L 1198.484832 291.009747 
L 1205.894849 296.121115 
L 1213.304865 294.815442 
L 1220.714882 295.614164 
L 1228.124899 295.114919 
L 1235.534915 296.21985 
L 1242.944932 291.780466 
L 1250.354948 295.136516 
L 1257.764965 296.774613 
L 1265.174982 291.174006 
L 1272.584998 290.152999 
L 1279.995015 292.568077 
L 1287.405031 291.369781 
L 1294.815048 294.740292 
L 1302.225065 294.694726 
L 1309.635081 289.64872 
L 1317.045098 292.136212 
L 1324.455115 292.53539 
L 1331.865131 286.18959 
L 1339.275148 280.375871 
L 1346.685164 282.899315 
L 1354.095181 278.538795 
L 1361.505198 286.54044 
L 1368.915214 291.218173 
L 1376.325231 282.22236 
L 1383.735247 219.061108 
" clip-path="url(#p0dd5153f77)" style="fill: none; stroke: #1f77b4; stroke-width: 2.25; stroke-linecap: round"/>
   </g>
   <g id="line2d_10">
    <path d="M 1028.05445 181.891983 
L 1035.464467 283.272149 
L 1042.874483 80.511818 
L 1050.2845 202.168017 
L 1057.694517 242.720083 
L 1065.104533 262.996116 
L 1072.51455 222.44405 
L 1079.924566 262.996116 
L 1087.334583 283.272149 
L 1094.7446 283.272149 
L 1102.154616 303.548182 
L 1109.564633 303.548182 
L 1116.974649 303.548182 
L 1124.384666 303.548182 
L 1131.794683 303.548182 
L 1139.204699 283.272149 
L 1146.614716 303.548182 
L 1154.024732 303.548182 
L 1161.434749 303.548182 
L 1168.844766 303.548182 
L 1176.254782 303.548182 
L 1183.664799 303.548182 
L 1191.074816 303.548182 
L 1198.484832 303.548182 
L 1205.894849 303.548182 
L 1213.304865 303.548182 
L 1220.714882 303.548182 
L 1228.124899 303.548182 
L 1235.534915 303.548182 
L 1242.944932 303.548182 
L 1250.354948 303.548182 
L 1257.764965 303.548182 
L 1265.174982 303.548182 
L 1272.584998 303.548182 
L 1279.995015 303.548182 
L 1287.405031 303.548182 
L 1294.815048 303.548182 
L 1302.225065 303.548182 
L 1309.635081 303.548182 
L 1317.045098 283.272149 
L 1324.455115 303.548182 
L 1331.865131 303.548182 
L 1339.275148 222.44405 
L 1346.685164 283.272149 
L 1354.095181 283.272149 
L 1361.505198 303.548182 
L 1368.915214 303.548182 
L 1376.325231 283.272149 
L 1383.735247 283.272149 
" clip-path="url(#p0dd5153f77)" style="fill: none; stroke: #ff7f0e; stroke-width: 2.25; stroke-linecap: round"/>
   </g>
   <g id="patch_15">
    <path d="M 1010.27041 314.7 
L 1010.27041 69.36 
" style="fill: none; stroke: #262626; stroke-width: 1.875; stroke-linejoin: miter; stroke-linecap: square"/>
   </g>
   <g id="patch_16">
    <path d="M 1401.519287 314.7 
L 1401.519287 69.36 
" style="fill: none; stroke: #262626; stroke-width: 1.875; stroke-linejoin: miter; stroke-linecap: square"/>
   </g>
   <g id="patch_17">
    <path d="M 1010.27041 314.7 
L 1401.519287 314.7 
" style="fill: none; stroke: #262626; stroke-width: 1.875; stroke-linejoin: miter; stroke-linecap: square"/>
   </g>
   <g id="patch_18">
    <path d="M 1010.27041 69.36 
L 1401.519287 69.36 
" style="fill: none; stroke: #262626; stroke-width: 1.875; stroke-linejoin: miter; stroke-linecap: square"/>
   </g>
   <g id="text_46">
    <!-- 2020, Mean Absolute error (MAE): 0.04 -->
    <g style="fill: #262626" transform="translate(1049.322974 63.36) scale(0.18 -0.18)">
     <use xlink:href="#ArialMT-32"/>
     <use xlink:href="#ArialMT-30" x="55.615234"/>
     <use xlink:href="#ArialMT-32" x="111.230469"/>
     <use xlink:href="#ArialMT-30" x="166.845703"/>
     <use xlink:href="#ArialMT-2c" x="222.460938"/>
     <use xlink:href="#ArialMT-20" x="250.244141"/>
     <use xlink:href="#ArialMT-4d" x="278.027344"/>
     <use xlink:href="#ArialMT-65" x="361.328125"/>
     <use xlink:href="#ArialMT-61" x="416.943359"/>
     <use xlink:href="#ArialMT-6e" x="472.558594"/>
     <use xlink:href="#ArialMT-20" x="528.173828"/>
     <use xlink:href="#ArialMT-41" x="550.457031"/>
     <use xlink:href="#ArialMT-62" x="617.15625"/>
     <use xlink:href="#ArialMT-73" x="672.771484"/>
     <use xlink:href="#ArialMT-6f" x="722.771484"/>
     <use xlink:href="#ArialMT-6c" x="778.386719"/>
     <use xlink:href="#ArialMT-75" x="800.603516"/>
     <use xlink:href="#ArialMT-74" x="856.21875"/>
     <use xlink:href="#ArialMT-65" x="884.001953"/>
     <use xlink:href="#ArialMT-20" x="939.617188"/>
     <use xlink:href="#ArialMT-65" x="967.400391"/>
     <use xlink:href="#ArialMT-72" x="1023.015625"/>
     <use xlink:href="#ArialMT-72" x="1056.316406"/>
     <use xlink:href="#ArialMT-6f" x="1089.617188"/>
     <use xlink:href="#ArialMT-72" x="1145.232422"/>
     <use xlink:href="#ArialMT-20" x="1178.533203"/>
     <use xlink:href="#ArialMT-28" x="1206.316406"/>
     <use xlink:href="#ArialMT-4d" x="1239.617188"/>
     <use xlink:href="#ArialMT-41" x="1322.917969"/>
     <use xlink:href="#ArialMT-45" x="1389.617188"/>
     <use xlink:href="#ArialMT-29" x="1456.316406"/>
     <use xlink:href="#ArialMT-3a" x="1489.617188"/>
     <use xlink:href="#ArialMT-20" x="1517.400391"/>
     <use xlink:href="#ArialMT-30" x="1545.183594"/>
     <use xlink:href="#ArialMT-2e" x="1600.798828"/>
     <use xlink:href="#ArialMT-30" x="1628.582031"/>
     <use xlink:href="#ArialMT-34" x="1684.197266"/>
    </g>
   </g>
   <g id="legend_3">
    <g id="patch_19">
     <path d="M 1286.723115 129.62625 
L 1389.969287 129.62625 
Q 1393.269287 129.62625 1393.269287 126.32625 
L 1393.269287 80.91 
Q 1393.269287 77.61 1389.969287 77.61 
L 1286.723115 77.61 
Q 1283.423115 77.61 1283.423115 80.91 
L 1283.423115 126.32625 
Q 1283.423115 129.62625 1286.723115 129.62625 
z
" style="fill: #ffffff; opacity: 0.8; stroke: #cccccc; stroke-width: 1.5; stroke-linejoin: miter"/>
    </g>
    <g id="line2d_11">
     <path d="M 1290.023115 90.245391 
L 1306.523115 90.245391 
L 1323.023115 90.245391 
" style="fill: none; stroke: #1f77b4; stroke-width: 2.25; stroke-linecap: round"/>
    </g>
    <g id="text_47">
     <!-- pred_y -->
     <g style="fill: #262626" transform="translate(1336.223115 96.020391) scale(0.165 -0.165)">
      <use xlink:href="#ArialMT-70"/>
      <use xlink:href="#ArialMT-72" x="55.615234"/>
      <use xlink:href="#ArialMT-65" x="88.916016"/>
      <use xlink:href="#ArialMT-64" x="144.53125"/>
      <use xlink:href="#ArialMT-5f" x="200.146484"/>
      <use xlink:href="#ArialMT-79" x="255.761719"/>
     </g>
    </g>
    <g id="line2d_12">
     <path d="M 1290.023115 113.778516 
L 1306.523115 113.778516 
L 1323.023115 113.778516 
" style="fill: none; stroke: #ff7f0e; stroke-width: 2.25; stroke-linecap: round"/>
    </g>
    <g id="text_48">
     <!-- true_y -->
     <g style="fill: #262626" transform="translate(1336.223115 119.553516) scale(0.165 -0.165)">
      <use xlink:href="#ArialMT-74"/>
      <use xlink:href="#ArialMT-72" x="27.783203"/>
      <use xlink:href="#ArialMT-75" x="61.083984"/>
      <use xlink:href="#ArialMT-65" x="116.699219"/>
      <use xlink:href="#ArialMT-5f" x="172.314453"/>
      <use xlink:href="#ArialMT-79" x="227.929688"/>
     </g>
    </g>
   </g>
  </g>
  <g id="axes_4">
   <g id="patch_20">
    <path d="M 58.512656 645.9 
L 449.761533 645.9 
L 449.761533 400.56 
L 58.512656 400.56 
z
" style="fill: #ffffff"/>
   </g>
   <g id="matplotlib.axis_7">
    <g id="xtick_17">
     <g id="text_49">
      <!-- 0 -->
      <g style="fill: #262626" transform="translate(71.708923 670.210391) scale(0.165 -0.165)">
       <use xlink:href="#ArialMT-30"/>
      </g>
     </g>
    </g>
    <g id="xtick_18">
     <g id="text_50">
      <!-- 10 -->
      <g style="fill: #262626" transform="translate(142.797915 670.210391) scale(0.165 -0.165)">
       <use xlink:href="#ArialMT-31"/>
       <use xlink:href="#ArialMT-30" x="55.615234"/>
      </g>
     </g>
    </g>
    <g id="xtick_19">
     <g id="text_51">
      <!-- 20 -->
      <g style="fill: #262626" transform="translate(218.47468 670.210391) scale(0.165 -0.165)">
       <use xlink:href="#ArialMT-32"/>
       <use xlink:href="#ArialMT-30" x="55.615234"/>
      </g>
     </g>
    </g>
    <g id="xtick_20">
     <g id="text_52">
      <!-- 30 -->
      <g style="fill: #262626" transform="translate(294.151445 670.210391) scale(0.165 -0.165)">
       <use xlink:href="#ArialMT-33"/>
       <use xlink:href="#ArialMT-30" x="55.615234"/>
      </g>
     </g>
    </g>
    <g id="xtick_21">
     <g id="text_53">
      <!-- 40 -->
      <g style="fill: #262626" transform="translate(369.828211 670.210391) scale(0.165 -0.165)">
       <use xlink:href="#ArialMT-34"/>
       <use xlink:href="#ArialMT-30" x="55.615234"/>
      </g>
     </g>
    </g>
    <g id="text_54">
     <!-- Week Index -->
     <g style="fill: #262626" transform="translate(206.774595 690.373828) scale(0.18 -0.18)">
      <use xlink:href="#ArialMT-57"/>
      <use xlink:href="#ArialMT-65" x="92.634766"/>
      <use xlink:href="#ArialMT-65" x="148.25"/>
      <use xlink:href="#ArialMT-6b" x="203.865234"/>
      <use xlink:href="#ArialMT-20" x="253.865234"/>
      <use xlink:href="#ArialMT-49" x="281.648438"/>
      <use xlink:href="#ArialMT-6e" x="309.431641"/>
      <use xlink:href="#ArialMT-64" x="365.046875"/>
      <use xlink:href="#ArialMT-65" x="420.662109"/>
      <use xlink:href="#ArialMT-78" x="476.277344"/>
     </g>
    </g>
   </g>
   <g id="matplotlib.axis_8">
    <g id="ytick_18">
     <g id="text_55">
      <!-- 0 -->
      <g style="fill: #262626" transform="translate(36.837109 640.653377) scale(0.165 -0.165)">
       <use xlink:href="#ArialMT-30"/>
      </g>
     </g>
    </g>
    <g id="ytick_19">
     <g id="text_56">
      <!-- 5 -->
      <g style="fill: #262626" transform="translate(36.837109 578.698832) scale(0.165 -0.165)">
       <use xlink:href="#ArialMT-35"/>
      </g>
     </g>
    </g>
    <g id="ytick_20">
     <g id="text_57">
      <!-- 10 -->
      <g style="fill: #262626" transform="translate(27.661563 516.744286) scale(0.165 -0.165)">
       <use xlink:href="#ArialMT-31"/>
       <use xlink:href="#ArialMT-30" x="55.615234"/>
      </g>
     </g>
    </g>
    <g id="ytick_21">
     <g id="text_58">
      <!-- 15 -->
      <g style="fill: #262626" transform="translate(27.661563 454.789741) scale(0.165 -0.165)">
       <use xlink:href="#ArialMT-31"/>
       <use xlink:href="#ArialMT-35" x="55.615234"/>
      </g>
     </g>
    </g>
    <g id="text_59">
     <!-- Number of cases -->
     <g style="fill: #262626" transform="translate(20.084063 591.253125) rotate(-90) scale(0.18 -0.18)">
      <use xlink:href="#ArialMT-4e"/>
      <use xlink:href="#ArialMT-75" x="72.216797"/>
      <use xlink:href="#ArialMT-6d" x="127.832031"/>
      <use xlink:href="#ArialMT-62" x="211.132812"/>
      <use xlink:href="#ArialMT-65" x="266.748047"/>
      <use xlink:href="#ArialMT-72" x="322.363281"/>
      <use xlink:href="#ArialMT-20" x="355.664062"/>
      <use xlink:href="#ArialMT-6f" x="383.447266"/>
      <use xlink:href="#ArialMT-66" x="439.0625"/>
      <use xlink:href="#ArialMT-20" x="466.845703"/>
      <use xlink:href="#ArialMT-63" x="494.628906"/>
      <use xlink:href="#ArialMT-61" x="544.628906"/>
      <use xlink:href="#ArialMT-73" x="600.244141"/>
      <use xlink:href="#ArialMT-65" x="650.244141"/>
      <use xlink:href="#ArialMT-73" x="705.859375"/>
     </g>
    </g>
   </g>
   <g id="line2d_13">
    <path d="M 76.296696 609.278166 
L 83.864373 607.164898 
L 91.432049 616.560761 
L 98.999726 581.500251 
L 106.567402 613.753649 
L 114.135079 617.211953 
L 121.702755 616.984769 
L 129.270432 629.066296 
L 136.838108 622.489373 
L 144.405785 616.175998 
L 151.973461 626.926168 
L 159.541138 632.161318 
L 167.108815 630.963915 
L 174.676491 630.737583 
L 182.244168 632.197241 
L 189.811844 629.166257 
L 197.379521 628.974387 
L 204.947197 632.020149 
L 212.514874 632.056151 
L 220.08255 629.559913 
L 227.650227 632.284058 
L 235.217903 629.614794 
L 242.78558 631.084219 
L 250.353256 629.033635 
L 257.920933 629.507156 
L 265.48861 628.47626 
L 273.056286 625.980025 
L 280.623963 630.882484 
L 288.191639 630.369461 
L 295.759316 632.663468 
L 303.326992 630.77469 
L 310.894669 629.434902 
L 318.462345 629.638904 
L 326.030022 630.159723 
L 333.597698 631.414665 
L 341.165375 628.406948 
L 348.733051 629.344435 
L 356.300728 627.631479 
L 363.868405 628.218289 
L 371.436081 632.015166 
L 379.003758 627.635188 
L 386.571434 627.700845 
L 394.139111 628.606244 
L 401.706787 621.506018 
L 409.274464 626.131725 
L 416.84214 612.672569 
L 424.409817 458.594285 
L 431.977493 560.955959 
" clip-path="url(#p95b0e3087d)" style="fill: none; stroke: #1f77b4; stroke-width: 2.25; stroke-linecap: round"/>
   </g>
   <g id="line2d_14">
    <path d="M 76.296696 634.748182 
L 83.864373 634.748182 
L 91.432049 634.748182 
L 98.999726 609.966364 
L 106.567402 634.748182 
L 114.135079 622.357273 
L 121.702755 622.357273 
L 129.270432 634.748182 
L 136.838108 634.748182 
L 144.405785 622.357273 
L 151.973461 634.748182 
L 159.541138 634.748182 
L 167.108815 634.748182 
L 174.676491 609.966364 
L 182.244168 634.748182 
L 189.811844 634.748182 
L 197.379521 634.748182 
L 204.947197 634.748182 
L 212.514874 634.748182 
L 220.08255 634.748182 
L 227.650227 634.748182 
L 235.217903 634.748182 
L 242.78558 634.748182 
L 250.353256 634.748182 
L 257.920933 634.748182 
L 265.48861 634.748182 
L 273.056286 634.748182 
L 280.623963 634.748182 
L 288.191639 634.748182 
L 295.759316 634.748182 
L 303.326992 634.748182 
L 310.894669 634.748182 
L 318.462345 634.748182 
L 326.030022 634.748182 
L 333.597698 634.748182 
L 341.165375 634.748182 
L 348.733051 634.748182 
L 356.300728 622.357273 
L 363.868405 634.748182 
L 371.436081 634.748182 
L 379.003758 634.748182 
L 386.571434 609.966364 
L 394.139111 622.357273 
L 401.706787 622.357273 
L 409.274464 634.748182 
L 416.84214 597.575455 
L 424.409817 411.711818 
L 431.977493 585.184545 
" clip-path="url(#p95b0e3087d)" style="fill: none; stroke: #ff7f0e; stroke-width: 2.25; stroke-linecap: round"/>
   </g>
   <g id="patch_21">
    <path d="M 58.512656 645.9 
L 58.512656 400.56 
" style="fill: none; stroke: #262626; stroke-width: 1.875; stroke-linejoin: miter; stroke-linecap: square"/>
   </g>
   <g id="patch_22">
    <path d="M 449.761533 645.9 
L 449.761533 400.56 
" style="fill: none; stroke: #262626; stroke-width: 1.875; stroke-linejoin: miter; stroke-linecap: square"/>
   </g>
   <g id="patch_23">
    <path d="M 58.512656 645.9 
L 449.761533 645.9 
" style="fill: none; stroke: #262626; stroke-width: 1.875; stroke-linejoin: miter; stroke-linecap: square"/>
   </g>
   <g id="patch_24">
    <path d="M 58.512656 400.56 
L 449.761533 400.56 
" style="fill: none; stroke: #262626; stroke-width: 1.875; stroke-linejoin: miter; stroke-linecap: square"/>
   </g>
   <g id="text_60">
    <!-- 2021, Mean Absolute error (MAE): 0.04 -->
    <g style="fill: #262626" transform="translate(97.56522 394.56) scale(0.18 -0.18)">
     <use xlink:href="#ArialMT-32"/>
     <use xlink:href="#ArialMT-30" x="55.615234"/>
     <use xlink:href="#ArialMT-32" x="111.230469"/>
     <use xlink:href="#ArialMT-31" x="166.845703"/>
     <use xlink:href="#ArialMT-2c" x="222.460938"/>
     <use xlink:href="#ArialMT-20" x="250.244141"/>
     <use xlink:href="#ArialMT-4d" x="278.027344"/>
     <use xlink:href="#ArialMT-65" x="361.328125"/>
     <use xlink:href="#ArialMT-61" x="416.943359"/>
     <use xlink:href="#ArialMT-6e" x="472.558594"/>
     <use xlink:href="#ArialMT-20" x="528.173828"/>
     <use xlink:href="#ArialMT-41" x="550.457031"/>
     <use xlink:href="#ArialMT-62" x="617.15625"/>
     <use xlink:href="#ArialMT-73" x="672.771484"/>
     <use xlink:href="#ArialMT-6f" x="722.771484"/>
     <use xlink:href="#ArialMT-6c" x="778.386719"/>
     <use xlink:href="#ArialMT-75" x="800.603516"/>
     <use xlink:href="#ArialMT-74" x="856.21875"/>
     <use xlink:href="#ArialMT-65" x="884.001953"/>
     <use xlink:href="#ArialMT-20" x="939.617188"/>
     <use xlink:href="#ArialMT-65" x="967.400391"/>
     <use xlink:href="#ArialMT-72" x="1023.015625"/>
     <use xlink:href="#ArialMT-72" x="1056.316406"/>
     <use xlink:href="#ArialMT-6f" x="1089.617188"/>
     <use xlink:href="#ArialMT-72" x="1145.232422"/>
     <use xlink:href="#ArialMT-20" x="1178.533203"/>
     <use xlink:href="#ArialMT-28" x="1206.316406"/>
     <use xlink:href="#ArialMT-4d" x="1239.617188"/>
     <use xlink:href="#ArialMT-41" x="1322.917969"/>
     <use xlink:href="#ArialMT-45" x="1389.617188"/>
     <use xlink:href="#ArialMT-29" x="1456.316406"/>
     <use xlink:href="#ArialMT-3a" x="1489.617188"/>
     <use xlink:href="#ArialMT-20" x="1517.400391"/>
     <use xlink:href="#ArialMT-30" x="1545.183594"/>
     <use xlink:href="#ArialMT-2e" x="1600.798828"/>
     <use xlink:href="#ArialMT-30" x="1628.582031"/>
     <use xlink:href="#ArialMT-34" x="1684.197266"/>
    </g>
   </g>
   <g id="legend_4">
    <g id="patch_25">
     <path d="M 334.965361 460.82625 
L 438.211533 460.82625 
Q 441.511533 460.82625 441.511533 457.52625 
L 441.511533 412.11 
Q 441.511533 408.81 438.211533 408.81 
L 334.965361 408.81 
Q 331.665361 408.81 331.665361 412.11 
L 331.665361 457.52625 
Q 331.665361 460.82625 334.965361 460.82625 
z
" style="fill: #ffffff; opacity: 0.8; stroke: #cccccc; stroke-width: 1.5; stroke-linejoin: miter"/>
    </g>
    <g id="line2d_15">
     <path d="M 338.265361 421.445391 
L 354.765361 421.445391 
L 371.265361 421.445391 
" style="fill: none; stroke: #1f77b4; stroke-width: 2.25; stroke-linecap: round"/>
    </g>
    <g id="text_61">
     <!-- pred_y -->
     <g style="fill: #262626" transform="translate(384.465361 427.220391) scale(0.165 -0.165)">
      <use xlink:href="#ArialMT-70"/>
      <use xlink:href="#ArialMT-72" x="55.615234"/>
      <use xlink:href="#ArialMT-65" x="88.916016"/>
      <use xlink:href="#ArialMT-64" x="144.53125"/>
      <use xlink:href="#ArialMT-5f" x="200.146484"/>
      <use xlink:href="#ArialMT-79" x="255.761719"/>
     </g>
    </g>
    <g id="line2d_16">
     <path d="M 338.265361 444.978516 
L 354.765361 444.978516 
L 371.265361 444.978516 
" style="fill: none; stroke: #ff7f0e; stroke-width: 2.25; stroke-linecap: round"/>
    </g>
    <g id="text_62">
     <!-- true_y -->
     <g style="fill: #262626" transform="translate(384.465361 450.753516) scale(0.165 -0.165)">
      <use xlink:href="#ArialMT-74"/>
      <use xlink:href="#ArialMT-72" x="27.783203"/>
      <use xlink:href="#ArialMT-75" x="61.083984"/>
      <use xlink:href="#ArialMT-65" x="116.699219"/>
      <use xlink:href="#ArialMT-5f" x="172.314453"/>
      <use xlink:href="#ArialMT-79" x="227.929688"/>
     </g>
    </g>
   </g>
  </g>
  <g id="axes_5">
   <g id="patch_26">
    <path d="M 534.391533 645.9 
L 925.64041 645.9 
L 925.64041 400.56 
L 534.391533 400.56 
z
" style="fill: #ffffff"/>
   </g>
   <g id="matplotlib.axis_9">
    <g id="xtick_22">
     <g id="text_63">
      <!-- 0 -->
      <g style="fill: #262626" transform="translate(547.5878 670.210391) scale(0.165 -0.165)">
       <use xlink:href="#ArialMT-30"/>
      </g>
     </g>
    </g>
    <g id="xtick_23">
     <g id="text_64">
      <!-- 10 -->
      <g style="fill: #262626" transform="translate(618.676792 670.210391) scale(0.165 -0.165)">
       <use xlink:href="#ArialMT-31"/>
       <use xlink:href="#ArialMT-30" x="55.615234"/>
      </g>
     </g>
    </g>
    <g id="xtick_24">
     <g id="text_65">
      <!-- 20 -->
      <g style="fill: #262626" transform="translate(694.353557 670.210391) scale(0.165 -0.165)">
       <use xlink:href="#ArialMT-32"/>
       <use xlink:href="#ArialMT-30" x="55.615234"/>
      </g>
     </g>
    </g>
    <g id="xtick_25">
     <g id="text_66">
      <!-- 30 -->
      <g style="fill: #262626" transform="translate(770.030322 670.210391) scale(0.165 -0.165)">
       <use xlink:href="#ArialMT-33"/>
       <use xlink:href="#ArialMT-30" x="55.615234"/>
      </g>
     </g>
    </g>
    <g id="xtick_26">
     <g id="text_67">
      <!-- 40 -->
      <g style="fill: #262626" transform="translate(845.707088 670.210391) scale(0.165 -0.165)">
       <use xlink:href="#ArialMT-34"/>
       <use xlink:href="#ArialMT-30" x="55.615234"/>
      </g>
     </g>
    </g>
    <g id="text_68">
     <!-- Week Index -->
     <g style="fill: #262626" transform="translate(682.653472 690.373828) scale(0.18 -0.18)">
      <use xlink:href="#ArialMT-57"/>
      <use xlink:href="#ArialMT-65" x="92.634766"/>
      <use xlink:href="#ArialMT-65" x="148.25"/>
      <use xlink:href="#ArialMT-6b" x="203.865234"/>
      <use xlink:href="#ArialMT-20" x="253.865234"/>
      <use xlink:href="#ArialMT-49" x="281.648438"/>
      <use xlink:href="#ArialMT-6e" x="309.431641"/>
      <use xlink:href="#ArialMT-64" x="365.046875"/>
      <use xlink:href="#ArialMT-65" x="420.662109"/>
      <use xlink:href="#ArialMT-78" x="476.277344"/>
     </g>
    </g>
   </g>
   <g id="matplotlib.axis_10">
    <g id="ytick_22">
     <g id="text_69">
      <!-- 0.0 -->
      <g style="fill: #262626" transform="translate(498.956533 640.653377) scale(0.165 -0.165)">
       <use xlink:href="#ArialMT-30"/>
       <use xlink:href="#ArialMT-2e" x="55.615234"/>
       <use xlink:href="#ArialMT-30" x="83.398438"/>
      </g>
     </g>
    </g>
    <g id="ytick_23">
     <g id="text_70">
      <!-- 2.5 -->
      <g style="fill: #262626" transform="translate(498.956533 603.480652) scale(0.165 -0.165)">
       <use xlink:href="#ArialMT-32"/>
       <use xlink:href="#ArialMT-2e" x="55.615234"/>
       <use xlink:href="#ArialMT-35" x="83.398438"/>
      </g>
     </g>
    </g>
    <g id="ytick_24">
     <g id="text_71">
      <!-- 5.0 -->
      <g style="fill: #262626" transform="translate(498.956533 566.307927) scale(0.165 -0.165)">
       <use xlink:href="#ArialMT-35"/>
       <use xlink:href="#ArialMT-2e" x="55.615234"/>
       <use xlink:href="#ArialMT-30" x="83.398438"/>
      </g>
     </g>
    </g>
    <g id="ytick_25">
     <g id="text_72">
      <!-- 7.5 -->
      <g style="fill: #262626" transform="translate(498.956533 529.135202) scale(0.165 -0.165)">
       <defs>
        <path id="ArialMT-37" d="M 303 3981 
L 303 4522 
L 3269 4522 
L 3269 4084 
Q 2831 3619 2401 2847 
Q 1972 2075 1738 1259 
Q 1569 684 1522 0 
L 944 0 
Q 953 541 1156 1306 
Q 1359 2072 1739 2783 
Q 2119 3494 2547 3981 
L 303 3981 
z
" transform="scale(0.015625)"/>
       </defs>
       <use xlink:href="#ArialMT-37"/>
       <use xlink:href="#ArialMT-2e" x="55.615234"/>
       <use xlink:href="#ArialMT-35" x="83.398438"/>
      </g>
     </g>
    </g>
    <g id="ytick_26">
     <g id="text_73">
      <!-- 10.0 -->
      <g style="fill: #262626" transform="translate(489.780986 491.962477) scale(0.165 -0.165)">
       <use xlink:href="#ArialMT-31"/>
       <use xlink:href="#ArialMT-30" x="55.615234"/>
       <use xlink:href="#ArialMT-2e" x="111.230469"/>
       <use xlink:href="#ArialMT-30" x="139.013672"/>
      </g>
     </g>
    </g>
    <g id="ytick_27">
     <g id="text_74">
      <!-- 12.5 -->
      <g style="fill: #262626" transform="translate(489.780986 454.789753) scale(0.165 -0.165)">
       <use xlink:href="#ArialMT-31"/>
       <use xlink:href="#ArialMT-32" x="55.615234"/>
       <use xlink:href="#ArialMT-2e" x="111.230469"/>
       <use xlink:href="#ArialMT-35" x="139.013672"/>
      </g>
     </g>
    </g>
    <g id="ytick_28">
     <g id="text_75">
      <!-- 15.0 -->
      <g style="fill: #262626" transform="translate(489.780986 417.617028) scale(0.165 -0.165)">
       <use xlink:href="#ArialMT-31"/>
       <use xlink:href="#ArialMT-35" x="55.615234"/>
       <use xlink:href="#ArialMT-2e" x="111.230469"/>
       <use xlink:href="#ArialMT-30" x="139.013672"/>
      </g>
     </g>
    </g>
    <g id="text_76">
     <!-- Number of cases -->
     <g style="fill: #262626" transform="translate(482.203486 591.253125) rotate(-90) scale(0.18 -0.18)">
      <use xlink:href="#ArialMT-4e"/>
      <use xlink:href="#ArialMT-75" x="72.216797"/>
      <use xlink:href="#ArialMT-6d" x="127.832031"/>
      <use xlink:href="#ArialMT-62" x="211.132812"/>
      <use xlink:href="#ArialMT-65" x="266.748047"/>
      <use xlink:href="#ArialMT-72" x="322.363281"/>
      <use xlink:href="#ArialMT-20" x="355.664062"/>
      <use xlink:href="#ArialMT-6f" x="383.447266"/>
      <use xlink:href="#ArialMT-66" x="439.0625"/>
      <use xlink:href="#ArialMT-20" x="466.845703"/>
      <use xlink:href="#ArialMT-63" x="494.628906"/>
      <use xlink:href="#ArialMT-61" x="544.628906"/>
      <use xlink:href="#ArialMT-73" x="600.244141"/>
      <use xlink:href="#ArialMT-65" x="650.244141"/>
      <use xlink:href="#ArialMT-73" x="705.859375"/>
     </g>
    </g>
   </g>
   <g id="line2d_17">
    <path d="M 552.175573 615.099285 
L 559.74325 610.809089 
L 567.310926 597.120993 
L 574.878603 591.335231 
L 582.446279 590.796069 
L 590.013956 610.777569 
L 597.581632 618.482544 
L 605.149309 614.023194 
L 612.716985 609.849453 
L 620.284662 627.706539 
L 627.852338 631.574811 
L 635.420015 631.731683 
L 642.987692 628.814703 
L 650.555368 629.573744 
L 658.123045 621.095638 
L 665.690721 631.204397 
L 673.258398 629.051786 
L 680.826074 624.924199 
L 688.393751 621.152973 
L 695.961427 631.802702 
L 703.529104 624.084348 
L 711.09678 628.735456 
L 718.664457 625.21877 
L 726.232133 628.756592 
L 733.79981 624.189075 
L 741.367487 625.748107 
L 748.935163 627.760781 
L 756.50284 628.680755 
L 764.070516 627.853945 
L 771.638193 625.702559 
L 779.205869 627.188539 
L 786.773546 627.342583 
L 794.341222 625.437845 
L 801.908899 629.760302 
L 809.476575 631.002798 
L 817.044252 629.313252 
L 824.611928 625.973078 
L 832.179605 626.078223 
L 839.747282 633.170202 
L 847.314958 628.928873 
L 854.882635 627.700509 
L 862.450311 626.558515 
L 870.017988 626.557188 
L 877.585664 612.886831 
L 885.153341 611.279003 
L 892.721017 607.589774 
L 900.288694 609.635631 
L 907.85637 552.909445 
" clip-path="url(#p9b68445d28)" style="fill: none; stroke: #1f77b4; stroke-width: 2.25; stroke-linecap: round"/>
   </g>
   <g id="line2d_18">
    <path d="M 552.175573 575.271822 
L 559.74325 515.795462 
L 567.310926 411.711818 
L 574.878603 411.711818 
L 582.446279 634.748182 
L 590.013956 619.879092 
L 597.581632 590.140912 
L 605.149309 575.271822 
L 612.716985 605.010002 
L 620.284662 619.879092 
L 627.852338 605.010002 
L 635.420015 619.879092 
L 642.987692 634.748182 
L 650.555368 634.748182 
L 658.123045 634.748182 
L 665.690721 634.748182 
L 673.258398 634.748182 
L 680.826074 634.748182 
L 688.393751 634.748182 
L 695.961427 634.748182 
L 703.529104 634.748182 
L 711.09678 634.748182 
L 718.664457 634.748182 
L 726.232133 634.748182 
L 733.79981 634.748182 
L 741.367487 619.879092 
L 748.935163 634.748182 
L 756.50284 634.748182 
L 764.070516 634.748182 
L 771.638193 634.748182 
L 779.205869 634.748182 
L 786.773546 619.879092 
L 794.341222 619.879092 
L 801.908899 619.879092 
L 809.476575 634.748182 
L 817.044252 619.879092 
L 824.611928 634.748182 
L 832.179605 634.748182 
L 839.747282 634.748182 
L 847.314958 634.748182 
L 854.882635 634.748182 
L 862.450311 634.748182 
L 870.017988 634.748182 
L 877.585664 486.057282 
L 885.153341 530.664545 
L 892.721017 619.879092 
L 900.288694 545.533642 
L 907.85637 634.748182 
" clip-path="url(#p9b68445d28)" style="fill: none; stroke: #ff7f0e; stroke-width: 2.25; stroke-linecap: round"/>
   </g>
   <g id="patch_27">
    <path d="M 534.391533 645.9 
L 534.391533 400.56 
" style="fill: none; stroke: #262626; stroke-width: 1.875; stroke-linejoin: miter; stroke-linecap: square"/>
   </g>
   <g id="patch_28">
    <path d="M 925.64041 645.9 
L 925.64041 400.56 
" style="fill: none; stroke: #262626; stroke-width: 1.875; stroke-linejoin: miter; stroke-linecap: square"/>
   </g>
   <g id="patch_29">
    <path d="M 534.391533 645.9 
L 925.64041 645.9 
" style="fill: none; stroke: #262626; stroke-width: 1.875; stroke-linejoin: miter; stroke-linecap: square"/>
   </g>
   <g id="patch_30">
    <path d="M 534.391533 400.56 
L 925.64041 400.56 
" style="fill: none; stroke: #262626; stroke-width: 1.875; stroke-linejoin: miter; stroke-linecap: square"/>
   </g>
   <g id="text_77">
    <!-- 2022, Mean Absolute error (MAE): 0.11 -->
    <g style="fill: #262626" transform="translate(574.107847 394.56) scale(0.18 -0.18)">
     <use xlink:href="#ArialMT-32"/>
     <use xlink:href="#ArialMT-30" x="55.615234"/>
     <use xlink:href="#ArialMT-32" x="111.230469"/>
     <use xlink:href="#ArialMT-32" x="166.845703"/>
     <use xlink:href="#ArialMT-2c" x="222.460938"/>
     <use xlink:href="#ArialMT-20" x="250.244141"/>
     <use xlink:href="#ArialMT-4d" x="278.027344"/>
     <use xlink:href="#ArialMT-65" x="361.328125"/>
     <use xlink:href="#ArialMT-61" x="416.943359"/>
     <use xlink:href="#ArialMT-6e" x="472.558594"/>
     <use xlink:href="#ArialMT-20" x="528.173828"/>
     <use xlink:href="#ArialMT-41" x="550.457031"/>
     <use xlink:href="#ArialMT-62" x="617.15625"/>
     <use xlink:href="#ArialMT-73" x="672.771484"/>
     <use xlink:href="#ArialMT-6f" x="722.771484"/>
     <use xlink:href="#ArialMT-6c" x="778.386719"/>
     <use xlink:href="#ArialMT-75" x="800.603516"/>
     <use xlink:href="#ArialMT-74" x="856.21875"/>
     <use xlink:href="#ArialMT-65" x="884.001953"/>
     <use xlink:href="#ArialMT-20" x="939.617188"/>
     <use xlink:href="#ArialMT-65" x="967.400391"/>
     <use xlink:href="#ArialMT-72" x="1023.015625"/>
     <use xlink:href="#ArialMT-72" x="1056.316406"/>
     <use xlink:href="#ArialMT-6f" x="1089.617188"/>
     <use xlink:href="#ArialMT-72" x="1145.232422"/>
     <use xlink:href="#ArialMT-20" x="1178.533203"/>
     <use xlink:href="#ArialMT-28" x="1206.316406"/>
     <use xlink:href="#ArialMT-4d" x="1239.617188"/>
     <use xlink:href="#ArialMT-41" x="1322.917969"/>
     <use xlink:href="#ArialMT-45" x="1389.617188"/>
     <use xlink:href="#ArialMT-29" x="1456.316406"/>
     <use xlink:href="#ArialMT-3a" x="1489.617188"/>
     <use xlink:href="#ArialMT-20" x="1517.400391"/>
     <use xlink:href="#ArialMT-30" x="1545.183594"/>
     <use xlink:href="#ArialMT-2e" x="1600.798828"/>
     <use xlink:href="#ArialMT-31" x="1628.582031"/>
     <use xlink:href="#ArialMT-31" x="1676.822266"/>
    </g>
   </g>
   <g id="legend_5">
    <g id="patch_31">
     <path d="M 810.844238 460.82625 
L 914.09041 460.82625 
Q 917.39041 460.82625 917.39041 457.52625 
L 917.39041 412.11 
Q 917.39041 408.81 914.09041 408.81 
L 810.844238 408.81 
Q 807.544238 408.81 807.544238 412.11 
L 807.544238 457.52625 
Q 807.544238 460.82625 810.844238 460.82625 
z
" style="fill: #ffffff; opacity: 0.8; stroke: #cccccc; stroke-width: 1.5; stroke-linejoin: miter"/>
    </g>
    <g id="line2d_19">
     <path d="M 814.144238 421.445391 
L 830.644238 421.445391 
L 847.144238 421.445391 
" style="fill: none; stroke: #1f77b4; stroke-width: 2.25; stroke-linecap: round"/>
    </g>
    <g id="text_78">
     <!-- pred_y -->
     <g style="fill: #262626" transform="translate(860.344238 427.220391) scale(0.165 -0.165)">
      <use xlink:href="#ArialMT-70"/>
      <use xlink:href="#ArialMT-72" x="55.615234"/>
      <use xlink:href="#ArialMT-65" x="88.916016"/>
      <use xlink:href="#ArialMT-64" x="144.53125"/>
      <use xlink:href="#ArialMT-5f" x="200.146484"/>
      <use xlink:href="#ArialMT-79" x="255.761719"/>
     </g>
    </g>
    <g id="line2d_20">
     <path d="M 814.144238 444.978516 
L 830.644238 444.978516 
L 847.144238 444.978516 
" style="fill: none; stroke: #ff7f0e; stroke-width: 2.25; stroke-linecap: round"/>
    </g>
    <g id="text_79">
     <!-- true_y -->
     <g style="fill: #262626" transform="translate(860.344238 450.753516) scale(0.165 -0.165)">
      <use xlink:href="#ArialMT-74"/>
      <use xlink:href="#ArialMT-72" x="27.783203"/>
      <use xlink:href="#ArialMT-75" x="61.083984"/>
      <use xlink:href="#ArialMT-65" x="116.699219"/>
      <use xlink:href="#ArialMT-5f" x="172.314453"/>
      <use xlink:href="#ArialMT-79" x="227.929688"/>
     </g>
    </g>
   </g>
  </g>
  <g id="axes_6">
   <g id="patch_32">
    <path d="M 1010.27041 645.9 
L 1401.519287 645.9 
L 1401.519287 400.56 
L 1010.27041 400.56 
z
" style="fill: #ffffff"/>
   </g>
   <g id="matplotlib.axis_11">
    <g id="xtick_27">
     <g id="text_80">
      <!-- 0 -->
      <g style="fill: #262626" transform="translate(1023.466677 670.210391) scale(0.165 -0.165)">
       <use xlink:href="#ArialMT-30"/>
      </g>
     </g>
    </g>
    <g id="xtick_28">
     <g id="text_81">
      <!-- 10 -->
      <g style="fill: #262626" transform="translate(1094.555669 670.210391) scale(0.165 -0.165)">
       <use xlink:href="#ArialMT-31"/>
       <use xlink:href="#ArialMT-30" x="55.615234"/>
      </g>
     </g>
    </g>
    <g id="xtick_29">
     <g id="text_82">
      <!-- 20 -->
      <g style="fill: #262626" transform="translate(1170.232434 670.210391) scale(0.165 -0.165)">
       <use xlink:href="#ArialMT-32"/>
       <use xlink:href="#ArialMT-30" x="55.615234"/>
      </g>
     </g>
    </g>
    <g id="xtick_30">
     <g id="text_83">
      <!-- 30 -->
      <g style="fill: #262626" transform="translate(1245.909199 670.210391) scale(0.165 -0.165)">
       <use xlink:href="#ArialMT-33"/>
       <use xlink:href="#ArialMT-30" x="55.615234"/>
      </g>
     </g>
    </g>
    <g id="xtick_31">
     <g id="text_84">
      <!-- 40 -->
      <g style="fill: #262626" transform="translate(1321.585965 670.210391) scale(0.165 -0.165)">
       <use xlink:href="#ArialMT-34"/>
       <use xlink:href="#ArialMT-30" x="55.615234"/>
      </g>
     </g>
    </g>
    <g id="text_85">
     <!-- Week Index -->
     <g style="fill: #262626" transform="translate(1158.532349 690.373828) scale(0.18 -0.18)">
      <use xlink:href="#ArialMT-57"/>
      <use xlink:href="#ArialMT-65" x="92.634766"/>
      <use xlink:href="#ArialMT-65" x="148.25"/>
      <use xlink:href="#ArialMT-6b" x="203.865234"/>
      <use xlink:href="#ArialMT-20" x="253.865234"/>
      <use xlink:href="#ArialMT-49" x="281.648438"/>
      <use xlink:href="#ArialMT-6e" x="309.431641"/>
      <use xlink:href="#ArialMT-64" x="365.046875"/>
      <use xlink:href="#ArialMT-65" x="420.662109"/>
      <use xlink:href="#ArialMT-78" x="476.277344"/>
     </g>
    </g>
   </g>
   <g id="matplotlib.axis_12">
    <g id="ytick_29">
     <g id="text_86">
      <!-- 0 -->
      <g style="fill: #262626" transform="translate(988.594863 640.653377) scale(0.165 -0.165)">
       <use xlink:href="#ArialMT-30"/>
      </g>
     </g>
    </g>
    <g id="ytick_30">
     <g id="text_87">
      <!-- 5 -->
      <g style="fill: #262626" transform="translate(988.594863 581.959597) scale(0.165 -0.165)">
       <use xlink:href="#ArialMT-35"/>
      </g>
     </g>
    </g>
    <g id="ytick_31">
     <g id="text_88">
      <!-- 10 -->
      <g style="fill: #262626" transform="translate(979.419317 523.265817) scale(0.165 -0.165)">
       <use xlink:href="#ArialMT-31"/>
       <use xlink:href="#ArialMT-30" x="55.615234"/>
      </g>
     </g>
    </g>
    <g id="ytick_32">
     <g id="text_89">
      <!-- 15 -->
      <g style="fill: #262626" transform="translate(979.419317 464.572037) scale(0.165 -0.165)">
       <use xlink:href="#ArialMT-31"/>
       <use xlink:href="#ArialMT-35" x="55.615234"/>
      </g>
     </g>
    </g>
    <g id="text_90">
     <!-- Number of cases -->
     <g style="fill: #262626" transform="translate(971.841817 591.253125) rotate(-90) scale(0.18 -0.18)">
      <use xlink:href="#ArialMT-4e"/>
      <use xlink:href="#ArialMT-75" x="72.216797"/>
      <use xlink:href="#ArialMT-6d" x="127.832031"/>
      <use xlink:href="#ArialMT-62" x="211.132812"/>
      <use xlink:href="#ArialMT-65" x="266.748047"/>
      <use xlink:href="#ArialMT-72" x="322.363281"/>
      <use xlink:href="#ArialMT-20" x="355.664062"/>
      <use xlink:href="#ArialMT-6f" x="383.447266"/>
      <use xlink:href="#ArialMT-66" x="439.0625"/>
      <use xlink:href="#ArialMT-20" x="466.845703"/>
      <use xlink:href="#ArialMT-63" x="494.628906"/>
      <use xlink:href="#ArialMT-61" x="544.628906"/>
      <use xlink:href="#ArialMT-73" x="600.244141"/>
      <use xlink:href="#ArialMT-65" x="650.244141"/>
      <use xlink:href="#ArialMT-73" x="705.859375"/>
     </g>
    </g>
   </g>
   <g id="line2d_21">
    <path d="M 1028.05445 619.44344 
L 1035.622127 614.550044 
L 1043.189803 605.681563 
L 1050.75748 617.7869 
L 1058.325156 614.122341 
L 1065.892833 617.266327 
L 1073.460509 607.060633 
L 1081.028186 612.582532 
L 1088.595862 619.114028 
L 1096.163539 619.153769 
L 1103.731216 620.630409 
L 1111.298892 624.777528 
L 1118.866569 631.258297 
L 1126.434245 630.633493 
L 1134.001922 625.664788 
L 1141.569598 631.534219 
L 1149.137275 629.372365 
L 1156.704951 629.91103 
L 1164.272628 629.172419 
L 1171.840304 632.586492 
L 1179.407981 625.994852 
L 1186.975657 633.013525 
L 1194.543334 629.537199 
L 1202.11101 629.779081 
L 1209.678687 631.82214 
L 1217.246364 629.155972 
L 1224.81404 631.617517 
L 1232.381717 625.105302 
L 1239.949393 626.290439 
L 1247.51707 629.031999 
L 1255.084746 629.758305 
L 1262.652423 631.723064 
L 1270.220099 625.239276 
L 1277.787776 631.60078 
L 1285.355452 629.423158 
L 1292.923129 625.409907 
L 1300.490805 630.023355 
L 1308.058482 628.275835 
L 1315.626159 630.981396 
L 1323.193835 619.878117 
L 1330.761512 632.462332 
L 1338.329188 626.218931 
L 1345.896865 621.451829 
L 1353.464541 625.338772 
L 1361.032218 607.589057 
L 1368.599894 604.032944 
L 1376.167571 624.984301 
L 1383.735247 606.371085 
" clip-path="url(#p311d85a08d)" style="fill: none; stroke: #1f77b4; stroke-width: 2.25; stroke-linecap: round"/>
   </g>
   <g id="line2d_22">
    <path d="M 1028.05445 587.793158 
L 1035.622127 470.405587 
L 1043.189803 529.099378 
L 1050.75748 493.88311 
L 1058.325156 576.054402 
L 1065.892833 564.315646 
L 1073.460509 552.576884 
L 1081.028186 470.405587 
L 1088.595862 611.27067 
L 1096.163539 599.531914 
L 1103.731216 623.009426 
L 1111.298892 587.793158 
L 1118.866569 634.748182 
L 1126.434245 599.531914 
L 1134.001922 634.748182 
L 1141.569598 623.009426 
L 1149.137275 634.748182 
L 1156.704951 587.793158 
L 1164.272628 634.748182 
L 1171.840304 623.009426 
L 1179.407981 634.748182 
L 1186.975657 634.748182 
L 1194.543334 634.748182 
L 1202.11101 623.009426 
L 1209.678687 634.748182 
L 1217.246364 599.531914 
L 1224.81404 634.748182 
L 1232.381717 634.748182 
L 1239.949393 587.793158 
L 1247.51707 634.748182 
L 1255.084746 634.748182 
L 1262.652423 623.009426 
L 1270.220099 634.748182 
L 1277.787776 634.748182 
L 1285.355452 634.748182 
L 1292.923129 623.009426 
L 1300.490805 623.009426 
L 1308.058482 623.009426 
L 1315.626159 634.748182 
L 1323.193835 634.748182 
L 1330.761512 587.793158 
L 1338.329188 517.360622 
L 1345.896865 599.531914 
L 1353.464541 517.360622 
L 1361.032218 529.099378 
L 1368.599894 634.748182 
L 1376.167571 458.666831 
L 1383.735247 411.711818 
" clip-path="url(#p311d85a08d)" style="fill: none; stroke: #ff7f0e; stroke-width: 2.25; stroke-linecap: round"/>
   </g>
   <g id="patch_33">
    <path d="M 1010.27041 645.9 
L 1010.27041 400.56 
" style="fill: none; stroke: #262626; stroke-width: 1.875; stroke-linejoin: miter; stroke-linecap: square"/>
   </g>
   <g id="patch_34">
    <path d="M 1401.519287 645.9 
L 1401.519287 400.56 
" style="fill: none; stroke: #262626; stroke-width: 1.875; stroke-linejoin: miter; stroke-linecap: square"/>
   </g>
   <g id="patch_35">
    <path d="M 1010.27041 645.9 
L 1401.519287 645.9 
" style="fill: none; stroke: #262626; stroke-width: 1.875; stroke-linejoin: miter; stroke-linecap: square"/>
   </g>
   <g id="patch_36">
    <path d="M 1010.27041 400.56 
L 1401.519287 400.56 
" style="fill: none; stroke: #262626; stroke-width: 1.875; stroke-linejoin: miter; stroke-linecap: square"/>
   </g>
   <g id="text_91">
    <!-- 2023, Mean Absolute error (MAE): 0.10 -->
    <g style="fill: #262626" transform="translate(1049.322974 394.56) scale(0.18 -0.18)">
     <use xlink:href="#ArialMT-32"/>
     <use xlink:href="#ArialMT-30" x="55.615234"/>
     <use xlink:href="#ArialMT-32" x="111.230469"/>
     <use xlink:href="#ArialMT-33" x="166.845703"/>
     <use xlink:href="#ArialMT-2c" x="222.460938"/>
     <use xlink:href="#ArialMT-20" x="250.244141"/>
     <use xlink:href="#ArialMT-4d" x="278.027344"/>
     <use xlink:href="#ArialMT-65" x="361.328125"/>
     <use xlink:href="#ArialMT-61" x="416.943359"/>
     <use xlink:href="#ArialMT-6e" x="472.558594"/>
     <use xlink:href="#ArialMT-20" x="528.173828"/>
     <use xlink:href="#ArialMT-41" x="550.457031"/>
     <use xlink:href="#ArialMT-62" x="617.15625"/>
     <use xlink:href="#ArialMT-73" x="672.771484"/>
     <use xlink:href="#ArialMT-6f" x="722.771484"/>
     <use xlink:href="#ArialMT-6c" x="778.386719"/>
     <use xlink:href="#ArialMT-75" x="800.603516"/>
     <use xlink:href="#ArialMT-74" x="856.21875"/>
     <use xlink:href="#ArialMT-65" x="884.001953"/>
     <use xlink:href="#ArialMT-20" x="939.617188"/>
     <use xlink:href="#ArialMT-65" x="967.400391"/>
     <use xlink:href="#ArialMT-72" x="1023.015625"/>
     <use xlink:href="#ArialMT-72" x="1056.316406"/>
     <use xlink:href="#ArialMT-6f" x="1089.617188"/>
     <use xlink:href="#ArialMT-72" x="1145.232422"/>
     <use xlink:href="#ArialMT-20" x="1178.533203"/>
     <use xlink:href="#ArialMT-28" x="1206.316406"/>
     <use xlink:href="#ArialMT-4d" x="1239.617188"/>
     <use xlink:href="#ArialMT-41" x="1322.917969"/>
     <use xlink:href="#ArialMT-45" x="1389.617188"/>
     <use xlink:href="#ArialMT-29" x="1456.316406"/>
     <use xlink:href="#ArialMT-3a" x="1489.617188"/>
     <use xlink:href="#ArialMT-20" x="1517.400391"/>
     <use xlink:href="#ArialMT-30" x="1545.183594"/>
     <use xlink:href="#ArialMT-2e" x="1600.798828"/>
     <use xlink:href="#ArialMT-31" x="1628.582031"/>
     <use xlink:href="#ArialMT-30" x="1684.197266"/>
    </g>
   </g>
   <g id="legend_6">
    <g id="patch_37">
     <path d="M 1286.723115 460.82625 
L 1389.969287 460.82625 
Q 1393.269287 460.82625 1393.269287 457.52625 
L 1393.269287 412.11 
Q 1393.269287 408.81 1389.969287 408.81 
L 1286.723115 408.81 
Q 1283.423115 408.81 1283.423115 412.11 
L 1283.423115 457.52625 
Q 1283.423115 460.82625 1286.723115 460.82625 
z
" style="fill: #ffffff; opacity: 0.8; stroke: #cccccc; stroke-width: 1.5; stroke-linejoin: miter"/>
    </g>
    <g id="line2d_23">
     <path d="M 1290.023115 421.445391 
L 1306.523115 421.445391 
L 1323.023115 421.445391 
" style="fill: none; stroke: #1f77b4; stroke-width: 2.25; stroke-linecap: round"/>
    </g>
    <g id="text_92">
     <!-- pred_y -->
     <g style="fill: #262626" transform="translate(1336.223115 427.220391) scale(0.165 -0.165)">
      <use xlink:href="#ArialMT-70"/>
      <use xlink:href="#ArialMT-72" x="55.615234"/>
      <use xlink:href="#ArialMT-65" x="88.916016"/>
      <use xlink:href="#ArialMT-64" x="144.53125"/>
      <use xlink:href="#ArialMT-5f" x="200.146484"/>
      <use xlink:href="#ArialMT-79" x="255.761719"/>
     </g>
    </g>
    <g id="line2d_24">
     <path d="M 1290.023115 444.978516 
L 1306.523115 444.978516 
L 1323.023115 444.978516 
" style="fill: none; stroke: #ff7f0e; stroke-width: 2.25; stroke-linecap: round"/>
    </g>
    <g id="text_93">
     <!-- true_y -->
     <g style="fill: #262626" transform="translate(1336.223115 450.753516) scale(0.165 -0.165)">
      <use xlink:href="#ArialMT-74"/>
      <use xlink:href="#ArialMT-72" x="27.783203"/>
      <use xlink:href="#ArialMT-75" x="61.083984"/>
      <use xlink:href="#ArialMT-65" x="116.699219"/>
      <use xlink:href="#ArialMT-5f" x="172.314453"/>
      <use xlink:href="#ArialMT-79" x="227.929688"/>
     </g>
    </g>
   </g>
  </g>
  <g id="text_94">
   <!-- Predictions for Bauchi state -->
   <g style="fill: #262626" transform="translate(585.930781 21.515625) scale(0.2 -0.2)">
    <defs>
     <path id="ArialMT-50" d="M 494 0 
L 494 4581 
L 2222 4581 
Q 2678 4581 2919 4538 
Q 3256 4481 3484 4323 
Q 3713 4166 3852 3881 
Q 3991 3597 3991 3256 
Q 3991 2672 3619 2267 
Q 3247 1863 2275 1863 
L 1100 1863 
L 1100 0 
L 494 0 
z
M 1100 2403 
L 2284 2403 
Q 2872 2403 3119 2622 
Q 3366 2841 3366 3238 
Q 3366 3525 3220 3729 
Q 3075 3934 2838 4000 
Q 2684 4041 2272 4041 
L 1100 4041 
L 1100 2403 
z
" transform="scale(0.015625)"/>
     <path id="ArialMT-69" d="M 425 3934 
L 425 4581 
L 988 4581 
L 988 3934 
L 425 3934 
z
M 425 0 
L 425 3319 
L 988 3319 
L 988 0 
L 425 0 
z
" transform="scale(0.015625)"/>
     <path id="ArialMT-42" d="M 469 0 
L 469 4581 
L 2188 4581 
Q 2713 4581 3030 4442 
Q 3347 4303 3526 4014 
Q 3706 3725 3706 3409 
Q 3706 3116 3547 2856 
Q 3388 2597 3066 2438 
Q 3481 2316 3704 2022 
Q 3928 1728 3928 1328 
Q 3928 1006 3792 729 
Q 3656 453 3456 303 
Q 3256 153 2954 76 
Q 2653 0 2216 0 
L 469 0 
z
M 1075 2656 
L 2066 2656 
Q 2469 2656 2644 2709 
Q 2875 2778 2992 2937 
Q 3109 3097 3109 3338 
Q 3109 3566 3000 3739 
Q 2891 3913 2687 3977 
Q 2484 4041 1991 4041 
L 1075 4041 
L 1075 2656 
z
M 1075 541 
L 2216 541 
Q 2509 541 2628 563 
Q 2838 600 2978 687 
Q 3119 775 3209 942 
Q 3300 1109 3300 1328 
Q 3300 1584 3169 1773 
Q 3038 1963 2805 2039 
Q 2572 2116 2134 2116 
L 1075 2116 
L 1075 541 
z
" transform="scale(0.015625)"/>
     <path id="ArialMT-68" d="M 422 0 
L 422 4581 
L 984 4581 
L 984 2938 
Q 1378 3394 1978 3394 
Q 2347 3394 2619 3248 
Q 2891 3103 3008 2847 
Q 3125 2591 3125 2103 
L 3125 0 
L 2563 0 
L 2563 2103 
Q 2563 2525 2380 2717 
Q 2197 2909 1863 2909 
Q 1613 2909 1392 2779 
Q 1172 2650 1078 2428 
Q 984 2206 984 1816 
L 984 0 
L 422 0 
z
" transform="scale(0.015625)"/>
    </defs>
    <use xlink:href="#ArialMT-50"/>
    <use xlink:href="#ArialMT-72" x="66.699219"/>
    <use xlink:href="#ArialMT-65" x="100"/>
    <use xlink:href="#ArialMT-64" x="155.615234"/>
    <use xlink:href="#ArialMT-69" x="211.230469"/>
    <use xlink:href="#ArialMT-63" x="233.447266"/>
    <use xlink:href="#ArialMT-74" x="283.447266"/>
    <use xlink:href="#ArialMT-69" x="311.230469"/>
    <use xlink:href="#ArialMT-6f" x="333.447266"/>
    <use xlink:href="#ArialMT-6e" x="389.0625"/>
    <use xlink:href="#ArialMT-73" x="444.677734"/>
    <use xlink:href="#ArialMT-20" x="494.677734"/>
    <use xlink:href="#ArialMT-66" x="522.460938"/>
    <use xlink:href="#ArialMT-6f" x="550.244141"/>
    <use xlink:href="#ArialMT-72" x="605.859375"/>
    <use xlink:href="#ArialMT-20" x="639.160156"/>
    <use xlink:href="#ArialMT-42" x="666.943359"/>
    <use xlink:href="#ArialMT-61" x="733.642578"/>
    <use xlink:href="#ArialMT-75" x="789.257812"/>
    <use xlink:href="#ArialMT-63" x="844.873047"/>
    <use xlink:href="#ArialMT-68" x="894.873047"/>
    <use xlink:href="#ArialMT-69" x="950.488281"/>
    <use xlink:href="#ArialMT-20" x="972.705078"/>
    <use xlink:href="#ArialMT-73" x="1000.488281"/>
    <use xlink:href="#ArialMT-74" x="1050.488281"/>
    <use xlink:href="#ArialMT-61" x="1078.271484"/>
    <use xlink:href="#ArialMT-74" x="1133.886719"/>
    <use xlink:href="#ArialMT-65" x="1161.669922"/>
   </g>
  </g>
 </g>
 <defs>
  <clipPath id="p01f0b2154f">
   <rect x="58.512656" y="69.36" width="391.248877" height="245.34"/>
  </clipPath>
  <clipPath id="p95882346f2">
   <rect x="534.391533" y="69.36" width="391.248877" height="245.34"/>
  </clipPath>
  <clipPath id="p0dd5153f77">
   <rect x="1010.27041" y="69.36" width="391.248877" height="245.34"/>
  </clipPath>
  <clipPath id="p95b0e3087d">
   <rect x="58.512656" y="400.56" width="391.248877" height="245.34"/>
  </clipPath>
  <clipPath id="p9b68445d28">
   <rect x="534.391533" y="400.56" width="391.248877" height="245.34"/>
  </clipPath>
  <clipPath id="p311d85a08d">
   <rect x="1010.27041" y="400.56" width="391.248877" height="245.34"/>
  </clipPath>
 </defs>
</svg>
