<?xml version="1.0" encoding="utf-8" standalone="no"?>
<!DOCTYPE svg PUBLIC "-//W3C//DTD SVG 1.1//EN"
  "http://www.w3.org/Graphics/SVG/1.1/DTD/svg11.dtd">
<svg xmlns:xlink="http://www.w3.org/1999/xlink" width="1415.406563pt" height="695.968828pt" viewBox="0 0 1415.406563 695.968828" xmlns="http://www.w3.org/2000/svg" version="1.1">
 <metadata>
  <rdf:RDF xmlns:dc="http://purl.org/dc/elements/1.1/" xmlns:cc="http://creativecommons.org/ns#" xmlns:rdf="http://www.w3.org/1999/02/22-rdf-syntax-ns#">
   <cc:Work>
    <dc:type rdf:resource="http://purl.org/dc/dcmitype/StillImage"/>
    <dc:date>2025-05-25T12:18:52.212981</dc:date>
    <dc:format>image/svg+xml</dc:format>
    <dc:creator>
     <cc:Agent>
      <dc:title>Matplotlib v3.10.0, https://matplotlib.org/</dc:title>
     </cc:Agent>
    </dc:creator>
   </cc:Work>
  </rdf:RDF>
 </metadata>
 <defs>
  <style type="text/css">*{stroke-linejoin: round; stroke-linecap: butt}</style>
 </defs>
 <g id="figure_1">
  <g id="patch_1">
   <path d="M -0 695.968828 
L 1415.406563 695.968828 
L 1415.406563 0 
L -0 0 
z
" style="fill: #ffffff"/>
  </g>
  <g id="axes_1">
   <g id="patch_2">
    <path d="M 63.096563 640.7175 
L 1408.206563 640.7175 
L 1408.206563 49.1475 
L 63.096563 49.1475 
z
" style="fill: #ffffff"/>
   </g>
   <g id="matplotlib.axis_1">
    <g id="xtick_1">
     <g id="text_1">
      <!-- 0 -->
      <g style="fill: #262626" transform="translate(119.650153 665.027891) scale(0.165 -0.165)">
       <defs>
        <path id="ArialMT-30" d="M 266 2259 
Q 266 3072 433 3567 
Q 600 4063 929 4331 
Q 1259 4600 1759 4600 
Q 2128 4600 2406 4451 
Q 2684 4303 2865 4023 
Q 3047 3744 3150 3342 
Q 3253 2941 3253 2259 
Q 3253 1453 3087 958 
Q 2922 463 2592 192 
Q 2263 -78 1759 -78 
Q 1097 -78 719 397 
Q 266 969 266 2259 
z
M 844 2259 
Q 844 1131 1108 757 
Q 1372 384 1759 384 
Q 2147 384 2411 759 
Q 2675 1134 2675 2259 
Q 2675 3391 2411 3762 
Q 2147 4134 1753 4134 
Q 1366 4134 1134 3806 
Q 844 3388 844 2259 
z
" transform="scale(0.015625)"/>
       </defs>
       <use xlink:href="#ArialMT-30"/>
      </g>
     </g>
    </g>
    <g id="xtick_2">
     <g id="text_2">
      <!-- 200 -->
      <g style="fill: #262626" transform="translate(355.284871 665.027891) scale(0.165 -0.165)">
       <defs>
        <path id="ArialMT-32" d="M 3222 541 
L 3222 0 
L 194 0 
Q 188 203 259 391 
Q 375 700 629 1000 
Q 884 1300 1366 1694 
Q 2113 2306 2375 2664 
Q 2638 3022 2638 3341 
Q 2638 3675 2398 3904 
Q 2159 4134 1775 4134 
Q 1369 4134 1125 3890 
Q 881 3647 878 3216 
L 300 3275 
Q 359 3922 746 4261 
Q 1134 4600 1788 4600 
Q 2447 4600 2831 4234 
Q 3216 3869 3216 3328 
Q 3216 3053 3103 2787 
Q 2991 2522 2730 2228 
Q 2469 1934 1863 1422 
Q 1356 997 1212 845 
Q 1069 694 975 541 
L 3222 541 
z
" transform="scale(0.015625)"/>
       </defs>
       <use xlink:href="#ArialMT-32"/>
       <use xlink:href="#ArialMT-30" transform="translate(55.615234 0)"/>
       <use xlink:href="#ArialMT-30" transform="translate(111.230469 0)"/>
      </g>
     </g>
    </g>
    <g id="xtick_3">
     <g id="text_3">
      <!-- 400 -->
      <g style="fill: #262626" transform="translate(600.095135 665.027891) scale(0.165 -0.165)">
       <defs>
        <path id="ArialMT-34" d="M 2069 0 
L 2069 1097 
L 81 1097 
L 81 1613 
L 2172 4581 
L 2631 4581 
L 2631 1613 
L 3250 1613 
L 3250 1097 
L 2631 1097 
L 2631 0 
L 2069 0 
z
M 2069 1613 
L 2069 3678 
L 634 1613 
L 2069 1613 
z
" transform="scale(0.015625)"/>
       </defs>
       <use xlink:href="#ArialMT-34"/>
       <use xlink:href="#ArialMT-30" transform="translate(55.615234 0)"/>
       <use xlink:href="#ArialMT-30" transform="translate(111.230469 0)"/>
      </g>
     </g>
    </g>
    <g id="xtick_4">
     <g id="text_4">
      <!-- 600 -->
      <g style="fill: #262626" transform="translate(844.9054 665.027891) scale(0.165 -0.165)">
       <defs>
        <path id="ArialMT-36" d="M 3184 3459 
L 2625 3416 
Q 2550 3747 2413 3897 
Q 2184 4138 1850 4138 
Q 1581 4138 1378 3988 
Q 1113 3794 959 3422 
Q 806 3050 800 2363 
Q 1003 2672 1297 2822 
Q 1591 2972 1913 2972 
Q 2475 2972 2870 2558 
Q 3266 2144 3266 1488 
Q 3266 1056 3080 686 
Q 2894 316 2569 119 
Q 2244 -78 1831 -78 
Q 1128 -78 684 439 
Q 241 956 241 2144 
Q 241 3472 731 4075 
Q 1159 4600 1884 4600 
Q 2425 4600 2770 4297 
Q 3116 3994 3184 3459 
z
M 888 1484 
Q 888 1194 1011 928 
Q 1134 663 1356 523 
Q 1578 384 1822 384 
Q 2178 384 2434 671 
Q 2691 959 2691 1453 
Q 2691 1928 2437 2201 
Q 2184 2475 1800 2475 
Q 1419 2475 1153 2201 
Q 888 1928 888 1484 
z
" transform="scale(0.015625)"/>
       </defs>
       <use xlink:href="#ArialMT-36"/>
       <use xlink:href="#ArialMT-30" transform="translate(55.615234 0)"/>
       <use xlink:href="#ArialMT-30" transform="translate(111.230469 0)"/>
      </g>
     </g>
    </g>
    <g id="xtick_5">
     <g id="text_5">
      <!-- 800 -->
      <g style="fill: #262626" transform="translate(1089.715665 665.027891) scale(0.165 -0.165)">
       <defs>
        <path id="ArialMT-38" d="M 1131 2484 
Q 781 2613 612 2850 
Q 444 3088 444 3419 
Q 444 3919 803 4259 
Q 1163 4600 1759 4600 
Q 2359 4600 2725 4251 
Q 3091 3903 3091 3403 
Q 3091 3084 2923 2848 
Q 2756 2613 2416 2484 
Q 2838 2347 3058 2040 
Q 3278 1734 3278 1309 
Q 3278 722 2862 322 
Q 2447 -78 1769 -78 
Q 1091 -78 675 323 
Q 259 725 259 1325 
Q 259 1772 486 2073 
Q 713 2375 1131 2484 
z
M 1019 3438 
Q 1019 3113 1228 2906 
Q 1438 2700 1772 2700 
Q 2097 2700 2305 2904 
Q 2513 3109 2513 3406 
Q 2513 3716 2298 3927 
Q 2084 4138 1766 4138 
Q 1444 4138 1231 3931 
Q 1019 3725 1019 3438 
z
M 838 1322 
Q 838 1081 952 856 
Q 1066 631 1291 507 
Q 1516 384 1775 384 
Q 2178 384 2440 643 
Q 2703 903 2703 1303 
Q 2703 1709 2433 1975 
Q 2163 2241 1756 2241 
Q 1359 2241 1098 1978 
Q 838 1716 838 1322 
z
" transform="scale(0.015625)"/>
       </defs>
       <use xlink:href="#ArialMT-38"/>
       <use xlink:href="#ArialMT-30" transform="translate(55.615234 0)"/>
       <use xlink:href="#ArialMT-30" transform="translate(111.230469 0)"/>
      </g>
     </g>
    </g>
    <g id="xtick_6">
     <g id="text_6">
      <!-- 1000 -->
      <g style="fill: #262626" transform="translate(1329.938156 665.027891) scale(0.165 -0.165)">
       <defs>
        <path id="ArialMT-31" d="M 2384 0 
L 1822 0 
L 1822 3584 
Q 1619 3391 1289 3197 
Q 959 3003 697 2906 
L 697 3450 
Q 1169 3672 1522 3987 
Q 1875 4303 2022 4600 
L 2384 4600 
L 2384 0 
z
" transform="scale(0.015625)"/>
       </defs>
       <use xlink:href="#ArialMT-31"/>
       <use xlink:href="#ArialMT-30" transform="translate(55.615234 0)"/>
       <use xlink:href="#ArialMT-30" transform="translate(111.230469 0)"/>
       <use xlink:href="#ArialMT-30" transform="translate(166.845703 0)"/>
      </g>
     </g>
    </g>
    <g id="text_7">
     <!-- Epochs -->
     <g style="fill: #262626" transform="translate(705.63375 685.191328) scale(0.18 -0.18)">
      <defs>
       <path id="ArialMT-45" d="M 506 0 
L 506 4581 
L 3819 4581 
L 3819 4041 
L 1113 4041 
L 1113 2638 
L 3647 2638 
L 3647 2100 
L 1113 2100 
L 1113 541 
L 3925 541 
L 3925 0 
L 506 0 
z
" transform="scale(0.015625)"/>
       <path id="ArialMT-70" d="M 422 -1272 
L 422 3319 
L 934 3319 
L 934 2888 
Q 1116 3141 1344 3267 
Q 1572 3394 1897 3394 
Q 2322 3394 2647 3175 
Q 2972 2956 3137 2557 
Q 3303 2159 3303 1684 
Q 3303 1175 3120 767 
Q 2938 359 2589 142 
Q 2241 -75 1856 -75 
Q 1575 -75 1351 44 
Q 1128 163 984 344 
L 984 -1272 
L 422 -1272 
z
M 931 1641 
Q 931 1000 1190 694 
Q 1450 388 1819 388 
Q 2194 388 2461 705 
Q 2728 1022 2728 1688 
Q 2728 2322 2467 2637 
Q 2206 2953 1844 2953 
Q 1484 2953 1207 2617 
Q 931 2281 931 1641 
z
" transform="scale(0.015625)"/>
       <path id="ArialMT-6f" d="M 213 1659 
Q 213 2581 725 3025 
Q 1153 3394 1769 3394 
Q 2453 3394 2887 2945 
Q 3322 2497 3322 1706 
Q 3322 1066 3130 698 
Q 2938 331 2570 128 
Q 2203 -75 1769 -75 
Q 1072 -75 642 372 
Q 213 819 213 1659 
z
M 791 1659 
Q 791 1022 1069 705 
Q 1347 388 1769 388 
Q 2188 388 2466 706 
Q 2744 1025 2744 1678 
Q 2744 2294 2464 2611 
Q 2184 2928 1769 2928 
Q 1347 2928 1069 2612 
Q 791 2297 791 1659 
z
" transform="scale(0.015625)"/>
       <path id="ArialMT-63" d="M 2588 1216 
L 3141 1144 
Q 3050 572 2676 248 
Q 2303 -75 1759 -75 
Q 1078 -75 664 370 
Q 250 816 250 1647 
Q 250 2184 428 2587 
Q 606 2991 970 3192 
Q 1334 3394 1763 3394 
Q 2303 3394 2647 3120 
Q 2991 2847 3088 2344 
L 2541 2259 
Q 2463 2594 2264 2762 
Q 2066 2931 1784 2931 
Q 1359 2931 1093 2626 
Q 828 2322 828 1663 
Q 828 994 1084 691 
Q 1341 388 1753 388 
Q 2084 388 2306 591 
Q 2528 794 2588 1216 
z
" transform="scale(0.015625)"/>
       <path id="ArialMT-68" d="M 422 0 
L 422 4581 
L 984 4581 
L 984 2938 
Q 1378 3394 1978 3394 
Q 2347 3394 2619 3248 
Q 2891 3103 3008 2847 
Q 3125 2591 3125 2103 
L 3125 0 
L 2563 0 
L 2563 2103 
Q 2563 2525 2380 2717 
Q 2197 2909 1863 2909 
Q 1613 2909 1392 2779 
Q 1172 2650 1078 2428 
Q 984 2206 984 1816 
L 984 0 
L 422 0 
z
" transform="scale(0.015625)"/>
       <path id="ArialMT-73" d="M 197 991 
L 753 1078 
Q 800 744 1014 566 
Q 1228 388 1613 388 
Q 2000 388 2187 545 
Q 2375 703 2375 916 
Q 2375 1106 2209 1216 
Q 2094 1291 1634 1406 
Q 1016 1563 777 1677 
Q 538 1791 414 1992 
Q 291 2194 291 2438 
Q 291 2659 392 2848 
Q 494 3038 669 3163 
Q 800 3259 1026 3326 
Q 1253 3394 1513 3394 
Q 1903 3394 2198 3281 
Q 2494 3169 2634 2976 
Q 2775 2784 2828 2463 
L 2278 2388 
Q 2241 2644 2061 2787 
Q 1881 2931 1553 2931 
Q 1166 2931 1000 2803 
Q 834 2675 834 2503 
Q 834 2394 903 2306 
Q 972 2216 1119 2156 
Q 1203 2125 1616 2013 
Q 2213 1853 2448 1751 
Q 2684 1650 2818 1456 
Q 2953 1263 2953 975 
Q 2953 694 2789 445 
Q 2625 197 2315 61 
Q 2006 -75 1616 -75 
Q 969 -75 630 194 
Q 291 463 197 991 
z
" transform="scale(0.015625)"/>
      </defs>
      <use xlink:href="#ArialMT-45"/>
      <use xlink:href="#ArialMT-70" transform="translate(66.699219 0)"/>
      <use xlink:href="#ArialMT-6f" transform="translate(122.314453 0)"/>
      <use xlink:href="#ArialMT-63" transform="translate(177.929688 0)"/>
      <use xlink:href="#ArialMT-68" transform="translate(227.929688 0)"/>
      <use xlink:href="#ArialMT-73" transform="translate(283.544922 0)"/>
     </g>
    </g>
   </g>
   <g id="matplotlib.axis_2">
    <g id="ytick_1">
     <g id="text_8">
      <!-- 0.1 -->
      <g style="fill: #262626" transform="translate(27.661563 594.461375) scale(0.165 -0.165)">
       <defs>
        <path id="ArialMT-2e" d="M 581 0 
L 581 641 
L 1222 641 
L 1222 0 
L 581 0 
z
" transform="scale(0.015625)"/>
       </defs>
       <use xlink:href="#ArialMT-30"/>
       <use xlink:href="#ArialMT-2e" transform="translate(55.615234 0)"/>
       <use xlink:href="#ArialMT-31" transform="translate(83.398438 0)"/>
      </g>
     </g>
    </g>
    <g id="ytick_2">
     <g id="text_9">
      <!-- 0.2 -->
      <g style="fill: #262626" transform="translate(27.661563 484.681838) scale(0.165 -0.165)">
       <use xlink:href="#ArialMT-30"/>
       <use xlink:href="#ArialMT-2e" transform="translate(55.615234 0)"/>
       <use xlink:href="#ArialMT-32" transform="translate(83.398438 0)"/>
      </g>
     </g>
    </g>
    <g id="ytick_3">
     <g id="text_10">
      <!-- 0.3 -->
      <g style="fill: #262626" transform="translate(27.661563 374.9023) scale(0.165 -0.165)">
       <defs>
        <path id="ArialMT-33" d="M 269 1209 
L 831 1284 
Q 928 806 1161 595 
Q 1394 384 1728 384 
Q 2125 384 2398 659 
Q 2672 934 2672 1341 
Q 2672 1728 2419 1979 
Q 2166 2231 1775 2231 
Q 1616 2231 1378 2169 
L 1441 2663 
Q 1497 2656 1531 2656 
Q 1891 2656 2178 2843 
Q 2466 3031 2466 3422 
Q 2466 3731 2256 3934 
Q 2047 4138 1716 4138 
Q 1388 4138 1169 3931 
Q 950 3725 888 3313 
L 325 3413 
Q 428 3978 793 4289 
Q 1159 4600 1703 4600 
Q 2078 4600 2393 4439 
Q 2709 4278 2876 4000 
Q 3044 3722 3044 3409 
Q 3044 3113 2884 2869 
Q 2725 2625 2413 2481 
Q 2819 2388 3044 2092 
Q 3269 1797 3269 1353 
Q 3269 753 2831 336 
Q 2394 -81 1725 -81 
Q 1122 -81 723 278 
Q 325 638 269 1209 
z
" transform="scale(0.015625)"/>
       </defs>
       <use xlink:href="#ArialMT-30"/>
       <use xlink:href="#ArialMT-2e" transform="translate(55.615234 0)"/>
       <use xlink:href="#ArialMT-33" transform="translate(83.398438 0)"/>
      </g>
     </g>
    </g>
    <g id="ytick_4">
     <g id="text_11">
      <!-- 0.4 -->
      <g style="fill: #262626" transform="translate(27.661563 265.122762) scale(0.165 -0.165)">
       <use xlink:href="#ArialMT-30"/>
       <use xlink:href="#ArialMT-2e" transform="translate(55.615234 0)"/>
       <use xlink:href="#ArialMT-34" transform="translate(83.398438 0)"/>
      </g>
     </g>
    </g>
    <g id="ytick_5">
     <g id="text_12">
      <!-- 0.5 -->
      <g style="fill: #262626" transform="translate(27.661563 155.343225) scale(0.165 -0.165)">
       <defs>
        <path id="ArialMT-35" d="M 266 1200 
L 856 1250 
Q 922 819 1161 601 
Q 1400 384 1738 384 
Q 2144 384 2425 690 
Q 2706 997 2706 1503 
Q 2706 1984 2436 2262 
Q 2166 2541 1728 2541 
Q 1456 2541 1237 2417 
Q 1019 2294 894 2097 
L 366 2166 
L 809 4519 
L 3088 4519 
L 3088 3981 
L 1259 3981 
L 1013 2750 
Q 1425 3038 1878 3038 
Q 2478 3038 2890 2622 
Q 3303 2206 3303 1553 
Q 3303 931 2941 478 
Q 2500 -78 1738 -78 
Q 1113 -78 717 272 
Q 322 622 266 1200 
z
" transform="scale(0.015625)"/>
       </defs>
       <use xlink:href="#ArialMT-30"/>
       <use xlink:href="#ArialMT-2e" transform="translate(55.615234 0)"/>
       <use xlink:href="#ArialMT-35" transform="translate(83.398438 0)"/>
      </g>
     </g>
    </g>
    <g id="text_13">
     <!-- MSE -->
     <g style="fill: #262626" transform="translate(20.084063 364.435781) rotate(-90) scale(0.18 -0.18)">
      <defs>
       <path id="ArialMT-4d" d="M 475 0 
L 475 4581 
L 1388 4581 
L 2472 1338 
Q 2622 884 2691 659 
Q 2769 909 2934 1394 
L 4031 4581 
L 4847 4581 
L 4847 0 
L 4263 0 
L 4263 3834 
L 2931 0 
L 2384 0 
L 1059 3900 
L 1059 0 
L 475 0 
z
" transform="scale(0.015625)"/>
       <path id="ArialMT-53" d="M 288 1472 
L 859 1522 
Q 900 1178 1048 958 
Q 1197 738 1509 602 
Q 1822 466 2213 466 
Q 2559 466 2825 569 
Q 3091 672 3220 851 
Q 3350 1031 3350 1244 
Q 3350 1459 3225 1620 
Q 3100 1781 2813 1891 
Q 2628 1963 1997 2114 
Q 1366 2266 1113 2400 
Q 784 2572 623 2826 
Q 463 3081 463 3397 
Q 463 3744 659 4045 
Q 856 4347 1234 4503 
Q 1613 4659 2075 4659 
Q 2584 4659 2973 4495 
Q 3363 4331 3572 4012 
Q 3781 3694 3797 3291 
L 3216 3247 
Q 3169 3681 2898 3903 
Q 2628 4125 2100 4125 
Q 1550 4125 1298 3923 
Q 1047 3722 1047 3438 
Q 1047 3191 1225 3031 
Q 1400 2872 2139 2705 
Q 2878 2538 3153 2413 
Q 3553 2228 3743 1945 
Q 3934 1663 3934 1294 
Q 3934 928 3725 604 
Q 3516 281 3123 101 
Q 2731 -78 2241 -78 
Q 1619 -78 1198 103 
Q 778 284 539 648 
Q 300 1013 288 1472 
z
" transform="scale(0.015625)"/>
      </defs>
      <use xlink:href="#ArialMT-4d"/>
      <use xlink:href="#ArialMT-53" transform="translate(83.300781 0)"/>
      <use xlink:href="#ArialMT-45" transform="translate(150 0)"/>
     </g>
    </g>
   </g>
   <g id="line2d_1">
    <path d="M 124.237926 76.037045 
L 125.461977 99.967371 
L 126.686029 130.912612 
L 127.91008 174.481987 
L 130.358183 302.752881 
L 134.030337 396.366284 
L 135.254388 418.983512 
L 136.478439 436.913594 
L 137.702491 453.187531 
L 138.926542 472.609235 
L 140.150593 486.602383 
L 142.598696 510.774217 
L 143.822747 518.422171 
L 145.046799 528.832496 
L 146.27085 531.101534 
L 147.494901 541.94776 
L 148.718953 543.141761 
L 149.943004 545.488542 
L 151.167055 550.013091 
L 152.391107 553.682878 
L 153.615158 554.134313 
L 154.839209 554.198822 
L 156.063261 555.510774 
L 157.287312 553.531893 
L 158.511363 556.902233 
L 159.735415 556.980113 
L 160.959466 555.410323 
L 162.183517 557.73947 
L 163.407569 556.529496 
L 164.63162 557.544802 
L 165.855671 557.484985 
L 168.303774 558.189821 
L 169.527825 557.062262 
L 170.751876 558.10405 
L 171.975928 558.49417 
L 173.199979 559.640596 
L 174.42403 558.178697 
L 175.648082 558.38229 
L 176.872133 559.213646 
L 178.096184 557.72107 
L 179.320236 559.079119 
L 180.544287 559.079739 
L 181.768338 559.701813 
L 182.99239 558.801162 
L 184.216441 557.740013 
L 185.440492 559.20883 
L 186.664544 559.385367 
L 187.888595 560.041234 
L 189.112646 559.83983 
L 191.560749 558.518395 
L 192.7848 558.675213 
L 194.008852 560.168283 
L 195.232903 559.06391 
L 196.456954 559.79046 
L 197.681006 559.926725 
L 198.905057 558.602163 
L 200.129108 559.915365 
L 201.35316 558.40575 
L 202.577211 560.362161 
L 203.801262 559.553653 
L 205.025314 559.201924 
L 206.249365 559.182976 
L 207.473416 558.681208 
L 208.697467 559.120964 
L 209.921519 558.970812 
L 211.14557 558.552388 
L 212.369621 559.583297 
L 213.593673 560.093227 
L 214.817724 559.650841 
L 216.041775 559.548631 
L 217.265827 561.023781 
L 218.489878 560.447383 
L 219.713929 558.906793 
L 220.937981 558.178185 
L 222.162032 559.782546 
L 223.386083 560.898057 
L 224.610135 559.467743 
L 225.834186 559.619541 
L 227.058237 558.646734 
L 228.282289 559.241232 
L 229.50634 560.039189 
L 230.730391 559.119214 
L 231.954443 559.714111 
L 233.178494 559.190808 
L 236.850648 559.321391 
L 238.074699 558.216869 
L 239.298751 560.353531 
L 240.522802 558.958901 
L 241.746853 560.56384 
L 242.970905 560.299188 
L 244.194956 560.57985 
L 245.419007 560.23144 
L 246.643059 559.590601 
L 247.86711 559.92679 
L 249.091161 558.742623 
L 250.315213 559.771124 
L 251.539264 560.023445 
L 252.763315 559.521865 
L 253.987366 559.305906 
L 255.211418 558.826438 
L 256.435469 560.048855 
L 257.65952 559.28566 
L 258.883572 559.660626 
L 260.107623 560.398805 
L 261.331674 560.060844 
L 262.555726 558.864988 
L 263.779777 560.295513 
L 265.003828 559.359731 
L 266.22788 559.972988 
L 267.451931 560.172572 
L 268.675982 559.34794 
L 269.900034 559.089847 
L 271.124085 560.682728 
L 272.348136 560.205606 
L 273.572188 560.684391 
L 274.796239 560.285699 
L 276.02029 560.066096 
L 277.244342 560.39481 
L 278.468393 559.95202 
L 279.692444 560.671329 
L 280.916496 559.549998 
L 282.140547 559.951258 
L 283.364598 559.675454 
L 284.58865 559.25922 
L 285.812701 559.89092 
L 287.036752 559.571908 
L 288.260804 559.083947 
L 289.484855 560.297936 
L 290.708906 559.625901 
L 291.932958 559.548768 
L 294.38106 559.740671 
L 296.829163 560.244184 
L 298.053214 559.863212 
L 299.277265 560.213017 
L 300.501317 559.965907 
L 301.725368 560.056704 
L 302.949419 559.455604 
L 304.173471 560.470714 
L 305.397522 560.953985 
L 306.621573 560.212359 
L 307.845625 560.541594 
L 309.069676 560.070179 
L 310.293727 560.369166 
L 311.517779 559.896457 
L 312.74183 559.735739 
L 313.965881 560.689528 
L 316.413984 559.509349 
L 317.638035 559.397371 
L 318.862087 559.908238 
L 320.086138 560.057719 
L 321.310189 559.427757 
L 322.534241 560.636121 
L 323.758292 559.526433 
L 324.982343 559.855261 
L 326.206395 559.974675 
L 327.430446 559.397112 
L 328.654497 559.059325 
L 329.878549 559.663993 
L 331.1026 559.973491 
L 332.326651 559.528431 
L 333.550703 560.133559 
L 334.774754 559.882448 
L 337.222857 560.035432 
L 338.446908 559.444944 
L 339.670959 560.176106 
L 340.89501 560.049837 
L 342.119062 559.718848 
L 343.343113 559.715569 
L 344.567164 559.279122 
L 345.791216 560.357606 
L 347.015267 559.759744 
L 348.239318 559.884734 
L 349.46337 559.887709 
L 350.687421 560.31541 
L 351.911472 560.190372 
L 353.135524 560.259912 
L 354.359575 560.162491 
L 355.583626 560.530076 
L 358.031729 560.221867 
L 359.25578 559.726062 
L 360.479832 559.758254 
L 362.927934 560.417099 
L 366.600088 559.892371 
L 367.82414 560.220542 
L 370.272242 560.296423 
L 371.496294 559.880389 
L 372.720345 560.433555 
L 373.944396 559.750859 
L 375.168448 560.145425 
L 377.61655 560.20793 
L 378.840602 559.688941 
L 380.064653 559.872056 
L 382.512756 560.055056 
L 384.960858 560.710005 
L 386.184909 560.517306 
L 387.408961 560.20802 
L 388.633012 560.340158 
L 389.857063 559.950236 
L 393.529217 560.118584 
L 394.753269 560.306108 
L 395.97732 559.890231 
L 397.201371 560.344656 
L 399.649474 559.981871 
L 400.873525 560.078386 
L 402.097577 559.900965 
L 403.321628 559.841305 
L 404.545679 560.407895 
L 405.769731 560.610643 
L 406.993782 559.947568 
L 408.217833 560.424236 
L 409.441885 560.17734 
L 410.665936 560.169477 
L 411.889987 560.286098 
L 413.114039 559.83248 
L 415.562141 560.551344 
L 416.786193 560.10176 
L 418.010244 560.497868 
L 419.234295 560.038337 
L 420.458347 560.125893 
L 421.682398 559.962938 
L 422.906449 560.284366 
L 424.130501 559.543981 
L 425.354552 559.625981 
L 426.578603 560.321843 
L 427.802655 559.978423 
L 429.026706 560.51615 
L 430.250757 559.535805 
L 431.474808 560.289935 
L 432.69886 560.173758 
L 433.922911 560.513185 
L 435.146962 559.706427 
L 436.371014 560.09507 
L 437.595065 560.010762 
L 438.819116 560.642014 
L 440.043168 560.024062 
L 441.267219 559.812311 
L 442.49127 560.078662 
L 443.715322 560.492502 
L 444.939373 560.639732 
L 446.163424 559.897446 
L 447.387476 560.61427 
L 449.835578 560.727882 
L 452.283681 560.135427 
L 453.507732 560.512444 
L 454.731784 560.312044 
L 455.955835 559.683436 
L 460.85204 560.173197 
L 462.076092 560.383289 
L 463.300143 559.977717 
L 464.524194 559.937511 
L 465.748246 560.241071 
L 466.972297 560.780436 
L 468.196348 559.872712 
L 469.4204 560.250312 
L 470.644451 560.919798 
L 471.868502 560.462647 
L 473.092553 560.912023 
L 474.316605 560.487706 
L 475.540656 560.467629 
L 476.764707 561.269515 
L 477.988759 561.142208 
L 479.21281 561.752099 
L 480.436861 561.715881 
L 481.660913 561.554154 
L 482.884964 559.123318 
L 484.109015 562.599699 
L 485.333067 561.199815 
L 486.557118 563.048868 
L 487.781169 562.920622 
L 489.005221 560.517127 
L 490.229272 565.423805 
L 491.453323 563.997226 
L 492.677375 568.585351 
L 493.901426 567.653833 
L 495.125477 569.345984 
L 496.349529 565.712679 
L 497.57358 568.905823 
L 498.797631 568.203329 
L 500.021683 566.303821 
L 501.245734 569.557483 
L 502.469785 569.604412 
L 504.917888 568.766088 
L 506.141939 565.858619 
L 507.365991 573.688496 
L 508.590042 570.467634 
L 509.814093 572.706089 
L 511.038145 573.523543 
L 512.262196 571.768678 
L 513.486247 576.54543 
L 514.710299 571.88333 
L 515.93435 571.780495 
L 517.158401 571.962409 
L 518.382452 570.071815 
L 520.830555 574.764175 
L 522.054606 571.375522 
L 523.278658 573.828054 
L 524.502709 572.021503 
L 525.72676 571.92505 
L 526.950812 569.716088 
L 528.174863 572.377605 
L 529.398914 572.369283 
L 530.622966 569.796117 
L 531.847017 571.066336 
L 533.071068 573.302175 
L 534.29512 571.797671 
L 535.519171 574.202629 
L 536.743222 574.388754 
L 537.967274 574.287131 
L 539.191325 572.761104 
L 540.415376 573.708496 
L 541.639428 577.64982 
L 542.863479 572.975903 
L 544.08753 575.596679 
L 545.311582 574.03801 
L 546.535633 571.133184 
L 547.759684 575.399408 
L 548.983736 575.783309 
L 550.207787 571.241377 
L 551.431838 574.557154 
L 552.65589 574.342874 
L 553.879941 574.394989 
L 555.103992 571.419506 
L 556.328044 570.076308 
L 557.552095 573.374234 
L 558.776146 574.720716 
L 560.000197 572.912113 
L 561.224249 573.315308 
L 562.4483 572.873299 
L 563.672351 576.83805 
L 564.896403 573.963234 
L 566.120454 574.365579 
L 567.344505 574.303685 
L 568.568557 573.621475 
L 569.792608 572.384792 
L 571.016659 574.194166 
L 572.240711 575.679826 
L 574.688813 573.332892 
L 575.912865 575.687948 
L 577.136916 574.405485 
L 578.360967 573.911891 
L 579.585019 571.516482 
L 580.80907 575.470682 
L 582.033121 574.143695 
L 583.257173 576.898564 
L 584.481224 575.317677 
L 585.705275 576.563135 
L 586.929327 577.389485 
L 588.153378 578.021666 
L 589.377429 574.501141 
L 590.601481 576.726429 
L 591.825532 574.963865 
L 593.049583 574.982079 
L 594.273635 578.520491 
L 595.497686 576.962877 
L 596.721737 577.417273 
L 597.945789 578.820927 
L 599.16984 574.360246 
L 600.393891 577.337199 
L 601.617943 577.629501 
L 602.841994 575.389612 
L 604.066045 576.715571 
L 605.290096 578.21803 
L 606.514148 575.834969 
L 607.738199 579.421657 
L 608.96225 575.107754 
L 610.186302 576.02985 
L 611.410353 576.201515 
L 612.634404 582.029519 
L 613.858456 576.155809 
L 615.082507 578.405759 
L 616.306558 578.40136 
L 617.53061 577.563835 
L 618.754661 580.206061 
L 619.978712 577.970886 
L 621.202764 577.266397 
L 622.426815 578.598745 
L 623.650866 576.735012 
L 624.874918 576.160305 
L 626.098969 576.808114 
L 627.32302 579.377794 
L 628.547072 578.754325 
L 629.771123 579.382186 
L 630.995174 579.707108 
L 632.219226 583.131255 
L 633.443277 576.893592 
L 634.667328 579.046346 
L 635.89138 577.985415 
L 637.115431 575.6034 
L 638.339482 582.983151 
L 639.563534 579.794085 
L 640.787585 580.888532 
L 642.011636 580.30213 
L 644.459739 575.632073 
L 645.68379 578.157416 
L 646.907842 583.069606 
L 648.131893 581.141512 
L 649.355944 577.503145 
L 650.579995 584.054787 
L 653.028098 578.1164 
L 654.252149 580.580598 
L 655.476201 578.521624 
L 656.700252 581.49346 
L 657.924303 577.776116 
L 659.148355 580.093638 
L 660.372406 582.708084 
L 661.596457 580.724975 
L 662.820509 582.3293 
L 664.04456 582.010355 
L 665.268611 582.333112 
L 666.492663 581.712476 
L 668.940765 579.447998 
L 670.164817 579.893279 
L 671.388868 579.405216 
L 672.612919 580.482369 
L 673.836971 577.658102 
L 675.061022 578.855252 
L 676.285073 580.374369 
L 677.509125 582.241033 
L 678.733176 579.765773 
L 679.957227 581.657829 
L 681.181279 581.464742 
L 682.40533 578.343703 
L 684.853433 581.644329 
L 686.077484 580.253302 
L 687.301535 580.584635 
L 688.525587 582.846054 
L 689.749638 583.951867 
L 690.973689 578.64228 
L 692.19774 581.248408 
L 693.421792 581.239877 
L 694.645843 578.100619 
L 695.869894 585.48259 
L 697.093946 581.296343 
L 699.542048 583.650222 
L 700.7661 579.447928 
L 701.990151 580.453026 
L 703.214202 579.955663 
L 704.438254 579.316066 
L 705.662305 579.088265 
L 706.886356 581.766826 
L 708.110408 580.520584 
L 709.334459 584.110556 
L 710.55851 581.752384 
L 711.782562 577.287837 
L 713.006613 582.834144 
L 714.230664 582.179146 
L 715.454716 579.2466 
L 716.678767 582.566853 
L 717.902818 583.60038 
L 719.12687 580.509996 
L 720.350921 583.020316 
L 721.574972 580.300071 
L 722.799024 584.651176 
L 724.023075 585.471054 
L 725.247126 581.799173 
L 726.471178 584.964457 
L 727.695229 587.694225 
L 728.91928 585.418579 
L 730.143332 585.260531 
L 731.367383 580.013916 
L 732.591434 583.985053 
L 733.815486 586.246934 
L 735.039537 582.843191 
L 736.263588 581.540275 
L 737.487639 584.67548 
L 738.711691 583.628371 
L 739.935742 581.236432 
L 741.159793 581.307559 
L 742.383845 583.459199 
L 743.607896 581.744061 
L 744.831947 583.062235 
L 746.055999 582.14794 
L 747.28005 582.753866 
L 748.504101 579.823909 
L 749.728153 583.280755 
L 750.952204 583.177844 
L 752.176255 585.517619 
L 753.400307 584.84913 
L 754.624358 586.222955 
L 755.848409 588.122756 
L 757.072461 583.336353 
L 758.296512 586.87993 
L 759.520563 586.855961 
L 760.744615 587.314584 
L 761.968666 585.675725 
L 763.192717 586.096974 
L 764.416769 585.979645 
L 765.64082 585.15698 
L 766.864871 585.580741 
L 768.088923 583.06985 
L 769.312974 581.351147 
L 770.537025 583.679831 
L 771.761077 583.573237 
L 772.985128 585.488831 
L 774.209179 586.792877 
L 775.433231 586.334876 
L 776.657282 585.02318 
L 777.881333 588.190938 
L 779.105385 585.778232 
L 780.329436 585.102316 
L 781.553487 585.540797 
L 782.777538 585.02011 
L 785.225641 586.650032 
L 786.449692 589.289762 
L 787.673744 586.984156 
L 788.897795 583.847941 
L 790.121846 588.129885 
L 791.345898 587.774897 
L 792.569949 588.499458 
L 793.794 583.762844 
L 795.018052 585.168088 
L 796.242103 582.469506 
L 797.466154 586.035931 
L 798.690206 585.207032 
L 799.914257 583.851731 
L 801.138308 585.845606 
L 802.36236 591.18673 
L 803.586411 584.772993 
L 804.810462 585.337131 
L 806.034514 590.497813 
L 807.258565 592.448485 
L 808.482616 584.828408 
L 809.706668 585.310231 
L 810.930719 586.118366 
L 812.15477 591.35102 
L 813.378822 588.08295 
L 814.602873 591.49516 
L 815.826924 586.388458 
L 817.050976 583.250035 
L 818.275027 585.1954 
L 819.499078 586.693821 
L 820.72313 585.337553 
L 821.947181 588.925675 
L 823.171232 586.502612 
L 824.395283 586.075491 
L 825.619335 588.528007 
L 826.843386 583.734796 
L 828.067437 584.384503 
L 829.291489 590.54845 
L 830.51554 586.092359 
L 831.739591 591.301419 
L 832.963643 587.467846 
L 834.187694 589.604357 
L 835.411745 588.311236 
L 836.635797 585.158101 
L 837.859848 592.801534 
L 839.083899 588.42867 
L 840.307951 585.518062 
L 841.532002 589.75513 
L 842.756053 586.629744 
L 843.980105 587.960871 
L 845.204156 588.267874 
L 846.428207 594.869489 
L 847.652259 589.886177 
L 848.87631 585.388301 
L 850.100361 588.495104 
L 851.324413 590.248655 
L 852.548464 587.567518 
L 853.772515 592.157928 
L 854.996567 585.505468 
L 856.220618 587.675758 
L 857.444669 591.023412 
L 858.668721 588.755715 
L 859.892772 590.706286 
L 861.116823 588.450036 
L 862.340875 585.014736 
L 863.564926 590.642411 
L 864.788977 587.512886 
L 866.013029 591.598345 
L 867.23708 590.922164 
L 868.461131 588.530639 
L 869.685182 589.844395 
L 870.909234 590.625242 
L 872.133285 590.653553 
L 873.357336 591.913959 
L 874.581388 588.575726 
L 875.805439 591.343493 
L 877.02949 587.887705 
L 878.253542 591.461039 
L 879.477593 589.964799 
L 880.701644 593.248893 
L 881.925696 591.9646 
L 883.149747 592.326683 
L 884.373798 593.082744 
L 885.59785 589.357999 
L 886.821901 595.048819 
L 888.045952 591.941969 
L 889.270004 595.446534 
L 890.494055 593.276277 
L 891.718106 589.021316 
L 892.942158 586.611825 
L 894.166209 587.930938 
L 895.39026 596.037355 
L 896.614312 589.669641 
L 897.838363 593.099402 
L 899.062414 591.255814 
L 900.286466 590.975369 
L 901.510517 590.941983 
L 902.734568 592.461073 
L 903.95862 591.328849 
L 905.182671 590.452896 
L 906.406722 588.417422 
L 907.630774 589.123839 
L 908.854825 593.452599 
L 910.078876 592.478836 
L 911.302928 595.029494 
L 912.526979 590.691911 
L 913.75103 588.151056 
L 914.975081 592.82845 
L 916.199133 593.552672 
L 917.423184 593.340151 
L 918.647235 589.949855 
L 919.871287 595.419168 
L 921.095338 591.803957 
L 922.319389 595.344512 
L 923.543441 592.730179 
L 924.767492 593.958143 
L 925.991543 594.653392 
L 927.215595 592.413114 
L 928.439646 591.093176 
L 929.663697 594.968024 
L 930.887749 593.584693 
L 932.1118 593.179808 
L 933.335851 596.077997 
L 934.559903 592.523754 
L 935.783954 590.030005 
L 937.008005 593.5866 
L 938.232057 591.281214 
L 939.456108 596.492999 
L 940.680159 592.26997 
L 941.904211 594.808547 
L 943.128262 593.88832 
L 944.352313 594.840117 
L 945.576365 588.138323 
L 946.800416 590.569049 
L 948.024467 590.743255 
L 949.248519 589.499257 
L 950.47257 595.513552 
L 951.696621 588.07787 
L 952.920673 586.535531 
L 954.144724 592.418952 
L 955.368775 596.566435 
L 956.592826 594.952579 
L 957.816878 591.394048 
L 959.040929 596.112676 
L 960.26498 591.056086 
L 961.489032 593.561841 
L 962.713083 598.05479 
L 963.937134 596.68143 
L 965.161186 591.258277 
L 966.385237 597.167595 
L 967.609288 597.06707 
L 968.83334 596.375425 
L 970.057391 590.722008 
L 971.281442 596.004714 
L 972.505494 593.84999 
L 973.729545 596.710064 
L 974.953596 597.47463 
L 976.177648 596.857093 
L 977.401699 593.993339 
L 978.62575 593.455376 
L 979.849802 593.214716 
L 981.073853 597.537511 
L 982.297904 596.281789 
L 983.521956 594.511727 
L 984.746007 598.136214 
L 985.970058 596.670583 
L 987.19411 595.699097 
L 988.418161 593.778495 
L 989.642212 596.095187 
L 990.866264 596.145176 
L 992.090315 597.107682 
L 993.314366 592.835588 
L 994.538418 594.164905 
L 995.762469 596.324757 
L 996.98652 596.275015 
L 998.210572 596.82823 
L 999.434623 592.447515 
L 1000.658674 593.969053 
L 1001.882725 595.727096 
L 1003.106777 594.011396 
L 1004.330828 600.567745 
L 1005.554879 596.187333 
L 1006.778931 596.8946 
L 1008.002982 596.956973 
L 1009.227033 594.329675 
L 1010.451085 596.755483 
L 1011.675136 595.406278 
L 1012.899187 599.452709 
L 1014.123239 598.145613 
L 1015.34729 598.759169 
L 1016.571341 595.552283 
L 1017.795393 593.5546 
L 1019.019444 596.488624 
L 1020.243495 598.349899 
L 1021.467547 599.276952 
L 1022.691598 598.194244 
L 1023.915649 595.815605 
L 1025.139701 598.379533 
L 1026.363752 598.136702 
L 1027.587803 599.004516 
L 1028.811855 597.417614 
L 1030.035906 599.602435 
L 1031.259957 597.826037 
L 1032.484009 596.677627 
L 1033.70806 601.814637 
L 1034.932111 597.462417 
L 1036.156163 594.455057 
L 1037.380214 600.437951 
L 1038.604265 597.408845 
L 1039.828317 599.429726 
L 1041.052368 598.954303 
L 1042.276419 594.313322 
L 1043.50047 595.854379 
L 1044.724522 597.662384 
L 1045.948573 597.113237 
L 1047.172624 596.09382 
L 1048.396676 597.0409 
L 1049.620727 598.310954 
L 1050.844778 594.430296 
L 1052.06883 599.032486 
L 1053.292881 601.871769 
L 1054.516932 599.217746 
L 1055.740984 597.943934 
L 1056.965035 597.536743 
L 1058.189086 598.292749 
L 1059.413138 596.805836 
L 1060.637189 601.967526 
L 1061.86124 598.018455 
L 1063.085292 599.928755 
L 1064.309343 599.488618 
L 1065.533394 598.449226 
L 1066.757446 601.182215 
L 1067.981497 601.10239 
L 1069.205548 600.209722 
L 1070.4296 601.712314 
L 1071.653651 598.05319 
L 1072.877702 601.216123 
L 1074.101754 599.327755 
L 1076.549856 602.275463 
L 1077.773908 600.780163 
L 1078.997959 601.57301 
L 1080.22201 601.292057 
L 1081.446062 598.097946 
L 1082.670113 598.590739 
L 1083.894164 600.803107 
L 1085.118216 598.253457 
L 1087.566318 601.996272 
L 1088.790369 596.693234 
L 1090.014421 597.858951 
L 1091.238472 597.140557 
L 1092.462523 602.49794 
L 1093.686575 601.031067 
L 1094.910626 602.559186 
L 1096.134677 600.501218 
L 1097.358729 601.053303 
L 1098.58278 594.342712 
L 1099.806831 602.360887 
L 1101.030883 598.727163 
L 1102.254934 597.809584 
L 1103.478985 600.071651 
L 1104.703037 599.006177 
L 1105.927088 600.531423 
L 1107.151139 606.110392 
L 1108.375191 596.397967 
L 1109.599242 597.069492 
L 1110.823293 600.065472 
L 1112.047345 597.301525 
L 1113.271396 601.390726 
L 1114.495447 600.202505 
L 1115.719499 602.068348 
L 1116.94355 601.926637 
L 1118.167601 599.681081 
L 1119.391653 603.192205 
L 1120.615704 601.982071 
L 1121.839755 601.070351 
L 1123.063807 602.31843 
L 1124.287858 602.041299 
L 1125.511909 603.421386 
L 1126.735961 598.309927 
L 1127.960012 599.904094 
L 1129.184063 603.447641 
L 1130.408115 602.688667 
L 1131.632166 599.804302 
L 1132.856217 604.746016 
L 1134.080268 602.58668 
L 1135.30432 602.303787 
L 1136.528371 600.888682 
L 1137.752422 599.914853 
L 1138.976474 603.478563 
L 1140.200525 598.837482 
L 1141.424576 602.187846 
L 1142.648628 599.200229 
L 1143.872679 601.797233 
L 1145.09673 601.893341 
L 1146.320782 600.297573 
L 1147.544833 605.81058 
L 1148.768884 600.89678 
L 1149.992936 600.543055 
L 1151.216987 598.75705 
L 1152.441038 598.593159 
L 1153.66509 603.789256 
L 1154.889141 606.090889 
L 1156.113192 596.920594 
L 1157.337244 602.939293 
L 1158.561295 599.768688 
L 1159.785346 602.335437 
L 1161.009398 604.514141 
L 1162.233449 604.103194 
L 1163.4575 600.007479 
L 1164.681552 604.595665 
L 1165.905603 600.877885 
L 1167.129654 602.156186 
L 1168.353706 605.511803 
L 1169.577757 602.051519 
L 1170.801808 599.041054 
L 1172.02586 607.094653 
L 1173.249911 602.334729 
L 1174.473962 604.787727 
L 1175.698013 606.149816 
L 1176.922065 603.138757 
L 1178.146116 602.461715 
L 1179.370167 604.540308 
L 1180.594219 606.076988 
L 1181.81827 603.273788 
L 1183.042321 605.218191 
L 1184.266373 602.894548 
L 1185.490424 605.868901 
L 1186.714475 605.988975 
L 1187.938527 605.512474 
L 1189.162578 605.245831 
L 1190.386629 602.916695 
L 1191.610681 605.048783 
L 1192.834732 608.831214 
L 1194.058783 602.298072 
L 1195.282835 610.424646 
L 1196.506886 602.309891 
L 1197.730937 603.857858 
L 1198.954989 600.615038 
L 1200.17904 605.645254 
L 1201.403091 599.50196 
L 1202.627143 601.404588 
L 1203.851194 600.778512 
L 1205.075245 607.580982 
L 1206.299297 601.679284 
L 1207.523348 598.27254 
L 1208.747399 600.532445 
L 1209.971451 606.102786 
L 1212.419553 604.505695 
L 1213.643605 604.707932 
L 1214.867656 606.215857 
L 1216.091707 604.505348 
L 1217.315759 604.346853 
L 1218.53981 602.709232 
L 1219.763861 605.093537 
L 1220.987912 602.705822 
L 1222.211964 606.299014 
L 1223.436015 602.930632 
L 1224.660066 603.020955 
L 1225.884118 601.944229 
L 1227.108169 606.338687 
L 1228.33222 603.238232 
L 1229.556272 607.267201 
L 1230.780323 605.573388 
L 1232.004374 604.637749 
L 1233.228426 602.604358 
L 1235.676528 608.284995 
L 1236.90058 604.489829 
L 1238.124631 610.359092 
L 1239.348682 605.878801 
L 1240.572734 607.945913 
L 1241.796785 608.062648 
L 1243.020836 604.944678 
L 1244.244888 605.184056 
L 1245.468939 603.332676 
L 1246.69299 600.925973 
L 1247.917042 605.648251 
L 1249.141093 603.752993 
L 1250.365144 605.740552 
L 1251.589196 606.130837 
L 1252.813247 604.895243 
L 1254.037298 607.764794 
L 1255.26135 603.530454 
L 1256.485401 604.635755 
L 1257.709452 609.539363 
L 1258.933504 605.558906 
L 1260.157555 603.577715 
L 1261.381606 606.881716 
L 1262.605658 609.699758 
L 1263.829709 602.144322 
L 1265.05376 607.041121 
L 1266.277811 608.402588 
L 1267.501863 605.753354 
L 1269.949965 608.665025 
L 1271.174017 603.629031 
L 1272.398068 607.414911 
L 1273.622119 604.516862 
L 1274.846171 604.462765 
L 1276.070222 602.764562 
L 1277.294273 608.358908 
L 1278.518325 608.260647 
L 1279.742376 603.946113 
L 1280.966427 607.821705 
L 1282.190479 605.03026 
L 1283.41453 603.571846 
L 1284.638581 604.606104 
L 1285.862633 608.524703 
L 1287.086684 608.194455 
L 1288.310735 604.993022 
L 1289.534787 606.409467 
L 1290.758838 602.609878 
L 1291.982889 610.836315 
L 1293.206941 609.307232 
L 1294.430992 606.998452 
L 1295.655043 605.32091 
L 1296.879095 608.409668 
L 1298.103146 609.477527 
L 1299.327197 606.889881 
L 1300.551249 605.405585 
L 1301.7753 604.99261 
L 1302.999351 608.457515 
L 1304.223403 606.742098 
L 1305.447454 608.280885 
L 1306.671505 610.51521 
L 1307.895556 608.504119 
L 1309.119608 605.487578 
L 1310.343659 606.830237 
L 1311.56771 612.483226 
L 1312.791762 607.228617 
L 1314.015813 608.260485 
L 1315.239864 603.401977 
L 1316.463916 608.230961 
L 1317.687967 609.966339 
L 1318.912018 606.204634 
L 1320.13607 612.033 
L 1321.360121 608.410975 
L 1322.584172 609.815851 
L 1323.808224 608.221404 
L 1325.032275 607.186861 
L 1326.256326 609.978981 
L 1327.480378 605.390888 
L 1328.704429 611.705749 
L 1329.92848 607.154534 
L 1331.152532 608.260687 
L 1332.376583 610.552789 
L 1333.600634 605.938829 
L 1334.824686 609.428882 
L 1336.048737 609.164131 
L 1337.272788 606.810424 
L 1338.49684 611.262797 
L 1339.720891 610.486024 
L 1340.944942 610.010734 
L 1342.168994 613.827955 
L 1343.393045 607.921848 
L 1344.617096 606.453936 
L 1345.841148 608.930514 
L 1347.065199 608.289675 
L 1347.065199 608.289675 
" clip-path="url(#pf3666fdbb8)" style="fill: none; stroke: #ff0000; stroke-width: 2.25; stroke-linecap: round"/>
   </g>
   <g id="line2d_2">
    <path d="M 124.237926 89.797597 
L 125.461977 114.616165 
L 126.686029 146.569355 
L 127.91008 192.345238 
L 129.134131 256.332731 
L 130.358183 314.000456 
L 132.806285 362.161656 
L 134.030337 384.871474 
L 136.478439 420.628074 
L 137.702491 436.927496 
L 138.926542 450.058735 
L 140.150593 460.509003 
L 142.598696 477.51398 
L 143.822747 485.681818 
L 145.046799 491.807011 
L 146.27085 496.320275 
L 148.718953 502.09242 
L 149.943004 504.1698 
L 151.167055 504.462257 
L 153.615158 506.536484 
L 154.839209 506.367778 
L 156.063261 507.150511 
L 157.287312 506.996016 
L 159.735415 507.559618 
L 160.959466 507.373069 
L 162.183517 507.640331 
L 163.407569 507.717768 
L 164.63162 507.431512 
L 165.855671 507.320378 
L 167.079722 507.84305 
L 168.303774 507.989381 
L 169.527825 507.778231 
L 170.751876 507.904567 
L 171.975928 507.684962 
L 174.42403 507.755367 
L 176.872133 508.010964 
L 179.320236 507.728166 
L 180.544287 507.952897 
L 181.768338 507.820043 
L 184.216441 507.990956 
L 185.440492 508.179516 
L 186.664544 507.852595 
L 187.888595 507.82217 
L 189.112646 507.962831 
L 190.336698 507.90891 
L 192.7848 507.672057 
L 195.232903 507.970702 
L 197.681006 507.826376 
L 198.905057 507.954153 
L 203.801262 507.818947 
L 206.249365 508.013223 
L 207.473416 507.845672 
L 211.14557 507.96325 
L 212.369621 507.899256 
L 214.817724 508.038512 
L 216.041775 507.884687 
L 218.489878 507.998079 
L 220.937981 507.811825 
L 222.162032 508.004094 
L 223.386083 508.056142 
L 225.834186 507.729397 
L 229.50634 507.936703 
L 231.954443 507.846296 
L 235.626597 507.975036 
L 236.850648 507.880132 
L 239.298751 508.037061 
L 241.746853 507.90258 
L 242.970905 508.04408 
L 245.419007 507.86623 
L 246.643059 507.964217 
L 250.315213 507.782766 
L 252.763315 507.975873 
L 257.65952 507.889838 
L 261.331674 507.963167 
L 262.555726 507.913231 
L 265.003828 508.016802 
L 271.124085 507.944903 
L 273.572188 507.999701 
L 276.02029 507.863567 
L 282.140547 508.119598 
L 283.364598 508.030249 
L 284.58865 507.799748 
L 287.036752 507.859613 
L 289.484855 507.918878 
L 290.708906 508.025448 
L 298.053214 507.822464 
L 300.501317 507.941207 
L 301.725368 507.880874 
L 302.949419 508.029913 
L 307.845625 507.760414 
L 309.069676 507.896604 
L 312.74183 507.865883 
L 313.965881 508.062224 
L 315.189933 508.092546 
L 316.413984 507.983167 
L 321.310189 507.966457 
L 323.758292 507.86524 
L 324.982343 508.055499 
L 327.430446 507.86372 
L 329.878549 507.970024 
L 333.550703 507.865924 
L 342.119062 507.973532 
L 343.343113 507.885666 
L 349.46337 507.964582 
L 359.25578 507.986256 
L 361.703883 507.893404 
L 365.376037 507.954406 
L 367.82414 507.971569 
L 369.048191 507.9005 
L 370.272242 507.95203 
L 372.720345 507.875123 
L 375.168448 507.965944 
L 377.61655 507.901602 
L 381.288704 508.001782 
L 386.184909 507.997537 
L 388.633012 507.991021 
L 391.081115 507.885913 
L 399.649474 508.063356 
L 402.097577 508.007538 
L 405.769731 508.087915 
L 408.217833 508.011477 
L 411.889987 508.071196 
L 413.114039 507.947267 
L 415.562141 508.007685 
L 416.786193 507.950893 
L 420.458347 508.099207 
L 422.906449 508.060242 
L 425.354552 507.983792 
L 426.578603 508.118672 
L 429.026706 508.042033 
L 430.250757 508.166962 
L 432.69886 507.999146 
L 435.146962 508.082564 
L 441.267219 508.173732 
L 447.387476 508.388389 
L 449.835578 508.332457 
L 459.627989 508.812457 
L 462.076092 509.23668 
L 465.748246 509.590907 
L 466.972297 509.846373 
L 469.4204 510.606683 
L 473.092553 512.196117 
L 477.988759 515.805484 
L 479.21281 517.057593 
L 480.436861 518.641762 
L 481.660913 522.504824 
L 482.884964 525.770142 
L 485.333067 532.91785 
L 486.557118 535.399178 
L 487.781169 537.546223 
L 489.005221 538.918282 
L 490.229272 539.658768 
L 492.677375 542.752681 
L 493.901426 544.429241 
L 495.125477 545.890627 
L 496.349529 546.692695 
L 498.797631 547.110345 
L 500.021683 547.772386 
L 501.245734 547.606739 
L 502.469785 548.047801 
L 503.693837 548.765278 
L 504.917888 549.814766 
L 506.141939 550.007317 
L 508.590042 550.761111 
L 509.814093 550.866996 
L 511.038145 550.622185 
L 512.262196 551.121621 
L 513.486247 551.110003 
L 514.710299 550.777547 
L 515.93435 551.58335 
L 517.158401 552.126726 
L 518.382452 551.947533 
L 519.606504 552.266407 
L 520.830555 552.711971 
L 522.054606 552.977874 
L 523.278658 552.706499 
L 524.502709 552.673285 
L 526.950812 553.162235 
L 528.174863 553.114973 
L 530.622966 553.219288 
L 531.847017 553.150407 
L 533.071068 553.771274 
L 535.519171 553.832079 
L 536.743222 554.038951 
L 537.967274 553.790437 
L 542.863479 554.126717 
L 546.535633 554.927279 
L 547.759684 554.897135 
L 548.983736 555.087546 
L 550.207787 554.738761 
L 551.431838 554.739722 
L 552.65589 554.946158 
L 553.879941 554.785931 
L 555.103992 555.036571 
L 556.328044 554.647183 
L 557.552095 554.901031 
L 558.776146 555.035153 
L 561.224249 554.257189 
L 562.4483 555.20619 
L 563.672351 555.617021 
L 564.896403 555.190186 
L 567.344505 555.758484 
L 568.568557 555.438746 
L 573.464762 555.645202 
L 574.688813 555.397673 
L 575.912865 555.491632 
L 577.136916 555.461691 
L 578.360967 555.138641 
L 580.80907 555.83555 
L 582.033121 555.804985 
L 584.481224 555.43862 
L 586.929327 555.482911 
L 588.153378 555.583326 
L 590.601481 555.030752 
L 591.825532 555.395764 
L 593.049583 555.221309 
L 594.273635 554.605509 
L 595.497686 554.773844 
L 597.945789 554.659877 
L 599.16984 553.98952 
L 600.393891 553.757106 
L 601.617943 556.08998 
L 602.841994 554.28212 
L 604.066045 554.535198 
L 605.290096 554.974974 
L 606.514148 553.806869 
L 607.738199 554.506431 
L 608.96225 554.614091 
L 610.186302 553.448384 
L 611.410353 554.152084 
L 612.634404 555.136039 
L 613.858456 554.085784 
L 615.082507 553.410787 
L 616.306558 554.383039 
L 617.53061 554.210752 
L 618.754661 552.660487 
L 619.978712 552.868339 
L 621.202764 554.188388 
L 622.426815 553.713639 
L 623.650866 554.146947 
L 624.874918 552.840851 
L 626.098969 552.892514 
L 627.32302 552.605555 
L 628.547072 554.184572 
L 629.771123 553.333919 
L 630.995174 554.751697 
L 632.219226 554.365107 
L 633.443277 554.233517 
L 634.667328 552.667583 
L 635.89138 553.418617 
L 637.115431 554.990884 
L 638.339482 553.187024 
L 639.563534 554.489412 
L 640.787585 553.508014 
L 642.011636 553.987755 
L 643.235688 554.081403 
L 644.459739 553.584564 
L 645.68379 552.717405 
L 646.907842 554.389136 
L 648.131893 554.188909 
L 649.355944 553.810457 
L 650.579995 554.008805 
L 651.804047 553.501032 
L 653.028098 553.656755 
L 654.252149 554.952013 
L 655.476201 553.308439 
L 656.700252 553.531149 
L 657.924303 553.205081 
L 659.148355 554.960976 
L 660.372406 554.622549 
L 661.596457 554.651199 
L 662.820509 551.656025 
L 664.04456 553.580842 
L 665.268611 553.000299 
L 666.492663 555.084106 
L 667.716714 553.898418 
L 668.940765 553.845913 
L 670.164817 554.296901 
L 671.388868 553.005126 
L 672.612919 553.697777 
L 673.836971 553.48923 
L 675.061022 555.089074 
L 676.285073 552.952303 
L 677.509125 555.508016 
L 678.733176 553.766655 
L 679.957227 553.258035 
L 681.181279 554.074603 
L 682.40533 554.197397 
L 683.629381 553.376041 
L 686.077484 554.092032 
L 687.301535 554.664135 
L 688.525587 553.49422 
L 689.749638 553.37903 
L 690.973689 552.654362 
L 692.19774 554.421389 
L 693.421792 552.903303 
L 694.645843 552.925555 
L 695.869894 554.551926 
L 697.093946 554.33289 
L 698.317997 553.167972 
L 699.542048 554.039643 
L 700.7661 553.950064 
L 701.990151 554.846219 
L 703.214202 552.801135 
L 704.438254 553.558668 
L 705.662305 553.528196 
L 706.886356 554.199826 
L 708.110408 554.487743 
L 709.334459 553.711365 
L 710.55851 552.432251 
L 711.782562 554.832242 
L 713.006613 551.559 
L 714.230664 553.297318 
L 715.454716 554.054353 
L 716.678767 553.625185 
L 717.902818 554.693168 
L 719.12687 553.48083 
L 720.350921 552.783591 
L 721.574972 554.287605 
L 722.799024 553.487587 
L 724.023075 555.347992 
L 725.247126 555.055832 
L 726.471178 553.86486 
L 728.91928 553.931813 
L 730.143332 554.463611 
L 732.591434 553.175371 
L 733.815486 554.318783 
L 735.039537 553.450259 
L 736.263588 553.234348 
L 737.487639 554.359057 
L 738.711691 552.6638 
L 739.935742 552.198911 
L 741.159793 553.433085 
L 742.383845 552.322718 
L 743.607896 554.623666 
L 744.831947 553.382367 
L 746.055999 553.907378 
L 748.504101 553.439305 
L 750.952204 552.151961 
L 752.176255 552.514086 
L 753.400307 554.465655 
L 754.624358 553.584432 
L 755.848409 554.023527 
L 757.072461 553.200882 
L 758.296512 553.718722 
L 759.520563 553.769403 
L 760.744615 551.6726 
L 761.968666 551.278611 
L 763.192717 554.1133 
L 764.416769 552.390601 
L 765.64082 552.855832 
L 766.864871 551.807521 
L 768.088923 552.973967 
L 769.312974 553.012201 
L 770.537025 551.499404 
L 771.761077 551.920172 
L 772.985128 552.616006 
L 774.209179 551.689767 
L 775.433231 553.885783 
L 776.657282 552.398554 
L 777.881333 552.825616 
L 779.105385 552.166319 
L 780.329436 551.842523 
L 781.553487 553.227278 
L 782.777538 552.719702 
L 784.00159 551.998821 
L 786.449692 553.381763 
L 787.673744 551.574516 
L 788.897795 553.336837 
L 790.121846 554.829833 
L 791.345898 553.932606 
L 792.569949 551.787208 
L 793.794 554.194025 
L 795.018052 553.127193 
L 796.242103 550.673916 
L 797.466154 552.704688 
L 798.690206 553.29899 
L 799.914257 551.207281 
L 801.138308 552.283689 
L 802.36236 553.664979 
L 803.586411 552.782411 
L 804.810462 552.365456 
L 806.034514 552.810405 
L 807.258565 552.100559 
L 808.482616 552.851365 
L 809.706668 554.613818 
L 810.930719 554.597317 
L 812.15477 553.007366 
L 813.378822 550.620156 
L 814.602873 552.309728 
L 815.826924 551.657372 
L 817.050976 554.682651 
L 818.275027 547.663968 
L 819.499078 552.677931 
L 820.72313 552.494621 
L 821.947181 550.966635 
L 823.171232 551.892593 
L 824.395283 553.799748 
L 825.619335 553.168127 
L 826.843386 552.248842 
L 828.067437 553.265772 
L 829.291489 551.488107 
L 830.51554 552.956387 
L 831.739591 553.711683 
L 832.963643 552.01502 
L 834.187694 552.979751 
L 835.411745 554.36492 
L 836.635797 551.166824 
L 837.859848 552.119441 
L 839.083899 552.87847 
L 840.307951 551.130374 
L 841.532002 551.978044 
L 842.756053 552.28342 
L 843.980105 553.048984 
L 845.204156 552.408437 
L 846.428207 553.036106 
L 847.652259 553.248473 
L 848.87631 550.175549 
L 850.100361 553.180714 
L 852.548464 552.571055 
L 853.772515 553.611666 
L 854.996567 552.636982 
L 856.220618 552.191869 
L 857.444669 551.327771 
L 858.668721 552.815318 
L 859.892772 552.863787 
L 861.116823 554.123448 
L 862.340875 551.220838 
L 863.564926 552.528503 
L 864.788977 553.322719 
L 866.013029 552.501502 
L 867.23708 552.933374 
L 868.461131 551.707501 
L 869.685182 553.675057 
L 870.909234 552.932293 
L 872.133285 551.616684 
L 873.357336 552.023128 
L 874.581388 552.73777 
L 875.805439 551.999265 
L 877.02949 553.168127 
L 879.477593 552.129083 
L 880.701644 551.130748 
L 881.925696 552.988762 
L 883.149747 552.297038 
L 884.373798 550.305359 
L 885.59785 552.783992 
L 886.821901 551.359009 
L 888.045952 552.802253 
L 889.270004 552.262603 
L 891.718106 553.217997 
L 892.942158 553.430932 
L 894.166209 552.932008 
L 895.39026 552.763666 
L 896.614312 551.973297 
L 897.838363 552.261551 
L 899.062414 554.194002 
L 900.286466 549.504968 
L 901.510517 550.069099 
L 902.734568 552.254536 
L 903.95862 551.82769 
L 905.182671 554.012585 
L 906.406722 552.235014 
L 907.630774 552.437736 
L 908.854825 554.169561 
L 910.078876 552.562623 
L 911.302928 551.926795 
L 912.526979 552.320942 
L 913.75103 553.152316 
L 914.975081 551.886653 
L 916.199133 551.986565 
L 917.423184 552.695039 
L 918.647235 551.702518 
L 919.871287 550.563795 
L 921.095338 549.684508 
L 923.543441 552.721845 
L 924.767492 552.179443 
L 925.991543 552.3992 
L 927.215595 552.474967 
L 928.439646 551.43424 
L 929.663697 550.685197 
L 930.887749 551.415507 
L 932.1118 549.361276 
L 933.335851 552.389056 
L 934.559903 553.484875 
L 935.783954 551.713503 
L 937.008005 551.402406 
L 938.232057 551.403277 
L 939.456108 551.276619 
L 941.904211 552.346995 
L 943.128262 552.773058 
L 944.352313 551.391666 
L 945.576365 552.201891 
L 946.800416 553.572771 
L 948.024467 550.160732 
L 949.248519 552.425066 
L 950.47257 552.971983 
L 951.696621 550.781876 
L 952.920673 551.241232 
L 954.144724 548.313173 
L 955.368775 552.340591 
L 956.592826 553.003605 
L 957.816878 552.75608 
L 959.040929 551.710594 
L 960.26498 552.039899 
L 961.489032 551.51454 
L 962.713083 553.387803 
L 963.937134 551.004538 
L 965.161186 549.233214 
L 966.385237 551.629422 
L 967.609288 552.751847 
L 968.83334 551.164094 
L 970.057391 552.20355 
L 971.281442 551.722995 
L 972.505494 551.515014 
L 973.729545 552.493783 
L 974.953596 548.458669 
L 976.177648 549.97243 
L 977.401699 552.040934 
L 978.62575 552.525485 
L 979.849802 551.32116 
L 981.073853 552.741417 
L 982.297904 551.77752 
L 983.521956 549.637521 
L 984.746007 551.242881 
L 985.970058 551.05068 
L 988.418161 553.287607 
L 990.866264 550.657552 
L 992.090315 553.831815 
L 993.314366 553.003334 
L 994.538418 551.491103 
L 995.762469 553.05885 
L 996.98652 550.892738 
L 998.210572 552.536278 
L 999.434623 549.93203 
L 1000.658674 550.396001 
L 1001.882725 551.723041 
L 1003.106777 552.563255 
L 1004.330828 552.240952 
L 1005.554879 551.284557 
L 1006.778931 551.861349 
L 1008.002982 551.732396 
L 1009.227033 550.923267 
L 1010.451085 550.72692 
L 1012.899187 551.497814 
L 1014.123239 551.091646 
L 1015.34729 551.763445 
L 1016.571341 550.76569 
L 1017.795393 552.493783 
L 1019.019444 551.138586 
L 1020.243495 550.101971 
L 1021.467547 553.531297 
L 1022.691598 552.742434 
L 1023.915649 551.037756 
L 1025.139701 552.074396 
L 1026.363752 551.180461 
L 1027.587803 548.617709 
L 1028.811855 551.876729 
L 1030.035906 551.488443 
L 1031.259957 551.456368 
L 1032.484009 553.008895 
L 1033.70806 552.311818 
L 1034.932111 550.169512 
L 1036.156163 551.270116 
L 1037.380214 550.19189 
L 1038.604265 551.851594 
L 1039.828317 549.703733 
L 1041.052368 549.416625 
L 1042.276419 549.983604 
L 1043.50047 550.816284 
L 1044.724522 549.962611 
L 1045.948573 553.25296 
L 1047.172624 549.825414 
L 1048.396676 550.645476 
L 1049.620727 552.762464 
L 1050.844778 549.222488 
L 1052.06883 549.293711 
L 1053.292881 552.353492 
L 1054.516932 549.39116 
L 1055.740984 550.872004 
L 1056.965035 552.113054 
L 1058.189086 551.031325 
L 1059.413138 551.849288 
L 1060.637189 551.931034 
L 1061.86124 550.956155 
L 1063.085292 552.725313 
L 1064.309343 549.517691 
L 1065.533394 549.8492 
L 1066.757446 551.631671 
L 1067.981497 549.824001 
L 1069.205548 551.579938 
L 1070.4296 552.148744 
L 1071.653651 549.546693 
L 1072.877702 549.016042 
L 1074.101754 551.766822 
L 1075.325805 551.681088 
L 1077.773908 551.040271 
L 1078.997959 550.679161 
L 1080.22201 550.469308 
L 1081.446062 551.597125 
L 1082.670113 550.150469 
L 1083.894164 550.814184 
L 1085.118216 551.193657 
L 1086.342267 550.849035 
L 1087.566318 551.055893 
L 1088.790369 551.144633 
L 1090.014421 550.113148 
L 1091.238472 551.395012 
L 1092.462523 550.298399 
L 1093.686575 552.856928 
L 1096.134677 551.22434 
L 1097.358729 552.435959 
L 1098.58278 549.241412 
L 1099.806831 550.814854 
L 1101.030883 551.174794 
L 1102.254934 550.508442 
L 1103.478985 550.817608 
L 1104.703037 550.400462 
L 1105.927088 552.243733 
L 1107.151139 552.108203 
L 1108.375191 550.815729 
L 1109.599242 553.003288 
L 1110.823293 552.259584 
L 1112.047345 550.907492 
L 1114.495447 552.588134 
L 1115.719499 551.73722 
L 1116.94355 551.851081 
L 1118.167601 551.148133 
L 1119.391653 549.929156 
L 1120.615704 552.746651 
L 1121.839755 550.741231 
L 1123.063807 551.75983 
L 1124.287858 552.316953 
L 1125.511909 551.368769 
L 1126.735961 549.505179 
L 1127.960012 552.279939 
L 1129.184063 551.938333 
L 1130.408115 550.4728 
L 1131.632166 550.164444 
L 1132.856217 552.545631 
L 1134.080268 551.807612 
L 1135.30432 551.702396 
L 1136.528371 551.331948 
L 1137.752422 552.125843 
L 1138.976474 550.786691 
L 1140.200525 549.838641 
L 1141.424576 552.306792 
L 1142.648628 552.513993 
L 1143.872679 553.019739 
L 1145.09673 551.936723 
L 1146.320782 552.007434 
L 1147.544833 550.235264 
L 1148.768884 551.609417 
L 1149.992936 552.341936 
L 1151.216987 551.846185 
L 1152.441038 553.158756 
L 1153.66509 552.026772 
L 1154.889141 549.648225 
L 1156.113192 552.523292 
L 1157.337244 550.472557 
L 1158.561295 550.117025 
L 1159.785346 550.763271 
L 1161.009398 551.868414 
L 1164.681552 551.766599 
L 1165.905603 549.328846 
L 1167.129654 551.968811 
L 1168.353706 549.173592 
L 1169.577757 549.132468 
L 1170.801808 552.147139 
L 1172.02586 551.642597 
L 1173.249911 549.442252 
L 1174.473962 551.434309 
L 1175.698013 551.982661 
L 1176.922065 550.663625 
L 1178.146116 550.924828 
L 1179.370167 550.026137 
L 1180.594219 551.13167 
L 1181.81827 552.040689 
L 1183.042321 550.83208 
L 1185.490424 551.431054 
L 1186.714475 550.863883 
L 1187.938527 552.453977 
L 1189.162578 552.091003 
L 1190.386629 549.539776 
L 1191.610681 551.013581 
L 1192.834732 550.279628 
L 1194.058783 551.202597 
L 1195.282835 551.142368 
L 1196.506886 550.113027 
L 1197.730937 551.626086 
L 1198.954989 551.128018 
L 1200.17904 553.090622 
L 1201.403091 552.016439 
L 1202.627143 551.54347 
L 1203.851194 551.350273 
L 1205.075245 553.158787 
L 1206.299297 551.875686 
L 1207.523348 551.05238 
L 1209.971451 552.017582 
L 1211.195502 552.008002 
L 1212.419553 551.060968 
L 1213.643605 551.123985 
L 1214.867656 552.767044 
L 1216.091707 552.309835 
L 1217.315759 550.410424 
L 1218.53981 551.120501 
L 1219.763861 551.462421 
L 1220.987912 551.933511 
L 1222.211964 552.089514 
L 1223.436015 551.593568 
L 1224.660066 550.876616 
L 1225.884118 550.894687 
L 1227.108169 551.237425 
L 1228.33222 552.409452 
L 1229.556272 551.920494 
L 1230.780323 550.561949 
L 1232.004374 553.240513 
L 1233.228426 552.650725 
L 1234.452477 551.202246 
L 1235.676528 553.049455 
L 1236.90058 551.045216 
L 1238.124631 549.455701 
L 1239.348682 551.423651 
L 1240.572734 552.66135 
L 1241.796785 551.156636 
L 1243.020836 552.322457 
L 1244.244888 551.097851 
L 1245.468939 551.577858 
L 1246.69299 553.886242 
L 1247.917042 550.612923 
L 1249.141093 551.361941 
L 1250.365144 552.991944 
L 1251.589196 550.440929 
L 1252.813247 551.49929 
L 1254.037298 552.025361 
L 1255.26135 551.634349 
L 1257.709452 551.407111 
L 1261.381606 552.408514 
L 1262.605658 552.063154 
L 1263.829709 552.201054 
L 1266.277811 551.42511 
L 1267.501863 553.429793 
L 1268.725914 551.161295 
L 1271.174017 552.249695 
L 1272.398068 551.866437 
L 1273.622119 551.199248 
L 1274.846171 551.675034 
L 1276.070222 548.584547 
L 1277.294273 550.771014 
L 1278.518325 551.466219 
L 1279.742376 551.006549 
L 1280.966427 551.045658 
L 1284.638581 550.447729 
L 1285.862633 552.030585 
L 1287.086684 551.567679 
L 1288.310735 550.876844 
L 1289.534787 551.43654 
L 1290.758838 549.877669 
L 1291.982889 551.389062 
L 1293.206941 551.576528 
L 1294.430992 551.351525 
L 1295.655043 549.944911 
L 1296.879095 550.775319 
L 1298.103146 550.95831 
L 1299.327197 549.92474 
L 1300.551249 550.654512 
L 1301.7753 552.674086 
L 1302.999351 551.128948 
L 1304.223403 550.347294 
L 1305.447454 551.72938 
L 1306.671505 551.215169 
L 1307.895556 550.307338 
L 1309.119608 551.828219 
L 1310.343659 551.975767 
L 1311.56771 550.54745 
L 1312.791762 550.94643 
L 1314.015813 549.429807 
L 1315.239864 550.354325 
L 1316.463916 550.953452 
L 1317.687967 551.184199 
L 1318.912018 552.086022 
L 1320.13607 552.188766 
L 1321.360121 550.520135 
L 1322.584172 550.516567 
L 1323.808224 550.366112 
L 1325.032275 551.509632 
L 1326.256326 549.972407 
L 1327.480378 550.638553 
L 1328.704429 551.097096 
L 1329.92848 547.888312 
L 1331.152532 551.477491 
L 1332.376583 551.612071 
L 1333.600634 549.753913 
L 1334.824686 551.441277 
L 1336.048737 547.94379 
L 1337.272788 549.532708 
L 1338.49684 552.51815 
L 1339.720891 551.301029 
L 1340.944942 550.766846 
L 1342.168994 551.267109 
L 1343.393045 553.875722 
L 1344.617096 550.704202 
L 1345.841148 552.905063 
L 1347.065199 551.491806 
L 1347.065199 551.491806 
" clip-path="url(#pf3666fdbb8)" style="fill: none; stroke: #008000; stroke-width: 2.25; stroke-linecap: round"/>
   </g>
   <g id="patch_3">
    <path d="M 63.096563 640.7175 
L 63.096563 49.1475 
" style="fill: none; stroke: #262626; stroke-width: 1.875; stroke-linejoin: miter; stroke-linecap: square"/>
   </g>
   <g id="patch_4">
    <path d="M 1408.206563 640.7175 
L 1408.206563 49.1475 
" style="fill: none; stroke: #262626; stroke-width: 1.875; stroke-linejoin: miter; stroke-linecap: square"/>
   </g>
   <g id="patch_5">
    <path d="M 63.096563 640.7175 
L 1408.206563 640.7175 
" style="fill: none; stroke: #262626; stroke-width: 1.875; stroke-linejoin: miter; stroke-linecap: square"/>
   </g>
   <g id="patch_6">
    <path d="M 63.096563 49.1475 
L 1408.206563 49.1475 
" style="fill: none; stroke: #262626; stroke-width: 1.875; stroke-linejoin: miter; stroke-linecap: square"/>
   </g>
   <g id="text_14">
    <!-- Training and Test Performance for Edo state. -->
    <g style="fill: #262626" transform="translate(537.23125 21.759375) scale(0.2 -0.2)">
     <defs>
      <path id="ArialMT-54" d="M 1659 0 
L 1659 4041 
L 150 4041 
L 150 4581 
L 3781 4581 
L 3781 4041 
L 2266 4041 
L 2266 0 
L 1659 0 
z
" transform="scale(0.015625)"/>
      <path id="ArialMT-72" d="M 416 0 
L 416 3319 
L 922 3319 
L 922 2816 
Q 1116 3169 1280 3281 
Q 1444 3394 1641 3394 
Q 1925 3394 2219 3213 
L 2025 2691 
Q 1819 2813 1613 2813 
Q 1428 2813 1281 2702 
Q 1134 2591 1072 2394 
Q 978 2094 978 1738 
L 978 0 
L 416 0 
z
" transform="scale(0.015625)"/>
      <path id="ArialMT-61" d="M 2588 409 
Q 2275 144 1986 34 
Q 1697 -75 1366 -75 
Q 819 -75 525 192 
Q 231 459 231 875 
Q 231 1119 342 1320 
Q 453 1522 633 1644 
Q 813 1766 1038 1828 
Q 1203 1872 1538 1913 
Q 2219 1994 2541 2106 
Q 2544 2222 2544 2253 
Q 2544 2597 2384 2738 
Q 2169 2928 1744 2928 
Q 1347 2928 1158 2789 
Q 969 2650 878 2297 
L 328 2372 
Q 403 2725 575 2942 
Q 747 3159 1072 3276 
Q 1397 3394 1825 3394 
Q 2250 3394 2515 3294 
Q 2781 3194 2906 3042 
Q 3031 2891 3081 2659 
Q 3109 2516 3109 2141 
L 3109 1391 
Q 3109 606 3145 398 
Q 3181 191 3288 0 
L 2700 0 
Q 2613 175 2588 409 
z
M 2541 1666 
Q 2234 1541 1622 1453 
Q 1275 1403 1131 1340 
Q 988 1278 909 1158 
Q 831 1038 831 891 
Q 831 666 1001 516 
Q 1172 366 1500 366 
Q 1825 366 2078 508 
Q 2331 650 2450 897 
Q 2541 1088 2541 1459 
L 2541 1666 
z
" transform="scale(0.015625)"/>
      <path id="ArialMT-69" d="M 425 3934 
L 425 4581 
L 988 4581 
L 988 3934 
L 425 3934 
z
M 425 0 
L 425 3319 
L 988 3319 
L 988 0 
L 425 0 
z
" transform="scale(0.015625)"/>
      <path id="ArialMT-6e" d="M 422 0 
L 422 3319 
L 928 3319 
L 928 2847 
Q 1294 3394 1984 3394 
Q 2284 3394 2536 3286 
Q 2788 3178 2913 3003 
Q 3038 2828 3088 2588 
Q 3119 2431 3119 2041 
L 3119 0 
L 2556 0 
L 2556 2019 
Q 2556 2363 2490 2533 
Q 2425 2703 2258 2804 
Q 2091 2906 1866 2906 
Q 1506 2906 1245 2678 
Q 984 2450 984 1813 
L 984 0 
L 422 0 
z
" transform="scale(0.015625)"/>
      <path id="ArialMT-67" d="M 319 -275 
L 866 -356 
Q 900 -609 1056 -725 
Q 1266 -881 1628 -881 
Q 2019 -881 2231 -725 
Q 2444 -569 2519 -288 
Q 2563 -116 2559 434 
Q 2191 0 1641 0 
Q 956 0 581 494 
Q 206 988 206 1678 
Q 206 2153 378 2554 
Q 550 2956 876 3175 
Q 1203 3394 1644 3394 
Q 2231 3394 2613 2919 
L 2613 3319 
L 3131 3319 
L 3131 450 
Q 3131 -325 2973 -648 
Q 2816 -972 2473 -1159 
Q 2131 -1347 1631 -1347 
Q 1038 -1347 672 -1080 
Q 306 -813 319 -275 
z
M 784 1719 
Q 784 1066 1043 766 
Q 1303 466 1694 466 
Q 2081 466 2343 764 
Q 2606 1063 2606 1700 
Q 2606 2309 2336 2618 
Q 2066 2928 1684 2928 
Q 1309 2928 1046 2623 
Q 784 2319 784 1719 
z
" transform="scale(0.015625)"/>
      <path id="ArialMT-20" transform="scale(0.015625)"/>
      <path id="ArialMT-64" d="M 2575 0 
L 2575 419 
Q 2259 -75 1647 -75 
Q 1250 -75 917 144 
Q 584 363 401 755 
Q 219 1147 219 1656 
Q 219 2153 384 2558 
Q 550 2963 881 3178 
Q 1213 3394 1622 3394 
Q 1922 3394 2156 3267 
Q 2391 3141 2538 2938 
L 2538 4581 
L 3097 4581 
L 3097 0 
L 2575 0 
z
M 797 1656 
Q 797 1019 1065 703 
Q 1334 388 1700 388 
Q 2069 388 2326 689 
Q 2584 991 2584 1609 
Q 2584 2291 2321 2609 
Q 2059 2928 1675 2928 
Q 1300 2928 1048 2622 
Q 797 2316 797 1656 
z
" transform="scale(0.015625)"/>
      <path id="ArialMT-65" d="M 2694 1069 
L 3275 997 
Q 3138 488 2766 206 
Q 2394 -75 1816 -75 
Q 1088 -75 661 373 
Q 234 822 234 1631 
Q 234 2469 665 2931 
Q 1097 3394 1784 3394 
Q 2450 3394 2872 2941 
Q 3294 2488 3294 1666 
Q 3294 1616 3291 1516 
L 816 1516 
Q 847 969 1125 678 
Q 1403 388 1819 388 
Q 2128 388 2347 550 
Q 2566 713 2694 1069 
z
M 847 1978 
L 2700 1978 
Q 2663 2397 2488 2606 
Q 2219 2931 1791 2931 
Q 1403 2931 1139 2672 
Q 875 2413 847 1978 
z
" transform="scale(0.015625)"/>
      <path id="ArialMT-74" d="M 1650 503 
L 1731 6 
Q 1494 -44 1306 -44 
Q 1000 -44 831 53 
Q 663 150 594 308 
Q 525 466 525 972 
L 525 2881 
L 113 2881 
L 113 3319 
L 525 3319 
L 525 4141 
L 1084 4478 
L 1084 3319 
L 1650 3319 
L 1650 2881 
L 1084 2881 
L 1084 941 
Q 1084 700 1114 631 
Q 1144 563 1211 522 
Q 1278 481 1403 481 
Q 1497 481 1650 503 
z
" transform="scale(0.015625)"/>
      <path id="ArialMT-50" d="M 494 0 
L 494 4581 
L 2222 4581 
Q 2678 4581 2919 4538 
Q 3256 4481 3484 4323 
Q 3713 4166 3852 3881 
Q 3991 3597 3991 3256 
Q 3991 2672 3619 2267 
Q 3247 1863 2275 1863 
L 1100 1863 
L 1100 0 
L 494 0 
z
M 1100 2403 
L 2284 2403 
Q 2872 2403 3119 2622 
Q 3366 2841 3366 3238 
Q 3366 3525 3220 3729 
Q 3075 3934 2838 4000 
Q 2684 4041 2272 4041 
L 1100 4041 
L 1100 2403 
z
" transform="scale(0.015625)"/>
      <path id="ArialMT-66" d="M 556 0 
L 556 2881 
L 59 2881 
L 59 3319 
L 556 3319 
L 556 3672 
Q 556 4006 616 4169 
Q 697 4388 901 4523 
Q 1106 4659 1475 4659 
Q 1713 4659 2000 4603 
L 1916 4113 
Q 1741 4144 1584 4144 
Q 1328 4144 1222 4034 
Q 1116 3925 1116 3625 
L 1116 3319 
L 1763 3319 
L 1763 2881 
L 1116 2881 
L 1116 0 
L 556 0 
z
" transform="scale(0.015625)"/>
      <path id="ArialMT-6d" d="M 422 0 
L 422 3319 
L 925 3319 
L 925 2853 
Q 1081 3097 1340 3245 
Q 1600 3394 1931 3394 
Q 2300 3394 2536 3241 
Q 2772 3088 2869 2813 
Q 3263 3394 3894 3394 
Q 4388 3394 4653 3120 
Q 4919 2847 4919 2278 
L 4919 0 
L 4359 0 
L 4359 2091 
Q 4359 2428 4304 2576 
Q 4250 2725 4106 2815 
Q 3963 2906 3769 2906 
Q 3419 2906 3187 2673 
Q 2956 2441 2956 1928 
L 2956 0 
L 2394 0 
L 2394 2156 
Q 2394 2531 2256 2718 
Q 2119 2906 1806 2906 
Q 1569 2906 1367 2781 
Q 1166 2656 1075 2415 
Q 984 2175 984 1722 
L 984 0 
L 422 0 
z
" transform="scale(0.015625)"/>
     </defs>
     <use xlink:href="#ArialMT-54"/>
     <use xlink:href="#ArialMT-72" transform="translate(57.333984 0)"/>
     <use xlink:href="#ArialMT-61" transform="translate(90.634766 0)"/>
     <use xlink:href="#ArialMT-69" transform="translate(146.25 0)"/>
     <use xlink:href="#ArialMT-6e" transform="translate(168.466797 0)"/>
     <use xlink:href="#ArialMT-69" transform="translate(224.082031 0)"/>
     <use xlink:href="#ArialMT-6e" transform="translate(246.298828 0)"/>
     <use xlink:href="#ArialMT-67" transform="translate(301.914062 0)"/>
     <use xlink:href="#ArialMT-20" transform="translate(357.529297 0)"/>
     <use xlink:href="#ArialMT-61" transform="translate(385.3125 0)"/>
     <use xlink:href="#ArialMT-6e" transform="translate(440.927734 0)"/>
     <use xlink:href="#ArialMT-64" transform="translate(496.542969 0)"/>
     <use xlink:href="#ArialMT-20" transform="translate(552.158203 0)"/>
     <use xlink:href="#ArialMT-54" transform="translate(578.191406 0)"/>
     <use xlink:href="#ArialMT-65" transform="translate(628.150391 0)"/>
     <use xlink:href="#ArialMT-73" transform="translate(683.765625 0)"/>
     <use xlink:href="#ArialMT-74" transform="translate(733.765625 0)"/>
     <use xlink:href="#ArialMT-20" transform="translate(761.548828 0)"/>
     <use xlink:href="#ArialMT-50" transform="translate(789.332031 0)"/>
     <use xlink:href="#ArialMT-65" transform="translate(856.03125 0)"/>
     <use xlink:href="#ArialMT-72" transform="translate(911.646484 0)"/>
     <use xlink:href="#ArialMT-66" transform="translate(944.947266 0)"/>
     <use xlink:href="#ArialMT-6f" transform="translate(972.730469 0)"/>
     <use xlink:href="#ArialMT-72" transform="translate(1028.345703 0)"/>
     <use xlink:href="#ArialMT-6d" transform="translate(1061.646484 0)"/>
     <use xlink:href="#ArialMT-61" transform="translate(1144.947266 0)"/>
     <use xlink:href="#ArialMT-6e" transform="translate(1200.5625 0)"/>
     <use xlink:href="#ArialMT-63" transform="translate(1256.177734 0)"/>
     <use xlink:href="#ArialMT-65" transform="translate(1306.177734 0)"/>
     <use xlink:href="#ArialMT-20" transform="translate(1361.792969 0)"/>
     <use xlink:href="#ArialMT-66" transform="translate(1389.576172 0)"/>
     <use xlink:href="#ArialMT-6f" transform="translate(1417.359375 0)"/>
     <use xlink:href="#ArialMT-72" transform="translate(1472.974609 0)"/>
     <use xlink:href="#ArialMT-20" transform="translate(1506.275391 0)"/>
     <use xlink:href="#ArialMT-45" transform="translate(1534.058594 0)"/>
     <use xlink:href="#ArialMT-64" transform="translate(1600.757812 0)"/>
     <use xlink:href="#ArialMT-6f" transform="translate(1656.373047 0)"/>
     <use xlink:href="#ArialMT-20" transform="translate(1711.988281 0)"/>
     <use xlink:href="#ArialMT-73" transform="translate(1739.771484 0)"/>
     <use xlink:href="#ArialMT-74" transform="translate(1789.771484 0)"/>
     <use xlink:href="#ArialMT-61" transform="translate(1817.554688 0)"/>
     <use xlink:href="#ArialMT-74" transform="translate(1873.169922 0)"/>
     <use xlink:href="#ArialMT-65" transform="translate(1900.953125 0)"/>
     <use xlink:href="#ArialMT-2e" transform="translate(1956.568359 0)"/>
    </g>
    <!--  Test RMSE 0.13 -->
    <g style="fill: #262626" transform="translate(660.804688 43.1475) scale(0.2 -0.2)">
     <defs>
      <path id="ArialMT-52" d="M 503 0 
L 503 4581 
L 2534 4581 
Q 3147 4581 3465 4457 
Q 3784 4334 3975 4021 
Q 4166 3709 4166 3331 
Q 4166 2844 3850 2509 
Q 3534 2175 2875 2084 
Q 3116 1969 3241 1856 
Q 3506 1613 3744 1247 
L 4541 0 
L 3778 0 
L 3172 953 
Q 2906 1366 2734 1584 
Q 2563 1803 2427 1890 
Q 2291 1978 2150 2013 
Q 2047 2034 1813 2034 
L 1109 2034 
L 1109 0 
L 503 0 
z
M 1109 2559 
L 2413 2559 
Q 2828 2559 3062 2645 
Q 3297 2731 3419 2920 
Q 3541 3109 3541 3331 
Q 3541 3656 3305 3865 
Q 3069 4075 2559 4075 
L 1109 4075 
L 1109 2559 
z
" transform="scale(0.015625)"/>
     </defs>
     <use xlink:href="#ArialMT-20"/>
     <use xlink:href="#ArialMT-54" transform="translate(26.033203 0)"/>
     <use xlink:href="#ArialMT-65" transform="translate(75.992188 0)"/>
     <use xlink:href="#ArialMT-73" transform="translate(131.607422 0)"/>
     <use xlink:href="#ArialMT-74" transform="translate(181.607422 0)"/>
     <use xlink:href="#ArialMT-20" transform="translate(209.390625 0)"/>
     <use xlink:href="#ArialMT-52" transform="translate(237.173828 0)"/>
     <use xlink:href="#ArialMT-4d" transform="translate(309.390625 0)"/>
     <use xlink:href="#ArialMT-53" transform="translate(392.691406 0)"/>
     <use xlink:href="#ArialMT-45" transform="translate(459.390625 0)"/>
     <use xlink:href="#ArialMT-20" transform="translate(526.089844 0)"/>
     <use xlink:href="#ArialMT-30" transform="translate(553.873047 0)"/>
     <use xlink:href="#ArialMT-2e" transform="translate(609.488281 0)"/>
     <use xlink:href="#ArialMT-31" transform="translate(637.271484 0)"/>
     <use xlink:href="#ArialMT-33" transform="translate(692.886719 0)"/>
    </g>
   </g>
   <g id="legend_1">
    <g id="patch_7">
     <path d="M 1306.88625 109.027031 
L 1396.656563 109.027031 
Q 1399.956563 109.027031 1399.956563 105.727031 
L 1399.956563 60.6975 
Q 1399.956563 57.3975 1396.656563 57.3975 
L 1306.88625 57.3975 
Q 1303.58625 57.3975 1303.58625 60.6975 
L 1303.58625 105.727031 
Q 1303.58625 109.027031 1306.88625 109.027031 
z
" style="fill: #ffffff; opacity: 0.8; stroke: #cccccc; stroke-width: 1.5; stroke-linejoin: miter"/>
    </g>
    <g id="line2d_3">
     <path d="M 1310.18625 70.032891 
L 1326.68625 70.032891 
L 1343.18625 70.032891 
" style="fill: none; stroke: #ff0000; stroke-width: 2.25; stroke-linecap: round"/>
    </g>
    <g id="text_15">
     <!-- Train -->
     <g style="fill: #262626" transform="translate(1356.38625 75.807891) scale(0.165 -0.165)">
      <use xlink:href="#ArialMT-54"/>
      <use xlink:href="#ArialMT-72" transform="translate(57.333984 0)"/>
      <use xlink:href="#ArialMT-61" transform="translate(90.634766 0)"/>
      <use xlink:href="#ArialMT-69" transform="translate(146.25 0)"/>
      <use xlink:href="#ArialMT-6e" transform="translate(168.466797 0)"/>
     </g>
    </g>
    <g id="line2d_4">
     <path d="M 1310.18625 93.372656 
L 1326.68625 93.372656 
L 1343.18625 93.372656 
" style="fill: none; stroke: #008000; stroke-width: 2.25; stroke-linecap: round"/>
    </g>
    <g id="text_16">
     <!-- Val -->
     <g style="fill: #262626" transform="translate(1356.38625 99.147656) scale(0.165 -0.165)">
      <defs>
       <path id="ArialMT-56" d="M 1803 0 
L 28 4581 
L 684 4581 
L 1875 1253 
Q 2019 853 2116 503 
Q 2222 878 2363 1253 
L 3600 4581 
L 4219 4581 
L 2425 0 
L 1803 0 
z
" transform="scale(0.015625)"/>
       <path id="ArialMT-6c" d="M 409 0 
L 409 4581 
L 972 4581 
L 972 0 
L 409 0 
z
" transform="scale(0.015625)"/>
      </defs>
      <use xlink:href="#ArialMT-56"/>
      <use xlink:href="#ArialMT-61" transform="translate(59.324219 0)"/>
      <use xlink:href="#ArialMT-6c" transform="translate(114.939453 0)"/>
     </g>
    </g>
   </g>
  </g>
 </g>
 <defs>
  <clipPath id="pf3666fdbb8">
   <rect x="63.096563" y="49.1475" width="1345.11" height="591.57"/>
  </clipPath>
 </defs>
</svg>
