<?xml version="1.0" encoding="utf-8" standalone="no"?>
<!DOCTYPE svg PUBLIC "-//W3C//DTD SVG 1.1//EN"
  "http://www.w3.org/Graphics/SVG/1.1/DTD/svg11.dtd">
<svg xmlns:xlink="http://www.w3.org/1999/xlink" width="1415.406563pt" height="695.981328pt" viewBox="0 0 1415.406563 695.981328" xmlns="http://www.w3.org/2000/svg" version="1.1">
 <metadata>
  <rdf:RDF xmlns:dc="http://purl.org/dc/elements/1.1/" xmlns:cc="http://creativecommons.org/ns#" xmlns:rdf="http://www.w3.org/1999/02/22-rdf-syntax-ns#">
   <cc:Work>
    <dc:type rdf:resource="http://purl.org/dc/dcmitype/StillImage"/>
    <dc:date>2025-05-25T12:26:57.675067</dc:date>
    <dc:format>image/svg+xml</dc:format>
    <dc:creator>
     <cc:Agent>
      <dc:title>Matplotlib v3.10.0, https://matplotlib.org/</dc:title>
     </cc:Agent>
    </dc:creator>
   </cc:Work>
  </rdf:RDF>
 </metadata>
 <defs>
  <style type="text/css">*{stroke-linejoin: round; stroke-linecap: butt}</style>
 </defs>
 <g id="figure_1">
  <g id="patch_1">
   <path d="M -0 695.981328 
L 1415.406563 695.981328 
L 1415.406563 0 
L -0 0 
z
" style="fill: #ffffff"/>
  </g>
  <g id="axes_1">
   <g id="patch_2">
    <path d="M 63.096563 640.73 
L 1408.206563 640.73 
L 1408.206563 49.16 
L 63.096563 49.16 
z
" style="fill: #ffffff"/>
   </g>
   <g id="matplotlib.axis_1">
    <g id="xtick_1">
     <g id="text_1">
      <!-- 0 -->
      <g style="fill: #262626" transform="translate(119.650153 665.040391) scale(0.165 -0.165)">
       <defs>
        <path id="ArialMT-30" d="M 266 2259 
Q 266 3072 433 3567 
Q 600 4063 929 4331 
Q 1259 4600 1759 4600 
Q 2128 4600 2406 4451 
Q 2684 4303 2865 4023 
Q 3047 3744 3150 3342 
Q 3253 2941 3253 2259 
Q 3253 1453 3087 958 
Q 2922 463 2592 192 
Q 2263 -78 1759 -78 
Q 1097 -78 719 397 
Q 266 969 266 2259 
z
M 844 2259 
Q 844 1131 1108 757 
Q 1372 384 1759 384 
Q 2147 384 2411 759 
Q 2675 1134 2675 2259 
Q 2675 3391 2411 3762 
Q 2147 4134 1753 4134 
Q 1366 4134 1134 3806 
Q 844 3388 844 2259 
z
" transform="scale(0.015625)"/>
       </defs>
       <use xlink:href="#ArialMT-30"/>
      </g>
     </g>
    </g>
    <g id="xtick_2">
     <g id="text_2">
      <!-- 200 -->
      <g style="fill: #262626" transform="translate(355.284871 665.040391) scale(0.165 -0.165)">
       <defs>
        <path id="ArialMT-32" d="M 3222 541 
L 3222 0 
L 194 0 
Q 188 203 259 391 
Q 375 700 629 1000 
Q 884 1300 1366 1694 
Q 2113 2306 2375 2664 
Q 2638 3022 2638 3341 
Q 2638 3675 2398 3904 
Q 2159 4134 1775 4134 
Q 1369 4134 1125 3890 
Q 881 3647 878 3216 
L 300 3275 
Q 359 3922 746 4261 
Q 1134 4600 1788 4600 
Q 2447 4600 2831 4234 
Q 3216 3869 3216 3328 
Q 3216 3053 3103 2787 
Q 2991 2522 2730 2228 
Q 2469 1934 1863 1422 
Q 1356 997 1212 845 
Q 1069 694 975 541 
L 3222 541 
z
" transform="scale(0.015625)"/>
       </defs>
       <use xlink:href="#ArialMT-32"/>
       <use xlink:href="#ArialMT-30" transform="translate(55.615234 0)"/>
       <use xlink:href="#ArialMT-30" transform="translate(111.230469 0)"/>
      </g>
     </g>
    </g>
    <g id="xtick_3">
     <g id="text_3">
      <!-- 400 -->
      <g style="fill: #262626" transform="translate(600.095135 665.040391) scale(0.165 -0.165)">
       <defs>
        <path id="ArialMT-34" d="M 2069 0 
L 2069 1097 
L 81 1097 
L 81 1613 
L 2172 4581 
L 2631 4581 
L 2631 1613 
L 3250 1613 
L 3250 1097 
L 2631 1097 
L 2631 0 
L 2069 0 
z
M 2069 1613 
L 2069 3678 
L 634 1613 
L 2069 1613 
z
" transform="scale(0.015625)"/>
       </defs>
       <use xlink:href="#ArialMT-34"/>
       <use xlink:href="#ArialMT-30" transform="translate(55.615234 0)"/>
       <use xlink:href="#ArialMT-30" transform="translate(111.230469 0)"/>
      </g>
     </g>
    </g>
    <g id="xtick_4">
     <g id="text_4">
      <!-- 600 -->
      <g style="fill: #262626" transform="translate(844.9054 665.040391) scale(0.165 -0.165)">
       <defs>
        <path id="ArialMT-36" d="M 3184 3459 
L 2625 3416 
Q 2550 3747 2413 3897 
Q 2184 4138 1850 4138 
Q 1581 4138 1378 3988 
Q 1113 3794 959 3422 
Q 806 3050 800 2363 
Q 1003 2672 1297 2822 
Q 1591 2972 1913 2972 
Q 2475 2972 2870 2558 
Q 3266 2144 3266 1488 
Q 3266 1056 3080 686 
Q 2894 316 2569 119 
Q 2244 -78 1831 -78 
Q 1128 -78 684 439 
Q 241 956 241 2144 
Q 241 3472 731 4075 
Q 1159 4600 1884 4600 
Q 2425 4600 2770 4297 
Q 3116 3994 3184 3459 
z
M 888 1484 
Q 888 1194 1011 928 
Q 1134 663 1356 523 
Q 1578 384 1822 384 
Q 2178 384 2434 671 
Q 2691 959 2691 1453 
Q 2691 1928 2437 2201 
Q 2184 2475 1800 2475 
Q 1419 2475 1153 2201 
Q 888 1928 888 1484 
z
" transform="scale(0.015625)"/>
       </defs>
       <use xlink:href="#ArialMT-36"/>
       <use xlink:href="#ArialMT-30" transform="translate(55.615234 0)"/>
       <use xlink:href="#ArialMT-30" transform="translate(111.230469 0)"/>
      </g>
     </g>
    </g>
    <g id="xtick_5">
     <g id="text_5">
      <!-- 800 -->
      <g style="fill: #262626" transform="translate(1089.715665 665.040391) scale(0.165 -0.165)">
       <defs>
        <path id="ArialMT-38" d="M 1131 2484 
Q 781 2613 612 2850 
Q 444 3088 444 3419 
Q 444 3919 803 4259 
Q 1163 4600 1759 4600 
Q 2359 4600 2725 4251 
Q 3091 3903 3091 3403 
Q 3091 3084 2923 2848 
Q 2756 2613 2416 2484 
Q 2838 2347 3058 2040 
Q 3278 1734 3278 1309 
Q 3278 722 2862 322 
Q 2447 -78 1769 -78 
Q 1091 -78 675 323 
Q 259 725 259 1325 
Q 259 1772 486 2073 
Q 713 2375 1131 2484 
z
M 1019 3438 
Q 1019 3113 1228 2906 
Q 1438 2700 1772 2700 
Q 2097 2700 2305 2904 
Q 2513 3109 2513 3406 
Q 2513 3716 2298 3927 
Q 2084 4138 1766 4138 
Q 1444 4138 1231 3931 
Q 1019 3725 1019 3438 
z
M 838 1322 
Q 838 1081 952 856 
Q 1066 631 1291 507 
Q 1516 384 1775 384 
Q 2178 384 2440 643 
Q 2703 903 2703 1303 
Q 2703 1709 2433 1975 
Q 2163 2241 1756 2241 
Q 1359 2241 1098 1978 
Q 838 1716 838 1322 
z
" transform="scale(0.015625)"/>
       </defs>
       <use xlink:href="#ArialMT-38"/>
       <use xlink:href="#ArialMT-30" transform="translate(55.615234 0)"/>
       <use xlink:href="#ArialMT-30" transform="translate(111.230469 0)"/>
      </g>
     </g>
    </g>
    <g id="xtick_6">
     <g id="text_6">
      <!-- 1000 -->
      <g style="fill: #262626" transform="translate(1329.938156 665.040391) scale(0.165 -0.165)">
       <defs>
        <path id="ArialMT-31" d="M 2384 0 
L 1822 0 
L 1822 3584 
Q 1619 3391 1289 3197 
Q 959 3003 697 2906 
L 697 3450 
Q 1169 3672 1522 3987 
Q 1875 4303 2022 4600 
L 2384 4600 
L 2384 0 
z
" transform="scale(0.015625)"/>
       </defs>
       <use xlink:href="#ArialMT-31"/>
       <use xlink:href="#ArialMT-30" transform="translate(55.615234 0)"/>
       <use xlink:href="#ArialMT-30" transform="translate(111.230469 0)"/>
       <use xlink:href="#ArialMT-30" transform="translate(166.845703 0)"/>
      </g>
     </g>
    </g>
    <g id="text_7">
     <!-- Epochs -->
     <g style="fill: #262626" transform="translate(705.63375 685.203828) scale(0.18 -0.18)">
      <defs>
       <path id="ArialMT-45" d="M 506 0 
L 506 4581 
L 3819 4581 
L 3819 4041 
L 1113 4041 
L 1113 2638 
L 3647 2638 
L 3647 2100 
L 1113 2100 
L 1113 541 
L 3925 541 
L 3925 0 
L 506 0 
z
" transform="scale(0.015625)"/>
       <path id="ArialMT-70" d="M 422 -1272 
L 422 3319 
L 934 3319 
L 934 2888 
Q 1116 3141 1344 3267 
Q 1572 3394 1897 3394 
Q 2322 3394 2647 3175 
Q 2972 2956 3137 2557 
Q 3303 2159 3303 1684 
Q 3303 1175 3120 767 
Q 2938 359 2589 142 
Q 2241 -75 1856 -75 
Q 1575 -75 1351 44 
Q 1128 163 984 344 
L 984 -1272 
L 422 -1272 
z
M 931 1641 
Q 931 1000 1190 694 
Q 1450 388 1819 388 
Q 2194 388 2461 705 
Q 2728 1022 2728 1688 
Q 2728 2322 2467 2637 
Q 2206 2953 1844 2953 
Q 1484 2953 1207 2617 
Q 931 2281 931 1641 
z
" transform="scale(0.015625)"/>
       <path id="ArialMT-6f" d="M 213 1659 
Q 213 2581 725 3025 
Q 1153 3394 1769 3394 
Q 2453 3394 2887 2945 
Q 3322 2497 3322 1706 
Q 3322 1066 3130 698 
Q 2938 331 2570 128 
Q 2203 -75 1769 -75 
Q 1072 -75 642 372 
Q 213 819 213 1659 
z
M 791 1659 
Q 791 1022 1069 705 
Q 1347 388 1769 388 
Q 2188 388 2466 706 
Q 2744 1025 2744 1678 
Q 2744 2294 2464 2611 
Q 2184 2928 1769 2928 
Q 1347 2928 1069 2612 
Q 791 2297 791 1659 
z
" transform="scale(0.015625)"/>
       <path id="ArialMT-63" d="M 2588 1216 
L 3141 1144 
Q 3050 572 2676 248 
Q 2303 -75 1759 -75 
Q 1078 -75 664 370 
Q 250 816 250 1647 
Q 250 2184 428 2587 
Q 606 2991 970 3192 
Q 1334 3394 1763 3394 
Q 2303 3394 2647 3120 
Q 2991 2847 3088 2344 
L 2541 2259 
Q 2463 2594 2264 2762 
Q 2066 2931 1784 2931 
Q 1359 2931 1093 2626 
Q 828 2322 828 1663 
Q 828 994 1084 691 
Q 1341 388 1753 388 
Q 2084 388 2306 591 
Q 2528 794 2588 1216 
z
" transform="scale(0.015625)"/>
       <path id="ArialMT-68" d="M 422 0 
L 422 4581 
L 984 4581 
L 984 2938 
Q 1378 3394 1978 3394 
Q 2347 3394 2619 3248 
Q 2891 3103 3008 2847 
Q 3125 2591 3125 2103 
L 3125 0 
L 2563 0 
L 2563 2103 
Q 2563 2525 2380 2717 
Q 2197 2909 1863 2909 
Q 1613 2909 1392 2779 
Q 1172 2650 1078 2428 
Q 984 2206 984 1816 
L 984 0 
L 422 0 
z
" transform="scale(0.015625)"/>
       <path id="ArialMT-73" d="M 197 991 
L 753 1078 
Q 800 744 1014 566 
Q 1228 388 1613 388 
Q 2000 388 2187 545 
Q 2375 703 2375 916 
Q 2375 1106 2209 1216 
Q 2094 1291 1634 1406 
Q 1016 1563 777 1677 
Q 538 1791 414 1992 
Q 291 2194 291 2438 
Q 291 2659 392 2848 
Q 494 3038 669 3163 
Q 800 3259 1026 3326 
Q 1253 3394 1513 3394 
Q 1903 3394 2198 3281 
Q 2494 3169 2634 2976 
Q 2775 2784 2828 2463 
L 2278 2388 
Q 2241 2644 2061 2787 
Q 1881 2931 1553 2931 
Q 1166 2931 1000 2803 
Q 834 2675 834 2503 
Q 834 2394 903 2306 
Q 972 2216 1119 2156 
Q 1203 2125 1616 2013 
Q 2213 1853 2448 1751 
Q 2684 1650 2818 1456 
Q 2953 1263 2953 975 
Q 2953 694 2789 445 
Q 2625 197 2315 61 
Q 2006 -75 1616 -75 
Q 969 -75 630 194 
Q 291 463 197 991 
z
" transform="scale(0.015625)"/>
      </defs>
      <use xlink:href="#ArialMT-45"/>
      <use xlink:href="#ArialMT-70" transform="translate(66.699219 0)"/>
      <use xlink:href="#ArialMT-6f" transform="translate(122.314453 0)"/>
      <use xlink:href="#ArialMT-63" transform="translate(177.929688 0)"/>
      <use xlink:href="#ArialMT-68" transform="translate(227.929688 0)"/>
      <use xlink:href="#ArialMT-73" transform="translate(283.544922 0)"/>
     </g>
    </g>
   </g>
   <g id="matplotlib.axis_2">
    <g id="ytick_1">
     <g id="text_8">
      <!-- 0.1 -->
      <g style="fill: #262626" transform="translate(27.661563 567.168278) scale(0.165 -0.165)">
       <defs>
        <path id="ArialMT-2e" d="M 581 0 
L 581 641 
L 1222 641 
L 1222 0 
L 581 0 
z
" transform="scale(0.015625)"/>
       </defs>
       <use xlink:href="#ArialMT-30"/>
       <use xlink:href="#ArialMT-2e" transform="translate(55.615234 0)"/>
       <use xlink:href="#ArialMT-31" transform="translate(83.398438 0)"/>
      </g>
     </g>
    </g>
    <g id="ytick_2">
     <g id="text_9">
      <!-- 0.2 -->
      <g style="fill: #262626" transform="translate(27.661563 440.635989) scale(0.165 -0.165)">
       <use xlink:href="#ArialMT-30"/>
       <use xlink:href="#ArialMT-2e" transform="translate(55.615234 0)"/>
       <use xlink:href="#ArialMT-32" transform="translate(83.398438 0)"/>
      </g>
     </g>
    </g>
    <g id="ytick_3">
     <g id="text_10">
      <!-- 0.3 -->
      <g style="fill: #262626" transform="translate(27.661563 314.1037) scale(0.165 -0.165)">
       <defs>
        <path id="ArialMT-33" d="M 269 1209 
L 831 1284 
Q 928 806 1161 595 
Q 1394 384 1728 384 
Q 2125 384 2398 659 
Q 2672 934 2672 1341 
Q 2672 1728 2419 1979 
Q 2166 2231 1775 2231 
Q 1616 2231 1378 2169 
L 1441 2663 
Q 1497 2656 1531 2656 
Q 1891 2656 2178 2843 
Q 2466 3031 2466 3422 
Q 2466 3731 2256 3934 
Q 2047 4138 1716 4138 
Q 1388 4138 1169 3931 
Q 950 3725 888 3313 
L 325 3413 
Q 428 3978 793 4289 
Q 1159 4600 1703 4600 
Q 2078 4600 2393 4439 
Q 2709 4278 2876 4000 
Q 3044 3722 3044 3409 
Q 3044 3113 2884 2869 
Q 2725 2625 2413 2481 
Q 2819 2388 3044 2092 
Q 3269 1797 3269 1353 
Q 3269 753 2831 336 
Q 2394 -81 1725 -81 
Q 1122 -81 723 278 
Q 325 638 269 1209 
z
" transform="scale(0.015625)"/>
       </defs>
       <use xlink:href="#ArialMT-30"/>
       <use xlink:href="#ArialMT-2e" transform="translate(55.615234 0)"/>
       <use xlink:href="#ArialMT-33" transform="translate(83.398438 0)"/>
      </g>
     </g>
    </g>
    <g id="ytick_4">
     <g id="text_11">
      <!-- 0.4 -->
      <g style="fill: #262626" transform="translate(27.661563 187.571411) scale(0.165 -0.165)">
       <use xlink:href="#ArialMT-30"/>
       <use xlink:href="#ArialMT-2e" transform="translate(55.615234 0)"/>
       <use xlink:href="#ArialMT-34" transform="translate(83.398438 0)"/>
      </g>
     </g>
    </g>
    <g id="ytick_5">
     <g id="text_12">
      <!-- 0.5 -->
      <g style="fill: #262626" transform="translate(27.661563 61.039122) scale(0.165 -0.165)">
       <defs>
        <path id="ArialMT-35" d="M 266 1200 
L 856 1250 
Q 922 819 1161 601 
Q 1400 384 1738 384 
Q 2144 384 2425 690 
Q 2706 997 2706 1503 
Q 2706 1984 2436 2262 
Q 2166 2541 1728 2541 
Q 1456 2541 1237 2417 
Q 1019 2294 894 2097 
L 366 2166 
L 809 4519 
L 3088 4519 
L 3088 3981 
L 1259 3981 
L 1013 2750 
Q 1425 3038 1878 3038 
Q 2478 3038 2890 2622 
Q 3303 2206 3303 1553 
Q 3303 931 2941 478 
Q 2500 -78 1738 -78 
Q 1113 -78 717 272 
Q 322 622 266 1200 
z
" transform="scale(0.015625)"/>
       </defs>
       <use xlink:href="#ArialMT-30"/>
       <use xlink:href="#ArialMT-2e" transform="translate(55.615234 0)"/>
       <use xlink:href="#ArialMT-35" transform="translate(83.398438 0)"/>
      </g>
     </g>
    </g>
    <g id="text_13">
     <!-- MSE -->
     <g style="fill: #262626" transform="translate(20.084063 364.448281) rotate(-90) scale(0.18 -0.18)">
      <defs>
       <path id="ArialMT-4d" d="M 475 0 
L 475 4581 
L 1388 4581 
L 2472 1338 
Q 2622 884 2691 659 
Q 2769 909 2934 1394 
L 4031 4581 
L 4847 4581 
L 4847 0 
L 4263 0 
L 4263 3834 
L 2931 0 
L 2384 0 
L 1059 3900 
L 1059 0 
L 475 0 
z
" transform="scale(0.015625)"/>
       <path id="ArialMT-53" d="M 288 1472 
L 859 1522 
Q 900 1178 1048 958 
Q 1197 738 1509 602 
Q 1822 466 2213 466 
Q 2559 466 2825 569 
Q 3091 672 3220 851 
Q 3350 1031 3350 1244 
Q 3350 1459 3225 1620 
Q 3100 1781 2813 1891 
Q 2628 1963 1997 2114 
Q 1366 2266 1113 2400 
Q 784 2572 623 2826 
Q 463 3081 463 3397 
Q 463 3744 659 4045 
Q 856 4347 1234 4503 
Q 1613 4659 2075 4659 
Q 2584 4659 2973 4495 
Q 3363 4331 3572 4012 
Q 3781 3694 3797 3291 
L 3216 3247 
Q 3169 3681 2898 3903 
Q 2628 4125 2100 4125 
Q 1550 4125 1298 3923 
Q 1047 3722 1047 3438 
Q 1047 3191 1225 3031 
Q 1400 2872 2139 2705 
Q 2878 2538 3153 2413 
Q 3553 2228 3743 1945 
Q 3934 1663 3934 1294 
Q 3934 928 3725 604 
Q 3516 281 3123 101 
Q 2731 -78 2241 -78 
Q 1619 -78 1198 103 
Q 778 284 539 648 
Q 300 1013 288 1472 
z
" transform="scale(0.015625)"/>
      </defs>
      <use xlink:href="#ArialMT-4d"/>
      <use xlink:href="#ArialMT-53" transform="translate(83.300781 0)"/>
      <use xlink:href="#ArialMT-45" transform="translate(150 0)"/>
     </g>
    </g>
   </g>
   <g id="line2d_1">
    <path d="M 124.237926 76.049545 
L 126.686029 120.985041 
L 127.91008 152.18747 
L 129.134131 199.406828 
L 131.582234 338.649277 
L 134.030337 388.431857 
L 135.254388 421.065326 
L 136.478439 432.912457 
L 137.702491 443.087917 
L 138.926542 462.127386 
L 140.150593 469.50903 
L 141.374645 480.535833 
L 142.598696 492.605138 
L 143.822747 500.052243 
L 145.046799 515.768694 
L 146.27085 520.797747 
L 147.494901 525.282842 
L 148.718953 530.902082 
L 149.943004 534.404158 
L 151.167055 540.155123 
L 152.391107 541.884794 
L 153.615158 541.917361 
L 154.839209 539.424071 
L 156.063261 545.343527 
L 157.287312 543.638889 
L 158.511363 543.194265 
L 159.735415 545.057256 
L 160.959466 541.75733 
L 162.183517 545.671536 
L 163.407569 547.898112 
L 164.63162 546.125282 
L 165.855671 545.816954 
L 167.079722 545.046194 
L 168.303774 547.165493 
L 169.527825 545.097302 
L 170.751876 544.537334 
L 171.975928 546.893156 
L 173.199979 547.467922 
L 174.42403 547.672494 
L 175.648082 544.335954 
L 176.872133 544.600923 
L 178.096184 545.337147 
L 179.320236 543.951519 
L 180.544287 544.528977 
L 182.99239 544.836847 
L 184.216441 548.036975 
L 185.440492 546.501315 
L 186.664544 546.76864 
L 187.888595 544.90467 
L 189.112646 546.57548 
L 190.336698 545.852892 
L 191.560749 545.894397 
L 192.7848 545.256643 
L 194.008852 545.040679 
L 195.232903 545.938826 
L 196.456954 546.349854 
L 197.681006 547.31623 
L 198.905057 545.276834 
L 200.129108 546.587834 
L 201.35316 544.080878 
L 202.577211 548.668906 
L 203.801262 547.129267 
L 205.025314 546.325099 
L 206.249365 546.295232 
L 207.473416 546.934825 
L 208.697467 546.093899 
L 209.921519 546.300306 
L 211.14557 546.802303 
L 212.369621 545.685569 
L 213.593673 544.770323 
L 214.817724 545.171114 
L 216.041775 547.570221 
L 217.265827 546.625357 
L 218.489878 547.433875 
L 219.713929 546.403205 
L 220.937981 546.284067 
L 222.162032 545.191502 
L 223.386083 547.562369 
L 224.610135 545.949611 
L 225.834186 546.738642 
L 227.058237 545.55602 
L 228.282289 546.416973 
L 229.50634 546.323597 
L 231.954443 547.81916 
L 233.178494 546.247009 
L 234.402545 546.556011 
L 235.626597 546.374381 
L 236.850648 546.608913 
L 238.074699 546.680398 
L 239.298751 547.74276 
L 240.522802 545.571037 
L 241.746853 546.165756 
L 242.970905 547.088235 
L 244.194956 546.774719 
L 245.419007 547.189288 
L 246.643059 547.157779 
L 247.86711 547.822793 
L 249.091161 547.300512 
L 250.315213 547.107724 
L 251.539264 546.197497 
L 252.763315 547.200529 
L 253.987366 545.493681 
L 255.211418 546.368345 
L 256.435469 546.656958 
L 257.65952 547.578739 
L 258.883572 547.269838 
L 261.331674 547.534417 
L 262.555726 545.815121 
L 263.779777 545.417848 
L 265.003828 547.123215 
L 266.22788 546.815692 
L 267.451931 546.707023 
L 268.675982 547.259116 
L 271.124085 547.194659 
L 272.348136 547.553799 
L 273.572188 548.060998 
L 274.796239 547.785439 
L 276.02029 545.748596 
L 277.244342 547.817946 
L 278.468393 547.190921 
L 279.692444 545.45026 
L 280.916496 548.545329 
L 282.140547 546.179233 
L 283.364598 546.930093 
L 284.58865 547.971589 
L 285.812701 546.879658 
L 287.036752 546.866464 
L 288.260804 547.689293 
L 289.484855 547.622436 
L 290.708906 547.983282 
L 291.932958 547.20282 
L 293.157009 547.734957 
L 294.38106 546.546948 
L 295.605112 547.547021 
L 296.829163 547.207047 
L 298.053214 547.858846 
L 299.277265 547.040853 
L 300.501317 548.319349 
L 301.725368 548.070698 
L 302.949419 549.480837 
L 304.173471 548.519247 
L 305.397522 548.906431 
L 306.621573 548.8506 
L 307.845625 548.557788 
L 309.069676 548.628962 
L 310.293727 551.151835 
L 311.517779 549.716217 
L 312.74183 550.074553 
L 313.965881 550.063218 
L 315.189933 550.726712 
L 316.413984 550.846366 
L 317.638035 549.598485 
L 318.862087 551.057422 
L 320.086138 551.580617 
L 321.310189 554.883694 
L 322.534241 553.50956 
L 323.758292 555.45311 
L 324.982343 558.75246 
L 326.206395 558.346784 
L 327.430446 560.570165 
L 328.654497 564.141638 
L 329.878549 568.319221 
L 331.1026 566.588079 
L 332.326651 567.938228 
L 333.550703 566.22456 
L 334.774754 559.22029 
L 335.998805 568.68206 
L 337.222857 564.957814 
L 338.446908 566.653131 
L 339.670959 567.110099 
L 340.89501 564.512628 
L 342.119062 564.391914 
L 343.343113 571.899901 
L 344.567164 566.788052 
L 345.791216 563.181788 
L 347.015267 567.984572 
L 348.239318 568.857983 
L 349.46337 566.710114 
L 350.687421 565.11756 
L 351.911472 571.206567 
L 353.135524 571.7992 
L 354.359575 568.879567 
L 355.583626 569.703962 
L 356.807678 574.6401 
L 358.031729 568.460743 
L 359.25578 571.09543 
L 360.479832 568.528435 
L 361.703883 568.234037 
L 362.927934 571.20312 
L 364.151986 572.423693 
L 365.376037 578.209189 
L 366.600088 571.949104 
L 367.82414 574.447059 
L 369.048191 571.343031 
L 370.272242 571.823208 
L 371.496294 574.182428 
L 372.720345 570.094142 
L 373.944396 575.024901 
L 375.168448 571.054952 
L 376.392499 573.350592 
L 378.840602 578.935575 
L 380.064653 573.751378 
L 381.288704 578.586928 
L 382.512756 571.69384 
L 383.736807 577.177706 
L 384.960858 574.976762 
L 386.184909 570.038351 
L 387.408961 573.06271 
L 388.633012 573.679549 
L 389.857063 574.777762 
L 391.081115 579.27556 
L 392.305166 572.324323 
L 393.529217 571.922309 
L 394.753269 573.064679 
L 395.97732 574.364903 
L 397.201371 576.249757 
L 398.425423 577.670545 
L 399.649474 573.593043 
L 400.873525 578.070324 
L 402.097577 577.784942 
L 403.321628 581.190391 
L 404.545679 577.599023 
L 405.769731 577.947481 
L 406.993782 574.928842 
L 408.217833 573.42565 
L 409.441885 578.502806 
L 410.665936 576.258574 
L 411.889987 578.71412 
L 413.114039 581.575755 
L 414.33809 578.041447 
L 415.562141 578.659404 
L 416.786193 575.629937 
L 419.234295 578.817469 
L 420.458347 577.851808 
L 421.682398 578.542661 
L 422.906449 574.929925 
L 424.130501 580.899037 
L 425.354552 575.611215 
L 426.578603 580.169322 
L 427.802655 579.152716 
L 429.026706 580.59106 
L 430.250757 579.537321 
L 431.474808 578.106229 
L 432.69886 581.960765 
L 433.922911 580.58372 
L 435.146962 582.9083 
L 436.371014 579.178597 
L 437.595065 573.518234 
L 438.819116 582.085204 
L 440.043168 580.479923 
L 441.267219 579.779509 
L 442.49127 579.958658 
L 443.715322 579.657285 
L 444.939373 579.670575 
L 447.387476 584.232895 
L 448.611527 576.977549 
L 449.835578 579.537349 
L 451.05963 580.915181 
L 452.283681 574.374644 
L 453.507732 576.639389 
L 455.955835 581.71496 
L 457.179886 577.417087 
L 458.403938 588.314785 
L 459.627989 582.386395 
L 460.85204 579.112737 
L 462.076092 582.562969 
L 463.300143 576.736189 
L 464.524194 582.35937 
L 465.748246 581.550634 
L 466.972297 583.571163 
L 468.196348 582.821422 
L 469.4204 585.497356 
L 470.644451 578.865923 
L 471.868502 577.477235 
L 473.092553 580.321085 
L 474.316605 582.108029 
L 475.540656 580.766577 
L 476.764707 585.133732 
L 477.988759 580.479086 
L 479.21281 583.760335 
L 480.436861 583.944046 
L 481.660913 580.054655 
L 482.884964 582.460021 
L 484.109015 586.078773 
L 485.333067 581.861063 
L 486.557118 585.551757 
L 487.781169 584.407462 
L 489.005221 584.443452 
L 490.229272 587.095809 
L 491.453323 577.399669 
L 492.677375 581.742173 
L 493.901426 582.252566 
L 496.349529 584.498333 
L 497.57358 578.962785 
L 498.797631 582.823084 
L 500.021683 579.490175 
L 501.245734 579.981597 
L 502.469785 582.177151 
L 503.693837 583.096708 
L 504.917888 584.959527 
L 506.141939 582.840649 
L 507.365991 584.410105 
L 508.590042 583.21126 
L 509.814093 578.401662 
L 511.038145 584.501852 
L 512.262196 578.301429 
L 513.486247 586.928593 
L 514.710299 583.302853 
L 515.93435 583.772185 
L 517.158401 589.315856 
L 518.382452 581.454678 
L 519.606504 580.548566 
L 520.830555 580.835059 
L 522.054606 586.413275 
L 523.278658 584.163779 
L 524.502709 584.485696 
L 525.72676 584.260132 
L 526.950812 581.895627 
L 528.174863 582.050612 
L 529.398914 586.214586 
L 530.622966 586.071883 
L 531.847017 588.541459 
L 533.071068 583.110317 
L 534.29512 584.771012 
L 535.519171 580.479486 
L 536.743222 586.175867 
L 537.967274 584.131047 
L 539.191325 586.990695 
L 540.415376 587.897084 
L 541.639428 585.640391 
L 542.863479 584.465766 
L 544.08753 589.562875 
L 545.311582 590.166698 
L 546.535633 586.225474 
L 547.759684 584.363329 
L 548.983736 581.271221 
L 550.207787 585.573482 
L 551.431838 583.927482 
L 552.65589 581.428594 
L 553.879941 587.129827 
L 555.103992 578.834735 
L 556.328044 585.82197 
L 557.552095 586.016109 
L 558.776146 586.818868 
L 560.000197 580.364727 
L 561.224249 587.073157 
L 562.4483 587.404035 
L 563.672351 585.717876 
L 564.896403 584.317506 
L 566.120454 587.456197 
L 567.344505 584.650586 
L 568.568557 591.648349 
L 569.792608 590.71355 
L 571.016659 584.565655 
L 572.240711 589.547124 
L 573.464762 589.878303 
L 574.688813 588.101601 
L 575.912865 584.098606 
L 577.136916 588.300967 
L 578.360967 589.620022 
L 579.585019 587.662516 
L 580.80907 589.914001 
L 582.033121 588.753521 
L 583.257173 583.885533 
L 584.481224 587.443135 
L 585.705275 585.213157 
L 586.929327 584.527536 
L 588.153378 589.084345 
L 589.377429 586.232551 
L 590.601481 585.804184 
L 591.825532 586.427807 
L 593.049583 587.874634 
L 594.273635 586.624921 
L 595.497686 586.781951 
L 596.721737 592.708796 
L 597.945789 589.581528 
L 599.16984 589.111327 
L 600.393891 585.731736 
L 601.617943 588.120104 
L 602.841994 579.653256 
L 604.066045 584.992389 
L 605.290096 587.693148 
L 606.514148 583.400111 
L 607.738199 584.286325 
L 608.96225 586.821216 
L 610.186302 578.523177 
L 611.410353 587.556462 
L 612.634404 594.113324 
L 613.858456 588.643537 
L 615.082507 586.228403 
L 616.306558 590.246372 
L 617.53061 581.603441 
L 618.754661 587.548713 
L 619.978712 586.499884 
L 621.202764 583.100108 
L 622.426815 590.441381 
L 623.650866 588.600243 
L 624.874918 592.378692 
L 626.098969 590.04988 
L 627.32302 587.257928 
L 628.547072 582.437067 
L 629.771123 585.773995 
L 630.995174 591.458628 
L 632.219226 586.557361 
L 633.443277 585.622148 
L 634.667328 587.15763 
L 635.89138 585.335269 
L 637.115431 587.109796 
L 638.339482 590.039244 
L 639.563534 585.384586 
L 640.787585 589.976433 
L 642.011636 585.752041 
L 643.235688 584.159203 
L 644.459739 586.944319 
L 645.68379 586.404017 
L 646.907842 590.156794 
L 648.131893 592.031729 
L 649.355944 585.720352 
L 650.579995 587.146737 
L 651.804047 586.780715 
L 653.028098 587.819968 
L 654.252149 585.83689 
L 655.476201 584.123122 
L 656.700252 587.498395 
L 657.924303 580.499297 
L 659.148355 586.990285 
L 660.372406 585.441036 
L 661.596457 588.385194 
L 662.820509 588.601013 
L 664.04456 592.743348 
L 665.268611 589.366115 
L 666.492663 587.817142 
L 667.716714 589.86281 
L 670.164817 585.375869 
L 671.388868 591.120107 
L 672.612919 583.943573 
L 673.836971 587.420419 
L 675.061022 584.527695 
L 676.285073 589.072186 
L 677.509125 587.439399 
L 678.733176 591.229824 
L 679.957227 589.507767 
L 681.181279 588.295512 
L 682.40533 587.996055 
L 683.629381 586.407263 
L 684.853433 593.610662 
L 686.077484 592.741725 
L 687.301535 590.656124 
L 688.525587 585.272777 
L 689.749638 589.385178 
L 690.973689 590.273714 
L 692.19774 589.902184 
L 693.421792 587.65707 
L 694.645843 591.596178 
L 695.869894 587.33928 
L 697.093946 584.821818 
L 698.317997 588.685217 
L 699.542048 591.296769 
L 700.7661 590.633524 
L 701.990151 588.60992 
L 703.214202 593.227369 
L 704.438254 585.617138 
L 705.662305 588.226934 
L 706.886356 592.638981 
L 708.110408 585.274737 
L 709.334459 593.988725 
L 710.55851 592.381943 
L 711.782562 585.436742 
L 713.006613 594.160747 
L 714.230664 590.939268 
L 715.454716 588.101032 
L 717.902818 586.521875 
L 719.12687 588.053272 
L 720.350921 590.56115 
L 721.574972 590.10205 
L 722.799024 589.398936 
L 724.023075 590.525311 
L 725.247126 593.364637 
L 726.471178 586.357067 
L 727.695229 591.145536 
L 730.143332 595.109838 
L 731.367383 589.190534 
L 732.591434 591.43167 
L 733.815486 591.964512 
L 735.039537 589.766011 
L 736.263588 587.29943 
L 737.487639 591.815944 
L 738.711691 589.663052 
L 739.935742 592.304488 
L 741.159793 590.052546 
L 742.383845 588.404901 
L 743.607896 588.976935 
L 744.831947 588.360197 
L 746.055999 594.992203 
L 747.28005 587.287594 
L 748.504101 593.752655 
L 749.728153 595.176774 
L 750.952204 585.483849 
L 752.176255 594.395582 
L 753.400307 591.207707 
L 754.624358 594.912548 
L 755.848409 593.817657 
L 757.072461 590.231046 
L 758.296512 594.18748 
L 759.520563 589.535784 
L 760.744615 590.168707 
L 761.968666 595.115633 
L 764.416769 590.858679 
L 765.64082 588.609195 
L 766.864871 585.780057 
L 768.088923 590.457177 
L 769.312974 590.345966 
L 770.537025 595.141189 
L 771.761077 590.34882 
L 772.985128 593.388045 
L 774.209179 589.625239 
L 775.433231 592.458791 
L 776.657282 586.786206 
L 777.881333 589.900238 
L 779.105385 588.613562 
L 780.329436 592.706279 
L 781.553487 591.458683 
L 782.777538 588.957713 
L 784.00159 591.811384 
L 785.225641 590.732685 
L 786.449692 593.939359 
L 787.673744 593.239728 
L 788.897795 589.78778 
L 790.121846 595.401215 
L 791.345898 589.518691 
L 792.569949 595.017444 
L 793.794 590.514934 
L 795.018052 593.56638 
L 796.242103 591.240556 
L 797.466154 594.827937 
L 798.690206 594.843981 
L 799.914257 592.04961 
L 801.138308 591.422456 
L 802.36236 595.536574 
L 803.586411 590.726011 
L 804.810462 592.766756 
L 806.034514 595.317919 
L 807.258565 591.82168 
L 808.482616 593.216668 
L 809.706668 597.011801 
L 810.930719 590.603365 
L 812.15477 593.737502 
L 814.602873 590.181449 
L 815.826924 594.632941 
L 817.050976 593.815808 
L 818.275027 596.908192 
L 819.499078 594.554009 
L 820.72313 598.140039 
L 821.947181 597.75846 
L 823.171232 592.445435 
L 824.395283 593.443005 
L 825.619335 588.960451 
L 826.843386 592.98541 
L 828.067437 590.850819 
L 829.291489 594.606528 
L 830.51554 590.492106 
L 831.739591 594.579455 
L 832.963643 594.962275 
L 834.187694 589.32828 
L 835.411745 591.500633 
L 836.635797 591.75832 
L 837.859848 593.939332 
L 839.083899 598.115619 
L 840.307951 589.127458 
L 841.532002 591.646488 
L 842.756053 593.516073 
L 843.980105 594.888551 
L 845.204156 595.287422 
L 846.428207 595.951626 
L 847.652259 595.430608 
L 850.100361 591.698319 
L 851.324413 590.024145 
L 852.548464 592.662614 
L 853.772515 595.683632 
L 854.996567 592.378368 
L 856.220618 596.340055 
L 857.444669 597.193253 
L 858.668721 594.564036 
L 859.892772 596.05266 
L 861.116823 592.742615 
L 862.340875 599.067748 
L 863.564926 592.385267 
L 864.788977 598.416708 
L 866.013029 593.742575 
L 867.23708 591.044021 
L 868.461131 594.418278 
L 869.685182 599.553222 
L 870.909234 592.002088 
L 872.133285 600.20347 
L 873.357336 592.902493 
L 874.581388 595.938164 
L 875.805439 592.338309 
L 877.02949 599.211974 
L 878.253542 593.467187 
L 879.477593 594.779701 
L 880.701644 599.214638 
L 881.925696 596.651621 
L 883.149747 598.636311 
L 884.373798 595.50764 
L 885.59785 592.819147 
L 886.821901 592.419558 
L 888.045952 602.291085 
L 889.270004 594.328966 
L 890.494055 598.06368 
L 891.718106 595.45804 
L 892.942158 598.018522 
L 894.166209 595.875572 
L 895.39026 600.316061 
L 896.614312 597.990005 
L 897.838363 596.967014 
L 899.062414 595.663662 
L 900.286466 596.071731 
L 901.510517 597.542756 
L 902.734568 595.553517 
L 903.95862 598.951109 
L 905.182671 597.372001 
L 906.406722 599.26692 
L 907.630774 596.602559 
L 910.078876 600.407901 
L 911.302928 598.396562 
L 912.526979 594.901368 
L 913.75103 598.864483 
L 914.975081 598.941979 
L 916.199133 592.67105 
L 917.423184 600.887367 
L 918.647235 592.448227 
L 919.871287 599.716719 
L 921.095338 594.655796 
L 922.319389 594.709574 
L 923.543441 598.76653 
L 924.767492 597.877329 
L 925.991543 595.445292 
L 927.215595 597.940419 
L 928.439646 596.686556 
L 929.663697 596.36367 
L 930.887749 598.492731 
L 932.1118 597.95092 
L 933.335851 597.540394 
L 934.559903 597.63018 
L 935.783954 595.449522 
L 937.008005 597.19271 
L 938.232057 593.204746 
L 939.456108 600.40605 
L 940.680159 597.981703 
L 941.904211 596.56536 
L 943.128262 600.326493 
L 944.352313 596.740899 
L 945.576365 594.807261 
L 946.800416 596.092118 
L 948.024467 594.963837 
L 949.248519 600.106645 
L 950.47257 594.200535 
L 951.696621 596.472042 
L 954.144724 599.742802 
L 955.368775 594.916778 
L 956.592826 600.656559 
L 957.816878 597.927883 
L 959.040929 599.723 
L 960.26498 597.973058 
L 961.489032 592.826726 
L 962.713083 600.628017 
L 965.161186 599.282009 
L 966.385237 591.851927 
L 967.609288 597.519646 
L 968.83334 595.853295 
L 970.057391 596.75018 
L 971.281442 598.740319 
L 972.505494 603.092074 
L 973.729545 602.42136 
L 974.953596 596.431468 
L 976.177648 598.786245 
L 977.401699 599.735436 
L 978.62575 601.286761 
L 979.849802 597.625955 
L 981.073853 598.625295 
L 982.297904 597.022071 
L 983.521956 602.351693 
L 984.746007 599.829174 
L 985.970058 601.1839 
L 987.19411 600.572876 
L 988.418161 597.142874 
L 989.642212 600.285117 
L 990.866264 601.81447 
L 992.090315 602.014626 
L 993.314366 601.096041 
L 994.538418 599.284582 
L 995.762469 598.556695 
L 996.98652 600.393991 
L 998.210572 598.809961 
L 999.434623 602.457416 
L 1000.658674 601.482105 
L 1001.882725 603.512538 
L 1003.106777 603.4441 
L 1004.330828 595.515368 
L 1005.554879 598.539499 
L 1006.778931 598.252841 
L 1008.002982 596.550917 
L 1010.451085 602.961261 
L 1011.675136 602.275252 
L 1012.899187 597.260194 
L 1014.123239 601.951942 
L 1015.34729 598.039979 
L 1016.571341 599.375827 
L 1017.795393 597.700544 
L 1019.019444 603.015713 
L 1020.243495 599.085265 
L 1021.467547 600.95 
L 1022.691598 597.557747 
L 1023.915649 600.339663 
L 1025.139701 602.203692 
L 1026.363752 598.371684 
L 1027.587803 598.664135 
L 1028.811855 602.325969 
L 1030.035906 599.826229 
L 1031.259957 603.787452 
L 1032.484009 602.566323 
L 1033.70806 599.49044 
L 1034.932111 600.749135 
L 1036.156163 602.370101 
L 1037.380214 596.913077 
L 1038.604265 599.795106 
L 1039.828317 598.780948 
L 1041.052368 600.949708 
L 1042.276419 605.107008 
L 1043.50047 598.550742 
L 1044.724522 596.165492 
L 1045.948573 600.076969 
L 1047.172624 600.399502 
L 1048.396676 602.040204 
L 1049.620727 602.548751 
L 1050.844778 597.567484 
L 1052.06883 601.115379 
L 1053.292881 602.940251 
L 1054.516932 597.982861 
L 1055.740984 599.102189 
L 1056.965035 601.012506 
L 1058.189086 603.325089 
L 1059.413138 595.003809 
L 1060.637189 603.387654 
L 1061.86124 602.882156 
L 1063.085292 606.015965 
L 1064.309343 602.606514 
L 1065.533394 600.804794 
L 1066.757446 603.473215 
L 1067.981497 599.540959 
L 1069.205548 603.251304 
L 1070.4296 600.031722 
L 1071.653651 604.845084 
L 1074.101754 599.903568 
L 1075.325805 600.255495 
L 1076.549856 601.917804 
L 1077.773908 597.834647 
L 1078.997959 601.754374 
L 1080.22201 600.16738 
L 1081.446062 609.083285 
L 1082.670113 602.788511 
L 1083.894164 600.108618 
L 1085.118216 597.104331 
L 1086.342267 604.253748 
L 1087.566318 598.432074 
L 1088.790369 603.866251 
L 1090.014421 603.697683 
L 1091.238472 605.771579 
L 1092.462523 600.388916 
L 1093.686575 602.909892 
L 1094.910626 602.687238 
L 1096.134677 606.124281 
L 1097.358729 603.837427 
L 1098.58278 606.607083 
L 1099.806831 604.689713 
L 1101.030883 600.2231 
L 1102.254934 601.997489 
L 1103.478985 599.143442 
L 1104.703037 598.696073 
L 1107.151139 602.712729 
L 1108.375191 605.807117 
L 1109.599242 603.045635 
L 1110.823293 605.774901 
L 1112.047345 602.456092 
L 1113.271396 607.201727 
L 1114.495447 603.079929 
L 1115.719499 607.89515 
L 1116.94355 603.330773 
L 1118.167601 605.720912 
L 1119.391653 599.941035 
L 1120.615704 603.351002 
L 1121.839755 604.428077 
L 1123.063807 606.477858 
L 1124.287858 608.143571 
L 1125.511909 604.231338 
L 1126.735961 608.482578 
L 1127.960012 603.401791 
L 1129.184063 600.837501 
L 1130.408115 604.050612 
L 1131.632166 606.020277 
L 1132.856217 609.569727 
L 1134.080268 598.852076 
L 1135.30432 608.894254 
L 1136.528371 604.874399 
L 1137.752422 603.913518 
L 1138.976474 597.643191 
L 1140.200525 604.054422 
L 1141.424576 604.912367 
L 1142.648628 600.627799 
L 1143.872679 603.158796 
L 1145.09673 603.709231 
L 1146.320782 609.965785 
L 1147.544833 607.484608 
L 1148.768884 601.625099 
L 1149.992936 605.034895 
L 1151.216987 601.613969 
L 1152.441038 602.027099 
L 1153.66509 604.622216 
L 1154.889141 603.545738 
L 1156.113192 601.865757 
L 1157.337244 601.893208 
L 1158.561295 607.713702 
L 1159.785346 600.851104 
L 1161.009398 605.86032 
L 1162.233449 604.563094 
L 1163.4575 607.499068 
L 1164.681552 606.136423 
L 1165.905603 600.694679 
L 1167.129654 609.501826 
L 1168.353706 608.980751 
L 1169.577757 604.996996 
L 1170.801808 604.040241 
L 1172.02586 596.680476 
L 1173.249911 602.003276 
L 1174.473962 608.694027 
L 1175.698013 606.960581 
L 1176.922065 597.058779 
L 1178.146116 604.946003 
L 1179.370167 602.406223 
L 1180.594219 602.753761 
L 1181.81827 607.100048 
L 1183.042321 601.384326 
L 1184.266373 608.855147 
L 1185.490424 604.741129 
L 1186.714475 606.596651 
L 1187.938527 609.975243 
L 1189.162578 602.369434 
L 1190.386629 605.317287 
L 1191.610681 606.100687 
L 1192.834732 602.613866 
L 1194.058783 608.000328 
L 1195.282835 600.925974 
L 1196.506886 599.498786 
L 1197.730937 602.456568 
L 1198.954989 607.785545 
L 1200.17904 603.156004 
L 1201.403091 605.781541 
L 1202.627143 606.349095 
L 1203.851194 611.532062 
L 1205.075245 601.169316 
L 1206.299297 607.487008 
L 1207.523348 605.718723 
L 1208.747399 605.844244 
L 1209.971451 604.763268 
L 1211.195502 605.788446 
L 1212.419553 601.725581 
L 1213.643605 611.517842 
L 1214.867656 606.514475 
L 1216.091707 609.207876 
L 1217.315759 604.679832 
L 1218.53981 609.425777 
L 1219.763861 606.034979 
L 1220.987912 605.323281 
L 1222.211964 608.497258 
L 1223.436015 605.482623 
L 1224.660066 606.239739 
L 1225.884118 607.813532 
L 1227.108169 609.675851 
L 1229.556272 604.080227 
L 1230.780323 613.813289 
L 1232.004374 610.161038 
L 1233.228426 610.322291 
L 1234.452477 606.440144 
L 1235.676528 606.417246 
L 1236.90058 607.777341 
L 1238.124631 608.924873 
L 1239.348682 608.210313 
L 1240.572734 610.372199 
L 1241.796785 605.641563 
L 1243.020836 604.870016 
L 1244.244888 608.020133 
L 1245.468939 605.529282 
L 1246.69299 601.738571 
L 1247.917042 605.09664 
L 1249.141093 605.786523 
L 1250.365144 604.462845 
L 1251.589196 600.415375 
L 1252.813247 604.5308 
L 1254.037298 607.967619 
L 1255.26135 604.002654 
L 1256.485401 604.164509 
L 1257.709452 601.002764 
L 1258.933504 604.101007 
L 1260.157555 608.100227 
L 1262.605658 612.669528 
L 1263.829709 607.924147 
L 1265.05376 604.581288 
L 1266.277811 611.274389 
L 1267.501863 608.333183 
L 1268.725914 607.902569 
L 1269.949965 608.341149 
L 1271.174017 606.771393 
L 1272.398068 610.418942 
L 1273.622119 600.341095 
L 1274.846171 607.44143 
L 1276.070222 607.725968 
L 1277.294273 607.008204 
L 1278.518325 604.329884 
L 1279.742376 612.288991 
L 1280.966427 604.921529 
L 1282.190479 611.036895 
L 1283.41453 605.726426 
L 1284.638581 608.278887 
L 1285.862633 605.212489 
L 1287.086684 609.582611 
L 1288.310735 604.239716 
L 1289.534787 609.508402 
L 1290.758838 604.321242 
L 1291.982889 602.772414 
L 1293.206941 605.952433 
L 1294.430992 612.715914 
L 1295.655043 610.423789 
L 1296.879095 608.811996 
L 1298.103146 613.192201 
L 1299.327197 607.284498 
L 1300.551249 613.638705 
L 1301.7753 608.884147 
L 1302.999351 607.076408 
L 1304.223403 607.253278 
L 1305.447454 609.322282 
L 1306.671505 607.327967 
L 1307.895556 608.919698 
L 1309.119608 606.792219 
L 1310.343659 607.205358 
L 1311.56771 603.877445 
L 1312.791762 609.48147 
L 1314.015813 610.274909 
L 1315.239864 612.17475 
L 1316.463916 611.692059 
L 1317.687967 611.419558 
L 1318.912018 605.179445 
L 1320.13607 612.392375 
L 1321.360121 602.100139 
L 1322.584172 613.146348 
L 1323.808224 607.630274 
L 1325.032275 613.339149 
L 1326.256326 609.786093 
L 1327.480378 607.526719 
L 1328.704429 610.761028 
L 1329.92848 605.654296 
L 1331.152532 610.252511 
L 1332.376583 601.527076 
L 1333.600634 609.451179 
L 1334.824686 608.068469 
L 1336.048737 607.078417 
L 1337.272788 612.394785 
L 1338.49684 602.596358 
L 1339.720891 610.910341 
L 1340.944942 608.392093 
L 1342.168994 612.232916 
L 1343.393045 611.713029 
L 1344.617096 613.840455 
L 1345.841148 609.710097 
L 1347.065199 610.110285 
L 1347.065199 610.110285 
" clip-path="url(#p7623a3f0aa)" style="fill: none; stroke: #ff0000; stroke-width: 2.25; stroke-linecap: round"/>
   </g>
   <g id="line2d_2">
    <path d="M 124.237926 90.169606 
L 126.686029 135.215843 
L 127.91008 166.935465 
L 129.134131 216.382331 
L 130.358183 284.643768 
L 131.582234 329.46351 
L 132.806285 338.412199 
L 135.254388 377.901855 
L 136.478439 390.047213 
L 137.702491 398.885302 
L 142.598696 430.118594 
L 143.822747 436.579164 
L 145.046799 441.367658 
L 146.27085 444.865759 
L 147.494901 447.75801 
L 148.718953 450.177072 
L 149.943004 451.827845 
L 151.167055 452.824007 
L 152.391107 453.607627 
L 153.615158 453.98907 
L 154.839209 454.20894 
L 156.063261 454.627545 
L 157.287312 454.733367 
L 160.959466 454.618478 
L 162.183517 454.695098 
L 164.63162 454.521286 
L 167.079722 454.626356 
L 169.527825 454.804048 
L 171.975928 454.632342 
L 173.199979 454.699179 
L 175.648082 454.557314 
L 178.096184 454.686181 
L 179.320236 454.490581 
L 180.544287 454.429388 
L 182.99239 454.824797 
L 186.664544 454.453426 
L 187.888595 454.731499 
L 189.112646 454.750757 
L 190.336698 454.589588 
L 192.7848 454.744359 
L 198.905057 454.479563 
L 202.577211 454.695213 
L 206.249365 454.280049 
L 208.697467 454.705858 
L 212.369621 454.331113 
L 213.593673 454.590957 
L 214.817724 454.681128 
L 216.041775 454.476342 
L 217.265827 454.44747 
L 218.489878 454.572108 
L 227.058237 454.481864 
L 233.178494 454.345892 
L 235.626597 454.582274 
L 240.522802 454.325467 
L 241.746853 454.357491 
L 242.970905 454.56395 
L 244.194956 454.574269 
L 245.419007 454.44425 
L 247.86711 454.585688 
L 251.539264 454.3799 
L 253.987366 454.601839 
L 260.107623 454.446614 
L 261.331674 454.61725 
L 272.348136 454.561457 
L 273.572188 454.68526 
L 274.796239 454.612249 
L 276.02029 454.409849 
L 278.468393 454.470859 
L 279.692444 454.357479 
L 280.916496 454.426845 
L 283.364598 454.729989 
L 285.812701 454.666724 
L 296.829163 454.976687 
L 299.277265 455.225674 
L 300.501317 455.380354 
L 302.949419 455.504928 
L 305.397522 455.961077 
L 307.845625 456.428141 
L 309.069676 456.75322 
L 313.965881 458.668263 
L 316.413984 460.083749 
L 318.862087 462.315366 
L 320.086138 463.602387 
L 321.310189 465.072715 
L 322.534241 466.7741 
L 326.206395 473.524204 
L 328.654497 479.050805 
L 329.878549 481.307282 
L 331.1026 483.239006 
L 332.326651 484.781611 
L 333.550703 485.819064 
L 334.774754 486.431395 
L 335.998805 487.438965 
L 337.222857 487.498377 
L 339.670959 489.063501 
L 342.119062 489.758791 
L 343.343113 490.282253 
L 344.567164 490.435495 
L 345.791216 490.70142 
L 347.015267 491.654348 
L 349.46337 492.197206 
L 351.911472 493.197628 
L 355.583626 493.884588 
L 356.807678 494.603015 
L 358.031729 495.180122 
L 359.25578 496.063071 
L 360.479832 496.546503 
L 361.703883 497.246317 
L 362.927934 497.720042 
L 364.151986 497.970924 
L 365.376037 498.840139 
L 366.600088 498.5446 
L 367.82414 499.636011 
L 369.048191 500.259251 
L 370.272242 500.624347 
L 371.496294 501.450785 
L 372.720345 501.7797 
L 373.944396 502.256328 
L 376.392499 503.917948 
L 377.61655 504.422989 
L 378.840602 505.478908 
L 380.064653 505.555655 
L 381.288704 505.508893 
L 382.512756 506.922678 
L 383.736807 507.736138 
L 384.960858 507.19436 
L 386.184909 507.619206 
L 387.408961 508.763489 
L 388.633012 508.186721 
L 389.857063 508.560337 
L 391.081115 508.280357 
L 392.305166 509.355074 
L 393.529217 509.806211 
L 394.753269 509.390633 
L 395.97732 509.567615 
L 397.201371 510.116731 
L 398.425423 510.029039 
L 399.649474 510.076831 
L 400.873525 509.622548 
L 402.097577 509.505181 
L 403.321628 510.45458 
L 404.545679 510.268591 
L 405.769731 510.199328 
L 406.993782 510.527064 
L 408.217833 510.182142 
L 409.441885 510.571843 
L 414.33809 510.768932 
L 415.562141 511.204624 
L 416.786193 511.14427 
L 418.010244 511.667313 
L 419.234295 511.979593 
L 420.458347 512.121605 
L 421.682398 511.959401 
L 422.906449 511.547113 
L 425.354552 511.222154 
L 426.578603 511.381482 
L 427.802655 511.667652 
L 431.474808 511.983792 
L 433.922911 512.971961 
L 435.146962 513.147245 
L 436.371014 512.733965 
L 437.595065 512.904611 
L 440.043168 513.051146 
L 441.267219 513.235043 
L 443.715322 513.236666 
L 444.939373 512.861169 
L 446.163424 512.998292 
L 447.387476 513.582765 
L 448.611527 513.413097 
L 449.835578 513.425821 
L 452.283681 514.208697 
L 453.507732 514.114534 
L 454.731784 514.469965 
L 455.955835 514.600691 
L 458.403938 514.162781 
L 459.627989 514.613124 
L 460.85204 515.228224 
L 463.300143 514.340954 
L 465.748246 514.959814 
L 466.972297 514.459006 
L 468.196348 514.678063 
L 469.4204 515.14963 
L 470.644451 515.318257 
L 474.316605 515.058615 
L 475.540656 515.299291 
L 476.764707 515.710292 
L 477.988759 515.723212 
L 479.21281 515.403657 
L 480.436861 515.221856 
L 481.660913 515.307831 
L 482.884964 515.521935 
L 484.109015 515.563893 
L 485.333067 516.257983 
L 489.005221 515.625571 
L 490.229272 515.626186 
L 492.677375 516.656292 
L 493.901426 516.704071 
L 498.797631 516.119038 
L 500.021683 515.74219 
L 501.245734 516.282089 
L 503.693837 516.754513 
L 504.917888 517.641829 
L 506.141939 516.857387 
L 507.365991 516.618875 
L 508.590042 516.692262 
L 509.814093 516.922778 
L 511.038145 516.87766 
L 512.262196 517.41511 
L 513.486247 517.59956 
L 514.710299 516.984685 
L 515.93435 516.639286 
L 518.382452 517.165568 
L 519.606504 516.86413 
L 520.830555 517.355137 
L 523.278658 517.130477 
L 524.502709 516.731822 
L 525.72676 517.381315 
L 526.950812 517.399813 
L 528.174863 517.000591 
L 529.398914 516.726069 
L 530.622966 517.057714 
L 531.847017 516.620617 
L 533.071068 517.438277 
L 535.519171 517.581207 
L 536.743222 517.351349 
L 537.967274 516.562883 
L 539.191325 517.759559 
L 540.415376 517.295239 
L 541.639428 517.470288 
L 542.863479 518.268965 
L 544.08753 518.226918 
L 545.311582 517.996898 
L 546.535633 518.518839 
L 548.983736 516.975694 
L 550.207787 517.766636 
L 551.431838 518.310749 
L 552.65589 518.081485 
L 553.879941 518.21867 
L 555.103992 518.054014 
L 556.328044 518.1575 
L 557.552095 517.862804 
L 558.776146 518.61495 
L 560.000197 517.907982 
L 561.224249 518.324281 
L 562.4483 518.601342 
L 563.672351 517.361795 
L 564.896403 517.977641 
L 566.120454 518.900946 
L 567.344505 517.749992 
L 568.568557 518.028488 
L 569.792608 518.429138 
L 571.016659 518.391382 
L 572.240711 517.664027 
L 573.464762 517.355566 
L 574.688813 518.339028 
L 575.912865 518.277321 
L 577.136916 517.96095 
L 578.360967 517.35568 
L 580.80907 518.423064 
L 583.257173 518.034179 
L 584.481224 518.811254 
L 585.705275 518.40257 
L 586.929327 516.974733 
L 588.153378 518.970829 
L 589.377429 518.716689 
L 590.601481 518.338614 
L 591.825532 519.01239 
L 593.049583 518.597667 
L 594.273635 518.637832 
L 596.721737 517.882636 
L 597.945789 519.823893 
L 599.16984 518.284525 
L 600.393891 518.098917 
L 601.617943 519.125074 
L 602.841994 517.925633 
L 604.066045 518.509273 
L 605.290096 518.602876 
L 606.514148 517.908614 
L 607.738199 517.827999 
L 608.96225 518.980748 
L 610.186302 518.923019 
L 611.410353 517.90986 
L 612.634404 518.708655 
L 613.858456 518.306799 
L 615.082507 518.285598 
L 616.306558 518.046898 
L 617.53061 518.065451 
L 618.754661 518.57339 
L 619.978712 518.705737 
L 621.202764 517.508409 
L 622.426815 518.500756 
L 623.650866 518.799378 
L 624.874918 517.108942 
L 626.098969 519.230164 
L 627.32302 519.187931 
L 628.547072 517.474893 
L 629.771123 518.45564 
L 630.995174 518.833165 
L 632.219226 517.653397 
L 633.443277 517.256816 
L 634.667328 519.367851 
L 635.89138 517.61449 
L 637.115431 517.015948 
L 638.339482 518.84853 
L 639.563534 518.0401 
L 640.787585 517.546985 
L 642.011636 519.199578 
L 643.235688 518.31133 
L 645.68379 519.005499 
L 646.907842 517.981074 
L 648.131893 518.804134 
L 649.355944 519.384416 
L 650.579995 517.921455 
L 651.804047 518.045203 
L 653.028098 519.935345 
L 654.252149 518.327149 
L 655.476201 518.27163 
L 656.700252 519.776807 
L 657.924303 518.17821 
L 659.148355 517.694135 
L 660.372406 519.594906 
L 661.596457 518.836051 
L 662.820509 517.94369 
L 664.04456 517.889569 
L 665.268611 519.109754 
L 666.492663 517.814858 
L 667.716714 517.640199 
L 668.940765 519.175727 
L 670.164817 518.551028 
L 671.388868 518.358431 
L 672.612919 518.672221 
L 675.061022 518.804037 
L 676.285073 518.851734 
L 678.733176 517.870377 
L 679.957227 518.375302 
L 681.181279 518.243864 
L 682.40533 517.774467 
L 683.629381 518.494097 
L 684.853433 518.142558 
L 687.301535 518.13942 
L 688.525587 518.495198 
L 689.749638 518.341307 
L 690.973689 518.073051 
L 692.19774 519.16814 
L 693.421792 518.592741 
L 694.645843 517.087802 
L 695.869894 519.575227 
L 697.093946 519.007036 
L 698.317997 517.972303 
L 699.542048 518.967296 
L 700.7661 518.782112 
L 701.990151 519.017664 
L 703.214202 518.764133 
L 704.438254 517.4958 
L 705.662305 518.892524 
L 706.886356 517.666832 
L 708.110408 518.804416 
L 709.334459 517.933744 
L 710.55851 517.692365 
L 711.782562 518.577056 
L 713.006613 517.958062 
L 714.230664 517.939002 
L 715.454716 518.232748 
L 716.678767 519.637002 
L 717.902818 519.090777 
L 719.12687 517.328247 
L 720.350921 519.325584 
L 721.574972 519.19589 
L 722.799024 517.686255 
L 724.023075 520.439613 
L 725.247126 519.634484 
L 726.471178 518.664322 
L 727.695229 519.00087 
L 728.91928 518.531092 
L 730.143332 519.026401 
L 731.367383 518.457894 
L 733.815486 518.421461 
L 735.039537 518.542157 
L 736.263588 518.27265 
L 737.487639 518.435952 
L 738.711691 519.621796 
L 739.935742 518.962933 
L 741.159793 518.66039 
L 742.383845 519.409643 
L 743.607896 518.633001 
L 744.831947 518.176425 
L 746.055999 519.515008 
L 747.28005 520.351573 
L 748.504101 517.528777 
L 749.728153 519.502701 
L 750.952204 519.325929 
L 752.176255 518.159592 
L 753.400307 519.67643 
L 754.624358 518.250258 
L 755.848409 518.254075 
L 757.072461 517.954225 
L 758.296512 519.722406 
L 759.520563 518.967915 
L 760.744615 518.614069 
L 761.968666 518.39956 
L 763.192717 518.314823 
L 764.416769 519.313158 
L 765.64082 518.016192 
L 766.864871 518.540403 
L 768.088923 518.171749 
L 769.312974 516.609538 
L 770.537025 518.541593 
L 771.761077 517.108155 
L 772.985128 516.802397 
L 774.209179 517.884049 
L 775.433231 518.035699 
L 776.657282 517.21605 
L 777.881333 517.623383 
L 779.105385 517.528953 
L 780.329436 517.27656 
L 781.553487 518.864523 
L 782.777538 518.141125 
L 784.00159 516.884535 
L 785.225641 518.768155 
L 786.449692 518.028268 
L 787.673744 517.084291 
L 788.897795 516.472144 
L 790.121846 516.759133 
L 791.345898 515.649285 
L 792.569949 515.93281 
L 793.794 517.115074 
L 795.018052 517.57017 
L 796.242103 517.080762 
L 798.690206 517.501028 
L 799.914257 516.964407 
L 801.138308 518.553116 
L 802.36236 516.910186 
L 803.586411 515.775083 
L 804.810462 517.044527 
L 806.034514 515.411641 
L 807.258565 517.252269 
L 808.482616 517.169457 
L 809.706668 516.397824 
L 810.930719 517.878459 
L 812.15477 518.061331 
L 813.378822 516.349696 
L 814.602873 517.800516 
L 815.826924 517.147995 
L 817.050976 516.705256 
L 818.275027 517.602776 
L 819.499078 516.375572 
L 820.72313 517.038668 
L 821.947181 517.233201 
L 823.171232 516.629538 
L 824.395283 516.980879 
L 825.619335 515.92567 
L 826.843386 517.187652 
L 828.067437 516.376329 
L 829.291489 516.536108 
L 830.51554 517.39689 
L 831.739591 516.232768 
L 832.963643 516.319111 
L 834.187694 516.269571 
L 835.411745 517.266923 
L 836.635797 517.563276 
L 837.859848 516.507074 
L 839.083899 516.659316 
L 840.307951 516.682624 
L 841.532002 516.517894 
L 842.756053 515.305566 
L 843.980105 517.276507 
L 845.204156 515.257579 
L 846.428207 516.250664 
L 847.652259 515.718853 
L 848.87631 516.528403 
L 850.100361 517.570634 
L 851.324413 516.613919 
L 852.548464 518.150925 
L 853.772515 516.902447 
L 854.996567 518.281508 
L 856.220618 516.830234 
L 857.444669 516.02073 
L 858.668721 516.560993 
L 859.892772 514.952929 
L 861.116823 517.041313 
L 862.340875 515.910375 
L 863.564926 516.920867 
L 864.788977 516.251464 
L 866.013029 516.748977 
L 867.23708 516.507944 
L 868.461131 517.061967 
L 869.685182 515.202684 
L 870.909234 516.544031 
L 872.133285 515.953443 
L 873.357336 516.637605 
L 874.581388 515.268926 
L 875.805439 516.822969 
L 877.02949 514.949496 
L 878.253542 516.471891 
L 879.477593 515.737121 
L 880.701644 516.805537 
L 881.925696 516.534706 
L 883.149747 516.015895 
L 884.373798 516.569692 
L 885.59785 515.865966 
L 886.821901 515.615326 
L 888.045952 516.655238 
L 889.270004 515.09894 
L 890.494055 515.973106 
L 891.718106 515.7792 
L 892.942158 514.431308 
L 894.166209 516.403027 
L 895.39026 515.79717 
L 897.838363 516.504149 
L 899.062414 516.037892 
L 900.286466 516.126395 
L 901.510517 516.846222 
L 902.734568 515.001195 
L 903.95862 516.246527 
L 905.182671 516.838511 
L 906.406722 516.311346 
L 907.630774 517.726081 
L 908.854825 517.111772 
L 910.078876 516.96192 
L 911.302928 516.551728 
L 912.526979 516.47499 
L 913.75103 516.154061 
L 914.975081 516.524137 
L 916.199133 514.296671 
L 917.423184 515.200913 
L 919.871287 514.340412 
L 921.095338 515.780344 
L 922.319389 515.93314 
L 923.543441 515.05416 
L 924.767492 515.969687 
L 925.991543 514.503081 
L 927.215595 513.35621 
L 928.439646 515.206183 
L 929.663697 514.489477 
L 930.887749 515.005078 
L 933.335851 514.326203 
L 934.559903 512.668699 
L 935.783954 515.553937 
L 937.008005 513.772047 
L 938.232057 514.504208 
L 939.456108 515.475367 
L 940.680159 514.733532 
L 943.128262 516.292731 
L 944.352313 516.141639 
L 945.576365 514.582527 
L 946.800416 516.615104 
L 948.024467 514.630594 
L 949.248519 515.179973 
L 950.47257 516.658819 
L 951.696621 514.308557 
L 952.920673 517.593349 
L 954.144724 516.172957 
L 955.368775 516.831778 
L 956.592826 517.082946 
L 957.816878 515.277422 
L 959.040929 517.052317 
L 960.26498 515.504652 
L 961.489032 514.906273 
L 962.713083 515.098914 
L 963.937134 514.415828 
L 965.161186 516.037727 
L 966.385237 514.735238 
L 967.609288 517.602101 
L 968.83334 515.422445 
L 970.057391 516.839628 
L 971.281442 517.427791 
L 972.505494 515.365172 
L 973.729545 515.757149 
L 974.953596 515.422808 
L 976.177648 513.555626 
L 977.401699 516.785516 
L 978.62575 513.501576 
L 979.849802 516.079645 
L 981.073853 516.216586 
L 982.297904 514.981469 
L 983.521956 517.25393 
L 984.746007 515.649796 
L 985.970058 516.343687 
L 987.19411 517.407741 
L 988.418161 515.865098 
L 989.642212 516.807961 
L 990.866264 515.090176 
L 992.090315 516.278925 
L 993.314366 516.194253 
L 994.538418 516.886794 
L 995.762469 516.364334 
L 996.98652 515.292177 
L 998.210572 514.562909 
L 999.434623 515.927006 
L 1000.658674 515.488806 
L 1001.882725 516.289957 
L 1003.106777 516.103813 
L 1004.330828 514.406264 
L 1005.554879 514.103949 
L 1006.778931 513.396843 
L 1008.002982 515.176561 
L 1009.227033 515.297182 
L 1010.451085 512.66256 
L 1011.675136 515.213432 
L 1014.123239 514.622603 
L 1015.34729 515.068706 
L 1016.571341 514.321106 
L 1017.795393 515.75227 
L 1019.019444 514.089064 
L 1020.243495 516.021233 
L 1021.467547 514.511728 
L 1022.691598 515.413881 
L 1023.915649 515.771919 
L 1025.139701 514.8306 
L 1026.363752 515.832224 
L 1027.587803 515.475748 
L 1028.811855 516.025209 
L 1030.035906 515.85529 
L 1031.259957 515.270707 
L 1032.484009 514.217459 
L 1033.70806 516.040487 
L 1034.932111 515.202719 
L 1036.156163 515.612815 
L 1037.380214 514.027425 
L 1038.604265 515.910453 
L 1039.828317 515.964116 
L 1041.052368 514.531297 
L 1042.276419 515.051062 
L 1043.50047 515.358488 
L 1044.724522 516.082389 
L 1045.948573 515.913863 
L 1047.172624 517.417263 
L 1048.396676 515.694662 
L 1049.620727 515.60483 
L 1050.844778 516.409935 
L 1052.06883 515.470011 
L 1054.516932 516.966843 
L 1055.740984 515.882878 
L 1058.189086 516.389151 
L 1060.637189 514.118836 
L 1061.86124 515.070881 
L 1063.085292 514.728009 
L 1064.309343 516.842698 
L 1065.533394 515.48852 
L 1066.757446 515.777813 
L 1067.981497 518.058415 
L 1069.205548 516.062392 
L 1070.4296 517.017258 
L 1071.653651 515.106737 
L 1072.877702 517.007732 
L 1076.549856 516.609407 
L 1077.773908 516.040027 
L 1078.997959 516.981804 
L 1080.22201 515.540892 
L 1081.446062 515.247848 
L 1082.670113 516.024349 
L 1083.894164 513.635094 
L 1085.118216 515.44819 
L 1086.342267 516.580813 
L 1087.566318 516.089554 
L 1088.790369 515.440387 
L 1090.014421 515.374027 
L 1092.462523 517.191751 
L 1093.686575 517.020331 
L 1094.910626 516.24604 
L 1096.134677 515.732744 
L 1097.358729 515.859296 
L 1098.58278 514.370855 
L 1099.806831 514.735471 
L 1101.030883 515.538035 
L 1102.254934 515.416935 
L 1104.703037 516.897857 
L 1105.927088 516.567576 
L 1107.151139 515.461333 
L 1108.375191 517.305865 
L 1109.599242 516.951821 
L 1110.823293 516.854159 
L 1112.047345 514.969338 
L 1113.271396 515.05088 
L 1114.495447 514.96612 
L 1115.719499 515.556344 
L 1116.94355 517.625258 
L 1118.167601 515.286826 
L 1119.391653 517.307378 
L 1120.615704 516.460603 
L 1121.839755 516.183505 
L 1123.063807 517.167866 
L 1124.287858 516.392509 
L 1125.511909 515.852046 
L 1126.735961 515.7342 
L 1127.960012 516.751235 
L 1129.184063 515.808103 
L 1130.408115 514.148398 
L 1131.632166 515.790062 
L 1132.856217 515.543402 
L 1134.080268 516.363647 
L 1135.30432 515.718663 
L 1136.528371 515.673254 
L 1137.752422 516.074279 
L 1138.976474 516.763466 
L 1140.200525 515.552457 
L 1141.424576 515.516362 
L 1142.648628 516.163965 
L 1143.872679 515.920274 
L 1145.09673 515.329142 
L 1146.320782 517.089121 
L 1147.544833 516.153149 
L 1148.768884 516.603188 
L 1149.992936 517.825639 
L 1151.216987 514.951635 
L 1152.441038 517.418068 
L 1153.66509 514.690837 
L 1154.889141 516.52687 
L 1156.113192 518.075159 
L 1158.561295 516.264512 
L 1159.785346 516.658418 
L 1161.009398 515.204965 
L 1162.233449 516.263164 
L 1163.4575 517.139869 
L 1164.681552 516.537858 
L 1165.905603 517.660057 
L 1167.129654 516.683208 
L 1168.353706 516.052564 
L 1169.577757 515.893165 
L 1170.801808 516.735204 
L 1172.02586 516.631262 
L 1173.249911 514.392222 
L 1174.473962 516.534654 
L 1175.698013 513.981068 
L 1176.922065 516.422028 
L 1178.146116 516.039941 
L 1179.370167 514.630938 
L 1180.594219 514.992194 
L 1181.81827 517.820288 
L 1183.042321 517.140813 
L 1184.266373 515.693683 
L 1185.490424 517.679594 
L 1186.714475 516.558442 
L 1187.938527 517.04995 
L 1189.162578 516.164817 
L 1190.386629 517.421892 
L 1191.610681 516.804734 
L 1192.834732 515.854882 
L 1194.058783 518.285194 
L 1195.282835 515.286826 
L 1196.506886 518.097089 
L 1197.730937 516.06603 
L 1198.954989 515.819209 
L 1200.17904 517.247469 
L 1201.403091 516.555403 
L 1202.627143 517.770661 
L 1203.851194 516.349766 
L 1205.075245 516.993493 
L 1206.299297 514.598995 
L 1207.523348 517.181316 
L 1208.747399 515.992928 
L 1209.971451 516.362282 
L 1212.419553 515.51225 
L 1213.643605 517.210019 
L 1214.867656 516.429198 
L 1216.091707 516.241182 
L 1217.315759 517.657919 
L 1219.763861 517.152452 
L 1220.987912 515.474485 
L 1222.211964 515.879825 
L 1223.436015 515.653348 
L 1224.660066 515.832891 
L 1225.884118 515.764915 
L 1227.108169 516.848045 
L 1228.33222 515.336871 
L 1230.780323 515.010376 
L 1232.004374 513.22645 
L 1233.228426 516.059952 
L 1234.452477 516.826318 
L 1235.676528 514.68827 
L 1236.90058 515.333136 
L 1238.124631 516.346939 
L 1239.348682 514.637448 
L 1240.572734 516.945686 
L 1241.796785 515.673973 
L 1243.020836 517.396724 
L 1244.244888 515.374537 
L 1246.69299 514.131173 
L 1247.917042 514.457732 
L 1249.141093 517.759954 
L 1250.365144 516.407603 
L 1251.589196 517.768539 
L 1252.813247 514.684394 
L 1254.037298 516.409656 
L 1255.26135 515.551522 
L 1256.485401 516.084013 
L 1257.709452 515.356801 
L 1258.933504 514.399178 
L 1260.157555 516.259565 
L 1261.381606 516.328824 
L 1262.605658 517.458155 
L 1263.829709 514.946036 
L 1265.05376 515.370187 
L 1266.277811 516.250082 
L 1267.501863 515.313399 
L 1268.725914 516.183001 
L 1269.949965 514.830488 
L 1271.174017 513.965447 
L 1272.398068 516.524937 
L 1273.622119 514.691793 
L 1274.846171 514.521684 
L 1276.070222 515.35425 
L 1277.294273 515.036967 
L 1278.518325 513.164646 
L 1279.742376 515.836889 
L 1280.966427 513.974986 
L 1282.190479 514.132066 
L 1283.41453 515.474788 
L 1284.638581 514.498632 
L 1285.862633 515.159433 
L 1287.086684 515.255781 
L 1288.310735 515.198443 
L 1289.534787 516.607012 
L 1290.758838 516.978225 
L 1291.982889 515.593816 
L 1293.206941 515.886738 
L 1294.430992 514.935616 
L 1295.655043 514.768266 
L 1296.879095 515.462682 
L 1298.103146 515.652854 
L 1299.327197 516.98293 
L 1300.551249 516.513637 
L 1301.7753 516.274561 
L 1302.999351 515.909517 
L 1304.223403 515.932238 
L 1305.447454 514.831833 
L 1306.671505 514.740365 
L 1307.895556 515.675212 
L 1309.119608 515.20881 
L 1310.343659 515.611126 
L 1311.56771 515.506971 
L 1312.791762 516.274569 
L 1314.015813 514.224211 
L 1315.239864 515.327793 
L 1316.463916 514.908006 
L 1317.687967 515.035706 
L 1318.912018 514.518914 
L 1320.13607 514.375472 
L 1321.360121 512.757355 
L 1322.584172 515.168873 
L 1325.032275 515.152912 
L 1326.256326 516.462997 
L 1327.480378 515.292133 
L 1328.704429 516.286428 
L 1329.92848 514.612564 
L 1331.152532 514.512813 
L 1332.376583 516.017648 
L 1333.600634 516.496697 
L 1334.824686 515.229572 
L 1336.048737 515.128981 
L 1337.272788 516.148163 
L 1338.49684 514.819273 
L 1339.720891 514.739322 
L 1340.944942 515.980084 
L 1342.168994 516.26572 
L 1343.393045 514.522235 
L 1344.617096 516.056124 
L 1347.065199 514.467909 
L 1347.065199 514.467909 
" clip-path="url(#p7623a3f0aa)" style="fill: none; stroke: #008000; stroke-width: 2.25; stroke-linecap: round"/>
   </g>
   <g id="patch_3">
    <path d="M 63.096563 640.73 
L 63.096563 49.16 
" style="fill: none; stroke: #262626; stroke-width: 1.875; stroke-linejoin: miter; stroke-linecap: square"/>
   </g>
   <g id="patch_4">
    <path d="M 1408.206563 640.73 
L 1408.206563 49.16 
" style="fill: none; stroke: #262626; stroke-width: 1.875; stroke-linejoin: miter; stroke-linecap: square"/>
   </g>
   <g id="patch_5">
    <path d="M 63.096563 640.73 
L 1408.206563 640.73 
" style="fill: none; stroke: #262626; stroke-width: 1.875; stroke-linejoin: miter; stroke-linecap: square"/>
   </g>
   <g id="patch_6">
    <path d="M 63.096563 49.16 
L 1408.206563 49.16 
" style="fill: none; stroke: #262626; stroke-width: 1.875; stroke-linejoin: miter; stroke-linecap: square"/>
   </g>
   <g id="text_14">
    <!-- Training and Test Performance for Ondo state. -->
    <g style="fill: #262626" transform="translate(530.5625 21.771875) scale(0.2 -0.2)">
     <defs>
      <path id="ArialMT-54" d="M 1659 0 
L 1659 4041 
L 150 4041 
L 150 4581 
L 3781 4581 
L 3781 4041 
L 2266 4041 
L 2266 0 
L 1659 0 
z
" transform="scale(0.015625)"/>
      <path id="ArialMT-72" d="M 416 0 
L 416 3319 
L 922 3319 
L 922 2816 
Q 1116 3169 1280 3281 
Q 1444 3394 1641 3394 
Q 1925 3394 2219 3213 
L 2025 2691 
Q 1819 2813 1613 2813 
Q 1428 2813 1281 2702 
Q 1134 2591 1072 2394 
Q 978 2094 978 1738 
L 978 0 
L 416 0 
z
" transform="scale(0.015625)"/>
      <path id="ArialMT-61" d="M 2588 409 
Q 2275 144 1986 34 
Q 1697 -75 1366 -75 
Q 819 -75 525 192 
Q 231 459 231 875 
Q 231 1119 342 1320 
Q 453 1522 633 1644 
Q 813 1766 1038 1828 
Q 1203 1872 1538 1913 
Q 2219 1994 2541 2106 
Q 2544 2222 2544 2253 
Q 2544 2597 2384 2738 
Q 2169 2928 1744 2928 
Q 1347 2928 1158 2789 
Q 969 2650 878 2297 
L 328 2372 
Q 403 2725 575 2942 
Q 747 3159 1072 3276 
Q 1397 3394 1825 3394 
Q 2250 3394 2515 3294 
Q 2781 3194 2906 3042 
Q 3031 2891 3081 2659 
Q 3109 2516 3109 2141 
L 3109 1391 
Q 3109 606 3145 398 
Q 3181 191 3288 0 
L 2700 0 
Q 2613 175 2588 409 
z
M 2541 1666 
Q 2234 1541 1622 1453 
Q 1275 1403 1131 1340 
Q 988 1278 909 1158 
Q 831 1038 831 891 
Q 831 666 1001 516 
Q 1172 366 1500 366 
Q 1825 366 2078 508 
Q 2331 650 2450 897 
Q 2541 1088 2541 1459 
L 2541 1666 
z
" transform="scale(0.015625)"/>
      <path id="ArialMT-69" d="M 425 3934 
L 425 4581 
L 988 4581 
L 988 3934 
L 425 3934 
z
M 425 0 
L 425 3319 
L 988 3319 
L 988 0 
L 425 0 
z
" transform="scale(0.015625)"/>
      <path id="ArialMT-6e" d="M 422 0 
L 422 3319 
L 928 3319 
L 928 2847 
Q 1294 3394 1984 3394 
Q 2284 3394 2536 3286 
Q 2788 3178 2913 3003 
Q 3038 2828 3088 2588 
Q 3119 2431 3119 2041 
L 3119 0 
L 2556 0 
L 2556 2019 
Q 2556 2363 2490 2533 
Q 2425 2703 2258 2804 
Q 2091 2906 1866 2906 
Q 1506 2906 1245 2678 
Q 984 2450 984 1813 
L 984 0 
L 422 0 
z
" transform="scale(0.015625)"/>
      <path id="ArialMT-67" d="M 319 -275 
L 866 -356 
Q 900 -609 1056 -725 
Q 1266 -881 1628 -881 
Q 2019 -881 2231 -725 
Q 2444 -569 2519 -288 
Q 2563 -116 2559 434 
Q 2191 0 1641 0 
Q 956 0 581 494 
Q 206 988 206 1678 
Q 206 2153 378 2554 
Q 550 2956 876 3175 
Q 1203 3394 1644 3394 
Q 2231 3394 2613 2919 
L 2613 3319 
L 3131 3319 
L 3131 450 
Q 3131 -325 2973 -648 
Q 2816 -972 2473 -1159 
Q 2131 -1347 1631 -1347 
Q 1038 -1347 672 -1080 
Q 306 -813 319 -275 
z
M 784 1719 
Q 784 1066 1043 766 
Q 1303 466 1694 466 
Q 2081 466 2343 764 
Q 2606 1063 2606 1700 
Q 2606 2309 2336 2618 
Q 2066 2928 1684 2928 
Q 1309 2928 1046 2623 
Q 784 2319 784 1719 
z
" transform="scale(0.015625)"/>
      <path id="ArialMT-20" transform="scale(0.015625)"/>
      <path id="ArialMT-64" d="M 2575 0 
L 2575 419 
Q 2259 -75 1647 -75 
Q 1250 -75 917 144 
Q 584 363 401 755 
Q 219 1147 219 1656 
Q 219 2153 384 2558 
Q 550 2963 881 3178 
Q 1213 3394 1622 3394 
Q 1922 3394 2156 3267 
Q 2391 3141 2538 2938 
L 2538 4581 
L 3097 4581 
L 3097 0 
L 2575 0 
z
M 797 1656 
Q 797 1019 1065 703 
Q 1334 388 1700 388 
Q 2069 388 2326 689 
Q 2584 991 2584 1609 
Q 2584 2291 2321 2609 
Q 2059 2928 1675 2928 
Q 1300 2928 1048 2622 
Q 797 2316 797 1656 
z
" transform="scale(0.015625)"/>
      <path id="ArialMT-65" d="M 2694 1069 
L 3275 997 
Q 3138 488 2766 206 
Q 2394 -75 1816 -75 
Q 1088 -75 661 373 
Q 234 822 234 1631 
Q 234 2469 665 2931 
Q 1097 3394 1784 3394 
Q 2450 3394 2872 2941 
Q 3294 2488 3294 1666 
Q 3294 1616 3291 1516 
L 816 1516 
Q 847 969 1125 678 
Q 1403 388 1819 388 
Q 2128 388 2347 550 
Q 2566 713 2694 1069 
z
M 847 1978 
L 2700 1978 
Q 2663 2397 2488 2606 
Q 2219 2931 1791 2931 
Q 1403 2931 1139 2672 
Q 875 2413 847 1978 
z
" transform="scale(0.015625)"/>
      <path id="ArialMT-74" d="M 1650 503 
L 1731 6 
Q 1494 -44 1306 -44 
Q 1000 -44 831 53 
Q 663 150 594 308 
Q 525 466 525 972 
L 525 2881 
L 113 2881 
L 113 3319 
L 525 3319 
L 525 4141 
L 1084 4478 
L 1084 3319 
L 1650 3319 
L 1650 2881 
L 1084 2881 
L 1084 941 
Q 1084 700 1114 631 
Q 1144 563 1211 522 
Q 1278 481 1403 481 
Q 1497 481 1650 503 
z
" transform="scale(0.015625)"/>
      <path id="ArialMT-50" d="M 494 0 
L 494 4581 
L 2222 4581 
Q 2678 4581 2919 4538 
Q 3256 4481 3484 4323 
Q 3713 4166 3852 3881 
Q 3991 3597 3991 3256 
Q 3991 2672 3619 2267 
Q 3247 1863 2275 1863 
L 1100 1863 
L 1100 0 
L 494 0 
z
M 1100 2403 
L 2284 2403 
Q 2872 2403 3119 2622 
Q 3366 2841 3366 3238 
Q 3366 3525 3220 3729 
Q 3075 3934 2838 4000 
Q 2684 4041 2272 4041 
L 1100 4041 
L 1100 2403 
z
" transform="scale(0.015625)"/>
      <path id="ArialMT-66" d="M 556 0 
L 556 2881 
L 59 2881 
L 59 3319 
L 556 3319 
L 556 3672 
Q 556 4006 616 4169 
Q 697 4388 901 4523 
Q 1106 4659 1475 4659 
Q 1713 4659 2000 4603 
L 1916 4113 
Q 1741 4144 1584 4144 
Q 1328 4144 1222 4034 
Q 1116 3925 1116 3625 
L 1116 3319 
L 1763 3319 
L 1763 2881 
L 1116 2881 
L 1116 0 
L 556 0 
z
" transform="scale(0.015625)"/>
      <path id="ArialMT-6d" d="M 422 0 
L 422 3319 
L 925 3319 
L 925 2853 
Q 1081 3097 1340 3245 
Q 1600 3394 1931 3394 
Q 2300 3394 2536 3241 
Q 2772 3088 2869 2813 
Q 3263 3394 3894 3394 
Q 4388 3394 4653 3120 
Q 4919 2847 4919 2278 
L 4919 0 
L 4359 0 
L 4359 2091 
Q 4359 2428 4304 2576 
Q 4250 2725 4106 2815 
Q 3963 2906 3769 2906 
Q 3419 2906 3187 2673 
Q 2956 2441 2956 1928 
L 2956 0 
L 2394 0 
L 2394 2156 
Q 2394 2531 2256 2718 
Q 2119 2906 1806 2906 
Q 1569 2906 1367 2781 
Q 1166 2656 1075 2415 
Q 984 2175 984 1722 
L 984 0 
L 422 0 
z
" transform="scale(0.015625)"/>
      <path id="ArialMT-4f" d="M 309 2231 
Q 309 3372 921 4017 
Q 1534 4663 2503 4663 
Q 3138 4663 3647 4359 
Q 4156 4056 4423 3514 
Q 4691 2972 4691 2284 
Q 4691 1588 4409 1038 
Q 4128 488 3612 205 
Q 3097 -78 2500 -78 
Q 1853 -78 1343 234 
Q 834 547 571 1087 
Q 309 1628 309 2231 
z
M 934 2222 
Q 934 1394 1379 917 
Q 1825 441 2497 441 
Q 3181 441 3623 922 
Q 4066 1403 4066 2288 
Q 4066 2847 3877 3264 
Q 3688 3681 3323 3911 
Q 2959 4141 2506 4141 
Q 1863 4141 1398 3698 
Q 934 3256 934 2222 
z
" transform="scale(0.015625)"/>
     </defs>
     <use xlink:href="#ArialMT-54"/>
     <use xlink:href="#ArialMT-72" transform="translate(57.333984 0)"/>
     <use xlink:href="#ArialMT-61" transform="translate(90.634766 0)"/>
     <use xlink:href="#ArialMT-69" transform="translate(146.25 0)"/>
     <use xlink:href="#ArialMT-6e" transform="translate(168.466797 0)"/>
     <use xlink:href="#ArialMT-69" transform="translate(224.082031 0)"/>
     <use xlink:href="#ArialMT-6e" transform="translate(246.298828 0)"/>
     <use xlink:href="#ArialMT-67" transform="translate(301.914062 0)"/>
     <use xlink:href="#ArialMT-20" transform="translate(357.529297 0)"/>
     <use xlink:href="#ArialMT-61" transform="translate(385.3125 0)"/>
     <use xlink:href="#ArialMT-6e" transform="translate(440.927734 0)"/>
     <use xlink:href="#ArialMT-64" transform="translate(496.542969 0)"/>
     <use xlink:href="#ArialMT-20" transform="translate(552.158203 0)"/>
     <use xlink:href="#ArialMT-54" transform="translate(578.191406 0)"/>
     <use xlink:href="#ArialMT-65" transform="translate(628.150391 0)"/>
     <use xlink:href="#ArialMT-73" transform="translate(683.765625 0)"/>
     <use xlink:href="#ArialMT-74" transform="translate(733.765625 0)"/>
     <use xlink:href="#ArialMT-20" transform="translate(761.548828 0)"/>
     <use xlink:href="#ArialMT-50" transform="translate(789.332031 0)"/>
     <use xlink:href="#ArialMT-65" transform="translate(856.03125 0)"/>
     <use xlink:href="#ArialMT-72" transform="translate(911.646484 0)"/>
     <use xlink:href="#ArialMT-66" transform="translate(944.947266 0)"/>
     <use xlink:href="#ArialMT-6f" transform="translate(972.730469 0)"/>
     <use xlink:href="#ArialMT-72" transform="translate(1028.345703 0)"/>
     <use xlink:href="#ArialMT-6d" transform="translate(1061.646484 0)"/>
     <use xlink:href="#ArialMT-61" transform="translate(1144.947266 0)"/>
     <use xlink:href="#ArialMT-6e" transform="translate(1200.5625 0)"/>
     <use xlink:href="#ArialMT-63" transform="translate(1256.177734 0)"/>
     <use xlink:href="#ArialMT-65" transform="translate(1306.177734 0)"/>
     <use xlink:href="#ArialMT-20" transform="translate(1361.792969 0)"/>
     <use xlink:href="#ArialMT-66" transform="translate(1389.576172 0)"/>
     <use xlink:href="#ArialMT-6f" transform="translate(1417.359375 0)"/>
     <use xlink:href="#ArialMT-72" transform="translate(1472.974609 0)"/>
     <use xlink:href="#ArialMT-20" transform="translate(1506.275391 0)"/>
     <use xlink:href="#ArialMT-4f" transform="translate(1534.058594 0)"/>
     <use xlink:href="#ArialMT-6e" transform="translate(1611.841797 0)"/>
     <use xlink:href="#ArialMT-64" transform="translate(1667.457031 0)"/>
     <use xlink:href="#ArialMT-6f" transform="translate(1723.072266 0)"/>
     <use xlink:href="#ArialMT-20" transform="translate(1778.6875 0)"/>
     <use xlink:href="#ArialMT-73" transform="translate(1806.470703 0)"/>
     <use xlink:href="#ArialMT-74" transform="translate(1856.470703 0)"/>
     <use xlink:href="#ArialMT-61" transform="translate(1884.253906 0)"/>
     <use xlink:href="#ArialMT-74" transform="translate(1939.869141 0)"/>
     <use xlink:href="#ArialMT-65" transform="translate(1967.652344 0)"/>
     <use xlink:href="#ArialMT-2e" transform="translate(2023.267578 0)"/>
    </g>
    <!--  Test RMSE 0.14 -->
    <g style="fill: #262626" transform="translate(660.804688 43.16) scale(0.2 -0.2)">
     <defs>
      <path id="ArialMT-52" d="M 503 0 
L 503 4581 
L 2534 4581 
Q 3147 4581 3465 4457 
Q 3784 4334 3975 4021 
Q 4166 3709 4166 3331 
Q 4166 2844 3850 2509 
Q 3534 2175 2875 2084 
Q 3116 1969 3241 1856 
Q 3506 1613 3744 1247 
L 4541 0 
L 3778 0 
L 3172 953 
Q 2906 1366 2734 1584 
Q 2563 1803 2427 1890 
Q 2291 1978 2150 2013 
Q 2047 2034 1813 2034 
L 1109 2034 
L 1109 0 
L 503 0 
z
M 1109 2559 
L 2413 2559 
Q 2828 2559 3062 2645 
Q 3297 2731 3419 2920 
Q 3541 3109 3541 3331 
Q 3541 3656 3305 3865 
Q 3069 4075 2559 4075 
L 1109 4075 
L 1109 2559 
z
" transform="scale(0.015625)"/>
     </defs>
     <use xlink:href="#ArialMT-20"/>
     <use xlink:href="#ArialMT-54" transform="translate(26.033203 0)"/>
     <use xlink:href="#ArialMT-65" transform="translate(75.992188 0)"/>
     <use xlink:href="#ArialMT-73" transform="translate(131.607422 0)"/>
     <use xlink:href="#ArialMT-74" transform="translate(181.607422 0)"/>
     <use xlink:href="#ArialMT-20" transform="translate(209.390625 0)"/>
     <use xlink:href="#ArialMT-52" transform="translate(237.173828 0)"/>
     <use xlink:href="#ArialMT-4d" transform="translate(309.390625 0)"/>
     <use xlink:href="#ArialMT-53" transform="translate(392.691406 0)"/>
     <use xlink:href="#ArialMT-45" transform="translate(459.390625 0)"/>
     <use xlink:href="#ArialMT-20" transform="translate(526.089844 0)"/>
     <use xlink:href="#ArialMT-30" transform="translate(553.873047 0)"/>
     <use xlink:href="#ArialMT-2e" transform="translate(609.488281 0)"/>
     <use xlink:href="#ArialMT-31" transform="translate(637.271484 0)"/>
     <use xlink:href="#ArialMT-34" transform="translate(692.886719 0)"/>
    </g>
   </g>
   <g id="legend_1">
    <g id="patch_7">
     <path d="M 1306.88625 109.039531 
L 1396.656563 109.039531 
Q 1399.956563 109.039531 1399.956563 105.739531 
L 1399.956563 60.71 
Q 1399.956563 57.41 1396.656563 57.41 
L 1306.88625 57.41 
Q 1303.58625 57.41 1303.58625 60.71 
L 1303.58625 105.739531 
Q 1303.58625 109.039531 1306.88625 109.039531 
z
" style="fill: #ffffff; opacity: 0.8; stroke: #cccccc; stroke-width: 1.5; stroke-linejoin: miter"/>
    </g>
    <g id="line2d_3">
     <path d="M 1310.18625 70.045391 
L 1326.68625 70.045391 
L 1343.18625 70.045391 
" style="fill: none; stroke: #ff0000; stroke-width: 2.25; stroke-linecap: round"/>
    </g>
    <g id="text_15">
     <!-- Train -->
     <g style="fill: #262626" transform="translate(1356.38625 75.820391) scale(0.165 -0.165)">
      <use xlink:href="#ArialMT-54"/>
      <use xlink:href="#ArialMT-72" transform="translate(57.333984 0)"/>
      <use xlink:href="#ArialMT-61" transform="translate(90.634766 0)"/>
      <use xlink:href="#ArialMT-69" transform="translate(146.25 0)"/>
      <use xlink:href="#ArialMT-6e" transform="translate(168.466797 0)"/>
     </g>
    </g>
    <g id="line2d_4">
     <path d="M 1310.18625 93.385156 
L 1326.68625 93.385156 
L 1343.18625 93.385156 
" style="fill: none; stroke: #008000; stroke-width: 2.25; stroke-linecap: round"/>
    </g>
    <g id="text_16">
     <!-- Val -->
     <g style="fill: #262626" transform="translate(1356.38625 99.160156) scale(0.165 -0.165)">
      <defs>
       <path id="ArialMT-56" d="M 1803 0 
L 28 4581 
L 684 4581 
L 1875 1253 
Q 2019 853 2116 503 
Q 2222 878 2363 1253 
L 3600 4581 
L 4219 4581 
L 2425 0 
L 1803 0 
z
" transform="scale(0.015625)"/>
       <path id="ArialMT-6c" d="M 409 0 
L 409 4581 
L 972 4581 
L 972 0 
L 409 0 
z
" transform="scale(0.015625)"/>
      </defs>
      <use xlink:href="#ArialMT-56"/>
      <use xlink:href="#ArialMT-61" transform="translate(59.324219 0)"/>
      <use xlink:href="#ArialMT-6c" transform="translate(114.939453 0)"/>
     </g>
    </g>
   </g>
  </g>
 </g>
 <defs>
  <clipPath id="p7623a3f0aa">
   <rect x="63.096563" y="49.16" width="1345.11" height="591.57"/>
  </clipPath>
 </defs>
</svg>
