<?xml version="1.0" encoding="utf-8" standalone="no"?>
<!DOCTYPE svg PUBLIC "-//W3C//DTD SVG 1.1//EN"
  "http://www.w3.org/Graphics/SVG/1.1/DTD/svg11.dtd">
<svg xmlns:xlink="http://www.w3.org/1999/xlink" width="1055.404033pt" height="348.351328pt" viewBox="0 0 1055.404033 348.351328" xmlns="http://www.w3.org/2000/svg" version="1.1">
 <metadata>
  <rdf:RDF xmlns:dc="http://purl.org/dc/elements/1.1/" xmlns:cc="http://creativecommons.org/ns#" xmlns:rdf="http://www.w3.org/1999/02/22-rdf-syntax-ns#">
   <cc:Work>
    <dc:type rdf:resource="http://purl.org/dc/dcmitype/StillImage"/>
    <dc:date>2024-12-19T18:31:49.243736</dc:date>
    <dc:format>image/svg+xml</dc:format>
    <dc:creator>
     <cc:Agent>
      <dc:title>Matplotlib v3.9.2, https://matplotlib.org/</dc:title>
     </cc:Agent>
    </dc:creator>
   </cc:Work>
  </rdf:RDF>
 </metadata>
 <defs>
  <style type="text/css">*{stroke-linejoin: round; stroke-linecap: butt}</style>
 </defs>
 <g id="figure_1">
  <g id="patch_1">
   <path d="M 0 348.351328 
L 1055.404033 348.351328 
L 1055.404033 0 
L 0 0 
z
" style="fill: #ffffff"/>
  </g>
  <g id="axes_1">
   <g id="patch_2">
    <path d="M 58.512656 293.1 
L 512.1854 293.1 
L 512.1854 76.56 
L 58.512656 76.56 
z
" style="fill: #ffffff"/>
   </g>
   <g id="matplotlib.axis_1">
    <g id="xtick_1">
     <g id="text_1">
      <!-- 0 -->
      <g style="fill: #262626" transform="translate(74.546371 317.410391) scale(0.165 -0.165)">
       <defs>
        <path id="ArialMT-30" d="M 266 2259 
Q 266 3072 433 3567 
Q 600 4063 929 4331 
Q 1259 4600 1759 4600 
Q 2128 4600 2406 4451 
Q 2684 4303 2865 4023 
Q 3047 3744 3150 3342 
Q 3253 2941 3253 2259 
Q 3253 1453 3087 958 
Q 2922 463 2592 192 
Q 2263 -78 1759 -78 
Q 1097 -78 719 397 
Q 266 969 266 2259 
z
M 844 2259 
Q 844 1131 1108 757 
Q 1372 384 1759 384 
Q 2147 384 2411 759 
Q 2675 1134 2675 2259 
Q 2675 3391 2411 3762 
Q 2147 4134 1753 4134 
Q 1366 4134 1134 3806 
Q 844 3388 844 2259 
z
" transform="scale(0.015625)"/>
       </defs>
       <use xlink:href="#ArialMT-30"/>
      </g>
     </g>
    </g>
    <g id="xtick_2">
     <g id="text_2">
      <!-- 10 -->
      <g style="fill: #262626" transform="translate(155.881466 317.410391) scale(0.165 -0.165)">
       <defs>
        <path id="ArialMT-31" d="M 2384 0 
L 1822 0 
L 1822 3584 
Q 1619 3391 1289 3197 
Q 959 3003 697 2906 
L 697 3450 
Q 1169 3672 1522 3987 
Q 1875 4303 2022 4600 
L 2384 4600 
L 2384 0 
z
" transform="scale(0.015625)"/>
       </defs>
       <use xlink:href="#ArialMT-31"/>
       <use xlink:href="#ArialMT-30" x="55.615234"/>
      </g>
     </g>
    </g>
    <g id="xtick_3">
     <g id="text_3">
      <!-- 20 -->
      <g style="fill: #262626" transform="translate(241.804334 317.410391) scale(0.165 -0.165)">
       <defs>
        <path id="ArialMT-32" d="M 3222 541 
L 3222 0 
L 194 0 
Q 188 203 259 391 
Q 375 700 629 1000 
Q 884 1300 1366 1694 
Q 2113 2306 2375 2664 
Q 2638 3022 2638 3341 
Q 2638 3675 2398 3904 
Q 2159 4134 1775 4134 
Q 1369 4134 1125 3890 
Q 881 3647 878 3216 
L 300 3275 
Q 359 3922 746 4261 
Q 1134 4600 1788 4600 
Q 2447 4600 2831 4234 
Q 3216 3869 3216 3328 
Q 3216 3053 3103 2787 
Q 2991 2522 2730 2228 
Q 2469 1934 1863 1422 
Q 1356 997 1212 845 
Q 1069 694 975 541 
L 3222 541 
z
" transform="scale(0.015625)"/>
       </defs>
       <use xlink:href="#ArialMT-32"/>
       <use xlink:href="#ArialMT-30" x="55.615234"/>
      </g>
     </g>
    </g>
    <g id="xtick_4">
     <g id="text_4">
      <!-- 30 -->
      <g style="fill: #262626" transform="translate(327.727202 317.410391) scale(0.165 -0.165)">
       <defs>
        <path id="ArialMT-33" d="M 269 1209 
L 831 1284 
Q 928 806 1161 595 
Q 1394 384 1728 384 
Q 2125 384 2398 659 
Q 2672 934 2672 1341 
Q 2672 1728 2419 1979 
Q 2166 2231 1775 2231 
Q 1616 2231 1378 2169 
L 1441 2663 
Q 1497 2656 1531 2656 
Q 1891 2656 2178 2843 
Q 2466 3031 2466 3422 
Q 2466 3731 2256 3934 
Q 2047 4138 1716 4138 
Q 1388 4138 1169 3931 
Q 950 3725 888 3313 
L 325 3413 
Q 428 3978 793 4289 
Q 1159 4600 1703 4600 
Q 2078 4600 2393 4439 
Q 2709 4278 2876 4000 
Q 3044 3722 3044 3409 
Q 3044 3113 2884 2869 
Q 2725 2625 2413 2481 
Q 2819 2388 3044 2092 
Q 3269 1797 3269 1353 
Q 3269 753 2831 336 
Q 2394 -81 1725 -81 
Q 1122 -81 723 278 
Q 325 638 269 1209 
z
" transform="scale(0.015625)"/>
       </defs>
       <use xlink:href="#ArialMT-33"/>
       <use xlink:href="#ArialMT-30" x="55.615234"/>
      </g>
     </g>
    </g>
    <g id="xtick_5">
     <g id="text_5">
      <!-- 40 -->
      <g style="fill: #262626" transform="translate(413.650071 317.410391) scale(0.165 -0.165)">
       <defs>
        <path id="ArialMT-34" d="M 2069 0 
L 2069 1097 
L 81 1097 
L 81 1613 
L 2172 4581 
L 2631 4581 
L 2631 1613 
L 3250 1613 
L 3250 1097 
L 2631 1097 
L 2631 0 
L 2069 0 
z
M 2069 1613 
L 2069 3678 
L 634 1613 
L 2069 1613 
z
" transform="scale(0.015625)"/>
       </defs>
       <use xlink:href="#ArialMT-34"/>
       <use xlink:href="#ArialMT-30" x="55.615234"/>
      </g>
     </g>
    </g>
    <g id="xtick_6">
     <g id="text_6">
      <!-- 50 -->
      <g style="fill: #262626" transform="translate(499.572939 317.410391) scale(0.165 -0.165)">
       <defs>
        <path id="ArialMT-35" d="M 266 1200 
L 856 1250 
Q 922 819 1161 601 
Q 1400 384 1738 384 
Q 2144 384 2425 690 
Q 2706 997 2706 1503 
Q 2706 1984 2436 2262 
Q 2166 2541 1728 2541 
Q 1456 2541 1237 2417 
Q 1019 2294 894 2097 
L 366 2166 
L 809 4519 
L 3088 4519 
L 3088 3981 
L 1259 3981 
L 1013 2750 
Q 1425 3038 1878 3038 
Q 2478 3038 2890 2622 
Q 3303 2206 3303 1553 
Q 3303 931 2941 478 
Q 2500 -78 1738 -78 
Q 1113 -78 717 272 
Q 322 622 266 1200 
z
" transform="scale(0.015625)"/>
       </defs>
       <use xlink:href="#ArialMT-35"/>
       <use xlink:href="#ArialMT-30" x="55.615234"/>
      </g>
     </g>
    </g>
    <g id="text_7">
     <!-- Week Index -->
     <g style="fill: #262626" transform="translate(237.986528 337.573828) scale(0.18 -0.18)">
      <defs>
       <path id="ArialMT-57" d="M 1294 0 
L 78 4581 
L 700 4581 
L 1397 1578 
Q 1509 1106 1591 641 
Q 1766 1375 1797 1488 
L 2669 4581 
L 3400 4581 
L 4056 2263 
Q 4303 1400 4413 641 
Q 4500 1075 4641 1638 
L 5359 4581 
L 5969 4581 
L 4713 0 
L 4128 0 
L 3163 3491 
Q 3041 3928 3019 4028 
Q 2947 3713 2884 3491 
L 1913 0 
L 1294 0 
z
" transform="scale(0.015625)"/>
       <path id="ArialMT-65" d="M 2694 1069 
L 3275 997 
Q 3138 488 2766 206 
Q 2394 -75 1816 -75 
Q 1088 -75 661 373 
Q 234 822 234 1631 
Q 234 2469 665 2931 
Q 1097 3394 1784 3394 
Q 2450 3394 2872 2941 
Q 3294 2488 3294 1666 
Q 3294 1616 3291 1516 
L 816 1516 
Q 847 969 1125 678 
Q 1403 388 1819 388 
Q 2128 388 2347 550 
Q 2566 713 2694 1069 
z
M 847 1978 
L 2700 1978 
Q 2663 2397 2488 2606 
Q 2219 2931 1791 2931 
Q 1403 2931 1139 2672 
Q 875 2413 847 1978 
z
" transform="scale(0.015625)"/>
       <path id="ArialMT-6b" d="M 425 0 
L 425 4581 
L 988 4581 
L 988 1969 
L 2319 3319 
L 3047 3319 
L 1778 2088 
L 3175 0 
L 2481 0 
L 1384 1697 
L 988 1316 
L 988 0 
L 425 0 
z
" transform="scale(0.015625)"/>
       <path id="ArialMT-20" transform="scale(0.015625)"/>
       <path id="ArialMT-49" d="M 597 0 
L 597 4581 
L 1203 4581 
L 1203 0 
L 597 0 
z
" transform="scale(0.015625)"/>
       <path id="ArialMT-6e" d="M 422 0 
L 422 3319 
L 928 3319 
L 928 2847 
Q 1294 3394 1984 3394 
Q 2284 3394 2536 3286 
Q 2788 3178 2913 3003 
Q 3038 2828 3088 2588 
Q 3119 2431 3119 2041 
L 3119 0 
L 2556 0 
L 2556 2019 
Q 2556 2363 2490 2533 
Q 2425 2703 2258 2804 
Q 2091 2906 1866 2906 
Q 1506 2906 1245 2678 
Q 984 2450 984 1813 
L 984 0 
L 422 0 
z
" transform="scale(0.015625)"/>
       <path id="ArialMT-64" d="M 2575 0 
L 2575 419 
Q 2259 -75 1647 -75 
Q 1250 -75 917 144 
Q 584 363 401 755 
Q 219 1147 219 1656 
Q 219 2153 384 2558 
Q 550 2963 881 3178 
Q 1213 3394 1622 3394 
Q 1922 3394 2156 3267 
Q 2391 3141 2538 2938 
L 2538 4581 
L 3097 4581 
L 3097 0 
L 2575 0 
z
M 797 1656 
Q 797 1019 1065 703 
Q 1334 388 1700 388 
Q 2069 388 2326 689 
Q 2584 991 2584 1609 
Q 2584 2291 2321 2609 
Q 2059 2928 1675 2928 
Q 1300 2928 1048 2622 
Q 797 2316 797 1656 
z
" transform="scale(0.015625)"/>
       <path id="ArialMT-78" d="M 47 0 
L 1259 1725 
L 138 3319 
L 841 3319 
L 1350 2541 
Q 1494 2319 1581 2169 
Q 1719 2375 1834 2534 
L 2394 3319 
L 3066 3319 
L 1919 1756 
L 3153 0 
L 2463 0 
L 1781 1031 
L 1600 1309 
L 728 0 
L 47 0 
z
" transform="scale(0.015625)"/>
      </defs>
      <use xlink:href="#ArialMT-57"/>
      <use xlink:href="#ArialMT-65" x="92.634766"/>
      <use xlink:href="#ArialMT-65" x="148.25"/>
      <use xlink:href="#ArialMT-6b" x="203.865234"/>
      <use xlink:href="#ArialMT-20" x="253.865234"/>
      <use xlink:href="#ArialMT-49" x="281.648438"/>
      <use xlink:href="#ArialMT-6e" x="309.431641"/>
      <use xlink:href="#ArialMT-64" x="365.046875"/>
      <use xlink:href="#ArialMT-65" x="420.662109"/>
      <use xlink:href="#ArialMT-78" x="476.277344"/>
     </g>
    </g>
   </g>
   <g id="matplotlib.axis_2">
    <g id="ytick_1">
     <g id="text_8">
      <!-- 0 -->
      <g style="fill: #262626" transform="translate(36.837109 289.162468) scale(0.165 -0.165)">
       <use xlink:href="#ArialMT-30"/>
      </g>
     </g>
    </g>
    <g id="ytick_2">
     <g id="text_9">
      <!-- 10 -->
      <g style="fill: #262626" transform="translate(27.661563 231.264072) scale(0.165 -0.165)">
       <use xlink:href="#ArialMT-31"/>
       <use xlink:href="#ArialMT-30" x="55.615234"/>
      </g>
     </g>
    </g>
    <g id="ytick_3">
     <g id="text_10">
      <!-- 20 -->
      <g style="fill: #262626" transform="translate(27.661563 173.365677) scale(0.165 -0.165)">
       <use xlink:href="#ArialMT-32"/>
       <use xlink:href="#ArialMT-30" x="55.615234"/>
      </g>
     </g>
    </g>
    <g id="ytick_4">
     <g id="text_11">
      <!-- 30 -->
      <g style="fill: #262626" transform="translate(27.661563 115.467281) scale(0.165 -0.165)">
       <use xlink:href="#ArialMT-33"/>
       <use xlink:href="#ArialMT-30" x="55.615234"/>
      </g>
     </g>
    </g>
    <g id="text_12">
     <!-- Number of cases -->
     <g style="fill: #262626" transform="translate(20.084063 252.853125) rotate(-90) scale(0.18 -0.18)">
      <defs>
       <path id="ArialMT-4e" d="M 488 0 
L 488 4581 
L 1109 4581 
L 3516 984 
L 3516 4581 
L 4097 4581 
L 4097 0 
L 3475 0 
L 1069 3600 
L 1069 0 
L 488 0 
z
" transform="scale(0.015625)"/>
       <path id="ArialMT-75" d="M 2597 0 
L 2597 488 
Q 2209 -75 1544 -75 
Q 1250 -75 995 37 
Q 741 150 617 320 
Q 494 491 444 738 
Q 409 903 409 1263 
L 409 3319 
L 972 3319 
L 972 1478 
Q 972 1038 1006 884 
Q 1059 663 1231 536 
Q 1403 409 1656 409 
Q 1909 409 2131 539 
Q 2353 669 2445 892 
Q 2538 1116 2538 1541 
L 2538 3319 
L 3100 3319 
L 3100 0 
L 2597 0 
z
" transform="scale(0.015625)"/>
       <path id="ArialMT-6d" d="M 422 0 
L 422 3319 
L 925 3319 
L 925 2853 
Q 1081 3097 1340 3245 
Q 1600 3394 1931 3394 
Q 2300 3394 2536 3241 
Q 2772 3088 2869 2813 
Q 3263 3394 3894 3394 
Q 4388 3394 4653 3120 
Q 4919 2847 4919 2278 
L 4919 0 
L 4359 0 
L 4359 2091 
Q 4359 2428 4304 2576 
Q 4250 2725 4106 2815 
Q 3963 2906 3769 2906 
Q 3419 2906 3187 2673 
Q 2956 2441 2956 1928 
L 2956 0 
L 2394 0 
L 2394 2156 
Q 2394 2531 2256 2718 
Q 2119 2906 1806 2906 
Q 1569 2906 1367 2781 
Q 1166 2656 1075 2415 
Q 984 2175 984 1722 
L 984 0 
L 422 0 
z
" transform="scale(0.015625)"/>
       <path id="ArialMT-62" d="M 941 0 
L 419 0 
L 419 4581 
L 981 4581 
L 981 2947 
Q 1338 3394 1891 3394 
Q 2197 3394 2470 3270 
Q 2744 3147 2920 2923 
Q 3097 2700 3197 2384 
Q 3297 2069 3297 1709 
Q 3297 856 2875 390 
Q 2453 -75 1863 -75 
Q 1275 -75 941 416 
L 941 0 
z
M 934 1684 
Q 934 1088 1097 822 
Q 1363 388 1816 388 
Q 2184 388 2453 708 
Q 2722 1028 2722 1663 
Q 2722 2313 2464 2622 
Q 2206 2931 1841 2931 
Q 1472 2931 1203 2611 
Q 934 2291 934 1684 
z
" transform="scale(0.015625)"/>
       <path id="ArialMT-72" d="M 416 0 
L 416 3319 
L 922 3319 
L 922 2816 
Q 1116 3169 1280 3281 
Q 1444 3394 1641 3394 
Q 1925 3394 2219 3213 
L 2025 2691 
Q 1819 2813 1613 2813 
Q 1428 2813 1281 2702 
Q 1134 2591 1072 2394 
Q 978 2094 978 1738 
L 978 0 
L 416 0 
z
" transform="scale(0.015625)"/>
       <path id="ArialMT-6f" d="M 213 1659 
Q 213 2581 725 3025 
Q 1153 3394 1769 3394 
Q 2453 3394 2887 2945 
Q 3322 2497 3322 1706 
Q 3322 1066 3130 698 
Q 2938 331 2570 128 
Q 2203 -75 1769 -75 
Q 1072 -75 642 372 
Q 213 819 213 1659 
z
M 791 1659 
Q 791 1022 1069 705 
Q 1347 388 1769 388 
Q 2188 388 2466 706 
Q 2744 1025 2744 1678 
Q 2744 2294 2464 2611 
Q 2184 2928 1769 2928 
Q 1347 2928 1069 2612 
Q 791 2297 791 1659 
z
" transform="scale(0.015625)"/>
       <path id="ArialMT-66" d="M 556 0 
L 556 2881 
L 59 2881 
L 59 3319 
L 556 3319 
L 556 3672 
Q 556 4006 616 4169 
Q 697 4388 901 4523 
Q 1106 4659 1475 4659 
Q 1713 4659 2000 4603 
L 1916 4113 
Q 1741 4144 1584 4144 
Q 1328 4144 1222 4034 
Q 1116 3925 1116 3625 
L 1116 3319 
L 1763 3319 
L 1763 2881 
L 1116 2881 
L 1116 0 
L 556 0 
z
" transform="scale(0.015625)"/>
       <path id="ArialMT-63" d="M 2588 1216 
L 3141 1144 
Q 3050 572 2676 248 
Q 2303 -75 1759 -75 
Q 1078 -75 664 370 
Q 250 816 250 1647 
Q 250 2184 428 2587 
Q 606 2991 970 3192 
Q 1334 3394 1763 3394 
Q 2303 3394 2647 3120 
Q 2991 2847 3088 2344 
L 2541 2259 
Q 2463 2594 2264 2762 
Q 2066 2931 1784 2931 
Q 1359 2931 1093 2626 
Q 828 2322 828 1663 
Q 828 994 1084 691 
Q 1341 388 1753 388 
Q 2084 388 2306 591 
Q 2528 794 2588 1216 
z
" transform="scale(0.015625)"/>
       <path id="ArialMT-61" d="M 2588 409 
Q 2275 144 1986 34 
Q 1697 -75 1366 -75 
Q 819 -75 525 192 
Q 231 459 231 875 
Q 231 1119 342 1320 
Q 453 1522 633 1644 
Q 813 1766 1038 1828 
Q 1203 1872 1538 1913 
Q 2219 1994 2541 2106 
Q 2544 2222 2544 2253 
Q 2544 2597 2384 2738 
Q 2169 2928 1744 2928 
Q 1347 2928 1158 2789 
Q 969 2650 878 2297 
L 328 2372 
Q 403 2725 575 2942 
Q 747 3159 1072 3276 
Q 1397 3394 1825 3394 
Q 2250 3394 2515 3294 
Q 2781 3194 2906 3042 
Q 3031 2891 3081 2659 
Q 3109 2516 3109 2141 
L 3109 1391 
Q 3109 606 3145 398 
Q 3181 191 3288 0 
L 2700 0 
Q 2613 175 2588 409 
z
M 2541 1666 
Q 2234 1541 1622 1453 
Q 1275 1403 1131 1340 
Q 988 1278 909 1158 
Q 831 1038 831 891 
Q 831 666 1001 516 
Q 1172 366 1500 366 
Q 1825 366 2078 508 
Q 2331 650 2450 897 
Q 2541 1088 2541 1459 
L 2541 1666 
z
" transform="scale(0.015625)"/>
       <path id="ArialMT-73" d="M 197 991 
L 753 1078 
Q 800 744 1014 566 
Q 1228 388 1613 388 
Q 2000 388 2187 545 
Q 2375 703 2375 916 
Q 2375 1106 2209 1216 
Q 2094 1291 1634 1406 
Q 1016 1563 777 1677 
Q 538 1791 414 1992 
Q 291 2194 291 2438 
Q 291 2659 392 2848 
Q 494 3038 669 3163 
Q 800 3259 1026 3326 
Q 1253 3394 1513 3394 
Q 1903 3394 2198 3281 
Q 2494 3169 2634 2976 
Q 2775 2784 2828 2463 
L 2278 2388 
Q 2241 2644 2061 2787 
Q 1881 2931 1553 2931 
Q 1166 2931 1000 2803 
Q 834 2675 834 2503 
Q 834 2394 903 2306 
Q 972 2216 1119 2156 
Q 1203 2125 1616 2013 
Q 2213 1853 2448 1751 
Q 2684 1650 2818 1456 
Q 2953 1263 2953 975 
Q 2953 694 2789 445 
Q 2625 197 2315 61 
Q 2006 -75 1616 -75 
Q 969 -75 630 194 
Q 291 463 197 991 
z
" transform="scale(0.015625)"/>
      </defs>
      <use xlink:href="#ArialMT-4e"/>
      <use xlink:href="#ArialMT-75" x="72.216797"/>
      <use xlink:href="#ArialMT-6d" x="127.832031"/>
      <use xlink:href="#ArialMT-62" x="211.132812"/>
      <use xlink:href="#ArialMT-65" x="266.748047"/>
      <use xlink:href="#ArialMT-72" x="322.363281"/>
      <use xlink:href="#ArialMT-20" x="355.664062"/>
      <use xlink:href="#ArialMT-6f" x="383.447266"/>
      <use xlink:href="#ArialMT-66" x="439.0625"/>
      <use xlink:href="#ArialMT-20" x="466.845703"/>
      <use xlink:href="#ArialMT-63" x="494.628906"/>
      <use xlink:href="#ArialMT-61" x="544.628906"/>
      <use xlink:href="#ArialMT-73" x="600.244141"/>
      <use xlink:href="#ArialMT-65" x="650.244141"/>
      <use xlink:href="#ArialMT-73" x="705.859375"/>
     </g>
    </g>
   </g>
   <g id="line2d_1">
    <path d="M 79.134145 135.492547 
L 87.726431 130.761036 
L 96.318718 114.432873 
L 104.911005 90.269276 
L 113.503292 129.134201 
L 122.095579 88.299515 
L 130.687866 191.955106 
L 139.280152 249.589485 
L 147.872439 254.82235 
L 156.464726 256.630226 
L 165.057013 256.989714 
L 173.6493 266.679797 
L 182.241586 253.908293 
L 190.833873 263.122418 
L 199.42616 264.512945 
L 208.018447 263.773746 
L 216.610734 265.049543 
L 225.203021 269.549395 
L 233.795307 271.478436 
L 242.387594 267.494988 
L 250.979881 263.327109 
L 259.572168 271.41395 
L 268.164455 274.988078 
L 276.756742 265.924661 
L 285.349028 268.555757 
L 293.941315 270.096556 
L 302.533602 270.147864 
L 311.125889 268.005548 
L 319.718176 269.551656 
L 328.310462 256.5278 
L 336.902749 263.13583 
L 345.495036 272.448691 
L 354.087323 267.360533 
L 362.67961 271.375565 
L 371.271897 263.458869 
L 379.864183 268.772579 
L 388.45647 268.132362 
L 397.048757 266.083443 
L 405.641044 266.320957 
L 414.233331 262.20862 
L 422.825617 270.043207 
L 431.417904 266.804455 
L 440.010191 263.192807 
L 448.602478 258.4718 
L 457.194765 262.564082 
L 465.787052 264.708096 
L 474.379338 260.446109 
L 482.971625 258.218865 
L 491.563912 264.43373 
" clip-path="url(#pf1c2a960b0)" style="fill: none; stroke: #1f77b4; stroke-width: 2.25; stroke-linecap: round"/>
   </g>
   <g id="line2d_2">
    <path d="M 79.134145 126.931593 
L 87.726431 126.931593 
L 96.318718 103.772235 
L 104.911005 86.402727 
L 113.503292 138.511283 
L 122.095579 92.192567 
L 130.687866 196.409674 
L 139.280152 254.308075 
L 147.872439 248.518235 
L 156.464726 260.097914 
L 165.057013 277.467433 
L 173.6493 265.887754 
L 182.241586 254.308075 
L 190.833873 271.677594 
L 199.42616 254.308075 
L 208.018447 271.677594 
L 216.610734 254.308075 
L 225.203021 271.677594 
L 233.795307 265.887754 
L 242.387594 260.097914 
L 250.979881 271.677594 
L 259.572168 265.887754 
L 268.164455 277.467433 
L 276.756742 265.887754 
L 285.349028 254.308075 
L 293.941315 283.257273 
L 302.533602 265.887754 
L 311.125889 254.308075 
L 319.718176 283.257273 
L 328.310462 231.148717 
L 336.902749 277.467433 
L 345.495036 277.467433 
L 354.087323 265.887754 
L 362.67961 265.887754 
L 371.271897 254.308075 
L 379.864183 277.467433 
L 388.45647 265.887754 
L 397.048757 254.308075 
L 405.641044 277.467433 
L 414.233331 260.097914 
L 422.825617 260.097914 
L 431.417904 271.677594 
L 440.010191 277.467433 
L 448.602478 265.887754 
L 457.194765 265.887754 
L 465.787052 271.677594 
L 474.379338 248.518235 
L 482.971625 265.887754 
L 491.563912 283.257273 
" clip-path="url(#pf1c2a960b0)" style="fill: none; stroke: #ff7f0e; stroke-width: 2.25; stroke-linecap: round"/>
   </g>
   <g id="patch_3">
    <path d="M 58.512656 293.1 
L 58.512656 76.56 
" style="fill: none; stroke: #262626; stroke-width: 1.875; stroke-linejoin: miter; stroke-linecap: square"/>
   </g>
   <g id="patch_4">
    <path d="M 512.1854 293.1 
L 512.1854 76.56 
" style="fill: none; stroke: #262626; stroke-width: 1.875; stroke-linejoin: miter; stroke-linecap: square"/>
   </g>
   <g id="patch_5">
    <path d="M 58.512656 293.1 
L 512.1854 293.1 
" style="fill: none; stroke: #262626; stroke-width: 1.875; stroke-linejoin: miter; stroke-linecap: square"/>
   </g>
   <g id="patch_6">
    <path d="M 58.512656 76.56 
L 512.1854 76.56 
" style="fill: none; stroke: #262626; stroke-width: 1.875; stroke-linejoin: miter; stroke-linecap: square"/>
   </g>
   <g id="text_13">
    <!-- 2020 Cases. MAE = 0.05 -->
    <g style="fill: #262626" transform="translate(185.044028 70.56) scale(0.18 -0.18)">
     <defs>
      <path id="ArialMT-43" d="M 3763 1606 
L 4369 1453 
Q 4178 706 3683 314 
Q 3188 -78 2472 -78 
Q 1731 -78 1267 223 
Q 803 525 561 1097 
Q 319 1669 319 2325 
Q 319 3041 592 3573 
Q 866 4106 1370 4382 
Q 1875 4659 2481 4659 
Q 3169 4659 3637 4309 
Q 4106 3959 4291 3325 
L 3694 3184 
Q 3534 3684 3231 3912 
Q 2928 4141 2469 4141 
Q 1941 4141 1586 3887 
Q 1231 3634 1087 3207 
Q 944 2781 944 2328 
Q 944 1744 1114 1308 
Q 1284 872 1643 656 
Q 2003 441 2422 441 
Q 2931 441 3284 734 
Q 3638 1028 3763 1606 
z
" transform="scale(0.015625)"/>
      <path id="ArialMT-2e" d="M 581 0 
L 581 641 
L 1222 641 
L 1222 0 
L 581 0 
z
" transform="scale(0.015625)"/>
      <path id="ArialMT-4d" d="M 475 0 
L 475 4581 
L 1388 4581 
L 2472 1338 
Q 2622 884 2691 659 
Q 2769 909 2934 1394 
L 4031 4581 
L 4847 4581 
L 4847 0 
L 4263 0 
L 4263 3834 
L 2931 0 
L 2384 0 
L 1059 3900 
L 1059 0 
L 475 0 
z
" transform="scale(0.015625)"/>
      <path id="ArialMT-41" d="M -9 0 
L 1750 4581 
L 2403 4581 
L 4278 0 
L 3588 0 
L 3053 1388 
L 1138 1388 
L 634 0 
L -9 0 
z
M 1313 1881 
L 2866 1881 
L 2388 3150 
Q 2169 3728 2063 4100 
Q 1975 3659 1816 3225 
L 1313 1881 
z
" transform="scale(0.015625)"/>
      <path id="ArialMT-45" d="M 506 0 
L 506 4581 
L 3819 4581 
L 3819 4041 
L 1113 4041 
L 1113 2638 
L 3647 2638 
L 3647 2100 
L 1113 2100 
L 1113 541 
L 3925 541 
L 3925 0 
L 506 0 
z
" transform="scale(0.015625)"/>
      <path id="ArialMT-3d" d="M 3381 2694 
L 356 2694 
L 356 3219 
L 3381 3219 
L 3381 2694 
z
M 3381 1303 
L 356 1303 
L 356 1828 
L 3381 1828 
L 3381 1303 
z
" transform="scale(0.015625)"/>
     </defs>
     <use xlink:href="#ArialMT-32"/>
     <use xlink:href="#ArialMT-30" x="55.615234"/>
     <use xlink:href="#ArialMT-32" x="111.230469"/>
     <use xlink:href="#ArialMT-30" x="166.845703"/>
     <use xlink:href="#ArialMT-20" x="222.460938"/>
     <use xlink:href="#ArialMT-43" x="250.244141"/>
     <use xlink:href="#ArialMT-61" x="322.460938"/>
     <use xlink:href="#ArialMT-73" x="378.076172"/>
     <use xlink:href="#ArialMT-65" x="428.076172"/>
     <use xlink:href="#ArialMT-73" x="483.691406"/>
     <use xlink:href="#ArialMT-2e" x="533.691406"/>
     <use xlink:href="#ArialMT-20" x="561.474609"/>
     <use xlink:href="#ArialMT-4d" x="589.257812"/>
     <use xlink:href="#ArialMT-41" x="672.558594"/>
     <use xlink:href="#ArialMT-45" x="739.257812"/>
     <use xlink:href="#ArialMT-20" x="805.957031"/>
     <use xlink:href="#ArialMT-3d" x="833.740234"/>
     <use xlink:href="#ArialMT-20" x="892.138672"/>
     <use xlink:href="#ArialMT-30" x="919.921875"/>
     <use xlink:href="#ArialMT-2e" x="975.537109"/>
     <use xlink:href="#ArialMT-30" x="1003.320312"/>
     <use xlink:href="#ArialMT-35" x="1058.935547"/>
    </g>
   </g>
   <g id="legend_1">
    <g id="patch_7">
     <path d="M 397.389229 136.82625 
L 500.6354 136.82625 
Q 503.9354 136.82625 503.9354 133.52625 
L 503.9354 88.11 
Q 503.9354 84.81 500.6354 84.81 
L 397.389229 84.81 
Q 394.089229 84.81 394.089229 88.11 
L 394.089229 133.52625 
Q 394.089229 136.82625 397.389229 136.82625 
z
" style="fill: #ffffff; opacity: 0.8; stroke: #cccccc; stroke-width: 1.5; stroke-linejoin: miter"/>
    </g>
    <g id="line2d_3">
     <path d="M 400.689229 97.445391 
L 417.189229 97.445391 
L 433.689229 97.445391 
" style="fill: none; stroke: #1f77b4; stroke-width: 2.25; stroke-linecap: round"/>
    </g>
    <g id="text_14">
     <!-- pred_y -->
     <g style="fill: #262626" transform="translate(446.889229 103.220391) scale(0.165 -0.165)">
      <defs>
       <path id="ArialMT-70" d="M 422 -1272 
L 422 3319 
L 934 3319 
L 934 2888 
Q 1116 3141 1344 3267 
Q 1572 3394 1897 3394 
Q 2322 3394 2647 3175 
Q 2972 2956 3137 2557 
Q 3303 2159 3303 1684 
Q 3303 1175 3120 767 
Q 2938 359 2589 142 
Q 2241 -75 1856 -75 
Q 1575 -75 1351 44 
Q 1128 163 984 344 
L 984 -1272 
L 422 -1272 
z
M 931 1641 
Q 931 1000 1190 694 
Q 1450 388 1819 388 
Q 2194 388 2461 705 
Q 2728 1022 2728 1688 
Q 2728 2322 2467 2637 
Q 2206 2953 1844 2953 
Q 1484 2953 1207 2617 
Q 931 2281 931 1641 
z
" transform="scale(0.015625)"/>
       <path id="ArialMT-5f" d="M -97 -1272 
L -97 -866 
L 3631 -866 
L 3631 -1272 
L -97 -1272 
z
" transform="scale(0.015625)"/>
       <path id="ArialMT-79" d="M 397 -1278 
L 334 -750 
Q 519 -800 656 -800 
Q 844 -800 956 -737 
Q 1069 -675 1141 -563 
Q 1194 -478 1313 -144 
Q 1328 -97 1363 -6 
L 103 3319 
L 709 3319 
L 1400 1397 
Q 1534 1031 1641 628 
Q 1738 1016 1872 1384 
L 2581 3319 
L 3144 3319 
L 1881 -56 
Q 1678 -603 1566 -809 
Q 1416 -1088 1222 -1217 
Q 1028 -1347 759 -1347 
Q 597 -1347 397 -1278 
z
" transform="scale(0.015625)"/>
      </defs>
      <use xlink:href="#ArialMT-70"/>
      <use xlink:href="#ArialMT-72" x="55.615234"/>
      <use xlink:href="#ArialMT-65" x="88.916016"/>
      <use xlink:href="#ArialMT-64" x="144.53125"/>
      <use xlink:href="#ArialMT-5f" x="200.146484"/>
      <use xlink:href="#ArialMT-79" x="255.761719"/>
     </g>
    </g>
    <g id="line2d_4">
     <path d="M 400.689229 120.978516 
L 417.189229 120.978516 
L 433.689229 120.978516 
" style="fill: none; stroke: #ff7f0e; stroke-width: 2.25; stroke-linecap: round"/>
    </g>
    <g id="text_15">
     <!-- true_y -->
     <g style="fill: #262626" transform="translate(446.889229 126.753516) scale(0.165 -0.165)">
      <defs>
       <path id="ArialMT-74" d="M 1650 503 
L 1731 6 
Q 1494 -44 1306 -44 
Q 1000 -44 831 53 
Q 663 150 594 308 
Q 525 466 525 972 
L 525 2881 
L 113 2881 
L 113 3319 
L 525 3319 
L 525 4141 
L 1084 4478 
L 1084 3319 
L 1650 3319 
L 1650 2881 
L 1084 2881 
L 1084 941 
Q 1084 700 1114 631 
Q 1144 563 1211 522 
Q 1278 481 1403 481 
Q 1497 481 1650 503 
z
" transform="scale(0.015625)"/>
      </defs>
      <use xlink:href="#ArialMT-74"/>
      <use xlink:href="#ArialMT-72" x="27.783203"/>
      <use xlink:href="#ArialMT-75" x="61.083984"/>
      <use xlink:href="#ArialMT-65" x="116.699219"/>
      <use xlink:href="#ArialMT-5f" x="172.314453"/>
      <use xlink:href="#ArialMT-79" x="227.929688"/>
     </g>
    </g>
   </g>
  </g>
  <g id="axes_2">
   <g id="patch_8">
    <path d="M 588.792656 293.1 
L 1042.4654 293.1 
L 1042.4654 76.56 
L 588.792656 76.56 
z
" style="fill: #ffffff"/>
   </g>
   <g id="matplotlib.axis_3">
    <g id="xtick_7">
     <g id="text_16">
      <!-- 0 -->
      <g style="fill: #262626" transform="translate(604.826371 317.410391) scale(0.165 -0.165)">
       <use xlink:href="#ArialMT-30"/>
      </g>
     </g>
    </g>
    <g id="xtick_8">
     <g id="text_17">
      <!-- 10 -->
      <g style="fill: #262626" transform="translate(686.161466 317.410391) scale(0.165 -0.165)">
       <use xlink:href="#ArialMT-31"/>
       <use xlink:href="#ArialMT-30" x="55.615234"/>
      </g>
     </g>
    </g>
    <g id="xtick_9">
     <g id="text_18">
      <!-- 20 -->
      <g style="fill: #262626" transform="translate(772.084334 317.410391) scale(0.165 -0.165)">
       <use xlink:href="#ArialMT-32"/>
       <use xlink:href="#ArialMT-30" x="55.615234"/>
      </g>
     </g>
    </g>
    <g id="xtick_10">
     <g id="text_19">
      <!-- 30 -->
      <g style="fill: #262626" transform="translate(858.007202 317.410391) scale(0.165 -0.165)">
       <use xlink:href="#ArialMT-33"/>
       <use xlink:href="#ArialMT-30" x="55.615234"/>
      </g>
     </g>
    </g>
    <g id="xtick_11">
     <g id="text_20">
      <!-- 40 -->
      <g style="fill: #262626" transform="translate(943.930071 317.410391) scale(0.165 -0.165)">
       <use xlink:href="#ArialMT-34"/>
       <use xlink:href="#ArialMT-30" x="55.615234"/>
      </g>
     </g>
    </g>
    <g id="xtick_12">
     <g id="text_21">
      <!-- 50 -->
      <g style="fill: #262626" transform="translate(1029.852939 317.410391) scale(0.165 -0.165)">
       <use xlink:href="#ArialMT-35"/>
       <use xlink:href="#ArialMT-30" x="55.615234"/>
      </g>
     </g>
    </g>
    <g id="text_22">
     <!-- Week Index -->
     <g style="fill: #262626" transform="translate(768.266528 337.573828) scale(0.18 -0.18)">
      <use xlink:href="#ArialMT-57"/>
      <use xlink:href="#ArialMT-65" x="92.634766"/>
      <use xlink:href="#ArialMT-65" x="148.25"/>
      <use xlink:href="#ArialMT-6b" x="203.865234"/>
      <use xlink:href="#ArialMT-20" x="253.865234"/>
      <use xlink:href="#ArialMT-49" x="281.648438"/>
      <use xlink:href="#ArialMT-6e" x="309.431641"/>
      <use xlink:href="#ArialMT-64" x="365.046875"/>
      <use xlink:href="#ArialMT-65" x="420.662109"/>
      <use xlink:href="#ArialMT-78" x="476.277344"/>
     </g>
    </g>
   </g>
   <g id="matplotlib.axis_4">
    <g id="ytick_5">
     <g id="text_23">
      <!-- 40 -->
      <g style="fill: #262626" transform="translate(557.941563 258.451933) scale(0.165 -0.165)">
       <use xlink:href="#ArialMT-34"/>
       <use xlink:href="#ArialMT-30" x="55.615234"/>
      </g>
     </g>
    </g>
    <g id="ytick_6">
     <g id="text_24">
      <!-- 60 -->
      <g style="fill: #262626" transform="translate(557.941563 197.030864) scale(0.165 -0.165)">
       <defs>
        <path id="ArialMT-36" d="M 3184 3459 
L 2625 3416 
Q 2550 3747 2413 3897 
Q 2184 4138 1850 4138 
Q 1581 4138 1378 3988 
Q 1113 3794 959 3422 
Q 806 3050 800 2363 
Q 1003 2672 1297 2822 
Q 1591 2972 1913 2972 
Q 2475 2972 2870 2558 
Q 3266 2144 3266 1488 
Q 3266 1056 3080 686 
Q 2894 316 2569 119 
Q 2244 -78 1831 -78 
Q 1128 -78 684 439 
Q 241 956 241 2144 
Q 241 3472 731 4075 
Q 1159 4600 1884 4600 
Q 2425 4600 2770 4297 
Q 3116 3994 3184 3459 
z
M 888 1484 
Q 888 1194 1011 928 
Q 1134 663 1356 523 
Q 1578 384 1822 384 
Q 2178 384 2434 671 
Q 2691 959 2691 1453 
Q 2691 1928 2437 2201 
Q 2184 2475 1800 2475 
Q 1419 2475 1153 2201 
Q 888 1928 888 1484 
z
" transform="scale(0.015625)"/>
       </defs>
       <use xlink:href="#ArialMT-36"/>
       <use xlink:href="#ArialMT-30" x="55.615234"/>
      </g>
     </g>
    </g>
    <g id="ytick_7">
     <g id="text_25">
      <!-- 80 -->
      <g style="fill: #262626" transform="translate(557.941563 135.609795) scale(0.165 -0.165)">
       <defs>
        <path id="ArialMT-38" d="M 1131 2484 
Q 781 2613 612 2850 
Q 444 3088 444 3419 
Q 444 3919 803 4259 
Q 1163 4600 1759 4600 
Q 2359 4600 2725 4251 
Q 3091 3903 3091 3403 
Q 3091 3084 2923 2848 
Q 2756 2613 2416 2484 
Q 2838 2347 3058 2040 
Q 3278 1734 3278 1309 
Q 3278 722 2862 322 
Q 2447 -78 1769 -78 
Q 1091 -78 675 323 
Q 259 725 259 1325 
Q 259 1772 486 2073 
Q 713 2375 1131 2484 
z
M 1019 3438 
Q 1019 3113 1228 2906 
Q 1438 2700 1772 2700 
Q 2097 2700 2305 2904 
Q 2513 3109 2513 3406 
Q 2513 3716 2298 3927 
Q 2084 4138 1766 4138 
Q 1444 4138 1231 3931 
Q 1019 3725 1019 3438 
z
M 838 1322 
Q 838 1081 952 856 
Q 1066 631 1291 507 
Q 1516 384 1775 384 
Q 2178 384 2440 643 
Q 2703 903 2703 1303 
Q 2703 1709 2433 1975 
Q 2163 2241 1756 2241 
Q 1359 2241 1098 1978 
Q 838 1716 838 1322 
z
" transform="scale(0.015625)"/>
       </defs>
       <use xlink:href="#ArialMT-38"/>
       <use xlink:href="#ArialMT-30" x="55.615234"/>
      </g>
     </g>
    </g>
    <g id="text_26">
     <!-- Weekly Humidity -->
     <g style="fill: #262626" transform="translate(550.153125 251.683125) rotate(-90) scale(0.18 -0.18)">
      <defs>
       <path id="ArialMT-6c" d="M 409 0 
L 409 4581 
L 972 4581 
L 972 0 
L 409 0 
z
" transform="scale(0.015625)"/>
       <path id="ArialMT-48" d="M 513 0 
L 513 4581 
L 1119 4581 
L 1119 2700 
L 3500 2700 
L 3500 4581 
L 4106 4581 
L 4106 0 
L 3500 0 
L 3500 2159 
L 1119 2159 
L 1119 0 
L 513 0 
z
" transform="scale(0.015625)"/>
       <path id="ArialMT-69" d="M 425 3934 
L 425 4581 
L 988 4581 
L 988 3934 
L 425 3934 
z
M 425 0 
L 425 3319 
L 988 3319 
L 988 0 
L 425 0 
z
" transform="scale(0.015625)"/>
      </defs>
      <use xlink:href="#ArialMT-57"/>
      <use xlink:href="#ArialMT-65" x="92.634766"/>
      <use xlink:href="#ArialMT-65" x="148.25"/>
      <use xlink:href="#ArialMT-6b" x="203.865234"/>
      <use xlink:href="#ArialMT-6c" x="253.865234"/>
      <use xlink:href="#ArialMT-79" x="276.082031"/>
      <use xlink:href="#ArialMT-20" x="326.082031"/>
      <use xlink:href="#ArialMT-48" x="353.865234"/>
      <use xlink:href="#ArialMT-75" x="426.082031"/>
      <use xlink:href="#ArialMT-6d" x="481.697266"/>
      <use xlink:href="#ArialMT-69" x="564.998047"/>
      <use xlink:href="#ArialMT-64" x="587.214844"/>
      <use xlink:href="#ArialMT-69" x="642.830078"/>
      <use xlink:href="#ArialMT-74" x="665.046875"/>
      <use xlink:href="#ArialMT-79" x="692.830078"/>
     </g>
    </g>
   </g>
   <g id="line2d_5">
    <path d="M 609.414145 272.106956 
L 618.006431 252.428392 
L 626.598718 206.64544 
L 635.191005 163.905496 
L 643.783292 126.993506 
L 652.375579 110.096362 
L 660.967866 151.626296 
L 669.560152 119.554275 
L 678.152439 124.416433 
L 686.744726 141.676418 
L 695.337013 140.639581 
L 703.9293 115.96164 
L 712.521586 103.358657 
L 721.113873 104.632937 
L 729.70616 108.13424 
L 738.298447 127.316047 
L 746.890734 96.914909 
L 755.483021 116.612323 
L 764.075307 109.314095 
L 772.667594 100.914458 
L 781.259881 104.145517 
L 789.852168 93.557842 
L 798.444455 96.333042 
L 807.036742 99.499269 
L 815.629028 115.55878 
L 824.221315 109.588136 
L 832.813602 107.520672 
L 841.405889 116.192007 
L 849.998176 112.672943 
L 858.590462 106.282428 
L 867.182749 103.582393 
L 875.775036 102.351109 
L 884.367323 100.939926 
L 892.95961 100.464901 
L 901.551897 107.508113 
L 910.144183 106.879877 
L 918.73647 108.207811 
L 927.328757 108.788062 
L 935.921044 99.347886 
L 944.513331 122.68046 
L 953.105617 129.460995 
L 961.697904 140.759732 
L 970.290191 146.08698 
L 978.882478 148.685398 
L 987.474765 135.130771 
L 996.067052 128.596769 
L 1004.659338 147.263696 
L 1013.251625 200.366114 
L 1021.843912 146.392206 
" clip-path="url(#pf90409a027)" style="fill: none; stroke: #1f77b4; stroke-width: 2.25; stroke-linecap: round"/>
   </g>
   <g id="line2d_6">
    <path d="M 609.414145 283.257273 
L 618.006431 214.772771 
L 626.598718 200.64593 
L 635.191005 187.13329 
L 643.783292 129.397499 
L 652.375579 128.169073 
L 660.967866 155.501454 
L 669.560152 134.31118 
L 678.152439 121.719865 
L 686.744726 132.161452 
L 695.337013 146.595394 
L 703.9293 116.499061 
L 712.521586 104.21487 
L 721.113873 96.537213 
L 729.70616 109.742752 
L 738.298447 121.719865 
L 746.890734 94.080361 
L 755.483021 110.356954 
L 764.075307 110.664078 
L 772.667594 106.9788 
L 781.259881 100.836693 
L 789.852168 91.316432 
L 798.444455 106.9788 
L 807.036742 104.21487 
L 815.629028 113.120906 
L 824.221315 109.742752 
L 832.813602 112.813806 
L 841.405889 126.633546 
L 849.998176 125.405144 
L 858.590462 118.341711 
L 867.182749 112.199581 
L 875.775036 112.506705 
L 884.367323 86.402727 
L 892.95961 98.072763 
L 901.551897 103.293545 
L 910.144183 110.049853 
L 918.73647 112.813806 
L 927.328757 112.199581 
L 935.921044 91.316432 
L 944.513331 131.240127 
L 953.105617 137.689334 
L 961.697904 131.854351 
L 970.290191 154.887252 
L 978.882478 140.453287 
L 987.474765 123.562493 
L 996.067052 114.042232 
L 1004.659338 142.295938 
L 1013.251625 196.346462 
L 1021.843912 144.138542 
" clip-path="url(#pf90409a027)" style="fill: none; stroke: #ff7f0e; stroke-width: 2.25; stroke-linecap: round"/>
   </g>
   <g id="patch_9">
    <path d="M 588.792656 293.1 
L 588.792656 76.56 
" style="fill: none; stroke: #262626; stroke-width: 1.875; stroke-linejoin: miter; stroke-linecap: square"/>
   </g>
   <g id="patch_10">
    <path d="M 1042.4654 293.1 
L 1042.4654 76.56 
" style="fill: none; stroke: #262626; stroke-width: 1.875; stroke-linejoin: miter; stroke-linecap: square"/>
   </g>
   <g id="patch_11">
    <path d="M 588.792656 293.1 
L 1042.4654 293.1 
" style="fill: none; stroke: #262626; stroke-width: 1.875; stroke-linejoin: miter; stroke-linecap: square"/>
   </g>
   <g id="patch_12">
    <path d="M 588.792656 76.56 
L 1042.4654 76.56 
" style="fill: none; stroke: #262626; stroke-width: 1.875; stroke-linejoin: miter; stroke-linecap: square"/>
   </g>
   <g id="text_27">
    <!-- 2020 Weekly Humidity. MAE = 0.05 -->
    <g style="fill: #262626" transform="translate(674.644028 70.56) scale(0.18 -0.18)">
     <use xlink:href="#ArialMT-32"/>
     <use xlink:href="#ArialMT-30" x="55.615234"/>
     <use xlink:href="#ArialMT-32" x="111.230469"/>
     <use xlink:href="#ArialMT-30" x="166.845703"/>
     <use xlink:href="#ArialMT-20" x="222.460938"/>
     <use xlink:href="#ArialMT-57" x="250.244141"/>
     <use xlink:href="#ArialMT-65" x="342.878906"/>
     <use xlink:href="#ArialMT-65" x="398.494141"/>
     <use xlink:href="#ArialMT-6b" x="454.109375"/>
     <use xlink:href="#ArialMT-6c" x="504.109375"/>
     <use xlink:href="#ArialMT-79" x="526.326172"/>
     <use xlink:href="#ArialMT-20" x="576.326172"/>
     <use xlink:href="#ArialMT-48" x="604.109375"/>
     <use xlink:href="#ArialMT-75" x="676.326172"/>
     <use xlink:href="#ArialMT-6d" x="731.941406"/>
     <use xlink:href="#ArialMT-69" x="815.242188"/>
     <use xlink:href="#ArialMT-64" x="837.458984"/>
     <use xlink:href="#ArialMT-69" x="893.074219"/>
     <use xlink:href="#ArialMT-74" x="915.291016"/>
     <use xlink:href="#ArialMT-79" x="943.074219"/>
     <use xlink:href="#ArialMT-2e" x="985.699219"/>
     <use xlink:href="#ArialMT-20" x="1013.482422"/>
     <use xlink:href="#ArialMT-4d" x="1041.265625"/>
     <use xlink:href="#ArialMT-41" x="1124.566406"/>
     <use xlink:href="#ArialMT-45" x="1191.265625"/>
     <use xlink:href="#ArialMT-20" x="1257.964844"/>
     <use xlink:href="#ArialMT-3d" x="1285.748047"/>
     <use xlink:href="#ArialMT-20" x="1344.146484"/>
     <use xlink:href="#ArialMT-30" x="1371.929688"/>
     <use xlink:href="#ArialMT-2e" x="1427.544922"/>
     <use xlink:href="#ArialMT-30" x="1455.328125"/>
     <use xlink:href="#ArialMT-35" x="1510.943359"/>
    </g>
   </g>
   <g id="legend_2">
    <g id="patch_13">
     <path d="M 927.669229 284.85 
L 1030.9154 284.85 
Q 1034.2154 284.85 1034.2154 281.55 
L 1034.2154 236.13375 
Q 1034.2154 232.83375 1030.9154 232.83375 
L 927.669229 232.83375 
Q 924.369229 232.83375 924.369229 236.13375 
L 924.369229 281.55 
Q 924.369229 284.85 927.669229 284.85 
z
" style="fill: #ffffff; opacity: 0.8; stroke: #cccccc; stroke-width: 1.5; stroke-linejoin: miter"/>
    </g>
    <g id="line2d_7">
     <path d="M 930.969229 245.469141 
L 947.469229 245.469141 
L 963.969229 245.469141 
" style="fill: none; stroke: #1f77b4; stroke-width: 2.25; stroke-linecap: round"/>
    </g>
    <g id="text_28">
     <!-- pred_y -->
     <g style="fill: #262626" transform="translate(977.169229 251.244141) scale(0.165 -0.165)">
      <use xlink:href="#ArialMT-70"/>
      <use xlink:href="#ArialMT-72" x="55.615234"/>
      <use xlink:href="#ArialMT-65" x="88.916016"/>
      <use xlink:href="#ArialMT-64" x="144.53125"/>
      <use xlink:href="#ArialMT-5f" x="200.146484"/>
      <use xlink:href="#ArialMT-79" x="255.761719"/>
     </g>
    </g>
    <g id="line2d_8">
     <path d="M 930.969229 269.002266 
L 947.469229 269.002266 
L 963.969229 269.002266 
" style="fill: none; stroke: #ff7f0e; stroke-width: 2.25; stroke-linecap: round"/>
    </g>
    <g id="text_29">
     <!-- true_y -->
     <g style="fill: #262626" transform="translate(977.169229 274.777266) scale(0.165 -0.165)">
      <use xlink:href="#ArialMT-74"/>
      <use xlink:href="#ArialMT-72" x="27.783203"/>
      <use xlink:href="#ArialMT-75" x="61.083984"/>
      <use xlink:href="#ArialMT-65" x="116.699219"/>
      <use xlink:href="#ArialMT-5f" x="172.314453"/>
      <use xlink:href="#ArialMT-79" x="227.929688"/>
     </g>
    </g>
   </g>
  </g>
  <g id="text_30">
   <!-- 2020 Predictions for Ondo state -->
   <g style="fill: #262626" transform="translate(387.022969 21.515625) scale(0.2 -0.2)">
    <defs>
     <path id="ArialMT-50" d="M 494 0 
L 494 4581 
L 2222 4581 
Q 2678 4581 2919 4538 
Q 3256 4481 3484 4323 
Q 3713 4166 3852 3881 
Q 3991 3597 3991 3256 
Q 3991 2672 3619 2267 
Q 3247 1863 2275 1863 
L 1100 1863 
L 1100 0 
L 494 0 
z
M 1100 2403 
L 2284 2403 
Q 2872 2403 3119 2622 
Q 3366 2841 3366 3238 
Q 3366 3525 3220 3729 
Q 3075 3934 2838 4000 
Q 2684 4041 2272 4041 
L 1100 4041 
L 1100 2403 
z
" transform="scale(0.015625)"/>
     <path id="ArialMT-4f" d="M 309 2231 
Q 309 3372 921 4017 
Q 1534 4663 2503 4663 
Q 3138 4663 3647 4359 
Q 4156 4056 4423 3514 
Q 4691 2972 4691 2284 
Q 4691 1588 4409 1038 
Q 4128 488 3612 205 
Q 3097 -78 2500 -78 
Q 1853 -78 1343 234 
Q 834 547 571 1087 
Q 309 1628 309 2231 
z
M 934 2222 
Q 934 1394 1379 917 
Q 1825 441 2497 441 
Q 3181 441 3623 922 
Q 4066 1403 4066 2288 
Q 4066 2847 3877 3264 
Q 3688 3681 3323 3911 
Q 2959 4141 2506 4141 
Q 1863 4141 1398 3698 
Q 934 3256 934 2222 
z
" transform="scale(0.015625)"/>
    </defs>
    <use xlink:href="#ArialMT-32"/>
    <use xlink:href="#ArialMT-30" x="55.615234"/>
    <use xlink:href="#ArialMT-32" x="111.230469"/>
    <use xlink:href="#ArialMT-30" x="166.845703"/>
    <use xlink:href="#ArialMT-20" x="222.460938"/>
    <use xlink:href="#ArialMT-50" x="250.244141"/>
    <use xlink:href="#ArialMT-72" x="316.943359"/>
    <use xlink:href="#ArialMT-65" x="350.244141"/>
    <use xlink:href="#ArialMT-64" x="405.859375"/>
    <use xlink:href="#ArialMT-69" x="461.474609"/>
    <use xlink:href="#ArialMT-63" x="483.691406"/>
    <use xlink:href="#ArialMT-74" x="533.691406"/>
    <use xlink:href="#ArialMT-69" x="561.474609"/>
    <use xlink:href="#ArialMT-6f" x="583.691406"/>
    <use xlink:href="#ArialMT-6e" x="639.306641"/>
    <use xlink:href="#ArialMT-73" x="694.921875"/>
    <use xlink:href="#ArialMT-20" x="744.921875"/>
    <use xlink:href="#ArialMT-66" x="772.705078"/>
    <use xlink:href="#ArialMT-6f" x="800.488281"/>
    <use xlink:href="#ArialMT-72" x="856.103516"/>
    <use xlink:href="#ArialMT-20" x="889.404297"/>
    <use xlink:href="#ArialMT-4f" x="917.1875"/>
    <use xlink:href="#ArialMT-6e" x="994.970703"/>
    <use xlink:href="#ArialMT-64" x="1050.585938"/>
    <use xlink:href="#ArialMT-6f" x="1106.201172"/>
    <use xlink:href="#ArialMT-20" x="1161.816406"/>
    <use xlink:href="#ArialMT-73" x="1189.599609"/>
    <use xlink:href="#ArialMT-74" x="1239.599609"/>
    <use xlink:href="#ArialMT-61" x="1267.382812"/>
    <use xlink:href="#ArialMT-74" x="1322.998047"/>
    <use xlink:href="#ArialMT-65" x="1350.78125"/>
   </g>
  </g>
 </g>
 <defs>
  <clipPath id="pf1c2a960b0">
   <rect x="58.512656" y="76.56" width="453.672744" height="216.54"/>
  </clipPath>
  <clipPath id="pf90409a027">
   <rect x="588.792656" y="76.56" width="453.672744" height="216.54"/>
  </clipPath>
 </defs>
</svg>
