<?xml version="1.0" encoding="utf-8" standalone="no"?>
<!DOCTYPE svg PUBLIC "-//W3C//DTD SVG 1.1//EN"
  "http://www.w3.org/Graphics/SVG/1.1/DTD/svg11.dtd">
<svg xmlns:xlink="http://www.w3.org/1999/xlink" width="1055.412656pt" height="1406.751328pt" viewBox="0 0 1055.412656 1406.751328" xmlns="http://www.w3.org/2000/svg" version="1.1">
 <metadata>
  <rdf:RDF xmlns:dc="http://purl.org/dc/elements/1.1/" xmlns:cc="http://creativecommons.org/ns#" xmlns:rdf="http://www.w3.org/1999/02/22-rdf-syntax-ns#">
   <cc:Work>
    <dc:type rdf:resource="http://purl.org/dc/dcmitype/StillImage"/>
    <dc:date>2024-12-19T17:41:06.591541</dc:date>
    <dc:format>image/svg+xml</dc:format>
    <dc:creator>
     <cc:Agent>
      <dc:title>Matplotlib v3.9.2, https://matplotlib.org/</dc:title>
     </cc:Agent>
    </dc:creator>
   </cc:Work>
  </rdf:RDF>
 </metadata>
 <defs>
  <style type="text/css">*{stroke-linejoin: round; stroke-linecap: butt}</style>
 </defs>
 <g id="figure_1">
  <g id="patch_1">
   <path d="M 0 1406.751328 
L 1055.412656 1406.751328 
L 1055.412656 0 
L 0 0 
z
" style="fill: #ffffff"/>
  </g>
  <g id="axes_1">
   <g id="patch_2">
    <path d="M 58.512656 660.3 
L 1048.212656 660.3 
L 1048.212656 54.96 
L 58.512656 54.96 
z
" style="fill: #ffffff"/>
   </g>
   <g id="matplotlib.axis_1">
    <g id="xtick_1">
     <g id="text_1">
      <!-- 0 -->
      <g style="fill: #262626" transform="translate(98.911246 684.610391) scale(0.165 -0.165)">
       <defs>
        <path id="ArialMT-30" d="M 266 2259 
Q 266 3072 433 3567 
Q 600 4063 929 4331 
Q 1259 4600 1759 4600 
Q 2128 4600 2406 4451 
Q 2684 4303 2865 4023 
Q 3047 3744 3150 3342 
Q 3253 2941 3253 2259 
Q 3253 1453 3087 958 
Q 2922 463 2592 192 
Q 2263 -78 1759 -78 
Q 1097 -78 719 397 
Q 266 969 266 2259 
z
M 844 2259 
Q 844 1131 1108 757 
Q 1372 384 1759 384 
Q 2147 384 2411 759 
Q 2675 1134 2675 2259 
Q 2675 3391 2411 3762 
Q 2147 4134 1753 4134 
Q 1366 4134 1134 3806 
Q 844 3388 844 2259 
z
" transform="scale(0.015625)"/>
       </defs>
       <use xlink:href="#ArialMT-30"/>
      </g>
     </g>
    </g>
    <g id="xtick_2">
     <g id="text_2">
      <!-- 10 -->
      <g style="fill: #262626" transform="translate(285.754808 684.610391) scale(0.165 -0.165)">
       <defs>
        <path id="ArialMT-31" d="M 2384 0 
L 1822 0 
L 1822 3584 
Q 1619 3391 1289 3197 
Q 959 3003 697 2906 
L 697 3450 
Q 1169 3672 1522 3987 
Q 1875 4303 2022 4600 
L 2384 4600 
L 2384 0 
z
" transform="scale(0.015625)"/>
       </defs>
       <use xlink:href="#ArialMT-31"/>
       <use xlink:href="#ArialMT-30" x="55.615234"/>
      </g>
     </g>
    </g>
    <g id="xtick_3">
     <g id="text_3">
      <!-- 20 -->
      <g style="fill: #262626" transform="translate(477.186142 684.610391) scale(0.165 -0.165)">
       <defs>
        <path id="ArialMT-32" d="M 3222 541 
L 3222 0 
L 194 0 
Q 188 203 259 391 
Q 375 700 629 1000 
Q 884 1300 1366 1694 
Q 2113 2306 2375 2664 
Q 2638 3022 2638 3341 
Q 2638 3675 2398 3904 
Q 2159 4134 1775 4134 
Q 1369 4134 1125 3890 
Q 881 3647 878 3216 
L 300 3275 
Q 359 3922 746 4261 
Q 1134 4600 1788 4600 
Q 2447 4600 2831 4234 
Q 3216 3869 3216 3328 
Q 3216 3053 3103 2787 
Q 2991 2522 2730 2228 
Q 2469 1934 1863 1422 
Q 1356 997 1212 845 
Q 1069 694 975 541 
L 3222 541 
z
" transform="scale(0.015625)"/>
       </defs>
       <use xlink:href="#ArialMT-32"/>
       <use xlink:href="#ArialMT-30" x="55.615234"/>
      </g>
     </g>
    </g>
    <g id="xtick_4">
     <g id="text_4">
      <!-- 30 -->
      <g style="fill: #262626" transform="translate(668.617477 684.610391) scale(0.165 -0.165)">
       <defs>
        <path id="ArialMT-33" d="M 269 1209 
L 831 1284 
Q 928 806 1161 595 
Q 1394 384 1728 384 
Q 2125 384 2398 659 
Q 2672 934 2672 1341 
Q 2672 1728 2419 1979 
Q 2166 2231 1775 2231 
Q 1616 2231 1378 2169 
L 1441 2663 
Q 1497 2656 1531 2656 
Q 1891 2656 2178 2843 
Q 2466 3031 2466 3422 
Q 2466 3731 2256 3934 
Q 2047 4138 1716 4138 
Q 1388 4138 1169 3931 
Q 950 3725 888 3313 
L 325 3413 
Q 428 3978 793 4289 
Q 1159 4600 1703 4600 
Q 2078 4600 2393 4439 
Q 2709 4278 2876 4000 
Q 3044 3722 3044 3409 
Q 3044 3113 2884 2869 
Q 2725 2625 2413 2481 
Q 2819 2388 3044 2092 
Q 3269 1797 3269 1353 
Q 3269 753 2831 336 
Q 2394 -81 1725 -81 
Q 1122 -81 723 278 
Q 325 638 269 1209 
z
" transform="scale(0.015625)"/>
       </defs>
       <use xlink:href="#ArialMT-33"/>
       <use xlink:href="#ArialMT-30" x="55.615234"/>
      </g>
     </g>
    </g>
    <g id="xtick_5">
     <g id="text_5">
      <!-- 40 -->
      <g style="fill: #262626" transform="translate(860.048812 684.610391) scale(0.165 -0.165)">
       <defs>
        <path id="ArialMT-34" d="M 2069 0 
L 2069 1097 
L 81 1097 
L 81 1613 
L 2172 4581 
L 2631 4581 
L 2631 1613 
L 3250 1613 
L 3250 1097 
L 2631 1097 
L 2631 0 
L 2069 0 
z
M 2069 1613 
L 2069 3678 
L 634 1613 
L 2069 1613 
z
" transform="scale(0.015625)"/>
       </defs>
       <use xlink:href="#ArialMT-34"/>
       <use xlink:href="#ArialMT-30" x="55.615234"/>
      </g>
     </g>
    </g>
    <g id="text_6">
     <!-- Week Index -->
     <g style="fill: #262626" transform="translate(506.000156 704.773828) scale(0.18 -0.18)">
      <defs>
       <path id="ArialMT-57" d="M 1294 0 
L 78 4581 
L 700 4581 
L 1397 1578 
Q 1509 1106 1591 641 
Q 1766 1375 1797 1488 
L 2669 4581 
L 3400 4581 
L 4056 2263 
Q 4303 1400 4413 641 
Q 4500 1075 4641 1638 
L 5359 4581 
L 5969 4581 
L 4713 0 
L 4128 0 
L 3163 3491 
Q 3041 3928 3019 4028 
Q 2947 3713 2884 3491 
L 1913 0 
L 1294 0 
z
" transform="scale(0.015625)"/>
       <path id="ArialMT-65" d="M 2694 1069 
L 3275 997 
Q 3138 488 2766 206 
Q 2394 -75 1816 -75 
Q 1088 -75 661 373 
Q 234 822 234 1631 
Q 234 2469 665 2931 
Q 1097 3394 1784 3394 
Q 2450 3394 2872 2941 
Q 3294 2488 3294 1666 
Q 3294 1616 3291 1516 
L 816 1516 
Q 847 969 1125 678 
Q 1403 388 1819 388 
Q 2128 388 2347 550 
Q 2566 713 2694 1069 
z
M 847 1978 
L 2700 1978 
Q 2663 2397 2488 2606 
Q 2219 2931 1791 2931 
Q 1403 2931 1139 2672 
Q 875 2413 847 1978 
z
" transform="scale(0.015625)"/>
       <path id="ArialMT-6b" d="M 425 0 
L 425 4581 
L 988 4581 
L 988 1969 
L 2319 3319 
L 3047 3319 
L 1778 2088 
L 3175 0 
L 2481 0 
L 1384 1697 
L 988 1316 
L 988 0 
L 425 0 
z
" transform="scale(0.015625)"/>
       <path id="ArialMT-20" transform="scale(0.015625)"/>
       <path id="ArialMT-49" d="M 597 0 
L 597 4581 
L 1203 4581 
L 1203 0 
L 597 0 
z
" transform="scale(0.015625)"/>
       <path id="ArialMT-6e" d="M 422 0 
L 422 3319 
L 928 3319 
L 928 2847 
Q 1294 3394 1984 3394 
Q 2284 3394 2536 3286 
Q 2788 3178 2913 3003 
Q 3038 2828 3088 2588 
Q 3119 2431 3119 2041 
L 3119 0 
L 2556 0 
L 2556 2019 
Q 2556 2363 2490 2533 
Q 2425 2703 2258 2804 
Q 2091 2906 1866 2906 
Q 1506 2906 1245 2678 
Q 984 2450 984 1813 
L 984 0 
L 422 0 
z
" transform="scale(0.015625)"/>
       <path id="ArialMT-64" d="M 2575 0 
L 2575 419 
Q 2259 -75 1647 -75 
Q 1250 -75 917 144 
Q 584 363 401 755 
Q 219 1147 219 1656 
Q 219 2153 384 2558 
Q 550 2963 881 3178 
Q 1213 3394 1622 3394 
Q 1922 3394 2156 3267 
Q 2391 3141 2538 2938 
L 2538 4581 
L 3097 4581 
L 3097 0 
L 2575 0 
z
M 797 1656 
Q 797 1019 1065 703 
Q 1334 388 1700 388 
Q 2069 388 2326 689 
Q 2584 991 2584 1609 
Q 2584 2291 2321 2609 
Q 2059 2928 1675 2928 
Q 1300 2928 1048 2622 
Q 797 2316 797 1656 
z
" transform="scale(0.015625)"/>
       <path id="ArialMT-78" d="M 47 0 
L 1259 1725 
L 138 3319 
L 841 3319 
L 1350 2541 
Q 1494 2319 1581 2169 
Q 1719 2375 1834 2534 
L 2394 3319 
L 3066 3319 
L 1919 1756 
L 3153 0 
L 2463 0 
L 1781 1031 
L 1600 1309 
L 728 0 
L 47 0 
z
" transform="scale(0.015625)"/>
      </defs>
      <use xlink:href="#ArialMT-57"/>
      <use xlink:href="#ArialMT-65" x="92.634766"/>
      <use xlink:href="#ArialMT-65" x="148.25"/>
      <use xlink:href="#ArialMT-6b" x="203.865234"/>
      <use xlink:href="#ArialMT-20" x="253.865234"/>
      <use xlink:href="#ArialMT-49" x="281.648438"/>
      <use xlink:href="#ArialMT-6e" x="309.431641"/>
      <use xlink:href="#ArialMT-64" x="365.046875"/>
      <use xlink:href="#ArialMT-65" x="420.662109"/>
      <use xlink:href="#ArialMT-78" x="476.277344"/>
     </g>
    </g>
   </g>
   <g id="matplotlib.axis_2">
    <g id="ytick_1">
     <g id="text_7">
      <!-- 0 -->
      <g style="fill: #262626" transform="translate(36.837109 656.615897) scale(0.165 -0.165)">
       <use xlink:href="#ArialMT-30"/>
      </g>
     </g>
    </g>
    <g id="ytick_2">
     <g id="text_8">
      <!-- 5 -->
      <g style="fill: #262626" transform="translate(36.837109 571.380265) scale(0.165 -0.165)">
       <defs>
        <path id="ArialMT-35" d="M 266 1200 
L 856 1250 
Q 922 819 1161 601 
Q 1400 384 1738 384 
Q 2144 384 2425 690 
Q 2706 997 2706 1503 
Q 2706 1984 2436 2262 
Q 2166 2541 1728 2541 
Q 1456 2541 1237 2417 
Q 1019 2294 894 2097 
L 366 2166 
L 809 4519 
L 3088 4519 
L 3088 3981 
L 1259 3981 
L 1013 2750 
Q 1425 3038 1878 3038 
Q 2478 3038 2890 2622 
Q 3303 2206 3303 1553 
Q 3303 931 2941 478 
Q 2500 -78 1738 -78 
Q 1113 -78 717 272 
Q 322 622 266 1200 
z
" transform="scale(0.015625)"/>
       </defs>
       <use xlink:href="#ArialMT-35"/>
      </g>
     </g>
    </g>
    <g id="ytick_3">
     <g id="text_9">
      <!-- 10 -->
      <g style="fill: #262626" transform="translate(27.661563 486.144634) scale(0.165 -0.165)">
       <use xlink:href="#ArialMT-31"/>
       <use xlink:href="#ArialMT-30" x="55.615234"/>
      </g>
     </g>
    </g>
    <g id="ytick_4">
     <g id="text_10">
      <!-- 15 -->
      <g style="fill: #262626" transform="translate(27.661563 400.909002) scale(0.165 -0.165)">
       <use xlink:href="#ArialMT-31"/>
       <use xlink:href="#ArialMT-35" x="55.615234"/>
      </g>
     </g>
    </g>
    <g id="ytick_5">
     <g id="text_11">
      <!-- 20 -->
      <g style="fill: #262626" transform="translate(27.661563 315.67337) scale(0.165 -0.165)">
       <use xlink:href="#ArialMT-32"/>
       <use xlink:href="#ArialMT-30" x="55.615234"/>
      </g>
     </g>
    </g>
    <g id="ytick_6">
     <g id="text_12">
      <!-- 25 -->
      <g style="fill: #262626" transform="translate(27.661563 230.437738) scale(0.165 -0.165)">
       <use xlink:href="#ArialMT-32"/>
       <use xlink:href="#ArialMT-35" x="55.615234"/>
      </g>
     </g>
    </g>
    <g id="ytick_7">
     <g id="text_13">
      <!-- 30 -->
      <g style="fill: #262626" transform="translate(27.661563 145.202107) scale(0.165 -0.165)">
       <use xlink:href="#ArialMT-33"/>
       <use xlink:href="#ArialMT-30" x="55.615234"/>
      </g>
     </g>
    </g>
    <g id="text_14">
     <!-- Cases -->
     <g style="fill: #262626" transform="translate(20.084063 383.139375) rotate(-90) scale(0.18 -0.18)">
      <defs>
       <path id="ArialMT-43" d="M 3763 1606 
L 4369 1453 
Q 4178 706 3683 314 
Q 3188 -78 2472 -78 
Q 1731 -78 1267 223 
Q 803 525 561 1097 
Q 319 1669 319 2325 
Q 319 3041 592 3573 
Q 866 4106 1370 4382 
Q 1875 4659 2481 4659 
Q 3169 4659 3637 4309 
Q 4106 3959 4291 3325 
L 3694 3184 
Q 3534 3684 3231 3912 
Q 2928 4141 2469 4141 
Q 1941 4141 1586 3887 
Q 1231 3634 1087 3207 
Q 944 2781 944 2328 
Q 944 1744 1114 1308 
Q 1284 872 1643 656 
Q 2003 441 2422 441 
Q 2931 441 3284 734 
Q 3638 1028 3763 1606 
z
" transform="scale(0.015625)"/>
       <path id="ArialMT-61" d="M 2588 409 
Q 2275 144 1986 34 
Q 1697 -75 1366 -75 
Q 819 -75 525 192 
Q 231 459 231 875 
Q 231 1119 342 1320 
Q 453 1522 633 1644 
Q 813 1766 1038 1828 
Q 1203 1872 1538 1913 
Q 2219 1994 2541 2106 
Q 2544 2222 2544 2253 
Q 2544 2597 2384 2738 
Q 2169 2928 1744 2928 
Q 1347 2928 1158 2789 
Q 969 2650 878 2297 
L 328 2372 
Q 403 2725 575 2942 
Q 747 3159 1072 3276 
Q 1397 3394 1825 3394 
Q 2250 3394 2515 3294 
Q 2781 3194 2906 3042 
Q 3031 2891 3081 2659 
Q 3109 2516 3109 2141 
L 3109 1391 
Q 3109 606 3145 398 
Q 3181 191 3288 0 
L 2700 0 
Q 2613 175 2588 409 
z
M 2541 1666 
Q 2234 1541 1622 1453 
Q 1275 1403 1131 1340 
Q 988 1278 909 1158 
Q 831 1038 831 891 
Q 831 666 1001 516 
Q 1172 366 1500 366 
Q 1825 366 2078 508 
Q 2331 650 2450 897 
Q 2541 1088 2541 1459 
L 2541 1666 
z
" transform="scale(0.015625)"/>
       <path id="ArialMT-73" d="M 197 991 
L 753 1078 
Q 800 744 1014 566 
Q 1228 388 1613 388 
Q 2000 388 2187 545 
Q 2375 703 2375 916 
Q 2375 1106 2209 1216 
Q 2094 1291 1634 1406 
Q 1016 1563 777 1677 
Q 538 1791 414 1992 
Q 291 2194 291 2438 
Q 291 2659 392 2848 
Q 494 3038 669 3163 
Q 800 3259 1026 3326 
Q 1253 3394 1513 3394 
Q 1903 3394 2198 3281 
Q 2494 3169 2634 2976 
Q 2775 2784 2828 2463 
L 2278 2388 
Q 2241 2644 2061 2787 
Q 1881 2931 1553 2931 
Q 1166 2931 1000 2803 
Q 834 2675 834 2503 
Q 834 2394 903 2306 
Q 972 2216 1119 2156 
Q 1203 2125 1616 2013 
Q 2213 1853 2448 1751 
Q 2684 1650 2818 1456 
Q 2953 1263 2953 975 
Q 2953 694 2789 445 
Q 2625 197 2315 61 
Q 2006 -75 1616 -75 
Q 969 -75 630 194 
Q 291 463 197 991 
z
" transform="scale(0.015625)"/>
      </defs>
      <use xlink:href="#ArialMT-43"/>
      <use xlink:href="#ArialMT-61" x="72.216797"/>
      <use xlink:href="#ArialMT-73" x="127.832031"/>
      <use xlink:href="#ArialMT-65" x="177.832031"/>
      <use xlink:href="#ArialMT-73" x="233.447266"/>
     </g>
    </g>
   </g>
   <g id="line2d_1">
    <path d="M 103.49902 82.475455 
L 122.642153 178.360988 
L 141.785287 242.265504 
L 160.92842 403.271787 
L 180.071554 229.287282 
L 199.214687 492.712641 
L 218.357821 450.731774 
L 237.500954 449.458412 
L 256.644088 447.145536 
L 275.787221 522.689169 
L 294.930355 570.20487 
L 314.073488 575.481918 
L 333.216621 533.879955 
L 352.359755 570.856052 
L 371.502888 557.260056 
L 390.646022 605.555556 
L 409.789155 610.614808 
L 428.932289 568.529129 
L 448.075422 625.458088 
L 467.218556 574.12136 
L 486.361689 625.680144 
L 505.504823 628.129109 
L 524.647956 621.784496 
L 543.79109 632.784545 
L 562.934223 621.123195 
L 582.077356 619.189098 
L 601.22049 610.258933 
L 620.363623 596.341675 
L 639.506757 621.24766 
L 658.64989 608.431954 
L 677.793024 612.103064 
L 696.936157 609.814224 
L 716.079291 591.325411 
L 735.222424 615.944034 
L 754.365558 603.933847 
L 773.508691 614.271042 
L 792.651825 586.225873 
L 811.794958 588.223994 
L 830.938091 600.575518 
L 850.081225 620.712076 
L 869.224358 619.806985 
L 888.367492 629.88293 
L 907.510625 597.739137 
L 926.653759 527.629982 
L 945.796892 597.01337 
L 964.940026 557.188719 
L 984.083159 575.307427 
L 1003.226293 315.067992 
" clip-path="url(#pf658a51070)" style="fill: none; stroke: #1f77b4; stroke-width: 2.25; stroke-linecap: round"/>
   </g>
   <g id="patch_3">
    <path d="M 58.512656 660.3 
L 58.512656 54.96 
" style="fill: none; stroke: #262626; stroke-width: 1.875; stroke-linejoin: miter; stroke-linecap: square"/>
   </g>
   <g id="patch_4">
    <path d="M 1048.212656 660.3 
L 1048.212656 54.96 
" style="fill: none; stroke: #262626; stroke-width: 1.875; stroke-linejoin: miter; stroke-linecap: square"/>
   </g>
   <g id="patch_5">
    <path d="M 58.512656 660.3 
L 1048.212656 660.3 
" style="fill: none; stroke: #262626; stroke-width: 1.875; stroke-linejoin: miter; stroke-linecap: square"/>
   </g>
   <g id="patch_6">
    <path d="M 58.512656 54.96 
L 1048.212656 54.96 
" style="fill: none; stroke: #262626; stroke-width: 1.875; stroke-linejoin: miter; stroke-linecap: square"/>
   </g>
   <g id="text_15">
    <!-- Year 2024 Cases -->
    <g style="fill: #262626" transform="translate(484.644844 48.96) scale(0.18 -0.18)">
     <defs>
      <path id="ArialMT-59" d="M 1784 0 
L 1784 1941 
L 19 4581 
L 756 4581 
L 1659 3200 
Q 1909 2813 2125 2425 
Q 2331 2784 2625 3234 
L 3513 4581 
L 4219 4581 
L 2391 1941 
L 2391 0 
L 1784 0 
z
" transform="scale(0.015625)"/>
      <path id="ArialMT-72" d="M 416 0 
L 416 3319 
L 922 3319 
L 922 2816 
Q 1116 3169 1280 3281 
Q 1444 3394 1641 3394 
Q 1925 3394 2219 3213 
L 2025 2691 
Q 1819 2813 1613 2813 
Q 1428 2813 1281 2702 
Q 1134 2591 1072 2394 
Q 978 2094 978 1738 
L 978 0 
L 416 0 
z
" transform="scale(0.015625)"/>
     </defs>
     <use xlink:href="#ArialMT-59"/>
     <use xlink:href="#ArialMT-65" x="57.574219"/>
     <use xlink:href="#ArialMT-61" x="113.189453"/>
     <use xlink:href="#ArialMT-72" x="168.804688"/>
     <use xlink:href="#ArialMT-20" x="202.105469"/>
     <use xlink:href="#ArialMT-32" x="229.888672"/>
     <use xlink:href="#ArialMT-30" x="285.503906"/>
     <use xlink:href="#ArialMT-32" x="341.119141"/>
     <use xlink:href="#ArialMT-34" x="396.734375"/>
     <use xlink:href="#ArialMT-20" x="452.349609"/>
     <use xlink:href="#ArialMT-43" x="480.132812"/>
     <use xlink:href="#ArialMT-61" x="552.349609"/>
     <use xlink:href="#ArialMT-73" x="607.964844"/>
     <use xlink:href="#ArialMT-65" x="657.964844"/>
     <use xlink:href="#ArialMT-73" x="713.580078"/>
    </g>
   </g>
   <g id="legend_1">
    <g id="patch_7">
     <path d="M 937.095469 91.499766 
L 1036.662656 91.499766 
Q 1039.962656 91.499766 1039.962656 88.199766 
L 1039.962656 66.51 
Q 1039.962656 63.21 1036.662656 63.21 
L 937.095469 63.21 
Q 933.795469 63.21 933.795469 66.51 
L 933.795469 88.199766 
Q 933.795469 91.499766 937.095469 91.499766 
z
" style="fill: #ffffff; opacity: 0.8; stroke: #cccccc; stroke-width: 1.5; stroke-linejoin: miter"/>
    </g>
    <g id="line2d_2">
     <path d="M 940.395469 75.845391 
L 956.895469 75.845391 
L 973.395469 75.845391 
" style="fill: none; stroke: #1f77b4; stroke-width: 2.25; stroke-linecap: round"/>
    </g>
    <g id="text_16">
     <!-- Cases -->
     <g style="fill: #262626" transform="translate(986.595469 81.620391) scale(0.165 -0.165)">
      <use xlink:href="#ArialMT-43"/>
      <use xlink:href="#ArialMT-61" x="72.216797"/>
      <use xlink:href="#ArialMT-73" x="127.832031"/>
      <use xlink:href="#ArialMT-65" x="177.832031"/>
      <use xlink:href="#ArialMT-73" x="233.447266"/>
     </g>
    </g>
   </g>
  </g>
  <g id="axes_2">
   <g id="patch_8">
    <path d="M 58.512656 1351.5 
L 1048.212656 1351.5 
L 1048.212656 746.16 
L 58.512656 746.16 
z
" style="fill: #ffffff"/>
   </g>
   <g id="matplotlib.axis_3">
    <g id="xtick_6">
     <g id="text_17">
      <!-- 0 -->
      <g style="fill: #262626" transform="translate(98.911246 1375.810391) scale(0.165 -0.165)">
       <use xlink:href="#ArialMT-30"/>
      </g>
     </g>
    </g>
    <g id="xtick_7">
     <g id="text_18">
      <!-- 10 -->
      <g style="fill: #262626" transform="translate(285.754808 1375.810391) scale(0.165 -0.165)">
       <use xlink:href="#ArialMT-31"/>
       <use xlink:href="#ArialMT-30" x="55.615234"/>
      </g>
     </g>
    </g>
    <g id="xtick_8">
     <g id="text_19">
      <!-- 20 -->
      <g style="fill: #262626" transform="translate(477.186142 1375.810391) scale(0.165 -0.165)">
       <use xlink:href="#ArialMT-32"/>
       <use xlink:href="#ArialMT-30" x="55.615234"/>
      </g>
     </g>
    </g>
    <g id="xtick_9">
     <g id="text_20">
      <!-- 30 -->
      <g style="fill: #262626" transform="translate(668.617477 1375.810391) scale(0.165 -0.165)">
       <use xlink:href="#ArialMT-33"/>
       <use xlink:href="#ArialMT-30" x="55.615234"/>
      </g>
     </g>
    </g>
    <g id="xtick_10">
     <g id="text_21">
      <!-- 40 -->
      <g style="fill: #262626" transform="translate(860.048812 1375.810391) scale(0.165 -0.165)">
       <use xlink:href="#ArialMT-34"/>
       <use xlink:href="#ArialMT-30" x="55.615234"/>
      </g>
     </g>
    </g>
    <g id="text_22">
     <!-- Week Index -->
     <g style="fill: #262626" transform="translate(506.000156 1395.973828) scale(0.18 -0.18)">
      <use xlink:href="#ArialMT-57"/>
      <use xlink:href="#ArialMT-65" x="92.634766"/>
      <use xlink:href="#ArialMT-65" x="148.25"/>
      <use xlink:href="#ArialMT-6b" x="203.865234"/>
      <use xlink:href="#ArialMT-20" x="253.865234"/>
      <use xlink:href="#ArialMT-49" x="281.648438"/>
      <use xlink:href="#ArialMT-6e" x="309.431641"/>
      <use xlink:href="#ArialMT-64" x="365.046875"/>
      <use xlink:href="#ArialMT-65" x="420.662109"/>
      <use xlink:href="#ArialMT-78" x="476.277344"/>
     </g>
    </g>
   </g>
   <g id="matplotlib.axis_4">
    <g id="ytick_8">
     <g id="text_23">
      <!-- 0 -->
      <g style="fill: #262626" transform="translate(36.837109 1351.751815) scale(0.165 -0.165)">
       <use xlink:href="#ArialMT-30"/>
      </g>
     </g>
    </g>
    <g id="ytick_9">
     <g id="text_24">
      <!-- 5 -->
      <g style="fill: #262626" transform="translate(36.837109 1252.176352) scale(0.165 -0.165)">
       <use xlink:href="#ArialMT-35"/>
      </g>
     </g>
    </g>
    <g id="ytick_10">
     <g id="text_25">
      <!-- 10 -->
      <g style="fill: #262626" transform="translate(27.661563 1152.600888) scale(0.165 -0.165)">
       <use xlink:href="#ArialMT-31"/>
       <use xlink:href="#ArialMT-30" x="55.615234"/>
      </g>
     </g>
    </g>
    <g id="ytick_11">
     <g id="text_26">
      <!-- 15 -->
      <g style="fill: #262626" transform="translate(27.661563 1053.025424) scale(0.165 -0.165)">
       <use xlink:href="#ArialMT-31"/>
       <use xlink:href="#ArialMT-35" x="55.615234"/>
      </g>
     </g>
    </g>
    <g id="ytick_12">
     <g id="text_27">
      <!-- 20 -->
      <g style="fill: #262626" transform="translate(27.661563 953.44996) scale(0.165 -0.165)">
       <use xlink:href="#ArialMT-32"/>
       <use xlink:href="#ArialMT-30" x="55.615234"/>
      </g>
     </g>
    </g>
    <g id="ytick_13">
     <g id="text_28">
      <!-- 25 -->
      <g style="fill: #262626" transform="translate(27.661563 853.874497) scale(0.165 -0.165)">
       <use xlink:href="#ArialMT-32"/>
       <use xlink:href="#ArialMT-35" x="55.615234"/>
      </g>
     </g>
    </g>
    <g id="ytick_14">
     <g id="text_29">
      <!-- 30 -->
      <g style="fill: #262626" transform="translate(27.661563 754.299033) scale(0.165 -0.165)">
       <use xlink:href="#ArialMT-33"/>
       <use xlink:href="#ArialMT-30" x="55.615234"/>
      </g>
     </g>
    </g>
    <g id="text_30">
     <!-- Cases -->
     <g style="fill: #262626" transform="translate(20.084063 1074.339375) rotate(-90) scale(0.18 -0.18)">
      <use xlink:href="#ArialMT-43"/>
      <use xlink:href="#ArialMT-61" x="72.216797"/>
      <use xlink:href="#ArialMT-73" x="127.832031"/>
      <use xlink:href="#ArialMT-65" x="177.832031"/>
      <use xlink:href="#ArialMT-73" x="233.447266"/>
     </g>
    </g>
   </g>
   <g id="line2d_3">
    <path d="M 103.49902 773.675455 
L 122.642153 785.701589 
L 141.785287 1027.450462 
L 160.92842 1079.29402 
L 180.071554 1170.980621 
L 199.214687 1194.448529 
L 218.357821 1233.003975 
L 237.500954 1241.891568 
L 256.644088 1142.509629 
L 275.787221 1227.768223 
L 294.930355 1230.34753 
L 314.073488 1292.422216 
L 333.216621 1265.491142 
L 352.359755 1251.836114 
L 371.502888 1263.339243 
L 390.646022 1304.396136 
L 409.789155 1301.14777 
L 428.932289 1242.801604 
L 448.075422 1298.449243 
L 467.218556 1299.939168 
L 486.361689 1307.728788 
L 505.504823 1264.24548 
L 524.647956 1301.57929 
L 543.79109 1323.984545 
L 562.934223 1299.313811 
L 582.077356 1300.590573 
L 601.22049 1298.313447 
L 620.363623 1281.23574 
L 639.506757 1307.362875 
L 658.64989 1281.109972 
L 677.793024 1304.193082 
L 696.936157 1277.734399 
L 716.079291 1274.120495 
L 735.222424 1292.771332 
L 754.365558 1287.541515 
L 773.508691 1297.43209 
L 792.651825 1272.950788 
L 811.794958 1285.34987 
L 830.938091 1297.82503 
L 850.081225 1270.322467 
L 869.224358 1296.512387 
L 888.367492 1305.431232 
L 907.510625 1267.998462 
L 926.653759 1167.996137 
L 945.796892 1241.09394 
L 964.940026 1254.658174 
L 984.083159 1276.25775 
L 1003.226293 1195.36845 
" clip-path="url(#pef4030d4b9)" style="fill: none; stroke: #1f77b4; stroke-width: 2.25; stroke-linecap: round"/>
   </g>
   <g id="patch_9">
    <path d="M 58.512656 1351.5 
L 58.512656 746.16 
" style="fill: none; stroke: #262626; stroke-width: 1.875; stroke-linejoin: miter; stroke-linecap: square"/>
   </g>
   <g id="patch_10">
    <path d="M 1048.212656 1351.5 
L 1048.212656 746.16 
" style="fill: none; stroke: #262626; stroke-width: 1.875; stroke-linejoin: miter; stroke-linecap: square"/>
   </g>
   <g id="patch_11">
    <path d="M 58.512656 1351.5 
L 1048.212656 1351.5 
" style="fill: none; stroke: #262626; stroke-width: 1.875; stroke-linejoin: miter; stroke-linecap: square"/>
   </g>
   <g id="patch_12">
    <path d="M 58.512656 746.16 
L 1048.212656 746.16 
" style="fill: none; stroke: #262626; stroke-width: 1.875; stroke-linejoin: miter; stroke-linecap: square"/>
   </g>
   <g id="text_31">
    <!-- Year 2025 Cases -->
    <g style="fill: #262626" transform="translate(484.644844 740.16) scale(0.18 -0.18)">
     <use xlink:href="#ArialMT-59"/>
     <use xlink:href="#ArialMT-65" x="57.574219"/>
     <use xlink:href="#ArialMT-61" x="113.189453"/>
     <use xlink:href="#ArialMT-72" x="168.804688"/>
     <use xlink:href="#ArialMT-20" x="202.105469"/>
     <use xlink:href="#ArialMT-32" x="229.888672"/>
     <use xlink:href="#ArialMT-30" x="285.503906"/>
     <use xlink:href="#ArialMT-32" x="341.119141"/>
     <use xlink:href="#ArialMT-35" x="396.734375"/>
     <use xlink:href="#ArialMT-20" x="452.349609"/>
     <use xlink:href="#ArialMT-43" x="480.132812"/>
     <use xlink:href="#ArialMT-61" x="552.349609"/>
     <use xlink:href="#ArialMT-73" x="607.964844"/>
     <use xlink:href="#ArialMT-65" x="657.964844"/>
     <use xlink:href="#ArialMT-73" x="713.580078"/>
    </g>
   </g>
   <g id="legend_2">
    <g id="patch_13">
     <path d="M 937.095469 782.699766 
L 1036.662656 782.699766 
Q 1039.962656 782.699766 1039.962656 779.399766 
L 1039.962656 757.71 
Q 1039.962656 754.41 1036.662656 754.41 
L 937.095469 754.41 
Q 933.795469 754.41 933.795469 757.71 
L 933.795469 779.399766 
Q 933.795469 782.699766 937.095469 782.699766 
z
" style="fill: #ffffff; opacity: 0.8; stroke: #cccccc; stroke-width: 1.5; stroke-linejoin: miter"/>
    </g>
    <g id="line2d_4">
     <path d="M 940.395469 767.045391 
L 956.895469 767.045391 
L 973.395469 767.045391 
" style="fill: none; stroke: #1f77b4; stroke-width: 2.25; stroke-linecap: round"/>
    </g>
    <g id="text_32">
     <!-- Cases -->
     <g style="fill: #262626" transform="translate(986.595469 772.820391) scale(0.165 -0.165)">
      <use xlink:href="#ArialMT-43"/>
      <use xlink:href="#ArialMT-61" x="72.216797"/>
      <use xlink:href="#ArialMT-73" x="127.832031"/>
      <use xlink:href="#ArialMT-65" x="177.832031"/>
      <use xlink:href="#ArialMT-73" x="233.447266"/>
     </g>
    </g>
   </g>
  </g>
  <g id="text_33">
   <!-- Future Predictions for Ondo state -->
   <g style="fill: #262626" transform="translate(380.368281 21.515625) scale(0.2 -0.2)">
    <defs>
     <path id="ArialMT-46" d="M 525 0 
L 525 4581 
L 3616 4581 
L 3616 4041 
L 1131 4041 
L 1131 2622 
L 3281 2622 
L 3281 2081 
L 1131 2081 
L 1131 0 
L 525 0 
z
" transform="scale(0.015625)"/>
     <path id="ArialMT-75" d="M 2597 0 
L 2597 488 
Q 2209 -75 1544 -75 
Q 1250 -75 995 37 
Q 741 150 617 320 
Q 494 491 444 738 
Q 409 903 409 1263 
L 409 3319 
L 972 3319 
L 972 1478 
Q 972 1038 1006 884 
Q 1059 663 1231 536 
Q 1403 409 1656 409 
Q 1909 409 2131 539 
Q 2353 669 2445 892 
Q 2538 1116 2538 1541 
L 2538 3319 
L 3100 3319 
L 3100 0 
L 2597 0 
z
" transform="scale(0.015625)"/>
     <path id="ArialMT-74" d="M 1650 503 
L 1731 6 
Q 1494 -44 1306 -44 
Q 1000 -44 831 53 
Q 663 150 594 308 
Q 525 466 525 972 
L 525 2881 
L 113 2881 
L 113 3319 
L 525 3319 
L 525 4141 
L 1084 4478 
L 1084 3319 
L 1650 3319 
L 1650 2881 
L 1084 2881 
L 1084 941 
Q 1084 700 1114 631 
Q 1144 563 1211 522 
Q 1278 481 1403 481 
Q 1497 481 1650 503 
z
" transform="scale(0.015625)"/>
     <path id="ArialMT-50" d="M 494 0 
L 494 4581 
L 2222 4581 
Q 2678 4581 2919 4538 
Q 3256 4481 3484 4323 
Q 3713 4166 3852 3881 
Q 3991 3597 3991 3256 
Q 3991 2672 3619 2267 
Q 3247 1863 2275 1863 
L 1100 1863 
L 1100 0 
L 494 0 
z
M 1100 2403 
L 2284 2403 
Q 2872 2403 3119 2622 
Q 3366 2841 3366 3238 
Q 3366 3525 3220 3729 
Q 3075 3934 2838 4000 
Q 2684 4041 2272 4041 
L 1100 4041 
L 1100 2403 
z
" transform="scale(0.015625)"/>
     <path id="ArialMT-69" d="M 425 3934 
L 425 4581 
L 988 4581 
L 988 3934 
L 425 3934 
z
M 425 0 
L 425 3319 
L 988 3319 
L 988 0 
L 425 0 
z
" transform="scale(0.015625)"/>
     <path id="ArialMT-63" d="M 2588 1216 
L 3141 1144 
Q 3050 572 2676 248 
Q 2303 -75 1759 -75 
Q 1078 -75 664 370 
Q 250 816 250 1647 
Q 250 2184 428 2587 
Q 606 2991 970 3192 
Q 1334 3394 1763 3394 
Q 2303 3394 2647 3120 
Q 2991 2847 3088 2344 
L 2541 2259 
Q 2463 2594 2264 2762 
Q 2066 2931 1784 2931 
Q 1359 2931 1093 2626 
Q 828 2322 828 1663 
Q 828 994 1084 691 
Q 1341 388 1753 388 
Q 2084 388 2306 591 
Q 2528 794 2588 1216 
z
" transform="scale(0.015625)"/>
     <path id="ArialMT-6f" d="M 213 1659 
Q 213 2581 725 3025 
Q 1153 3394 1769 3394 
Q 2453 3394 2887 2945 
Q 3322 2497 3322 1706 
Q 3322 1066 3130 698 
Q 2938 331 2570 128 
Q 2203 -75 1769 -75 
Q 1072 -75 642 372 
Q 213 819 213 1659 
z
M 791 1659 
Q 791 1022 1069 705 
Q 1347 388 1769 388 
Q 2188 388 2466 706 
Q 2744 1025 2744 1678 
Q 2744 2294 2464 2611 
Q 2184 2928 1769 2928 
Q 1347 2928 1069 2612 
Q 791 2297 791 1659 
z
" transform="scale(0.015625)"/>
     <path id="ArialMT-66" d="M 556 0 
L 556 2881 
L 59 2881 
L 59 3319 
L 556 3319 
L 556 3672 
Q 556 4006 616 4169 
Q 697 4388 901 4523 
Q 1106 4659 1475 4659 
Q 1713 4659 2000 4603 
L 1916 4113 
Q 1741 4144 1584 4144 
Q 1328 4144 1222 4034 
Q 1116 3925 1116 3625 
L 1116 3319 
L 1763 3319 
L 1763 2881 
L 1116 2881 
L 1116 0 
L 556 0 
z
" transform="scale(0.015625)"/>
     <path id="ArialMT-4f" d="M 309 2231 
Q 309 3372 921 4017 
Q 1534 4663 2503 4663 
Q 3138 4663 3647 4359 
Q 4156 4056 4423 3514 
Q 4691 2972 4691 2284 
Q 4691 1588 4409 1038 
Q 4128 488 3612 205 
Q 3097 -78 2500 -78 
Q 1853 -78 1343 234 
Q 834 547 571 1087 
Q 309 1628 309 2231 
z
M 934 2222 
Q 934 1394 1379 917 
Q 1825 441 2497 441 
Q 3181 441 3623 922 
Q 4066 1403 4066 2288 
Q 4066 2847 3877 3264 
Q 3688 3681 3323 3911 
Q 2959 4141 2506 4141 
Q 1863 4141 1398 3698 
Q 934 3256 934 2222 
z
" transform="scale(0.015625)"/>
    </defs>
    <use xlink:href="#ArialMT-46"/>
    <use xlink:href="#ArialMT-75" x="61.083984"/>
    <use xlink:href="#ArialMT-74" x="116.699219"/>
    <use xlink:href="#ArialMT-75" x="144.482422"/>
    <use xlink:href="#ArialMT-72" x="200.097656"/>
    <use xlink:href="#ArialMT-65" x="233.398438"/>
    <use xlink:href="#ArialMT-20" x="289.013672"/>
    <use xlink:href="#ArialMT-50" x="316.796875"/>
    <use xlink:href="#ArialMT-72" x="383.496094"/>
    <use xlink:href="#ArialMT-65" x="416.796875"/>
    <use xlink:href="#ArialMT-64" x="472.412109"/>
    <use xlink:href="#ArialMT-69" x="528.027344"/>
    <use xlink:href="#ArialMT-63" x="550.244141"/>
    <use xlink:href="#ArialMT-74" x="600.244141"/>
    <use xlink:href="#ArialMT-69" x="628.027344"/>
    <use xlink:href="#ArialMT-6f" x="650.244141"/>
    <use xlink:href="#ArialMT-6e" x="705.859375"/>
    <use xlink:href="#ArialMT-73" x="761.474609"/>
    <use xlink:href="#ArialMT-20" x="811.474609"/>
    <use xlink:href="#ArialMT-66" x="839.257812"/>
    <use xlink:href="#ArialMT-6f" x="867.041016"/>
    <use xlink:href="#ArialMT-72" x="922.65625"/>
    <use xlink:href="#ArialMT-20" x="955.957031"/>
    <use xlink:href="#ArialMT-4f" x="983.740234"/>
    <use xlink:href="#ArialMT-6e" x="1061.523438"/>
    <use xlink:href="#ArialMT-64" x="1117.138672"/>
    <use xlink:href="#ArialMT-6f" x="1172.753906"/>
    <use xlink:href="#ArialMT-20" x="1228.369141"/>
    <use xlink:href="#ArialMT-73" x="1256.152344"/>
    <use xlink:href="#ArialMT-74" x="1306.152344"/>
    <use xlink:href="#ArialMT-61" x="1333.935547"/>
    <use xlink:href="#ArialMT-74" x="1389.550781"/>
    <use xlink:href="#ArialMT-65" x="1417.333984"/>
   </g>
  </g>
 </g>
 <defs>
  <clipPath id="pf658a51070">
   <rect x="58.512656" y="54.96" width="989.7" height="605.34"/>
  </clipPath>
  <clipPath id="pef4030d4b9">
   <rect x="58.512656" y="746.16" width="989.7" height="605.34"/>
  </clipPath>
 </defs>
</svg>
